<svg width="145" height="101" viewBox="0 0 145 101" fill="none" xmlns="http://www.w3.org/2000/svg">
<path d="M5.125 0C3.72969 0.703006 3.21451 3.61682 2.26855 5.4375C2.10323 5.3655 1.93193 5.29368 1.7666 5.22168C1.52419 6.49554 1.67769 8.27449 0.270508 8.82129C0.701645 9.62732 -0.675476 14.781 -2.37207 13.7422C-2.72678 14.6013 -3.08768 15.4544 -3.44238 16.3135C-4.7254 20.9583 -2.96402 24.3477 -3.16504 28.5479C-1.9234 28.8904 -1.2605 29.4615 -0.852539 30.1465C-0.923462 30.3147 -0.994507 30.489 -1.06543 30.6572C-0.651611 32.3275 -0.43924 34.0881 -0.244141 35.8545C1.74838 37.3507 2.13911 34.8266 3.93652 35.8301C4.64012 43.4372 17.1512 43.6723 17.9258 50.9189C18.7117 51.1467 18.9069 49.8731 19.2852 49.0801C19.4448 48.3831 18.9367 47.6917 20.2197 48.2686C21.7689 48.1124 24.7015 48.353 24.7725 50.2217C26.7645 50.6784 26.2503 52.1626 27.8877 52.7695C28.4021 51.8442 27.7879 51.3934 28.2373 50.498L28.2363 50.4961C28.5693 49.9429 29.2629 50.289 29.9629 50.6357C30.4769 49.5996 28.2548 49.2286 27.835 49.7031C28.2403 49.2188 30.4856 49.5892 29.9697 50.6299C31.2114 51.5431 34.2562 51.6997 34.3096 53.0996C37.7858 54.6498 39.6953 56.8374 42.7695 58.5498C42.9765 56.615 44.1712 57.1679 45.4365 57.877C45.9509 57.0357 45.076 54.6978 46.7197 54.7939C47.1069 54.89 47.4388 54.8472 47.7402 54.7275L47.9492 54.6299C47.5893 54.8221 47.192 54.9199 46.708 54.7998C47.3819 55.0882 48.0556 55.3767 48.7295 55.665C49.0606 54.4094 49.6288 53.731 50.3027 53.3164C50.0458 53.3198 49.8132 53.3855 49.5957 53.4893C49.8167 53.3822 50.0527 53.313 50.3145 53.3096C51.5619 54.9258 50.6398 57.4316 52.8623 58.6455C54.8429 59.9553 59.2476 60.2682 59.0117 62.4971C60.6613 63.3744 61.5722 64.5588 63.8545 65.1777C64.4133 65.7231 66.3168 65.7089 66.25 66.5117C66.3069 65.715 64.4119 65.7277 63.8545 65.1836C63.3046 66.2652 65.5452 66.1932 66.166 66.7881C66.167 66.7862 66.168 66.7841 66.1689 66.7822C66.3382 66.8534 66.5017 66.9249 66.6709 66.9961C66.6834 66.9108 66.7194 66.8448 66.7754 66.7949C67.3116 66.2921 69.726 67.4092 69.2051 68.0859C70.7245 68.7349 72.2383 69.3892 73.7578 70.0381C73.8107 70.0452 73.8617 70.0473 73.9111 70.0459C73.8579 70.0482 73.8023 70.0468 73.7451 70.0391C71.9073 72.2434 76.6547 68.9034 79.0195 71.6973C78.9664 70.3066 75.9368 70.1408 74.6895 69.2393C74.69 69.2373 74.6909 69.2354 74.6914 69.2334C75.933 70.1407 78.978 70.3032 79.0312 71.6973C83.3533 74.8819 86.1447 78.6969 90.2598 81.9717C91.3397 81.5277 91.984 80.0006 93.6328 80.9932C93.6319 80.995 93.6308 80.9971 93.6299 80.999V81.0049C95.64 81.4915 97.4846 81.5698 99.3291 81.6299C97.8133 80.9825 96.3039 80.3281 94.7881 79.6807C94.7884 79.6794 94.7888 79.6781 94.7891 79.6768C96.3084 80.3256 97.8215 80.981 99.3408 81.6299C102.862 81.6839 103.108 84.6348 107.209 85.6162C107.35 85.5213 107.565 85.4825 107.827 85.4883C109.25 85.5125 112.112 86.8735 112.272 87.7881C115.266 88.5803 116.266 90.846 118.837 90.6123C119.682 90.9786 120.52 91.3399 121.365 91.7002L121.395 91.834C121.779 93.1816 124.851 93.4311 126.208 94.3799C126.311 93.1053 123.634 92.9691 122.483 92.208L122.377 92.1328C122.59 91.6163 123.045 91.6938 123.311 91.3213C123.312 91.3219 123.314 91.3217 123.315 91.3223C123.049 91.6937 122.596 91.6167 122.383 92.1328C123.459 92.9618 126.32 93.0583 126.214 94.3799C126.852 94.5842 127.473 94.7405 127.65 93.7852C128.058 92.6255 125.599 92.6497 124.83 91.9707H124.836C124.834 91.9698 124.832 91.9686 124.83 91.9678C124.614 90.4981 121.389 90.269 119.988 89.2842C119.653 89.1408 119.318 88.9979 118.982 88.8545V88.8525C117.978 88.5581 118.108 87.794 117.174 87.4756C116.5 87.1872 115.825 86.8988 115.151 86.6104C114.862 88.6714 112.863 86.4722 111.692 86.334C111.694 86.3307 111.695 86.3275 111.696 86.3242C112.868 86.4798 114.849 88.6473 115.14 86.6035V86.6045C115.814 86.8929 116.488 87.1813 117.162 87.4697C117.711 86.3947 115.464 86.4668 114.85 85.8721V85.8779C112.993 85.0848 111.137 84.2853 109.286 83.4922C109.216 83.6584 109.146 83.8307 109.076 83.9971H109.073C108.571 83.7808 108.062 83.564 107.56 83.3477V83.3418C107.559 83.3435 107.558 83.3459 107.558 83.3477C106.887 83.0903 106.368 82.7734 106.032 82.3818C106.37 82.7703 106.889 83.0863 107.56 83.3418C108.062 83.5581 108.571 83.7749 109.073 83.9912C109.143 83.8246 109.214 83.652 109.284 83.4854L109.286 83.4863C111.143 84.2795 112.993 85.0789 114.85 85.8721C113.809 84.0274 109.706 83.4496 107.477 82.0977V82.1045C107.456 82.177 107.449 82.2445 107.451 82.3076C107.448 82.2428 107.456 82.1733 107.477 82.0986C106.974 81.8849 106.478 81.6698 105.976 81.4561V81.4551C105.971 81.453 105.966 81.4503 105.961 81.4482C105.962 81.4466 105.962 81.445 105.963 81.4434L105.959 81.4473C105.29 81.1612 104.622 80.8759 103.953 80.5898C103.948 80.5849 103.943 80.58 103.938 80.5752C104.094 79.9446 103.37 79.6811 102.635 79.418C102.128 79.2024 101.627 78.9803 101.12 78.7646C101.036 78.9056 100.929 78.9888 100.805 79.0293C100.927 78.9879 101.033 78.904 101.115 78.7637C99.7672 78.1869 98.4193 77.6032 97.0713 77.0264H97.0654L97.0645 77.0293C96.3411 76.6216 95.1391 76.4137 95.2734 75.6572C99.7255 75.2607 104.219 74.9718 109.623 76.9727C110.486 75.6327 111.752 75.3142 112.639 74.0283L112.641 74.0264C113.135 74.2305 113.405 73.8611 113.851 73.9385C113.851 73.9365 113.853 73.9346 113.854 73.9326C114.024 74.0043 114.189 74.0767 114.359 74.1484C114.943 73.167 116.135 73.7233 116.723 72.7529C116.725 72.7516 116.728 72.7504 116.73 72.749C117.339 72.8809 117.753 72.5137 118.167 72.1533C119.221 72.3398 119.689 71.0805 121.117 72.208C121.88 70.7599 119.888 69.4254 122.188 69.6357C123.116 67.4191 125.415 68.6321 126.716 67.3408C126.887 67.4129 127.059 67.4846 127.225 67.5566C127.437 67.0461 127.893 67.1244 128.159 66.752C128.285 66.3426 128.391 65.9427 128.225 65.6562L128.17 65.5771C128.418 65.8676 128.301 66.3056 128.159 66.752C128.928 66.9199 129.206 65.868 129.814 65.6396C129.999 65.0881 130.073 64.8087 130.061 64.6943C130.076 64.8047 130.003 65.0846 129.814 65.6465C130.802 65.322 131.511 64.288 132.108 62.9961C131.098 62.5698 130.879 64.1194 129.655 63.1523L129.656 63.1514C130.88 64.1075 131.093 62.5645 132.103 62.9902L132.191 63.0137C133.073 63.1941 133.163 61.4028 133.96 61.3691C133.963 61.3709 133.967 61.3722 133.971 61.374C134.272 60.7251 134.917 60.9352 135.118 60.0459C134.346 59.8601 133.914 60.5226 133.179 60.4248L133.254 60.2852C134.05 58.8944 135.447 59.0044 136.483 58.207C136.714 57.0475 137.4 56.9991 137.844 56.3682C135.053 57.4316 132.824 59.8888 130.3 61.6133L130.299 61.6084C130.298 61.61 130.298 61.6117 130.298 61.6133C129.53 61.4409 129.252 62.4916 128.644 62.7197C127.339 62.2222 126.661 64.1195 127.07 65.0703L127.065 65.0752C126.906 65.3684 126.735 65.6497 126.349 65.373C126.349 65.3721 126.349 65.3711 126.35 65.3701C126.349 65.3705 126.348 65.3707 126.347 65.3711L126.344 65.3701L126.343 65.3721C124.642 66.0023 122.966 66.6931 121.318 67.4492C121.484 67.5212 121.655 67.593 121.82 67.665L122.493 67.7744C123.303 67.8895 124.077 67.9175 124.728 67.6348C123.898 67.998 122.864 67.8504 121.814 67.665C121.649 67.593 121.484 67.5212 121.312 67.4492C120.177 68.8129 118.179 68.0019 117.286 69.96C117.286 69.9621 117.286 69.9647 117.286 69.9668C116.696 70.5756 115.982 70.8735 115.134 70.8496C114.968 70.7775 114.802 70.7049 114.631 70.6328C114.199 71.6543 112.976 70.6936 112.763 72.2559C112.761 72.2552 112.759 72.2545 112.758 72.2539C112.977 70.6946 114.193 71.6483 114.625 70.6338C114.459 70.5617 114.288 70.4891 114.122 70.417C113.283 71.4622 111.87 71.072 111.03 72.1172H111.024C111.026 72.1181 111.028 72.1182 111.029 72.1191L111.024 72.124C110.705 72.022 110.399 71.9436 110.31 72.417C109.63 72.1051 109.106 72.1906 108.589 72.2861C108.051 73.3974 106.354 71.5834 105.343 71.499C100.14 71.3969 95.0428 71.5831 89.8457 71.499C87.6935 66.5658 82.3602 62.9485 78.4639 58.7363C77.8021 64.4023 85.9553 66.4333 86.8896 71.4443C83.9098 70.7053 82.1715 70.9337 79.5938 68.915C79.5905 68.9133 79.5872 68.9109 79.584 68.9092C80.1785 67.5038 76.7494 65.6102 75.9736 66.1445C75.6621 64.8508 73.9047 64.1604 73.0781 63.0928C73.0744 63.0922 73.0702 63.0913 73.0664 63.0908C73.3238 61.8488 70.6595 61.8122 69.7373 61.0557C67.6443 60.2144 65.5505 59.3791 64.3916 58.1533C64.3896 58.1525 64.3877 58.1512 64.3857 58.1504C64.1697 56.6839 60.959 56.4461 59.5537 55.4727C59.5546 55.4709 59.5548 55.4685 59.5557 55.4668C59.2188 55.3226 58.8818 55.1785 58.5449 55.0283C58.5413 55.0268 58.5378 55.025 58.5342 55.0234C58.9135 53.45 54.531 53.849 54.915 52.2676C54.9168 52.2683 54.9182 52.2698 54.9199 52.2705C56.2384 52.0842 57.4386 51.5913 58.5146 50.7861C57.4977 51.1688 57.1073 51.1244 57.1221 50.8506C57.1133 51.1191 57.5052 51.1601 58.5146 50.7803C58.5856 50.6061 58.6566 50.4379 58.7275 50.2637C59.0939 47.3392 61.8758 50.458 62.2451 47.541L62.2461 47.542L62.5059 47.8594C62.7523 48.1827 62.9331 48.5332 62.8311 49.002C63.5051 49.2964 64.1795 49.5846 64.8535 49.873C65.025 49.2361 65.545 48.4488 64.9893 48.1123H64.9951C64.9936 48.1109 64.9927 48.1088 64.9912 48.1074C65.1996 47.5998 64.8296 47.3234 64.9062 46.8682C65.7635 47.2707 66.3668 47.0309 66.8516 46.4902C66.7707 46.4483 66.6934 46.416 66.6191 46.3906C66.6952 46.4158 66.7745 46.4478 66.8574 46.4902C67.3658 46.7125 67.6319 46.3343 68.0811 46.4121C68.2939 45.8954 68.5069 45.3839 68.7197 44.8672C68.2117 44.6508 68.2883 44.1943 67.9219 43.918C67.921 43.9158 67.9208 43.9133 67.9199 43.9111C68.2464 43.356 68.1862 42.956 67.8389 42.6748C67.3907 42.597 67.1251 42.9667 66.6191 42.7539C66.6209 42.7515 66.6232 42.7495 66.625 42.7471C67.1252 42.9661 67.3966 42.5903 67.8447 42.668C68.1876 42.9504 68.2529 43.3534 67.9219 43.9121C68.2884 44.1884 68.2117 44.6449 68.7197 44.8613C68.7907 44.6931 68.8617 44.5188 68.9326 44.3506C69.2464 43.5255 69.1813 42.8622 68.9111 42.4395C69.1816 42.8627 69.2468 43.5279 68.9326 44.3564C70.0736 42.8303 70.8959 41.1179 73.3848 40.8174C73.3834 40.8155 73.3822 40.8134 73.3809 40.8115C73.5519 40.8834 73.7226 40.9564 73.8877 41.0283C75.0819 41.5271 75.0112 42.5544 76.708 42.8428C77.1798 42.5593 77.4775 42.2042 77.6387 41.8174C78.0468 41.8493 78.3301 41.7534 78.5107 42.2188C78.509 42.2224 78.5065 42.2257 78.5049 42.2295C78.5086 42.2301 78.5129 42.2308 78.5166 42.2314C78.5171 42.2327 78.5171 42.2341 78.5176 42.2354C78.5182 42.234 78.5189 42.2328 78.5195 42.2314C79.761 42.4369 80.8246 42.9016 81.1309 44.0449C81.3319 43.5582 81.5324 43.0707 81.7334 42.584C81.5451 42.5062 81.3514 42.4216 81.1631 42.3379C81.245 42.1418 81.3263 41.951 81.4023 41.7607C80.7413 41.6826 79.6102 40.438 79.4414 41.5986H79.4395C79.6051 40.4274 80.7402 41.6766 81.4023 41.7549C81.4042 41.7556 81.4064 41.7561 81.4082 41.7568C81.3315 41.9486 81.2486 42.1402 81.166 42.3379C81.3551 42.422 81.5502 42.5059 81.7393 42.584C81.5382 43.0707 81.3377 43.5582 81.1367 44.0449C80.7365 44.4279 82.2765 45.0905 82.2832 44.5439C83.499 44.8131 84.6093 44.8255 85.7959 45.0234C85.7962 45.0224 85.7975 45.0216 85.7979 45.0205C86.2741 45.2296 86.7503 45.4335 87.2266 45.6367C87.2274 45.6347 87.2287 45.6329 87.2295 45.6309C87.9913 45.9609 88.7587 46.2861 89.5205 46.6162C89.5224 46.5945 89.5224 46.5733 89.5215 46.5527C89.5229 46.5752 89.5224 46.5983 89.5205 46.6221C91.5128 47.0486 93.1445 46.5563 94.7939 46.1357C94.8944 46.1718 94.9894 46.2138 95.084 46.2559L95.2266 46.3135C95.5483 46.4241 95.8069 46.3813 96.0654 46.334L96.0664 46.3311C96.6046 46.0917 97.4289 46.5812 98.1885 46.9043C98.1883 46.9064 98.1887 46.909 98.1885 46.9111C98.2829 46.9531 98.3773 46.9951 98.4717 47.0371C98.5958 46.7428 98.3895 46.5863 98.4307 46.3281C98.4563 46.2886 98.4842 46.254 98.5137 46.2236C98.4864 46.2525 98.4605 46.2854 98.4365 46.3223C98.4384 46.3236 98.4405 46.3248 98.4424 46.3262C98.4024 46.5785 98.6058 46.734 98.4834 47.0244C98.7723 47.1503 99.0558 47.2707 99.3447 47.3965C99.3437 47.3988 99.3418 47.4009 99.3408 47.4033C100.305 47.5656 99.9798 48.2684 100.943 48.4307L100.938 48.4248C101.635 48.7853 102.025 48.3644 102.451 48.0459C102.591 47.6483 102.131 47.4965 101.65 47.3525C102.133 47.4963 102.598 47.6495 102.457 48.0527C102.026 48.3712 101.641 48.7911 100.943 48.4307V48.4365C101.233 49.3198 102.842 48.4487 103.273 47.7217C102.103 47.0787 100.204 46.7364 99.666 45.8291C99.4921 46.3317 99.8653 46.6131 100.38 46.8379C99.8622 46.6153 99.4856 46.3324 99.6602 45.8232C99.5658 45.7813 99.4714 45.7392 99.377 45.6973H99.3711C98.9987 45.5591 98.8209 45.901 98.3896 45.6191C98.1425 45.7866 97.8961 45.96 97.7422 46.3643H97.7393C97.893 45.9557 98.1413 45.7806 98.3896 45.6123C97.5975 45.408 96.7575 45.0898 96.1426 45.3359C95.788 45.2338 95.3505 44.934 95.1611 45.2578C94.9128 45.2278 94.5929 45.0242 94.4688 45.3066H94.4629C94.0728 45.1205 93.777 45.1744 93.4814 45.2285V45.2344C92.3051 44.8319 91.3595 44.339 91.1465 43.54C90.4959 44.7953 87.7942 41.5692 88.2021 43.3057L88.2012 43.3066C88.1997 43.306 88.1978 43.3063 88.1963 43.3057C87.8771 43.1134 87.7644 42.5064 87.3389 42.9326L87.335 42.9365C86.3381 42.627 85.7112 43.238 84.5127 42.416C83.9865 42.6804 83.2947 42.5421 82.5498 42.2598C82.522 42.2728 82.4903 42.2927 82.4561 42.3184C82.4919 42.2907 82.5247 42.2691 82.5537 42.2549C83.2972 42.5363 83.9874 42.6741 84.5127 42.4102C84.0398 42.2059 83.5609 41.9953 83.082 41.791L83.0762 41.7969C82.7765 42.0805 82.1422 41.5383 81.8096 41.7461C82.1405 41.5318 82.7805 42.0816 83.082 41.791C81.9861 41.0971 79.0851 39.573 76.9639 39.1211C76.2666 38.3337 75.2195 37.8063 74.1895 37.9717L73.9463 38.0234L73.749 38.0547C73.3754 38.1407 73.0604 38.373 72.7646 38.6533C72.3115 38.8237 71.9452 39.0751 71.8916 39.543C71.7242 39.6994 71.5507 39.8399 71.3633 39.9463L71.3574 39.9404C71.3568 39.9426 71.3571 39.9451 71.3564 39.9473C69.3933 40.2795 67.8997 41.7749 66.1191 42.5381C66.1171 42.5372 66.1144 42.537 66.1123 42.5361C65.2196 42.7465 64.5334 43.4737 63.7412 43.9424C63.2919 44.567 62.6124 44.6157 62.3818 45.7812C62.2104 45.7091 62.0445 45.6366 61.873 45.5645L61.875 45.5615C62.044 45.6326 62.2128 45.7043 62.376 45.7754C62.6065 44.6099 63.286 44.5611 63.7354 43.9365C63.0969 43.7323 62.4762 43.576 62.2988 44.5312H62.293C62.291 44.5361 62.2891 44.541 62.2871 44.5459C58.4644 47.5472 53.5937 47.9214 49.3535 49.877C49.0308 49.7757 48.7265 49.701 48.6367 50.1738H48.6348C48.0081 49.9995 47.2334 49.4704 46.9023 50.0352L46.9053 50.0361C45.2035 50.3757 46.8936 53.2502 44.0352 51.2217C46.4193 50.4324 42.3609 49.8538 41.5078 50.1348C41.505 50.1336 41.5019 50.133 41.499 50.1318C40.6005 49.7954 39.9733 49.3445 39.6895 48.7559L39.6875 48.7539C40.2229 47.6804 37.9859 47.7505 37.3721 47.1572C38.0579 45.7392 34.0729 46.2433 34.7646 44.8252C34.936 44.8972 35.1011 44.9699 35.2725 45.042L35.3262 44.9688L35.3242 44.9697C35.6691 44.5108 36.1921 44.4816 36.71 44.4473C36.704 43.3176 36.6503 42.2055 36.9814 40.9316C35.5329 40.7995 34.3915 41.4483 33.0908 41.6826C32.9255 41.6106 32.7542 41.5388 32.5889 41.4668H32.583C31.883 41.4668 31.218 41.5267 30.6465 41.8408C30.6456 41.8401 30.6444 41.8396 30.6436 41.8389C30.1351 41.6226 29.6324 41.4067 29.124 41.1904C29.0539 41.3626 28.9841 41.5348 28.9141 41.7012C29.1317 41.7459 29.3093 41.808 29.459 41.8809C29.3111 41.8102 29.136 41.7506 28.9229 41.707C28.9193 41.7064 28.9157 41.7057 28.9121 41.7051C28.9127 41.7037 28.9135 41.7025 28.9141 41.7012H28.9111V41.7051C28.9095 41.7048 28.9079 41.7044 28.9062 41.7041C28.9768 41.5368 29.0476 41.3637 29.1182 41.1904C28.9526 41.1183 28.7867 41.0457 28.6152 40.9736C25.6053 39.7201 23.3322 40.3218 20.1133 38.5371V38.5342C18.7061 37.5548 18.0021 36.281 18.8652 34.3643C18.8649 34.3538 18.8638 34.3434 18.8633 34.333C19.3529 32.8697 18.8744 31.8018 17.1973 31.2275C17.1959 31.2254 17.1937 31.2238 17.1924 31.2217C18.0201 26.0541 17.2864 21.5351 13.668 18.2002C15.1755 15.3101 13.4374 13.7538 14.2061 11.1641C13.5677 10.1487 13.4022 8.94072 12.5332 8.02148C9.68938 5.64814 5.95319 3.64139 5.64551 0.222656C5.47997 0.150552 5.30812 0.0779635 5.14258 0.00585938L5.125 0ZM111.888 85.8213C111.394 85.9565 111.017 85.9652 110.7 85.8252C111.018 85.9611 111.397 85.9491 111.892 85.8115C111.89 85.8148 111.889 85.818 111.888 85.8213ZM107.611 83.9736C108.049 84.4271 109.409 84.4976 109.871 84.9404C109.941 84.7738 110.012 84.6013 110.082 84.4346L110.084 84.4355C110.014 84.6025 109.943 84.7754 109.873 84.9424C109.397 84.5042 108.033 84.4348 107.611 83.9736ZM101.484 80.7461C102.197 80.8352 102.478 79.8495 103.266 80.1299C102.491 79.8702 102.209 80.8433 101.499 80.752C101.494 80.7502 101.489 80.7479 101.484 80.7461ZM100.004 79.8711C100.309 80.1765 100.725 80.4363 101.253 80.6504L101.487 80.7402L101.482 80.7451C100.843 80.5136 100.351 80.2227 100.004 79.8711ZM97.2422 77.7568C97.7286 78.0923 98.7687 78.2 99.2646 78.5312C98.7558 78.2052 97.715 78.0981 97.2422 77.7568ZM85.8076 74.0107C88.8999 72.5987 89.8223 76.0533 91.4482 77.6396C89.645 78.0783 87.0553 75.2127 85.8076 74.0107ZM110.593 72.5781C111.904 73.2466 112.668 72.5485 113.773 72.6943C113.773 72.6957 113.772 72.6969 113.771 72.6982C112.671 72.5596 111.906 73.2541 110.593 72.5781ZM108.576 72.2734C107.565 72.1889 105.868 70.3751 105.33 71.4863C106.341 71.5704 108.038 73.3851 108.576 72.2734ZM118.166 72.1533C117.228 72.368 116.701 72.4101 116.439 72.334L116.434 72.3311C116.695 72.4075 117.223 72.3666 118.161 72.1533C118.163 72.1536 118.164 72.153 118.166 72.1533ZM112.422 72.1924C112.12 72.1945 111.875 72.3387 111.562 72.3154C111.874 72.3365 112.12 72.1925 112.422 72.1924ZM114.827 71.46C114.314 72.1618 113.517 72.1534 112.763 72.2559C113.575 72.1402 114.437 72.1622 114.94 71.2842L114.827 71.46ZM126.716 67.3467C125.415 68.6381 123.116 67.4251 122.188 69.6416C123.991 69.257 125.67 68.5659 127.225 67.5625C127.053 67.4904 126.887 67.4188 126.716 67.3467ZM72.9492 63.0869C72.5098 63.1115 71.7117 63.4813 71.1123 63.4756C71.7158 63.4763 72.5153 63.1051 72.9492 63.0869ZM52.8564 58.6523C53.4186 60.5508 58.3851 60.6293 59.0059 62.5039C59.2424 60.2746 54.8372 59.9623 52.8564 58.6523ZM130.237 61.8496C130.197 62.078 130.244 62.2669 130.581 62.3369C130.58 62.3388 130.579 62.3409 130.577 62.3428C130.239 62.2679 130.195 62.0777 130.236 61.8525L130.237 61.8496ZM132.081 61.7988C132.102 61.8191 132.124 61.838 132.143 61.8594C132.124 61.8381 132.102 61.8191 132.081 61.7988ZM132.792 60.8984C132.844 60.8983 132.901 60.9102 132.963 60.9346C132.962 60.9368 132.961 60.9392 132.96 60.9414C132.959 60.9493 132.959 60.9572 132.958 60.9648C132.959 60.9553 132.959 60.9455 132.96 60.9355C132.899 60.9113 132.843 60.8991 132.792 60.8984ZM29.9639 50.6357C30.0171 52.0356 33.0608 52.1984 34.3027 53.1055C34.2491 51.7057 31.2055 51.5489 29.9639 50.6357ZM55.8545 51.459C55.5655 52.1362 54.777 51.5529 54.4209 52.0508C54.4181 52.0496 54.4149 52.0491 54.4121 52.0479C54.767 51.5438 55.559 52.1259 55.8486 51.4531C55.3315 51.2046 54.877 51.1134 54.459 51.1123C54.8786 51.1125 55.3349 51.2034 55.8545 51.4531C56.0664 50.9387 56.2784 50.4304 56.4902 49.916L56.4932 49.915C56.2804 50.4317 56.0673 50.9423 55.8545 51.459ZM50.4492 51.5586C50.3733 51.6997 50.2886 51.8142 50.1982 51.9053C50.2869 51.8146 50.3697 51.7009 50.4443 51.5615C50.4459 51.5604 50.4477 51.5597 50.4492 51.5586ZM50.9609 51.7715C51.0676 51.7839 51.1715 51.7903 51.2734 51.791C51.1721 51.7906 51.0688 51.7845 50.9629 51.7725L50.9609 51.7715ZM47.9199 50.4668C49.0604 50.3916 48.9617 52.7364 49.9355 51.3389C49.9462 51.2994 49.9534 51.2618 49.9561 51.2256C49.9537 51.2635 49.9467 51.3031 49.9355 51.3447C48.962 52.7359 49.0604 50.3929 47.9209 50.4727C47.9209 50.4711 47.9199 50.4694 47.9199 50.4678V50.4668ZM19.2852 49.0859C18.9069 49.879 18.7118 51.1526 17.9258 50.9248C17.5536 52.8532 20.7159 49.807 19.2852 49.0859ZM43.5215 51.0059C43.0729 51.3359 42.6676 51.4606 42.29 51.4492C42.6664 51.4591 43.0706 51.3341 43.5176 51.0049C43.5188 51.0054 43.5203 51.0053 43.5215 51.0059ZM62.2461 47.542C61.8793 50.4676 59.0941 47.3434 58.7275 50.2695C60.1761 50.0472 61.4298 49.3325 62.8311 49.002C62.9611 48.3832 62.6007 47.9625 62.2461 47.542ZM38.1475 49.0957C38.0186 49.0907 37.8862 49.1008 37.75 49.1279V49.127L37.752 49.126C37.8875 49.0996 38.0192 49.0903 38.1475 49.0957ZM39.1777 48.5459C38.9452 49.0885 38.3777 48.805 37.9834 48.9492C38.3766 48.8038 38.9407 49.0837 39.1777 48.5449V48.5459ZM99.666 45.8232C100.198 46.7306 102.097 47.0729 103.273 47.7158C102.663 46.9167 99.8974 45.7693 99.3877 45.6992C99.4805 45.7405 99.5732 45.782 99.666 45.8232ZM99.8398 46.9717C99.7268 47.1025 99.574 47.1249 99.4551 47.2344C99.5728 47.1202 99.7253 47.0956 99.8398 46.9717ZM100.004 46.9854C100.327 47.1026 100.681 47.2958 100.847 47.0205H100.848C100.682 47.3017 100.327 47.1037 100.004 46.9854ZM99.2578 45.998C99.219 46.3357 99.3148 46.517 99.1543 46.6846C99.308 46.5172 99.2118 46.3344 99.2529 45.9951C99.2545 45.9962 99.2562 45.997 99.2578 45.998ZM64.623 46.1357C64.7351 46.2012 64.8406 46.2479 64.9404 46.2822C64.8402 46.2488 64.7347 46.2024 64.6221 46.1377L64.623 46.1357ZM65.6621 43.8398C65.6515 44.4212 65.8804 44.9039 65.4492 45.6562L65.3379 45.835L65.4482 45.6562C65.8757 44.9039 65.6505 44.4212 65.6621 43.8398ZM63.9082 44.0322C64.541 44.4602 64.0686 45.3477 64.8691 45.709V45.71C64.8383 45.6961 64.8094 45.6814 64.7822 45.666C64.0758 45.2669 64.5517 44.3808 63.8301 43.9854L63.9082 44.0322ZM99.3877 45.6992C99.3861 45.6985 99.3844 45.698 99.3828 45.6973H99.377C99.3804 45.6977 99.384 45.6987 99.3877 45.6992ZM89.3486 43.7979C89.5496 44.2725 90.2299 44.5608 90.9512 44.8252C91.2614 45.0155 91.4785 44.9821 91.6377 44.7891C92.1621 44.8331 93.0008 45.6738 93.3789 45.3701C92.9971 45.6811 92.1565 44.8336 91.6367 44.79C91.483 44.9879 91.2583 45.024 90.9453 44.832C90.426 45.0958 89.5781 45.0237 89.3926 44.5098C89.3938 44.5069 89.3952 44.5038 89.3965 44.501C89.5798 45.0177 90.4309 45.0896 90.9512 44.8252C90.224 44.5608 89.5496 44.2785 89.3486 43.7979ZM36.71 44.4473C36.1925 44.4816 35.6757 44.5109 35.3262 44.9688C35.8678 44.4905 38.9882 46.2317 37.7207 44.8799C37.3838 44.7357 37.0469 44.5914 36.71 44.4473ZM88.0566 43.751C88.0184 43.7796 87.9858 43.8219 87.96 43.8818C88.6614 44.0736 89.0398 44.403 89.2705 44.7861C89.2691 44.7893 89.268 44.7927 89.2666 44.7959C89.036 44.4113 88.6567 44.081 87.9531 43.8887C87.9519 43.8869 87.9513 43.8846 87.9502 43.8828C87.9757 43.8256 88.0077 43.7848 88.0449 43.7568L88.0566 43.751ZM89.3486 43.7979C89.2452 44.0501 89.391 44.2014 89.4014 44.4082C89.3915 44.2309 89.2804 44.0946 89.3174 43.9004L89.3486 43.7979ZM105.271 39.6396C103.409 39.3392 101.688 39.3938 100.287 40.2471L100.281 40.2412C100.281 40.2421 100.28 40.2432 100.279 40.2441C99.6427 40.0309 99.3716 40.7199 99.1133 41.4531C99.1104 41.4535 99.1074 41.4547 99.1045 41.4551C98.0107 43.4793 95.6048 42.206 94.0439 43.0586L94.043 43.0605C93.4032 43.3024 91.3379 42.9667 91.8857 44.1943C92.0632 43.5304 92.7545 44.1377 93.0547 43.7764L93.1094 43.6904L93.5879 43.8105C98.4894 44.9396 101.967 42.5036 105.271 39.6396ZM31.7305 43.5156C32.0787 42.9495 32.8075 43.3135 33.2275 43.915C32.8081 43.3178 32.0851 42.9579 31.7373 43.5186C31.735 43.5176 31.7327 43.5166 31.7305 43.5156ZM89.0596 43.6719H89.0605C89.0292 43.7208 88.9911 43.7518 88.9482 43.7715C88.9884 43.751 89.0247 43.7198 89.0537 43.6719C88.9613 43.6366 88.8688 43.5948 88.7764 43.5537C88.7772 43.5532 88.7784 43.5532 88.7793 43.5527C88.8727 43.5941 88.9662 43.6303 89.0596 43.6719ZM67.3604 43.2119C66.9832 43.1172 66.556 43.5736 65.8916 43.5762C66.5562 43.5704 66.9828 43.1108 67.3604 43.2119ZM93.9355 43.1943C93.7618 43.3618 93.5328 43.3951 93.334 43.5029C93.5316 43.3915 93.7589 43.358 93.9355 43.1943ZM28.75 41.6885C28.0724 41.6651 28.7189 42.4733 28.2842 43.251C28.2795 43.249 28.2752 43.2461 28.2705 43.2441C28.7012 42.4619 28.0455 41.6505 28.75 41.6885ZM68.5918 42.1094C68.6722 42.1634 68.7458 42.2289 68.8115 42.3057C68.7458 42.2289 68.6721 42.1635 68.5918 42.1094ZM22.8594 41.1787C23.4174 41.378 24.0504 41.5194 24.7598 41.7441C24.0502 41.5203 23.417 41.3797 22.8594 41.1787ZM77.8037 41.2832C78.1213 41.4326 78.594 41.5179 78.9053 41.6699C78.5899 41.5196 78.1174 41.4343 77.8037 41.2832ZM23.6875 40.4375C24.76 40.1046 26.5204 41.4943 27.7158 41.4736C26.4685 41.4965 24.606 39.9854 23.5518 40.4912L23.6875 40.4375ZM72.5215 40.3574C72.7609 40.3628 73.0038 40.4255 73.2168 40.624C72.9977 40.4229 72.7473 40.3634 72.502 40.3623C72.5084 40.3606 72.515 40.3591 72.5215 40.3574ZM72.0537 40.4121C71.7245 40.4799 71.4526 40.5758 71.3438 40.4668C71.4556 40.5656 71.7204 40.4736 72.04 40.4072C72.0443 40.4094 72.0491 40.4103 72.0537 40.4121ZM76.9756 39.1338C77.0763 39.1635 77.1661 39.1999 77.248 39.2373C77.1672 39.2011 77.0783 39.1675 76.9795 39.1387C76.9781 39.1371 76.977 39.1354 76.9756 39.1338Z" fill="url(#paint0_linear_0_2683)"/>
<g filter="url(#filter0_d_0_2683)">
<path d="M8.59068 24.0781C8.84492 22.8643 9.37704 21.7948 10.193 20.8694C11.1035 19.5355 12.0613 18.2376 13.1729 17.0718C14.7634 15.4074 16.3243 14.3198 18.3523 13.3404C21.5333 11.8081 25.1813 12.7095 27.9129 14.7044C27.9129 14.7044 27.9188 14.6924 27.9247 14.6924C29.3319 12.6554 32.1345 11.9463 34.4049 11.694C35.0375 11.6219 35.682 11.6399 36.3265 11.6038C37.3139 11.3515 38.319 11.3274 39.3419 11.5438C40.2938 11.742 41.1866 12.1506 41.9552 12.7275C42.0675 12.7095 42.1799 12.6854 42.2922 12.6674C42.3159 12.5833 42.3395 12.4992 42.3632 12.415C42.4282 10.9248 42.9663 9.42265 44.0305 8.10072C45.6801 6.05772 48.5004 5.47487 50.9246 6.04571C52.2785 6.36417 53.6088 6.82084 54.9333 7.24747C55.7078 7.49984 56.4824 7.75221 57.2569 8.01058C58.1733 6.71268 59.1548 5.71522 60.7571 5.16241C62.4777 4.57355 64.3874 4.72377 66.0016 5.55899C67.5625 6.37018 68.7686 7.80028 69.3303 9.49476C69.4249 9.77116 69.5018 10.0776 69.5609 10.3901C71.0036 10.6004 72.1743 11.3094 73.4218 12.2228C73.9835 12.6374 74.4802 13.1601 74.9768 13.6528C75.8933 14.5602 76.7151 15.5336 77.537 16.525C78.4297 17.6006 78.6189 18.8865 78.8732 20.2144C79.0683 21.242 78.5894 22.9485 78.14 23.8438C77.5488 25.0155 76.6855 25.8988 75.6331 26.5537C75.6922 26.5237 75.7514 26.4936 75.8105 26.4636C69.017 30.9462 61.3011 33.0252 53.4019 33.554C52.4914 34.2149 51.5454 34.8339 50.558 35.3867C46.5138 37.646 42.2981 38.8357 37.7396 39.4726C33.7663 40.0255 29.9173 38.6554 26.9137 36.0176C26.4584 35.615 26.0209 35.1764 25.607 34.7197C20.9893 34.4553 16.413 33.3557 12.1146 31.6071C10.5596 30.9762 9.30019 29.2337 8.7858 27.6774C8.40148 26.4997 8.33053 25.3039 8.57294 24.0841L8.59068 24.0781Z" fill="#A61F29"/>
</g>
<g filter="url(#filter1_d_0_2683)">
<path d="M86.0731 62.0491C86.2564 61.7066 86.4219 61.3461 86.5993 61.0036C87.0664 60.1083 87.5217 59.1769 88.314 58.7323C88.988 58.3597 89.6739 57.9992 90.3538 57.6567C91.9916 56.8335 93.6766 56.1665 95.3972 55.7579C96.7216 55.4395 98.0697 55.2532 99.4177 55.1991C100.245 53.1261 101.511 51.2513 103.107 50.1577C104.845 48.962 106.72 48.8178 108.612 49.2684C110.161 49.641 111.674 50.6505 112.94 51.8582C113.969 52.8437 114.867 53.9433 115.677 55.1631C115.719 55.133 115.754 55.097 115.796 55.0669C116.694 54.3158 117.646 53.6729 118.681 53.3003C122.11 52.0565 125.256 54.6463 127.674 57.5245C128.224 58.1795 128.738 58.8765 129.241 59.5855C130.24 61.0036 130.228 63.2509 129.14 64.6089C128.578 65.3059 127.822 65.6364 127.077 65.5883C126.627 66.8141 125.64 67.6854 124.582 67.6433C119.988 67.4811 115.417 68.2262 110.859 68.8932C106.489 69.5301 102.067 70.0949 97.6794 69.476C97.6381 69.476 97.5967 69.464 97.5494 69.458C96.7926 69.3438 96.154 69.1155 95.6101 68.3704C95.4386 68.13 91.4772 69.0193 91.3648 68.7249C85.9371 69.44 85.9312 62.2294 86.0672 62.0551L86.0731 62.0491Z" fill="#A61F29"/>
</g>
<g filter="url(#filter2_d_0_2683)">
<path d="M103.539 82.7952C103.314 81.7977 103.385 80.9204 103.48 80.0852C103.575 79.238 103.947 78.7393 104.296 78.2405C104.739 77.6096 105.461 77.3813 106.117 77.3031C107.004 77.201 107.903 77.2371 108.843 77.4173C110.741 77.7778 112.698 78.5049 114.637 79.3041C115.057 79.4783 115.477 79.6586 115.89 79.8449C115.926 78.7092 116.05 77.6336 116.31 76.6722C116.836 74.7855 117.729 73.4756 119.042 72.9948C121.342 72.1536 124.322 74.1305 126.823 76.528C127.26 76.9426 127.686 77.3933 128.112 77.862C128.254 77.6637 128.396 77.4834 128.555 77.3212C128.851 77.0267 129.194 76.8345 129.531 76.6362C130.565 76.0173 131.843 76.2756 133.102 76.7383C134.237 77.1529 135.449 78.1143 136.543 79.1959C137.726 80.3676 138.878 81.8458 139.884 83.4802C140.386 84.2974 140.759 85.1146 140.924 86.1361C141.078 87.0975 140.995 87.9868 140.7 88.5997C140.368 89.2847 139.748 89.5611 139.08 89.3748C139.05 89.8255 138.955 90.2161 138.778 90.4744C138.21 91.3217 137.649 91.8985 136.856 92.2771C136.247 92.5715 135.52 92.5895 134.817 92.5174C133.451 92.3732 131.967 91.6401 130.542 90.865C130.459 91.1054 130.358 91.3157 130.258 91.4779C129.998 91.8745 129.738 92.235 129.424 92.5355C128.987 92.9621 128.514 93.3166 128.035 93.6531C127.668 93.9175 127.248 94.302 126.841 94.4402C126.787 94.4583 126.728 94.4703 126.675 94.4823C126.101 94.6025 125.309 94.2059 124.736 93.5569C124.641 93.4488 124.552 93.3466 124.47 93.2385C124.422 93.8033 124.298 94.3621 124.209 94.8548C124.127 95.3175 124.003 95.672 123.867 96.0927C123.654 96.7296 122.991 97.1081 122.483 96.9639C122.258 96.9038 122.04 96.8077 121.833 96.6815C121.85 96.6995 121.862 96.7176 121.88 96.7356C120.686 95.8884 119.479 95.0531 118.279 94.284C117.694 94.6325 117.12 95.0111 116.482 95.2034C115.553 95.4858 114.495 95.3836 113.425 94.7527C112.438 94.1698 111.48 93.1724 110.605 91.9947C108.967 91.4959 107.24 90.3843 105.833 88.2211C105.378 87.5241 104.917 86.7069 104.55 85.8837C104.059 84.7841 103.811 83.9609 103.545 82.7952H103.539Z" fill="#A61F29"/>
</g>
<g filter="url(#filter3_d_0_2683)">
<path d="M78.6235 34.9231C80.1371 32.772 83.2353 32.9222 85.4584 33.8295C85.4762 33.8295 85.4998 33.8415 85.5176 33.8475C85.559 33.8596 85.6063 33.8716 85.6476 33.8836C87.4155 32.79 89.68 32.2792 91.6607 33.0364C91.909 33.1325 92.1396 33.2407 92.3584 33.3668C92.6895 33.5111 93.0088 33.7274 93.3162 34.0338C93.4818 34.2021 93.6237 34.3943 93.7419 34.5986C94.1085 35.0854 94.3864 35.6442 94.5815 36.2451C95.2851 35.1815 96.2962 34.3943 97.6679 34.4845C99.4594 34.5986 100.683 36.0648 101.345 37.6751C101.564 37.8434 101.771 38.0176 101.978 38.1979C102.493 38.6546 102.652 39.4898 102.481 40.1327C102.286 40.8718 101.765 41.2924 101.091 41.5508C99.5835 42.1397 97.9753 42.4041 96.373 42.5843C94.9658 42.7406 93.5646 42.7346 92.1633 42.6084C92.1515 42.6084 92.1396 42.6144 92.1278 42.6204C90.3954 43.1972 88.5152 43.4556 86.7474 42.8908C86.4281 42.7886 86.168 42.6384 85.9551 42.4461C85.3165 42.4581 84.678 42.4461 84.0394 42.4041C82.6855 42.3079 81.3078 42.0556 80.0958 41.4006C79.1438 40.8838 78.4166 40.0486 78.0796 39.0091C77.6657 37.7172 77.8313 36.0287 78.6176 34.9171L78.6235 34.9231Z" fill="#A61F29"/>
</g>
<g filter="url(#filter4_d_0_2683)">
<path d="M45.6374 39.1894C45.933 38.8288 46.27 38.5164 46.6425 38.276C52.7679 34.3102 59.6679 31.6664 67.0467 32.3514C68.8028 32.5136 70.4878 33.5291 71.5698 34.9231C72.3148 35.8845 72.9238 37.2666 73.048 38.6005C73.6747 38.4863 74.3014 38.4743 74.875 38.6125C77.3228 39.1954 79.8474 39.0572 82.2893 39.61C84.4237 40.0907 86.298 40.7276 88.0481 42.1337C89.9697 43.6719 91.3178 45.733 92.3525 47.9682C93.1152 49.6146 93.0856 51.6456 92.4175 53.3161C91.8085 54.8363 90.4427 56.5067 88.8522 57.0295C85.352 58.1832 81.8399 58.9643 78.1623 59.1085C74.4315 59.2527 70.7657 59.0605 67.1 58.3574C65.4385 58.039 63.7889 57.6484 62.163 57.1917C61.7314 57.4321 61.2879 57.6484 60.8326 57.8287C56.9481 59.427 52.7916 58.9403 49.3623 56.5007C45.8207 53.983 44.2302 49.6627 43.1778 45.6068C42.5865 43.3174 43.9227 40.5954 45.6492 39.1954L45.6374 39.1894Z" fill="#A61F29"/>
</g>
<defs>
<filter id="filter0_d_0_2683" x="4.43237" y="4.80704" width="78.4856" height="42.7868" filterUnits="userSpaceOnUse" color-interpolation-filters="sRGB">
<feFlood flood-opacity="0" result="BackgroundImageFix"/>
<feColorMatrix in="SourceAlpha" type="matrix" values="0 0 0 0 0 0 0 0 0 0 0 0 0 0 0 0 0 0 127 0" result="hardAlpha"/>
<feOffset dy="4"/>
<feGaussianBlur stdDeviation="2"/>
<feComposite in2="hardAlpha" operator="out"/>
<feColorMatrix type="matrix" values="0 0 0 0 0 0 0 0 0 0 0 0 0 0 0 0 0 0 0.25 0"/>
<feBlend mode="normal" in2="BackgroundImageFix" result="effect1_dropShadow_0_2683"/>
<feBlend mode="normal" in="SourceGraphic" in2="effect1_dropShadow_0_2683" result="shape"/>
</filter>
<filter id="filter1_d_0_2683" x="82.033" y="49.033" width="51.9407" height="28.7105" filterUnits="userSpaceOnUse" color-interpolation-filters="sRGB">
<feFlood flood-opacity="0" result="BackgroundImageFix"/>
<feColorMatrix in="SourceAlpha" type="matrix" values="0 0 0 0 0 0 0 0 0 0 0 0 0 0 0 0 0 0 127 0" result="hardAlpha"/>
<feOffset dy="4"/>
<feGaussianBlur stdDeviation="2"/>
<feComposite in2="hardAlpha" operator="out"/>
<feColorMatrix type="matrix" values="0 0 0 0 0 0 0 0 0 0 0 0 0 0 0 0 0 0 0.25 0"/>
<feBlend mode="normal" in2="BackgroundImageFix" result="effect1_dropShadow_0_2683"/>
<feBlend mode="normal" in="SourceGraphic" in2="effect1_dropShadow_0_2683" result="shape"/>
</filter>
<filter id="filter2_d_0_2683" x="99.3899" y="72.7977" width="45.6101" height="32.1968" filterUnits="userSpaceOnUse" color-interpolation-filters="sRGB">
<feFlood flood-opacity="0" result="BackgroundImageFix"/>
<feColorMatrix in="SourceAlpha" type="matrix" values="0 0 0 0 0 0 0 0 0 0 0 0 0 0 0 0 0 0 127 0" result="hardAlpha"/>
<feOffset dy="4"/>
<feGaussianBlur stdDeviation="2"/>
<feComposite in2="hardAlpha" operator="out"/>
<feColorMatrix type="matrix" values="0 0 0 0 0 0 0 0 0 0 0 0 0 0 0 0 0 0 0.25 0"/>
<feBlend mode="normal" in2="BackgroundImageFix" result="effect1_dropShadow_0_2683"/>
<feBlend mode="normal" in="SourceGraphic" in2="effect1_dropShadow_0_2683" result="shape"/>
</filter>
<filter id="filter3_d_0_2683" x="73.8596" y="32.6764" width="32.6873" height="18.5295" filterUnits="userSpaceOnUse" color-interpolation-filters="sRGB">
<feFlood flood-opacity="0" result="BackgroundImageFix"/>
<feColorMatrix in="SourceAlpha" type="matrix" values="0 0 0 0 0 0 0 0 0 0 0 0 0 0 0 0 0 0 127 0" result="hardAlpha"/>
<feOffset dy="4"/>
<feGaussianBlur stdDeviation="2"/>
<feComposite in2="hardAlpha" operator="out"/>
<feColorMatrix type="matrix" values="0 0 0 0 0 0 0 0 0 0 0 0 0 0 0 0 0 0 0.25 0"/>
<feBlend mode="normal" in2="BackgroundImageFix" result="effect1_dropShadow_0_2683"/>
<feBlend mode="normal" in="SourceGraphic" in2="effect1_dropShadow_0_2683" result="shape"/>
</filter>
<filter id="filter4_d_0_2683" x="39.0356" y="32.2433" width="57.886" height="34.9099" filterUnits="userSpaceOnUse" color-interpolation-filters="sRGB">
<feFlood flood-opacity="0" result="BackgroundImageFix"/>
<feColorMatrix in="SourceAlpha" type="matrix" values="0 0 0 0 0 0 0 0 0 0 0 0 0 0 0 0 0 0 127 0" result="hardAlpha"/>
<feOffset dy="4"/>
<feGaussianBlur stdDeviation="2"/>
<feComposite in2="hardAlpha" operator="out"/>
<feColorMatrix type="matrix" values="0 0 0 0 0 0 0 0 0 0 0 0 0 0 0 0 0 0 0.25 0"/>
<feBlend mode="normal" in2="BackgroundImageFix" result="effect1_dropShadow_0_2683"/>
<feBlend mode="normal" in="SourceGraphic" in2="effect1_dropShadow_0_2683" result="shape"/>
</filter>
<linearGradient id="paint0_linear_0_2683" x1="-3.85648" y1="14.7215" x2="114.918" y2="76.2334" gradientUnits="userSpaceOnUse">
<stop stop-color="#510C0C"/>
<stop offset="1" stop-color="#A41F20"/>
</linearGradient>
</defs>
</svg>
