<svg width="628" height="174" viewBox="0 0 628 174" fill="none" xmlns="http://www.w3.org/2000/svg">
<path d="M224.003 -21.9956C224.294 -21.9696 224.586 -21.9436 224.881 -21.9133L224.968 -21.0685C217.82 -18.7637 212.875 -12.2697 212.54 -4.82689C221.27 -5.13448 228.614 -11.7802 229.722 -20.4533L229.787 -20.9602L230.278 -20.8129C230.517 -20.7436 230.752 -20.6656 230.982 -20.592L231.238 -20.5097L231.278 -20.241C232.477 -11.6892 239.812 -5.13881 248.433 -4.83122C248.412 -5.33376 248.368 -5.8363 248.303 -6.33017L248.247 -6.7634L248.681 -6.81538C248.885 -6.84138 249.09 -6.86304 249.298 -6.8847L249.924 -6.94969L249.85 -6.40816C249.78 -5.88828 249.733 -5.35974 249.711 -4.83554C252.249 -4.92218 254.682 -5.5287 256.955 -6.64211L257.076 -6.70274L257.211 -6.68109C257.372 -6.65509 257.533 -6.6291 257.694 -6.59877L259.062 -6.35617L257.933 -5.76698C256.39 -4.96552 254.782 -4.38066 253.113 -4.02541C260.118 -2.50046 265.837 2.90187 267.653 9.89413C268.509 6.60596 270.252 3.55603 272.677 1.14297L272.972 0.848373L273.281 1.13431C273.333 1.18196 273.385 1.23395 273.437 1.28593L273.863 1.69749L273.55 2.00941C270.352 5.19363 268.492 9.3916 268.292 13.8755C276.014 13.5982 282.823 8.30418 284.94 0.85704L285.013 0.597107L285.678 0.484467L286.347 0.37616V0.384827L286.995 0.302505L287.369 0.259186L287.464 0.618774C289.507 8.20456 296.342 13.6025 304.181 13.8798C303.986 9.46956 302.174 5.31927 299.058 2.14806L299.497 1.42889C299.74 1.50255 299.983 1.58054 300.222 1.66284L300.331 1.69749L300.405 1.77982C302.539 4.10623 304.042 6.87888 304.82 9.88547C305.237 8.26953 305.872 6.71858 306.706 5.25427L306.936 4.85138L307.323 5.10698L307.957 5.53589L307.762 5.88246C306.38 8.31718 305.585 11.0725 305.459 13.8755C314.719 13.5462 322.349 6.00809 322.771 -3.21962C320.516 -3.14163 318.33 -2.64775 316.27 -1.75531L315.831 -2.49612C316.214 -2.79073 316.596 -3.07233 316.965 -3.32793L317.013 -3.36258L317.07 -3.37991C317.817 -3.63985 318.578 -3.85646 319.351 -4.02109L318.313 -4.24202L319.303 -4.80522C319.468 -4.89621 319.629 -4.9915 319.794 -5.08249L319.929 -5.15614L320.081 -5.12581C320.968 -4.96118 321.867 -4.86154 322.767 -4.82689C322.749 -5.26443 322.715 -5.69766 322.662 -6.12222L322.623 -6.44714L322.927 -6.57278C323.145 -6.66376 323.362 -6.74606 323.584 -6.82838L324.266 -7.08832L324.179 -6.3735C324.114 -5.86662 324.066 -5.35109 324.044 -4.83122C327.907 -4.96552 331.544 -6.30418 334.582 -8.72157L334.704 -8.81689H335.012C335.151 -8.81256 335.29 -8.80823 335.429 -8.80389L336.568 -8.76491L335.694 -8.03708C333.3 -6.04425 330.454 -4.67093 327.434 -4.02109C334.447 -2.50047 340.166 2.89754 341.991 9.89413C343.408 4.40517 347.197 -0.187027 352.437 -2.64342L352.676 -2.75606L352.885 -2.59576C352.994 -2.51346 353.102 -2.4268 353.211 -2.3445L353.771 -1.90694L353.124 -1.61234C347.01 1.17763 342.93 7.22113 342.63 13.8798C349.265 13.6415 355.353 9.66885 358.225 3.65567L358.538 3.00151L358.969 3.58636C359.029 3.66869 359.36 4.13222 359.36 4.13222L359.247 4.36617C356.605 9.74251 351.733 13.4812 346.041 14.6943C353.046 16.2192 358.76 21.6216 360.581 28.6095C362.401 21.6172 368.12 16.2149 375.134 14.6899C372.952 14.222 370.862 13.3729 368.954 12.1772L367.998 11.5794L369.193 11.3714C369.346 11.3454 369.498 11.3194 369.65 11.2934L369.806 11.2718L369.941 11.3541C372.535 12.905 375.494 13.7802 378.523 13.8841C378.493 13.1693 378.419 12.4632 378.306 11.77L378.21 11.1851L378.797 11.2718C378.871 11.2848 378.949 11.2978 379.023 11.3108L379.179 11.3368L379.492 11.3888L380.061 11.4927L379.996 11.9129C379.896 12.5455 379.831 13.2083 379.801 13.8841C387.544 13.6069 394.358 8.2912 396.461 0.822388L396.522 0.60144L396.796 0.510468C396.917 0.467148 397.039 0.428146 397.161 0.38916L397.613 0.246185L397.691 0.2202L397.921 0.146561V0.155212L398.799 -0.0873871L398.908 0.341492C400.859 8.0919 407.725 13.6025 415.698 13.8798C415.442 8.19588 412.474 2.94952 407.698 -0.226028L406.386 -1.09682L408.046 -1.0145C408.25 -1.00583 408.45 -0.992828 408.654 -0.979828L408.776 -0.971176L408.876 -0.901855C412.57 1.7235 415.212 5.57919 416.337 9.89845C417.033 7.21246 418.314 4.69975 420.096 2.53796L420.322 2.26501C420.322 2.26501 420.9 2.56395 420.965 2.5986L421.43 2.84988L421.091 3.25711C418.601 6.24637 417.15 10.0024 416.972 13.8798C421.395 13.7238 425.576 11.9563 428.787 8.87605L428.904 8.76341L429.069 8.75475C429.252 8.74608 429.43 8.74174 429.613 8.73741L430.695 8.71143L429.93 9.47391C427.275 12.1339 423.972 13.9188 420.378 14.6856C427.383 16.2106 433.102 21.6129 434.918 28.6008C436.739 21.6086 442.458 16.2062 449.467 14.6813C449.15 14.612 448.833 14.5383 448.52 14.4517L447.968 14.3044L448.255 13.8148L448.62 13.2126L448.932 13.295C450.206 13.6285 451.527 13.8235 452.865 13.8668C452.791 12.2379 452.5 10.6306 451.992 9.09267L451.913 8.85005C451.913 8.85005 452.305 8.42549 452.37 8.35617L452.865 7.83632L453.095 8.51646C453.247 8.96703 453.387 9.42192 453.504 9.88113C453.86 8.51215 454.369 7.18213 455.025 5.91711L455.064 5.83914L455.133 5.78281C455.377 5.58353 455.624 5.38425 455.876 5.1893L456.52 5.74815C455.09 8.21754 454.273 11.0162 454.143 13.8668C462.473 13.5722 469.586 7.52005 471.155 -0.67659L471.216 -0.992828C471.216 -0.992828 471.672 -1.03616 471.711 -1.0405C471.711 -1.0405 471.863 -1.05348 471.92 -1.05782L472.485 -1.10547C472.511 -1.10547 472.945 -1.12714 472.945 -1.12714L473.015 -0.750229C474.553 7.49406 481.671 13.5766 490.04 13.8711C489.819 9.00601 487.594 4.40515 483.892 1.18196L484.317 0.44548C484.613 0.54512 484.908 0.649078 485.2 0.757385L485.282 0.78772L485.347 0.848373C487.937 3.31776 489.784 6.46732 490.675 9.8898C491.088 8.29553 491.705 6.76625 492.522 5.31927L492.769 4.88171C492.769 4.88171 493.36 5.34093 493.456 5.4189L493.743 5.64851L493.565 5.96912C492.213 8.38217 491.44 11.1028 491.314 13.8755C494.03 13.7802 496.624 13.0957 499.031 11.8307L499.374 11.653C499.374 11.653 499.731 12.1729 499.8 12.2725L500.07 12.6711L499.644 12.8964C498.093 13.7152 496.428 14.3174 494.707 14.6856C501.721 16.2062 507.444 21.6086 509.265 28.6052C511.085 21.6129 516.8 16.2149 523.809 14.6899C522.188 14.3434 520.624 13.7845 519.125 13.0177L519.311 12.1989L519.563 12.1902C519.737 12.1859 519.915 12.1772 520.089 12.1772H520.185L520.272 12.2162C522.462 13.2343 524.795 13.7932 527.211 13.8798C527.211 13.7758 527.203 13.6719 527.194 13.5679L527.159 12.9744L527.737 13.1217C527.833 13.1433 527.924 13.1693 528.015 13.1953L528.511 13.3296C528.511 13.3296 528.485 13.8105 528.48 13.8798C528.932 13.8625 529.384 13.8322 529.832 13.7845L529.927 13.7758L530.231 13.8798C530.423 13.9448 530.614 14.0054 530.801 14.0748L530.757 14.482C531.44 14.586 532.117 14.7246 532.782 14.9022L532.817 14.9109L532.852 14.9239C533.699 15.3094 534.464 15.695 535.185 16.1022L534.803 16.8777C532.795 16.0329 530.675 15.5694 528.485 15.4957C528.902 24.7234 536.532 32.2616 545.793 32.5908C545.649 29.3936 544.65 26.3004 542.894 23.6187L543.589 23.1032C544.176 23.805 544.689 24.4678 545.149 25.122L545.171 25.1523L545.189 25.187C545.714 26.2874 546.131 27.4268 546.436 28.6052C547.074 26.1574 548.2 23.8397 549.747 21.8165L549.808 21.7342L549.899 21.6909C550.142 21.5696 550.39 21.4526 550.638 21.34L551.155 22.0071C548.647 25.031 547.244 28.6831 547.07 32.5908C555.114 32.3092 561.997 26.7379 563.896 18.9009L563.978 18.5587C563.978 18.5587 564.621 18.576 564.704 18.5803L565.23 18.602V18.615L565.769 18.6496L566.081 18.6756L566.155 18.9789C568.085 26.7683 574.959 32.3049 582.964 32.5865C582.846 29.9698 582.177 27.4658 580.96 25.148L581.608 24.6021C581.829 24.7668 582.051 24.9357 582.268 25.109L582.346 25.174L582.39 25.265C582.898 26.3394 583.302 27.4571 583.598 28.6052C583.702 28.2023 583.82 27.7993 583.95 27.4051L584.167 26.7466C584.167 26.7466 584.893 27.4528 584.954 27.5134L585.141 27.6997L585.058 27.951C584.58 29.4456 584.302 31.0052 584.232 32.5908C585.601 32.5432 586.961 32.3396 588.274 31.9843L588.578 31.902L588.956 32.4825L589.277 32.9764L588.708 33.1324C588.356 33.2277 588 33.3186 587.644 33.3923C588.348 33.5439 589.047 33.7345 589.734 33.9685L589.89 34.0205L589.973 34.1678C590.051 34.3064 590.125 34.4494 590.203 34.588L590.764 35.6321L589.699 35.2465C587.948 34.614 586.11 34.2631 584.232 34.1981C584.65 43.4258 592.28 50.9639 601.54 51.2932C601.436 48.9711 600.893 46.7313 599.919 44.6258L599.602 43.9413L600.497 44.0237C600.589 44.0323 600.68 44.041 600.767 44.0497L601.015 44.0757L601.114 44.3009C601.549 45.2713 601.905 46.2764 602.17 47.3032C602.396 46.4237 602.688 45.5616 603.039 44.7298L603.179 44.4006L603.526 44.4699C603.596 44.4829 603.67 44.5002 603.739 44.5175L603.887 44.5522L604.4 44.6605L604.195 45.1414C603.37 47.0866 602.905 49.153 602.809 51.2845C606.277 51.1632 609.605 50.0542 612.456 48.0613L612.686 47.901L613.073 48.1263C613.138 48.1653 613.208 48.2 613.273 48.2389L613.838 48.5812L613.299 48.9624C611.152 50.4917 608.749 51.5488 606.212 52.0903C613.221 53.6153 618.939 59.0176 620.76 66.0099C621.334 63.8091 622.303 61.7036 623.615 59.8364L624.019 59.2602L624.354 59.8797C624.393 59.9534 624.428 60.0227 624.467 60.0963L624.662 60.4776L624.515 60.6942C622.62 63.4495 621.547 66.6554 621.399 69.9912C623.32 69.9262 625.193 69.558 626.979 68.8995L627.474 68.7175C627.474 68.7175 627.613 69.5277 627.622 69.6013L627.674 69.9522L627.339 70.0735C626.514 70.3725 625.675 70.6151 624.819 70.8013C625.766 71.005 626.696 71.2822 627.609 71.6288L627.865 71.7284L627.9 72.1617C627.908 72.244 627.913 72.3263 627.917 72.4043L627.956 73.0844L627.322 72.8332C625.427 72.088 623.433 71.6765 621.395 71.6028C621.59 75.9351 623.35 80.0334 626.375 83.1829L626.553 83.3692L626.344 84.0061L626.118 84.6776L625.623 84.1707C623.246 81.7446 621.586 78.8117 620.756 75.5928C618.935 82.5808 613.221 87.9787 606.22 89.5037C610.657 90.4481 614.629 92.9435 617.453 96.6476L617.701 96.9725L617.114 97.4751L616.767 97.7653L616.493 97.4014C613.19 93.0691 608.228 90.5001 602.814 90.3138C603.013 94.7544 604.843 98.9264 607.993 102.102L608.471 102.583L607.828 102.812C607.754 102.838 607.45 102.938 607.45 102.938L607.189 103.029L606.998 102.83C604.643 100.417 603 97.4967 602.175 94.2995C601.149 98.2679 598.864 101.803 595.6 104.42L595.465 104.528L595.096 104.502C594.983 104.493 594.87 104.489 594.753 104.476L593.649 104.376L594.527 103.701C598.764 100.451 601.297 95.5905 601.532 90.3052C594.383 90.5521 588.104 94.9623 585.453 101.638L585.284 102.063L584.867 101.877C584.802 101.846 584.736 101.816 584.676 101.786L584.541 101.721L584.172 101.547L584.324 101.166C586.735 95.1183 591.937 90.8164 598.125 89.4994C591.12 87.9744 585.406 82.5721 583.585 75.5842C581.764 82.5764 576.046 87.9787 569.036 89.5037C574.594 90.6907 579.396 94.2995 582.073 99.4809L582.79 100.872L581.456 100.048C581.247 99.9184 581.038 99.7885 580.83 99.6542L580.739 99.5979L580.686 99.5069C577.614 94.0309 571.878 90.5391 565.63 90.3182C565.886 95.9891 568.845 101.231 573.608 104.411L574.203 104.805C574.203 104.805 573.299 105.303 573.217 105.347L572.986 105.468L572.769 105.321C568.906 102.687 566.151 98.7531 564.991 94.2995C563.296 100.846 558.229 106.079 551.581 107.937L551.468 107.968L551.355 107.937C551.12 107.877 550.885 107.812 550.651 107.747L549.056 107.301L550.664 106.906C558.42 105.018 563.991 98.2289 564.348 90.3095C555.618 90.6171 548.274 97.2628 547.166 105.936L547.092 106.512L546.557 106.278C546.314 106.17 546.075 106.057 545.836 105.945L545.627 105.845L545.593 105.615C544.489 98.0816 538.709 92.0554 531.205 90.6214L530.979 90.5781C530.979 90.5781 530.827 90.2229 530.801 90.1535C530.688 90.2315 530.323 90.4785 530.323 90.4785L530.158 90.4568C529.588 90.3831 529.015 90.3355 528.45 90.3138C528.463 90.6561 528.485 90.981 528.515 91.2929L528.541 91.5745L528.128 91.8041C527.985 91.8821 527.846 91.9644 527.702 92.0381L526.972 92.4236L527.068 91.6048C527.116 91.1803 527.151 90.7471 527.172 90.3138C522.688 90.4698 518.464 92.2763 515.24 95.4259L515.122 95.5429L514.957 95.5515C514.849 95.5559 514.74 95.5602 514.627 95.5602H514.427L513.345 95.5992L514.101 94.828C516.778 92.1074 520.12 90.2792 523.761 89.5037C516.756 87.9787 511.042 82.5764 509.221 75.5885C507.4 82.5807 501.678 87.9874 494.668 89.508C496.472 89.8936 498.214 90.5348 499.826 91.4186L499.418 92.181C499.418 92.181 499.222 92.0814 499.218 92.0814L499.035 92.3847L498.675 92.2027C496.354 91.0416 493.864 90.4048 491.27 90.3182C491.401 93.1688 492.213 95.9674 493.643 98.4325L493.817 98.7357L493.282 99.2166L492.887 99.5675L492.617 99.1083C491.731 97.592 491.066 95.9804 490.631 94.2995C489.493 98.6621 486.812 102.548 483.057 105.178L483.005 105.212L482.949 105.234C482.523 105.381 482.088 105.52 481.654 105.646L481.306 104.857C486.503 101.729 489.728 96.3183 489.997 90.3138C480.998 90.6258 473.623 97.4967 472.75 106.473L472.711 106.876L472.307 106.867C472.155 106.867 472.002 106.854 471.85 106.85L471.381 106.828L471.346 106.456C470.464 97.4924 463.09 90.6301 454.099 90.3182C454.469 98.4671 460.465 105.477 468.517 107.08L468.943 107.162L468.861 107.587L468.765 108.054L468.735 108.18L468.696 108.366H468.691L468.574 108.882C468.557 108.96 468.539 109.038 468.522 109.116L468.457 109.376L468.191 109.432C460.196 111.182 454.46 118.01 454.099 126.124C454.712 126.103 455.325 126.051 455.933 125.964L456.207 126.666L456.389 126.683L455.12 127.485C455.012 127.554 454.899 127.628 454.786 127.693L454.668 127.762L454.534 127.753C454.386 127.745 454.243 127.736 454.095 127.732C454.095 127.758 454.112 128.082 454.112 128.082L453.708 128.312C453.621 128.364 453.534 128.412 453.447 128.459L452.756 128.832L452.804 128.052C452.813 127.948 452.817 127.84 452.822 127.736C448.854 127.879 445.013 129.339 441.958 131.886L441.854 131.973L441.719 131.986C441.515 132.003 441.311 132.02 441.106 132.033L439.824 132.12L440.789 131.275C443.266 129.101 446.247 127.61 449.432 126.926C442.419 125.405 436.7 120.003 434.875 113.006C433.206 119.448 428.239 124.651 421.734 126.57L421.53 126.631L421.356 126.51C421.261 126.441 421.165 126.371 421.074 126.302L420.266 125.708L421.126 125.47C428.557 123.399 433.889 116.676 434.236 109.025C426.375 109.302 419.531 114.717 417.506 122.334L417.306 123.087L416.772 122.52C416.694 122.438 416.32 122.026 416.32 122.026L416.385 121.796C418.314 114.886 424.003 109.701 430.855 108.219C423.837 106.698 418.115 101.296 416.294 94.2995C414.473 101.292 408.754 106.694 401.745 108.219C407.851 109.523 413.017 113.743 415.464 119.665L414.716 120.094C414.26 119.496 413.834 118.889 413.439 118.287C410.358 112.759 404.609 109.254 398.343 109.029C398.512 112.876 399.885 116.485 402.327 119.487L402.775 120.037L401.419 120.315L401.254 120.107C399.577 118.006 398.369 115.584 397.7 113.006C395.879 119.994 390.165 125.396 383.16 126.921C386.806 127.701 390.147 129.529 392.824 132.25L393.128 132.558L392.82 132.861C392.767 132.913 392.246 133.411 392.246 133.411L391.946 133.104C388.687 129.789 384.376 127.892 379.757 127.732C379.931 131.605 381.382 135.356 383.868 138.346L384.237 138.787L383.364 139.169L383.064 139.294L382.856 139.043C381.083 136.89 379.814 134.39 379.118 131.717C378.141 135.482 376.02 138.883 373.013 141.456L372.9 141.556H372.748C372.6 141.569 372.453 141.573 372.3 141.573L370.901 141.603L371.879 140.806C375.859 137.566 378.249 132.822 378.48 127.732C371.14 127.991 364.622 132.748 362.167 139.689L362.023 140.091C362.023 140.091 361.385 139.875 361.272 139.836L360.863 139.693L361.007 139.286C363.249 132.943 368.668 128.312 375.09 126.926C368.077 125.405 362.354 120.003 360.529 113.006C358.708 119.998 352.994 125.396 345.984 126.921C352.116 128.23 357.296 132.475 359.733 138.441L360.138 139.433L359.155 139C359.029 138.943 358.908 138.887 358.786 138.831L358.517 138.705L358.451 138.554C355.692 132.185 349.495 127.974 342.582 127.732C342.799 132.549 344.989 137.12 348.631 140.334L348.957 140.624L348.422 141.222L348.135 141.538L347.814 141.257C344.933 138.709 342.895 135.382 341.943 131.717C340.122 138.705 334.408 144.107 327.403 145.632C330.102 146.209 332.639 147.361 334.886 149.051L335.568 149.562L334.751 149.809C334.643 149.843 334.308 149.939 334.308 149.939L334.104 149.999L333.93 149.874C331.014 147.751 327.59 146.573 323.992 146.447C324.053 147.825 324.275 149.185 324.648 150.502L324.813 151.087L323.818 151.03L323.51 151.009C323.51 151.009 323.379 150.528 323.353 150.437C323.336 150.502 323.206 150.983 323.206 150.983L322.836 150.944L321.967 150.844L322.102 150.355C322.449 149.085 322.654 147.773 322.715 146.443C319.86 146.547 317.052 147.331 314.567 148.721L314.38 148.825L314.184 148.743C314.097 148.708 314.015 148.669 313.928 148.63L312.981 148.219L313.724 147.79C315.466 146.78 317.357 146.053 319.316 145.632C312.303 144.112 306.584 138.709 304.759 131.713C302.938 138.705 297.22 144.107 290.211 145.632C294.4 146.529 298.202 148.812 300.987 152.178L301.383 152.655C301.383 152.655 300.514 152.963 300.427 152.993L300.144 153.088L299.953 152.863C296.664 148.947 291.897 146.625 286.808 146.443C286.921 149.051 287.59 151.546 288.798 153.864L289.159 154.553C289.159 154.553 288.055 154.47 287.955 154.462L287.716 154.44L287.608 154.223C286.991 153.006 286.513 151.732 286.169 150.424C284.349 157.416 278.634 162.814 271.625 164.339C272.764 164.582 273.88 164.933 274.967 165.383L275.701 165.691C275.701 165.691 274.762 166.336 274.68 166.388L274.489 166.514L274.276 166.427C272.342 165.652 270.308 165.219 268.218 165.145C268.275 166.458 268.479 167.753 268.818 169.001L268.922 169.378L268.431 169.564C268.357 169.594 268.283 169.62 268.21 169.646L267.766 169.806C267.766 169.806 267.601 169.2 267.584 169.126C267.532 169.326 267.475 169.525 267.419 169.724L267.353 169.945L267.136 170.014C266.997 170.058 266.858 170.101 266.719 170.144L265.937 170.383L266.176 169.603C266.619 168.165 266.88 166.666 266.945 165.141C262.104 165.314 257.494 167.454 254.23 171.063L254.078 171.232L253.687 171.18C253.596 171.167 253.509 171.158 253.418 171.145L252.627 171.032L253.153 170.435C255.899 167.315 259.562 165.193 263.556 164.335C256.542 162.814 250.819 157.412 248.998 150.415C247.178 157.403 241.463 162.805 234.458 164.33C235.923 164.642 237.344 165.128 238.708 165.786L239.295 166.068L238.808 166.501L238.291 166.947L238.035 166.826C235.832 165.79 233.485 165.227 231.047 165.141C231.13 167.008 231.499 168.832 232.147 170.56L232.286 170.928L231.603 171.262L231.178 171.466L231.012 171.024C230.782 170.404 230.582 169.772 230.413 169.126C230.152 170.136 229.804 171.119 229.383 172.072L229.309 172.237L229.135 172.302C229.009 172.349 228.879 172.393 228.748 172.44L227.684 172.813L228.118 171.882C229.113 169.759 229.67 167.493 229.774 165.141C223.716 165.353 218.246 168.537 215.065 173.731L214.917 173.97L214.587 173.926C214.474 173.913 214.356 173.896 214.243 173.879L213.596 173.788L213.93 173.229C216.725 168.585 221.209 165.418 226.358 164.322C219.354 162.793 213.639 157.395 211.823 150.402C210.015 157.304 204.344 162.797 197.296 164.326C201.868 165.31 205.917 167.935 208.716 171.721L209.559 172.865L208.108 172.345C207.929 172.28 207.756 172.219 207.582 172.155L207.469 172.111L207.395 172.016C204.892 168.827 201.355 166.553 197.435 165.617L197.318 165.591L197.231 165.509C197.066 165.349 196.905 165.188 196.744 165.024L195.758 164.01L195.81 164.019L195.319 163.468L196.075 163.312C204.523 161.974 210.81 154.908 211.189 146.425C202.932 146.72 195.827 152.703 194.206 160.813L194.002 161.822L193.42 160.969C193.324 160.83 193.038 160.397 193.038 160.397L193.077 160.219C194.698 152.863 200.612 147.183 207.812 145.615C200.794 144.099 195.063 138.692 193.242 131.691C191.421 138.683 185.702 144.086 178.693 145.606C182.947 146.516 186.798 148.856 189.6 152.317L190.143 152.989L189.274 153.019C189.122 153.023 188.97 153.032 188.818 153.032H188.61L188.475 152.876C185.185 148.934 180.401 146.594 175.291 146.412C175.339 147.508 175.491 148.6 175.738 149.661L175.943 150.532C175.943 150.532 174.891 150.038 174.774 149.982V149.991L174.261 149.731C174.191 149.696 173.922 149.549 173.922 149.549L173.635 149.397L173.696 149.081C173.87 148.214 173.974 147.318 174.013 146.412C172.688 146.46 171.376 146.646 170.111 146.98L169.907 147.032L169.737 146.906C169.668 146.854 169.598 146.798 169.529 146.741L169.385 146.629L168.703 146.1L169.537 145.871C169.889 145.775 170.241 145.689 170.598 145.611C169.311 145.334 168.056 144.922 166.843 144.38L166.769 144.35L166.713 144.294C166.465 144.047 166.222 143.796 165.983 143.54L166.496 142.855C168.846 144.055 171.376 144.71 174.013 144.801C173.596 135.573 165.965 128.035 156.705 127.706C156.966 133.506 160.03 138.818 164.966 141.98L165.544 142.353C165.544 142.353 164.714 142.868 164.614 142.925L164.379 143.063L164.149 142.916C160.116 140.282 157.248 136.27 156.062 131.696C154.124 139.169 147.775 144.87 139.958 145.879L139.862 145.892L139.771 145.862C139.489 145.775 139.21 145.684 138.932 145.589L139.037 144.749C148.053 143.969 155.024 136.682 155.423 127.71C146.155 128.035 138.593 135.404 138.115 144.679L138.085 145.286L137.416 145.017C137.307 144.974 137.199 144.931 137.09 144.883L136.842 144.779L136.825 144.51C136.29 135.729 129.533 128.698 120.76 127.788L120.49 127.762L120.395 127.511C120.364 127.433 120.03 126.493 120.03 126.493H120.034L119.895 126.085L120.447 126.038C129.468 125.262 136.434 117.975 136.833 108.999C127.395 109.324 119.83 116.845 119.517 126.306L119.504 126.761L118.652 126.687L118.274 126.648L118.261 126.267C117.931 116.823 110.365 109.319 100.944 108.995C101.257 115.943 105.585 122.1 112.077 124.764L112.664 125.002C112.664 125.002 112.025 125.678 111.96 125.747L111.752 125.96L111.478 125.847C105.929 123.521 101.796 118.703 100.306 112.98C98.4849 119.972 92.7663 125.375 85.7571 126.9C90.033 127.814 93.8961 130.171 96.6989 133.658L97.1378 134.204C97.1378 134.204 96.1384 134.421 96.0515 134.438L95.7951 134.49L95.6299 134.286C92.3361 130.27 87.517 127.888 82.3546 127.71C82.4459 129.763 82.8848 131.756 83.6582 133.649L83.9755 134.425L82.9977 134.2C82.9065 134.178 82.8152 134.161 82.724 134.139L82.5067 134.087L82.4241 133.879C82.146 133.169 81.907 132.441 81.7158 131.7C81.5768 132.241 81.4116 132.774 81.2291 133.294L81.0901 133.688L80.6903 133.563C80.6165 133.541 79.9211 133.307 79.9211 133.307L80.0689 132.891C80.6599 131.232 80.9988 129.49 81.0814 127.714C78.3481 127.81 75.7408 128.503 73.3248 129.781L73.0945 129.902L72.8772 129.755C72.8077 129.707 72.7425 129.659 72.6773 129.612L72.5426 129.516L71.969 129.114L72.586 128.78C74.1852 127.913 75.9059 127.281 77.6876 126.904C70.6783 125.383 64.9554 119.981 63.1346 112.989C62.9261 113.799 62.6611 114.596 62.3438 115.372L61.9266 116.394L61.5356 115.359C61.4704 115.19 61.4052 115.016 61.3444 114.847L61.2922 114.696L61.3487 114.548C62.0266 112.777 62.4133 110.909 62.4959 109.003C61.7702 109.029 61.0576 109.094 60.3666 109.202L59.9321 109.272L59.8712 108.834C59.8539 108.713 59.806 108.345 59.806 108.345H59.8018L59.7626 108.015L59.667 107.075L60.2276 107.166C60.975 107.288 61.7355 107.361 62.4959 107.387C62.3699 104.558 61.5616 101.781 60.158 99.3336L60.0798 99.195L60.1102 99.039C60.132 98.922 60.1581 98.8051 60.1841 98.6881L60.4492 97.4187L61.0228 98.3718C61.9744 99.9531 62.6827 101.638 63.139 103.406C64.9641 96.4093 70.6871 91.007 77.7006 89.4907C70.6827 87.9744 64.9598 82.5678 63.1346 75.5712C61.3139 82.5634 55.5953 87.9657 48.5861 89.4864C52.8751 90.4048 56.7469 92.7702 59.554 96.275L59.9321 96.7472L59.3585 96.9509L58.7067 97.1761L58.5154 96.9379C55.2173 92.8785 50.3808 90.4741 45.1837 90.2878C45.3053 92.9868 46.044 95.6468 47.3259 98.0036L47.704 98.7011L46.9131 98.6448C46.8219 98.6404 46.7306 98.6274 46.6393 98.6231L46.2439 98.5884L46.1353 98.3805C45.4443 97.0765 44.9142 95.7032 44.5448 94.2865C44.2276 95.5082 43.7931 96.6909 43.2412 97.8216L43.0934 98.1292L42.3939 97.9776L41.855 97.8563L42.0983 97.3624C43.189 95.1486 43.7974 92.7702 43.9061 90.2922C40.0951 90.4265 36.4971 91.7348 33.4813 94.0916L33.2424 94.2778C33.2424 94.2778 32.7643 93.9789 32.6557 93.9096L32.1473 93.5847L32.6209 93.2078C34.9631 91.3492 37.64 90.0886 40.4993 89.4777C33.4944 87.9528 27.7802 82.5504 25.9594 75.5625C25.3336 77.9712 24.2386 80.2457 22.735 82.2428L22.3179 82.7974L22.0006 82.1822C21.9572 82.0999 21.7008 81.5757 21.7008 81.5757L21.8572 81.3634C23.9691 78.4998 25.1641 75.1249 25.3206 71.5811C21.414 71.7154 17.7465 73.0801 14.6873 75.5408L14.4439 75.7358C14.4439 75.7358 13.9615 75.4325 13.8529 75.3632L13.3532 75.0383L13.8138 74.6614C16.1734 72.7335 18.9675 71.4035 21.9268 70.771C14.9132 69.2504 9.19025 63.8481 7.36517 56.8515C6.71771 59.3382 5.5705 61.6863 3.98004 63.7354L3.56293 64.277L3.25006 63.6661C3.2066 63.5838 2.9502 63.0639 2.9502 63.0639L3.11096 62.8517C5.31848 59.9447 6.56128 56.5006 6.72205 52.8658C4.66669 52.9395 2.65906 53.3553 0.751404 54.1135L0.234253 54.3171L0.160461 53.7669C0.143066 53.6413 0.0734863 53.0607 0.0734863 53.0607L0.386353 52.9394C1.33801 52.5669 2.31146 52.2766 3.30652 52.06C2.24628 51.8304 1.2077 51.5141 0.19519 51.1026L-0.0698853 50.9943L-0.0785522 50.7083C-0.0785522 50.6303 -0.0916138 49.6556 -0.0916138 49.6556L0.521118 49.9069C2.49396 50.7213 4.57977 51.1675 6.72644 51.2455C6.53522 46.9826 4.82312 42.9319 1.87689 39.804L1.69434 39.6091L1.78564 39.3578C1.81171 39.2842 1.8421 39.2105 1.8725 39.1369L1.93335 38.9852L2.1767 38.3441L2.65039 38.8423C4.94476 41.2337 6.54822 44.1146 7.36517 47.2599C9.18591 40.2676 14.9045 34.8696 21.9138 33.349C17.7421 32.4565 13.9572 30.1908 11.1718 26.8463L10.8893 26.5083L11.2327 26.2311C11.2891 26.1834 11.35 26.1401 11.4065 26.0924L11.8497 25.7459L12.1191 26.0708C15.4086 30.0175 20.193 32.3569 25.3032 32.5388C25.1207 28.5228 23.5737 24.6585 20.9186 21.6086L20.4841 21.1103L21.1099 20.9111C21.2358 20.8721 21.7617 20.7074 21.7617 20.7074L21.9485 20.9241C23.8561 23.1508 25.2163 25.7545 25.942 28.5532C26.8198 25.1827 28.6274 22.0721 31.1565 19.62L31.2912 19.4901C31.2912 19.4901 31.8127 19.5117 31.9822 19.5204L32.999 19.5767L32.2559 20.2699C28.7926 23.5018 26.7893 27.8427 26.5807 32.5345C33.2206 32.2962 39.3086 28.3192 42.1809 22.306L42.3635 21.9248C42.3635 21.9248 43.0109 22.2107 43.0848 22.2454L43.4846 22.4274L43.2977 22.8216C40.7208 28.2282 35.7106 32.0926 29.9659 33.336C36.9838 34.8523 42.7111 40.2589 44.5362 47.2599C46.3569 40.2676 52.0755 34.8696 59.0804 33.3446C54.0961 32.2789 49.6985 29.2637 46.8958 24.8447L46.748 24.6151C46.748 24.6151 47.0391 24.1559 47.1086 24.0433L47.4824 23.4714L47.8431 24.052C51.0326 29.177 56.4818 32.3222 62.4828 32.5345C62.2048 26.4477 58.7675 20.8244 53.4226 17.7788L52.8751 17.4669L53.9006 16.6395L54.157 16.7911C58.598 19.3688 61.8398 23.6664 63.1173 28.5618C64.938 21.5696 70.6523 16.1672 77.6572 14.6423C74.8674 14.0444 72.2471 12.8314 69.944 11.0422L69.0619 10.362L70.1743 10.271C70.3047 10.258 70.435 10.2537 70.5654 10.245L70.8826 10.2234L71.0086 10.3187C73.9462 12.4935 77.4138 13.7022 81.064 13.8322C81.0379 13.178 80.9771 12.5411 80.8815 11.9346L80.7772 11.2588L81.3508 11.4321V11.4234L82.0808 11.653L82.5414 11.809L82.4893 12.1686C82.4155 12.7144 82.3633 13.2733 82.3372 13.8365C83.567 13.7932 84.7924 13.6242 85.9788 13.334L86.1352 13.295L86.2786 13.3643C86.4437 13.4466 86.6044 13.5289 86.7696 13.6155L87.756 14.1311L86.6783 14.4213C86.3655 14.5036 86.0526 14.5816 85.7397 14.6466C92.7489 16.1716 98.4675 21.5696 100.288 28.5618C102.113 21.5609 107.841 16.1586 114.859 14.638C107.858 13.1173 102.118 7.71066 100.288 0.7314C99.3887 4.17122 97.5159 7.34242 94.8999 9.81615L93.7441 10.9079L94.1829 9.38292C94.2525 9.13599 94.322 8.90204 94.3915 8.67244L94.4219 8.57278L94.4958 8.49915C97.0118 5.95178 98.6891 2.76323 99.354 -0.724228L99.3757 -0.828201L99.4409 -0.910522C99.5756 -1.0838 99.7147 -1.2571 99.8581 -1.42606C99.8581 -1.42606 100.128 -1.75531 100.167 -1.79865L100.923 -2.71274V-2.67375L100.936 -2.6954L101.062 -1.72932C102.196 6.91353 109.535 13.5332 118.239 13.8408C117.844 5.11998 111.095 -2.14088 102.361 -3.14597L101.457 -3.24995L101.857 -3.63985L101.814 -3.63118L102.917 -4.63626C103.074 -4.77922 103.226 -4.91786 103.382 -5.05649L103.474 -5.13448L103.591 -5.15614C107.51 -5.88396 111.135 -7.94179 113.785 -10.9527L113.863 -11.0393L114.137 -11.1303C114.307 -11.1866 114.476 -11.243 114.646 -11.2949L116.019 -11.7108L115.106 -10.6061C112.338 -7.25728 108.549 -4.96118 104.347 -4.05574C111.43 -2.53079 117.07 2.89754 118.874 9.85947C120.695 2.86287 126.417 -2.53944 133.431 -4.05574C128.716 -5.06949 124.492 -7.84213 121.681 -11.8755L121.233 -12.5166L122.016 -12.5556C122.107 -12.5556 122.198 -12.56 122.289 -12.5643L122.685 -12.5773L122.819 -12.3867C126.065 -7.8508 131.271 -5.06516 136.816 -4.86588C136.751 -6.28685 136.521 -7.68617 136.13 -9.04218L135.856 -9.97794L136.734 -9.55338C136.825 -9.51006 136.912 -9.4624 137.003 -9.41473L137.351 -9.23712C137.351 -9.23712 137.438 -8.9252 137.451 -8.86021L137.524 -9.16348L138.02 -8.89488C138.085 -8.86021 138.35 -8.70859 138.35 -8.70859L138.637 -8.54829L138.559 -8.23204C138.298 -7.14032 138.137 -6.01393 138.089 -4.87454C139.615 -4.92653 141.122 -5.17346 142.578 -5.60669L142.804 -5.67168L142.982 -5.52005C143.047 -5.46373 143.113 -5.40739 143.178 -5.35107L143.308 -5.23412L143.899 -4.72292L143.152 -4.48897C142.613 -4.32001 142.065 -4.17705 141.518 -4.06007C143.113 -3.71783 144.66 -3.1633 146.141 -2.40948L146.215 -2.37048L146.272 -2.30984C146.493 -2.05856 146.711 -1.80298 146.924 -1.54303L146.372 -0.893204C143.851 -2.33585 140.996 -3.14597 138.089 -3.24995C138.507 5.97777 146.137 13.5159 155.397 13.8452C155.145 8.32585 152.303 3.1618 147.732 -0.0310669L147.397 -0.265015C147.397 -0.265015 147.754 -0.854202 147.797 -0.923508L148.04 -1.31343L148.414 -1.05348C152.195 1.57619 154.893 5.47522 156.032 9.85947C157.852 2.8672 163.567 -2.53079 170.572 -4.05574C166.148 -5.00017 162.189 -7.47823 159.36 -11.165L159.047 -11.5722L159.499 -11.8105C159.608 -11.8668 159.721 -11.9231 159.83 -11.9838L160.151 -12.1484L160.373 -11.8625C163.675 -7.58653 168.612 -5.05649 173.978 -4.87021C173.822 -8.35335 172.666 -11.6762 170.615 -14.5138L170.172 -15.129L170.928 -15.1983C171.067 -15.2113 171.597 -15.2503 171.597 -15.2503L171.741 -15.051C173.066 -13.1751 174.039 -11.0653 174.617 -8.85155C175.173 -10.9917 176.103 -13.0365 177.355 -14.8604L177.507 -15.0813L177.924 -15.025C178.002 -15.0164 178.081 -15.0077 178.154 -14.9947L178.85 -14.8907L178.472 -14.3102C176.512 -11.5202 175.404 -8.26669 175.252 -4.87021C180.288 -5.04784 185.029 -7.3396 188.314 -11.1953L188.549 -11.4682L188.862 -11.2863L189.622 -10.8357L189.292 -10.4458C186.519 -7.16631 182.765 -4.93951 178.645 -4.05574C185.659 -2.53511 191.378 2.8672 193.198 9.8638C195.019 2.8672 200.742 -2.53511 207.76 -4.05574C203.819 -4.90486 200.195 -6.98434 197.466 -10.0299L197.222 -10.3029L197.678 -10.8747L198 -11.2733L198.343 -10.8877C201.611 -7.21396 206.256 -5.0305 211.149 -4.85721C210.941 -9.51872 208.959 -13.8423 205.531 -17.0698L205.118 -17.4597L205.605 -17.7543C205.67 -17.7933 205.735 -17.8323 205.805 -17.8713L206.217 -18.1139L206.456 -17.8886C209.046 -15.4193 210.897 -12.2654 211.793 -8.84288C213.348 -14.8647 217.759 -19.7948 223.708 -22L223.799 -22.0346L223.895 -22.026L224.003 -21.9956ZM245.053 -4.02109C238.035 -5.54172 232.312 -10.944 230.487 -17.9406C228.666 -10.944 222.939 -5.53738 215.921 -4.02109C222.939 -2.50479 228.662 2.90186 230.487 9.89845C232.307 2.90186 238.035 -2.50479 245.053 -4.02109ZM341.37 13.8841C340.952 4.65643 333.322 -2.8817 324.062 -3.21094C324.479 6.01677 332.109 13.5549 341.37 13.8841ZM229.852 13.8841C229.435 4.65643 221.804 -2.8817 212.544 -3.21094C212.961 6.01677 220.592 13.5549 229.852 13.8841ZM119.608 13.8841C128.868 13.5549 136.499 6.01677 136.916 -3.21094C127.656 -2.8817 120.025 4.65643 119.608 13.8841ZM156.783 13.8841C166.044 13.5549 173.674 6.01677 174.091 -3.21094C164.831 -2.8817 157.201 4.65643 156.783 13.8841ZM193.954 13.8841C203.215 13.5549 210.845 6.01677 211.262 -3.21094C202.002 -2.8817 194.372 4.65643 193.954 13.8841ZM231.125 13.8841C240.386 13.5549 248.016 6.01677 248.433 -3.21094C239.173 -2.8817 231.543 4.65643 231.125 13.8841ZM192.677 13.8841C192.26 4.65643 184.629 -2.8817 175.369 -3.21094C175.786 6.01677 183.417 13.5549 192.677 13.8841ZM267.023 13.8841C266.606 4.65643 258.975 -2.8817 249.715 -3.21094C250.132 6.01677 257.763 13.5549 267.023 13.8841ZM263.638 14.6899C256.62 13.1693 250.897 7.767 249.072 0.770401C247.251 7.767 241.524 13.1736 234.506 14.6899C241.524 16.2062 247.247 21.6129 249.072 28.6095C250.893 21.6129 256.62 16.2062 263.638 14.6899ZM226.467 14.6899C219.449 13.1693 213.726 7.767 211.901 0.770401C210.08 7.767 204.353 13.1736 197.335 14.6899C204.353 16.2062 210.076 21.6129 211.901 28.6095C213.722 21.6129 219.449 16.2062 226.467 14.6899ZM152.121 14.6899C145.103 13.1693 139.38 7.767 137.555 0.770401C135.734 7.767 130.007 13.1736 122.989 14.6899C130.007 16.2062 135.73 21.6129 137.555 28.6095C139.376 21.6129 145.103 16.2062 152.121 14.6899ZM189.292 14.6899C182.274 13.1693 176.551 7.767 174.726 0.770401C172.905 7.767 167.178 13.1736 160.16 14.6899C167.178 16.2062 172.901 21.6129 174.726 28.6095C176.547 21.6129 182.274 16.2062 189.292 14.6899ZM337.984 14.6899C330.966 13.1693 325.244 7.767 323.418 0.770401C321.598 7.767 315.87 13.1736 308.853 14.6899C315.87 16.2062 321.593 21.6129 323.418 28.6095C325.239 21.6129 330.966 16.2062 337.984 14.6899ZM486.66 14.6943C479.642 13.1866 473.936 7.82764 472.107 0.774719C470.282 7.83197 464.572 13.1866 457.554 14.6943C464.567 16.2149 470.286 21.6172 472.107 28.6138C473.927 21.6216 479.646 16.2192 486.66 14.6943ZM300.805 14.6899C293.865 13.1953 288.151 7.92296 286.278 0.891708L286.247 0.783401L286.178 1.03032C284.266 7.9836 278.569 13.204 271.686 14.6899C278.699 16.2106 284.427 21.6129 286.247 28.6095C288.068 21.6129 293.791 16.2106 300.805 14.6899ZM412.313 14.6943C405.322 13.1953 399.607 7.88397 397.765 0.783401L397.73 0.913361C395.853 7.93594 390.138 13.1996 383.207 14.6943C390.221 16.2149 395.944 21.6172 397.765 28.6138C399.585 21.6216 405.304 16.2192 412.313 14.6943ZM398.404 32.5908C407.664 32.2616 415.294 24.7234 415.711 15.4957C406.451 15.825 398.821 23.3631 398.404 32.5908ZM471.472 32.5908C471.055 23.3631 463.425 15.825 454.164 15.4957C454.582 24.7234 462.212 32.2616 471.472 32.5908ZM508.643 32.5908C508.226 23.3631 500.596 15.825 491.335 15.4957C491.753 24.7234 499.383 32.2616 508.643 32.5908ZM434.297 32.5908C433.88 23.3631 426.249 15.825 416.989 15.4957C417.406 24.7234 425.037 32.2616 434.297 32.5908ZM509.921 32.5908C519.181 32.2616 526.812 24.7234 527.229 15.4957C517.969 15.825 510.338 23.3631 509.921 32.5908ZM435.575 32.5908C444.835 32.2616 452.465 24.7234 452.882 15.4957C443.622 15.825 435.992 23.3631 435.575 32.5908ZM472.746 32.5908C482.006 32.2616 489.636 24.7234 490.053 15.4957C480.793 15.825 473.163 23.3631 472.746 32.5908ZM324.057 32.5908C333.317 32.2616 340.948 24.7234 341.365 15.4957C332.105 15.825 324.474 23.3631 324.057 32.5908ZM175.369 32.5908C184.629 32.2616 192.26 24.7234 192.677 15.4957C183.417 15.825 175.786 23.3631 175.369 32.5908ZM397.126 32.5908C396.709 23.3631 389.078 15.825 379.818 15.4957C380.235 24.7234 387.866 32.2616 397.126 32.5908ZM174.091 32.5908C173.674 23.3631 166.044 15.825 156.783 15.4957C157.201 24.7234 164.831 32.2616 174.091 32.5908ZM136.92 32.5908C136.503 23.3631 128.873 15.825 119.612 15.4957C120.03 24.7234 127.66 32.2616 136.92 32.5908ZM211.262 32.5908C210.845 23.3631 203.215 15.825 193.954 15.4957C194.372 24.7234 202.002 32.2616 211.262 32.5908ZM361.228 32.5908C370.488 32.2616 378.119 24.7234 378.536 15.4957C369.276 15.825 361.645 23.3631 361.228 32.5908ZM138.194 32.5908C147.454 32.2616 155.084 24.7234 155.502 15.4957C146.241 15.825 138.611 23.3631 138.194 32.5908ZM359.955 32.5908C359.538 23.3631 351.907 15.825 342.647 15.4957C343.064 24.7234 350.695 32.2616 359.955 32.5908ZM101.023 32.5908C110.283 32.2616 117.913 24.7234 118.331 15.4957C109.07 15.825 101.44 23.3631 101.023 32.5908ZM322.78 32.5908C322.363 23.3631 314.732 15.825 305.467 15.4957C305.885 24.7234 313.515 32.2616 322.78 32.5908ZM212.54 32.5908C221.8 32.2616 229.431 24.7234 229.848 15.4957C220.588 15.825 212.957 23.3631 212.54 32.5908ZM286.886 32.5908C296.146 32.2616 303.777 24.7234 304.194 15.4957C294.934 15.825 287.303 23.3631 286.886 32.5908ZM63.8517 32.5908C73.1118 32.2616 80.7424 24.7234 81.1596 15.4957C71.8994 15.825 64.2689 23.3631 63.8517 32.5908ZM249.711 32.5908C258.971 32.2616 266.602 24.7234 267.019 15.4957C257.759 15.825 250.128 23.3631 249.711 32.5908ZM99.7451 32.5908C99.3279 23.3631 91.6973 15.825 82.4372 15.4957C82.8544 24.7234 90.4849 32.2616 99.7451 32.5908ZM248.438 32.5908C248.021 23.3631 240.39 15.825 231.13 15.4957C231.547 24.7234 239.178 32.2616 248.438 32.5908ZM285.609 32.5908C285.192 23.3631 277.561 15.825 268.301 15.4957C268.718 24.7234 276.349 32.2616 285.609 32.5908ZM430.916 33.401C423.898 31.8803 418.175 26.478 416.35 19.4771C414.53 26.478 408.802 31.8803 401.784 33.401C408.802 34.9216 414.525 40.3239 416.35 47.3248C418.171 40.3239 423.898 34.9216 430.916 33.401ZM468.087 33.401C461.069 31.8803 455.346 26.478 453.521 19.4771C451.701 26.478 445.973 31.8803 438.955 33.401C445.973 34.9216 451.696 40.3239 453.521 47.3248C455.342 40.3239 461.069 34.9216 468.087 33.401ZM542.433 33.401C535.416 31.8803 529.693 26.478 527.868 19.4771C526.047 26.4737 520.32 31.8803 513.306 33.401C520.324 34.9216 526.047 40.3239 527.868 47.3248C529.688 40.3239 535.416 34.9216 542.433 33.401ZM505.258 33.3966C498.24 31.876 492.517 26.4737 490.692 19.4727C488.871 26.4737 483.144 31.876 476.126 33.3966C483.144 34.9173 488.867 40.3196 490.692 47.3162C492.513 40.3196 498.24 34.9129 505.258 33.3923V33.3966ZM133.535 33.401C126.517 31.8803 120.794 26.478 118.969 19.4814C117.149 26.478 111.421 31.8847 104.403 33.401C111.421 34.9173 117.144 40.3239 118.969 47.3205C120.79 40.3239 126.517 34.9173 133.535 33.401ZM245.053 33.401C238.035 31.8803 232.312 26.478 230.487 19.4814C228.666 26.478 222.939 31.8847 215.921 33.401C222.939 34.9173 228.662 40.3239 230.487 47.3205C232.307 40.3239 238.035 34.9173 245.053 33.401ZM96.3643 33.401C89.3464 31.8803 83.6235 26.478 81.7984 19.4814C79.9777 26.478 74.2504 31.8847 67.2325 33.401C74.2504 34.9173 79.9733 40.3239 81.7984 47.3205C83.6191 40.3239 89.3464 34.9173 96.3643 33.401ZM170.706 33.401C163.688 31.8803 157.965 26.478 156.14 19.4814C154.32 26.478 148.592 31.8847 141.574 33.401C148.592 34.9173 154.315 40.3239 156.14 47.3205C157.961 40.3239 163.688 34.9173 170.706 33.401ZM207.882 33.401C200.864 31.8803 195.141 26.478 193.316 19.4814C191.495 26.478 185.768 31.8847 178.75 33.401C185.768 34.9173 191.491 40.3239 193.316 47.3205C195.136 40.3239 200.864 34.9173 207.882 33.401ZM282.224 33.401C275.206 31.8803 269.483 26.478 267.658 19.4814C265.837 26.478 260.11 31.8847 253.092 33.401C260.11 34.9173 265.833 40.3239 267.658 47.3205C269.478 40.3239 275.206 34.9173 282.224 33.401ZM319.399 33.401C312.381 31.8803 306.658 26.478 304.833 19.4814C303.012 26.478 297.285 31.8847 290.267 33.401C297.285 34.9173 303.008 40.3239 304.833 47.3205C306.654 40.3239 312.381 34.9173 319.399 33.401ZM356.57 33.401C349.552 31.8803 343.829 26.478 342.004 19.4814C340.183 26.478 334.456 31.8847 327.438 33.401C334.456 34.9173 340.179 40.3239 342.004 47.3205C343.825 40.3239 349.552 34.9173 356.57 33.401ZM393.741 33.401C386.723 31.8803 381 26.478 379.175 19.4814C377.354 26.478 371.627 31.8847 364.609 33.401C371.627 34.9173 377.35 40.3239 379.175 47.3205C380.996 40.3239 386.723 34.9173 393.741 33.401ZM579.583 33.401C572.578 31.9063 566.881 26.5907 565.039 19.4771C563.196 26.595 557.504 31.9063 550.494 33.401C557.504 34.9259 563.218 40.3282 565.039 47.3162C566.859 40.3239 572.574 34.9259 579.583 33.401ZM527.229 51.3018C526.812 42.0741 519.181 34.536 509.921 34.2068C510.338 43.4345 517.969 50.9726 527.229 51.3018ZM564.404 51.3018C563.987 42.0741 556.356 34.536 547.096 34.2068C547.513 43.4345 555.144 50.9726 564.404 51.3018ZM454.16 51.3018C463.42 50.9726 471.051 43.4345 471.468 34.2068C462.208 34.536 454.577 42.0741 454.16 51.3018ZM491.335 51.3018C500.596 50.9726 508.226 43.4345 508.643 34.2068C499.383 34.536 491.753 42.0741 491.335 51.3018ZM416.989 51.3018C426.249 50.9726 433.88 43.4345 434.297 34.2068C425.037 34.536 417.406 42.0741 416.989 51.3018ZM528.506 51.3018C537.766 50.9726 545.397 43.4345 545.814 34.2068C536.554 34.536 528.923 42.0741 528.506 51.3018ZM565.677 51.3018C574.937 50.9726 582.568 43.4345 582.985 34.2068C573.725 34.536 566.094 42.0741 565.677 51.3018ZM452.887 51.3018C452.47 42.0741 444.839 34.536 435.579 34.2068C435.996 43.4345 443.627 50.9726 452.887 51.3018ZM490.058 51.3018C489.641 42.0741 482.01 34.536 472.75 34.2068C473.167 43.4345 480.798 50.9726 490.058 51.3018ZM305.472 51.3018C314.732 50.9726 322.363 43.4345 322.784 34.2068C313.524 34.536 305.893 42.0741 305.472 51.3018ZM8.09088 51.3018C17.3511 50.9726 24.9816 43.4345 25.3988 34.2068C16.1387 34.536 8.50806 42.0741 8.09088 51.3018ZM341.37 51.3018C340.952 42.0741 333.322 34.536 324.062 34.2068C324.479 43.4345 332.109 50.9726 341.37 51.3018ZM118.335 51.3018C117.918 42.0741 110.287 34.536 101.027 34.2068C101.444 43.4345 109.075 50.9726 118.335 51.3018ZM415.711 51.3018C415.294 42.0741 407.664 34.536 398.404 34.2068C398.821 43.4345 406.451 50.9726 415.711 51.3018ZM119.608 51.3018C128.868 50.9726 136.499 43.4345 136.916 34.2068C127.656 34.536 120.025 42.0741 119.608 51.3018ZM156.783 51.3018C166.044 50.9726 173.674 43.4345 174.091 34.2068C164.831 34.536 157.201 42.0741 156.783 51.3018ZM378.54 51.3018C378.123 42.0741 370.493 34.536 361.233 34.2068C361.65 43.4345 369.28 50.9726 378.54 51.3018ZM192.677 51.3018C192.26 42.0741 184.629 34.536 175.369 34.2068C175.786 43.4345 183.417 50.9726 192.677 51.3018ZM379.818 51.3018C389.078 50.9726 396.709 43.4345 397.126 34.2068C387.866 34.536 380.235 42.0741 379.818 51.3018ZM193.954 51.3018C203.215 50.9726 210.845 43.4345 211.262 34.2068C202.002 34.536 194.372 42.0741 193.954 51.3018ZM155.506 51.3018C155.089 42.0741 147.458 34.536 138.198 34.2068C138.615 43.4345 146.246 50.9726 155.506 51.3018ZM342.643 51.3018C351.903 50.9726 359.534 43.4345 359.951 34.2068C350.691 34.536 343.06 42.0741 342.643 51.3018ZM229.852 51.3018C229.435 42.0741 221.804 34.536 212.544 34.2068C212.961 43.4345 220.592 50.9726 229.852 51.3018ZM45.2662 51.3018C54.5264 50.9726 62.157 43.4345 62.5742 34.2068C53.314 34.536 45.6833 42.0741 45.2662 51.3018ZM304.194 51.3018C303.777 42.0741 296.146 34.536 286.886 34.2068C287.303 43.4345 294.934 50.9726 304.194 51.3018ZM82.4372 51.3018C91.6973 50.9726 99.3279 43.4345 99.7451 34.2068C90.4849 34.536 82.8544 42.0741 82.4372 51.3018ZM231.125 51.3018C240.386 50.9726 248.016 43.4345 248.433 34.2068C239.173 34.536 231.543 42.0741 231.125 51.3018ZM268.301 51.3018C277.561 50.9726 285.192 43.4345 285.609 34.2068C276.349 34.536 268.718 42.0741 268.301 51.3018ZM43.9886 51.3018C43.5715 42.0741 35.9409 34.536 26.6807 34.2068C27.0978 43.4345 34.7285 50.9726 43.9886 51.3018ZM81.1596 51.3018C80.7424 42.0741 73.1118 34.536 63.8517 34.2068C64.2689 43.4345 71.8994 50.9726 81.1596 51.3018ZM267.023 51.3018C266.606 42.0741 258.975 34.536 249.715 34.2068C250.132 43.4345 257.763 50.9726 267.023 51.3018ZM449.502 52.1077C442.484 50.587 436.761 45.1847 434.936 38.1838C433.115 45.1847 427.388 50.587 420.37 52.1077C427.388 53.6283 433.111 59.0306 434.936 66.0315C436.757 59.0306 442.484 53.6283 449.502 52.1077ZM561.019 52.1077C554.001 50.587 548.278 45.1847 546.453 38.1838C544.632 45.1847 538.905 50.587 531.887 52.1077C538.905 53.6283 544.628 59.0306 546.453 66.0315C548.274 59.0306 554.001 53.6283 561.019 52.1077ZM598.19 52.1077C591.172 50.587 585.449 45.1847 583.624 38.1838C581.803 45.1847 576.076 50.587 569.058 52.1077C576.076 53.6283 581.799 59.0306 583.624 66.0272C585.445 59.0306 591.172 53.6239 598.19 52.1077ZM486.673 52.1077C479.655 50.587 473.932 45.1847 472.107 38.1838C470.286 45.1847 464.559 50.587 457.541 52.1077C464.559 53.6283 470.282 59.0306 472.107 66.0272C473.927 59.0306 479.655 53.6239 486.673 52.1077ZM523.848 52.1077C516.83 50.587 511.107 45.1847 509.282 38.1881C507.461 45.1847 501.734 50.5914 494.716 52.1077C501.734 53.6283 507.457 59.0306 509.282 66.0272C511.103 59.0306 516.83 53.6239 523.848 52.1077ZM263.638 52.1077C256.62 50.5914 250.897 45.1847 249.072 38.1881C247.251 45.1847 241.524 50.5914 234.506 52.1077C241.524 53.6239 247.247 59.0306 249.072 66.0272C250.893 59.0306 256.62 53.6239 263.638 52.1077ZM40.6035 52.1077C33.5856 50.5914 27.8627 45.1847 26.0376 38.1881C24.2168 45.1847 18.4895 50.5914 11.4716 52.1077C18.4895 53.6239 24.2125 59.0306 26.0376 66.0272C27.8583 59.0306 33.5856 53.6239 40.6035 52.1077ZM226.467 52.1077C219.449 50.587 213.726 45.1847 211.901 38.1881C210.08 45.1847 204.353 50.5914 197.335 52.1077C204.353 53.6283 210.076 59.0306 211.901 66.0272C213.722 59.0306 219.449 53.6239 226.467 52.1077ZM412.331 52.1077C405.313 50.587 399.59 45.1847 397.765 38.1881C395.944 45.1847 390.217 50.5914 383.199 52.1077C390.217 53.6283 395.94 59.0306 397.765 66.0272C399.585 59.0306 405.313 53.6239 412.331 52.1077ZM114.95 52.1077C107.932 50.587 102.209 45.1847 100.384 38.1881C98.5631 45.1847 92.8359 50.5914 85.8179 52.1077C92.8359 53.6239 98.5588 59.0306 100.384 66.0272C102.205 59.0306 107.932 53.6239 114.95 52.1077ZM77.7745 52.1077C70.7566 50.5914 65.0336 45.1847 63.2086 38.1881C61.3878 45.1847 55.6605 50.5914 48.6426 52.1077C55.6605 53.6283 61.3835 59.0306 63.2086 66.0272C65.0293 59.0306 70.7566 53.6239 77.7745 52.1077ZM152.121 52.1077C145.103 50.5914 139.38 45.1847 137.555 38.1881C135.734 45.1847 130.007 50.5914 122.989 52.1077C130.007 53.6283 135.73 59.0306 137.555 66.0272C139.376 59.0306 145.103 53.6239 152.121 52.1077ZM300.813 52.1077C293.796 50.5914 288.073 45.1847 286.247 38.1881C284.427 45.1847 278.699 50.5914 271.682 52.1077C278.699 53.6283 284.422 59.0306 286.247 66.0272C288.068 59.0306 293.796 53.6239 300.813 52.1077ZM375.155 52.1077C368.137 50.5914 362.415 45.1847 360.589 38.1881C358.769 45.1847 353.041 50.5914 346.023 52.1077C353.041 53.6283 358.764 59.0306 360.589 66.0272C362.41 59.0306 368.137 53.6239 375.155 52.1077ZM189.292 52.1077C182.274 50.5914 176.551 45.1847 174.726 38.1881C172.905 45.1847 167.178 50.5914 160.16 52.1077C167.178 53.6239 172.901 59.0306 174.726 66.0272C176.547 59.0306 182.274 53.6239 189.292 52.1077ZM337.984 52.1077C330.966 50.587 325.244 45.1847 323.418 38.1881C321.598 45.1847 315.87 50.5914 308.853 52.1077C315.87 53.6239 321.593 59.0306 323.418 66.0272C325.239 59.0306 330.966 53.6239 337.984 52.1077ZM471.472 70.0085C471.055 60.7808 463.425 53.2427 454.164 52.9135C454.582 62.1412 462.212 69.6793 471.472 70.0085ZM508.643 70.0085C508.226 60.7808 500.596 53.2427 491.335 52.9135C491.753 62.1412 499.383 69.6793 508.643 70.0085ZM620.161 70.0085C619.743 60.7808 612.113 53.2427 602.853 52.9135C603.27 62.1412 610.9 69.6793 620.161 70.0085ZM509.921 70.0085C519.181 69.6793 526.812 62.1412 527.229 52.9135C517.969 53.2427 510.338 60.7808 509.921 70.0085ZM547.092 70.0085C556.352 69.6793 563.983 62.1412 564.4 52.9135C555.14 53.2427 547.509 60.7808 547.092 70.0085ZM434.297 70.0085C433.88 60.7808 426.249 53.2427 416.989 52.9135C417.406 62.1412 425.037 69.6793 434.297 70.0085ZM545.814 70.0085C545.397 60.7808 537.766 53.2427 528.506 52.9135C528.923 62.1412 536.554 69.6793 545.814 70.0085ZM582.99 70.0085C582.572 60.7808 574.942 53.2427 565.682 52.9135C566.099 62.1412 573.729 69.6793 582.99 70.0085ZM435.575 70.0085C444.835 69.6793 452.465 62.1412 452.882 52.9135C443.622 53.2427 435.992 60.7808 435.575 70.0085ZM472.746 70.0085C482.006 69.6793 489.636 62.1412 490.053 52.9135C480.793 53.2427 473.163 60.7808 472.746 70.0085ZM584.263 70.0085C593.523 69.6793 601.154 62.1412 601.571 52.9135C592.311 53.2427 584.68 60.7808 584.263 70.0085ZM398.404 70.0085C407.664 69.6793 415.294 62.1412 415.711 52.9135C406.451 53.2427 398.821 60.7808 398.404 70.0085ZM101.023 70.0085C110.283 69.6793 117.913 62.1412 118.331 52.9135C109.07 53.2427 101.44 60.7808 101.023 70.0085ZM322.78 70.0085C322.363 60.7808 314.732 53.2427 305.467 52.9135C305.885 62.1412 313.515 69.6793 322.78 70.0085ZM212.54 70.0085C221.8 69.6793 229.431 62.1412 229.848 52.9135C220.588 53.2427 212.957 60.7808 212.54 70.0085ZM25.4031 70.0085C24.986 60.7808 17.3553 53.2427 8.09521 52.9135C8.51233 62.1412 16.143 69.6793 25.4031 70.0085ZM324.057 70.0085C333.317 69.6793 340.948 62.1412 341.365 52.9135C332.105 53.2427 324.474 60.7808 324.057 70.0085ZM62.5742 70.0085C62.157 60.7808 54.5264 53.2427 45.2662 52.9135C45.6833 62.1412 53.314 69.6793 62.5742 70.0085ZM136.92 70.0085C136.503 60.7808 128.873 53.2427 119.612 52.9135C120.03 62.1412 127.66 69.6793 136.92 70.0085ZM361.228 70.0085C370.488 69.6793 378.119 62.1412 378.536 52.9135C369.276 53.2427 361.645 60.7808 361.228 70.0085ZM286.886 70.0085C296.146 69.6793 303.777 62.1412 304.194 52.9135C294.934 53.2427 287.303 60.7808 286.886 70.0085ZM397.126 70.0085C396.709 60.7808 389.078 53.2427 379.818 52.9135C380.235 62.1412 387.866 69.6793 397.126 70.0085ZM26.6807 70.0085C35.9409 69.6793 43.5715 62.1412 43.9886 52.9135C34.7285 53.2427 27.0978 60.7808 26.6807 70.0085ZM63.8517 70.0085C73.1118 69.6793 80.7424 62.1412 81.1596 52.9135C71.8994 53.2427 64.2689 60.7808 63.8517 70.0085ZM138.198 70.0085C147.458 69.6793 155.089 62.1412 155.506 52.9135C146.246 53.2427 138.615 60.7808 138.198 70.0085ZM175.369 70.0085C184.629 69.6793 192.26 62.1412 192.677 52.9135C183.417 53.2427 175.786 60.7808 175.369 70.0085ZM249.711 70.0085C258.971 69.6793 266.602 62.1412 267.019 52.9135C257.759 53.2427 250.128 60.7808 249.711 70.0085ZM359.955 70.0085C359.538 60.7808 351.907 53.2427 342.647 52.9135C343.064 62.1412 350.695 69.6793 359.955 70.0085ZM99.7451 70.0085C99.3279 60.7808 91.6973 53.2427 82.4372 52.9135C82.8544 62.1412 90.4849 69.6793 99.7451 70.0085ZM174.091 70.0085C173.674 60.7808 166.044 53.2427 156.783 52.9135C157.201 62.1412 164.831 69.6793 174.091 70.0085ZM211.262 70.0085C210.845 60.7808 203.215 53.2427 193.954 52.9135C194.372 62.1412 202.002 69.6793 211.262 70.0085ZM248.438 70.0085C248.021 60.7808 240.39 53.2427 231.13 52.9135C231.547 62.1412 239.178 69.6793 248.438 70.0085ZM285.609 70.0085C285.192 60.7808 277.561 53.2427 268.301 52.9135C268.718 62.1412 276.349 69.6793 285.609 70.0085ZM505.258 70.8187C498.24 69.298 492.517 63.8957 490.697 56.8948C488.876 63.8914 483.149 69.298 476.131 70.8187C483.149 72.3393 488.871 77.7416 490.697 84.7425C492.517 77.7459 498.245 72.3393 505.258 70.8187ZM430.916 70.8187C423.898 69.298 418.175 63.8957 416.35 56.8948C414.53 63.8914 408.802 69.298 401.784 70.8187C408.802 72.3393 414.525 77.7416 416.35 84.7425C418.171 77.7416 423.898 72.3393 430.916 70.8187ZM468.087 70.8187C461.069 69.298 455.346 63.8957 453.521 56.8948C451.701 63.8914 445.973 69.298 438.955 70.8187C445.973 72.3393 451.696 77.7416 453.521 84.7425C455.342 77.7416 461.069 72.3393 468.087 70.8187ZM542.433 70.8187C535.416 69.298 529.693 63.8957 527.868 56.8948C526.047 63.8914 520.319 69.298 513.302 70.8187C520.319 72.3393 526.042 77.7416 527.868 84.7425C529.688 77.7416 535.416 72.3393 542.433 70.8187ZM579.604 70.8187C572.587 69.298 566.864 63.8957 565.039 56.8948C563.218 63.8914 557.49 69.298 550.473 70.8187C557.49 72.3393 563.213 77.7416 565.039 84.7425C566.859 77.7416 572.587 72.3393 579.604 70.8187ZM616.775 70.8187C609.758 69.298 604.035 63.8957 602.21 56.8948C600.389 63.8914 594.661 69.298 587.644 70.8187C594.661 72.3393 600.384 77.7416 602.21 84.7425C604.03 77.7416 609.758 72.3393 616.775 70.8187ZM133.535 70.8187C126.517 69.298 120.794 63.8957 118.969 56.8991C117.149 63.8957 111.421 69.3024 104.403 70.8187C111.421 72.335 117.144 77.7416 118.969 84.7382C120.79 77.7416 126.517 72.335 133.535 70.8187ZM245.053 70.8187C238.035 69.298 232.312 63.8957 230.487 56.8991C228.666 63.8957 222.939 69.3024 215.921 70.8187C222.939 72.335 228.662 77.7416 230.487 84.7382C232.307 77.7416 238.035 72.335 245.053 70.8187ZM59.189 70.8187C52.1711 69.298 46.4482 63.8957 44.623 56.8991C42.8023 63.8957 37.075 69.3024 30.0571 70.8187C37.075 72.335 42.798 77.7416 44.623 84.7382C46.4438 77.7416 52.1711 72.335 59.189 70.8187ZM96.3643 70.8187C89.3464 69.298 83.6235 63.8957 81.7984 56.8991C79.9777 63.8957 74.2504 69.3024 67.2325 70.8187C74.2504 72.335 79.9733 77.7416 81.7984 84.7382C83.6191 77.7416 89.3464 72.335 96.3643 70.8187ZM170.706 70.8187C163.688 69.298 157.965 63.8957 156.14 56.8991C154.32 63.8957 148.592 69.3024 141.574 70.8187C148.592 72.335 154.315 77.7416 156.14 84.7382C157.961 77.7416 163.688 72.335 170.706 70.8187ZM207.882 70.8187C200.864 69.298 195.141 63.8957 193.316 56.8991C191.495 63.8957 185.768 69.3024 178.75 70.8187C185.768 72.335 191.491 77.7416 193.316 84.7382C195.136 77.7416 200.864 72.335 207.882 70.8187ZM282.224 70.8187C275.206 69.298 269.483 63.8957 267.658 56.8991C265.837 63.8957 260.11 69.3024 253.092 70.8187C260.11 72.335 265.833 77.7416 267.658 84.7382C269.478 77.7416 275.206 72.335 282.224 70.8187ZM319.399 70.8187C312.381 69.298 306.658 63.8957 304.833 56.8991C303.012 63.8957 297.285 69.3024 290.267 70.8187C297.285 72.335 303.008 77.7416 304.833 84.7382C306.654 77.7416 312.381 72.335 319.399 70.8187ZM356.57 70.8187C349.552 69.298 343.829 63.8957 342.004 56.8991C340.183 63.8957 334.456 69.3024 327.438 70.8187C334.456 72.335 340.179 77.7416 342.004 84.7382C343.825 77.7416 349.552 72.335 356.57 70.8187ZM393.741 70.8187C386.723 69.298 381 63.8957 379.175 56.8991C377.354 63.8957 371.627 69.3024 364.609 70.8187C371.627 72.335 377.35 77.7416 379.175 84.7382C380.996 77.7416 386.723 72.335 393.741 70.8187ZM305.472 88.7196C314.732 88.3903 322.363 80.8522 322.784 71.6245C313.524 71.9537 305.893 79.4919 305.472 88.7196ZM527.229 88.7196C526.812 79.4919 519.181 71.9537 509.921 71.6245C510.338 80.8522 517.969 88.3903 527.229 88.7196ZM564.404 88.7196C563.987 79.4919 556.356 71.9537 547.096 71.6245C547.513 80.8522 555.144 88.3903 564.404 88.7196ZM454.16 88.7196C463.42 88.3903 471.051 80.8522 471.468 71.6245C462.208 71.9537 454.577 79.4919 454.16 88.7196ZM491.335 88.7196C500.596 88.3903 508.226 80.8522 508.643 71.6245C499.383 71.9537 491.753 79.4919 491.335 88.7196ZM416.989 88.7196C426.249 88.3903 433.88 80.8522 434.297 71.6245C425.037 71.9537 417.406 79.4919 416.989 88.7196ZM602.853 88.7196C612.113 88.3903 619.743 80.8522 620.161 71.6245C610.9 71.9537 603.27 79.4919 602.853 88.7196ZM452.887 88.7196C452.47 79.4919 444.839 71.9537 435.579 71.6245C435.996 80.8522 443.627 88.3903 452.887 88.7196ZM490.058 88.7196C489.641 79.4919 482.01 71.9537 472.75 71.6245C473.167 80.8522 480.798 88.3903 490.058 88.7196ZM528.506 88.7196C537.766 88.3903 545.397 80.8522 545.814 71.6245C536.554 71.9537 528.923 79.4919 528.506 88.7196ZM565.677 88.7196C574.937 88.3903 582.568 80.8522 582.985 71.6245C573.725 71.9537 566.094 79.4919 565.677 88.7196ZM601.575 88.7196C601.158 79.4919 593.527 71.9537 584.267 71.6245C584.684 80.8522 592.315 88.3903 601.575 88.7196ZM415.711 88.7196C415.294 79.4919 407.664 71.9537 398.404 71.6245C398.821 80.8522 406.451 88.3903 415.711 88.7196ZM341.37 88.7196C340.952 79.4919 333.322 71.9537 324.062 71.6245C324.479 80.8522 332.109 88.3903 341.37 88.7196ZM229.852 88.7196C229.435 79.4919 221.804 71.9537 212.544 71.6245C212.961 80.8522 220.592 88.3903 229.852 88.7196ZM155.506 88.7196C155.089 79.4919 147.458 71.9537 138.198 71.6245C138.615 80.8522 146.246 88.3903 155.506 88.7196ZM342.643 88.7196C351.903 88.3903 359.534 80.8522 359.951 71.6245C350.691 71.9537 343.06 79.4919 342.643 88.7196ZM193.954 88.7196C203.215 88.3903 210.845 80.8522 211.262 71.6245C202.002 71.9537 194.372 79.4919 193.954 88.7196ZM379.818 88.7196C389.078 88.3903 396.709 80.8522 397.126 71.6245C387.866 71.9537 380.235 79.4919 379.818 88.7196ZM119.608 88.7196C128.868 88.3903 136.499 80.8522 136.916 71.6245C127.656 71.9537 120.025 79.4919 119.608 88.7196ZM378.54 88.7196C378.123 79.4919 370.493 71.9537 361.233 71.6245C361.65 80.8522 369.28 88.3903 378.54 88.7196ZM192.677 88.7196C192.26 79.4919 184.629 71.9537 175.369 71.6245C175.786 80.8522 183.417 88.3903 192.677 88.7196ZM156.783 88.7196C166.044 88.3903 173.674 80.8522 174.091 71.6245C164.831 71.9537 157.201 79.4919 156.783 88.7196ZM118.331 88.7196C117.913 79.4919 110.283 71.9537 101.023 71.6245C101.44 80.8522 109.07 88.3903 118.331 88.7196ZM45.2662 88.7196C54.5264 88.3903 62.157 80.8522 62.5742 71.6245C53.314 71.9537 45.6833 79.4919 45.2662 88.7196ZM304.194 88.7196C303.777 79.4919 296.146 71.9537 286.886 71.6245C287.303 80.8522 294.934 88.3903 304.194 88.7196ZM82.4372 88.7196C91.6973 88.3903 99.3279 80.8522 99.7451 71.6245C90.4849 71.9537 82.8544 79.4919 82.4372 88.7196ZM231.125 88.7196C240.386 88.3903 248.016 80.8522 248.433 71.6245C239.173 71.9537 231.543 79.4919 231.125 88.7196ZM268.301 88.7196C277.561 88.3903 285.192 80.8522 285.609 71.6245C276.349 71.9537 268.718 79.4919 268.301 88.7196ZM43.9886 88.7196C43.5715 79.4919 35.9409 71.9537 26.6807 71.6245C27.0978 80.8522 34.7285 88.3903 43.9886 88.7196ZM81.1596 88.7196C80.7424 79.4919 73.1118 71.9537 63.8517 71.6245C64.2689 80.8522 71.8994 88.3903 81.1596 88.7196ZM267.023 88.7196C266.606 79.4919 258.975 71.9537 249.715 71.6245C250.132 80.8522 257.763 88.3903 267.023 88.7196ZM449.502 89.5254C442.484 88.0047 436.761 82.6024 434.936 75.6015C433.115 82.6024 427.388 88.0047 420.37 89.5254C427.388 91.046 433.111 96.4483 434.936 103.449C436.757 96.4483 442.484 91.046 449.502 89.5254ZM561.019 89.5254C554.001 88.0047 548.278 82.6024 546.453 75.6015C544.632 82.5981 538.914 88.0004 531.9 89.521C539.066 91.0503 544.658 96.4526 546.453 103.436C548.278 96.4396 554.001 91.0373 561.015 89.521L561.019 89.5254ZM486.673 89.5254C479.655 88.0047 473.932 82.6024 472.107 75.6058C470.286 82.6024 464.559 88.0091 457.541 89.5254C464.559 91.046 470.282 96.4483 472.107 103.449C473.927 96.4526 479.655 91.046 486.673 89.5254ZM263.638 89.5254C256.62 88.0091 250.897 82.6024 249.072 75.6058C247.251 82.6024 241.524 88.0091 234.506 89.5254C241.524 91.046 247.247 96.4483 249.072 103.445C250.893 96.4483 256.62 91.0416 263.638 89.5254ZM114.95 89.5254C107.932 88.0091 102.209 82.6024 100.384 75.6058C98.5631 82.6024 92.8359 88.0091 85.8179 89.5254C92.8359 91.046 98.5588 96.4483 100.384 103.445C102.205 96.4483 107.932 91.0416 114.95 89.5254ZM226.467 89.5254C219.449 88.0091 213.726 82.6024 211.901 75.6058C210.08 82.6024 204.353 88.0091 197.335 89.5254C204.353 91.046 210.076 96.4483 211.901 103.445C213.722 96.4483 219.449 91.0416 226.467 89.5254ZM412.331 89.5254C405.313 88.0091 399.59 82.6024 397.765 75.6058C395.944 82.6024 390.217 88.0091 383.199 89.5254C390.217 91.046 395.94 96.4483 397.765 103.445C399.585 96.4483 405.313 91.0416 412.331 89.5254ZM152.121 89.5254C145.103 88.0091 139.38 82.6024 137.555 75.6058C135.734 82.6024 130.007 88.0091 122.989 89.5254C130.007 91.046 135.73 96.4483 137.555 103.445C139.376 96.4483 145.103 91.0416 152.121 89.5254ZM300.809 89.5254C293.791 88.0091 288.068 82.6024 286.243 75.6058C284.422 82.6024 278.695 88.0091 271.677 89.5254C278.695 91.046 284.418 96.4483 286.243 103.445C288.064 96.4483 293.791 91.0416 300.809 89.5254ZM375.155 89.5254C368.137 88.0091 362.415 82.6024 360.589 75.6058C358.769 82.6024 353.041 88.0091 346.023 89.5254C353.041 91.046 358.764 96.4483 360.589 103.445C362.41 96.4483 368.137 91.0416 375.155 89.5254ZM189.292 89.5254C182.274 88.0091 176.551 82.6024 174.726 75.6058C172.905 82.6024 167.178 88.0091 160.16 89.5254C167.178 91.046 172.901 96.4483 174.726 103.445C176.547 96.4483 182.274 91.0416 189.292 89.5254ZM337.984 89.5254C330.966 88.0047 325.244 82.6024 323.418 75.6058C321.598 82.6024 315.87 88.0047 308.853 89.5254C315.87 91.046 321.593 96.4483 323.418 103.445C325.239 96.4483 330.966 91.046 337.984 89.5254ZM398.404 107.426C407.664 107.097 415.294 99.5589 415.711 90.3312C406.451 90.6604 398.821 98.1985 398.404 107.426ZM434.297 107.426C433.88 98.1985 426.249 90.6604 416.989 90.3312C417.406 99.5589 425.037 107.097 434.297 107.426ZM435.575 107.426C444.835 107.097 452.465 99.5589 452.882 90.3312C443.622 90.6604 435.992 98.1985 435.575 107.426ZM324.057 107.426C333.317 107.097 340.948 99.5589 341.365 90.3312C332.105 90.6604 324.474 98.1985 324.057 107.426ZM175.369 107.426C184.629 107.097 192.26 99.5589 192.677 90.3312C183.417 90.6604 175.786 98.1985 175.369 107.426ZM397.126 107.426C396.709 98.1985 389.078 90.6604 379.818 90.3312C380.235 99.5589 387.866 107.097 397.126 107.426ZM174.091 107.426C173.674 98.1985 166.044 90.6604 156.783 90.3312C157.201 99.5589 164.831 107.097 174.091 107.426ZM136.92 107.426C136.503 98.1985 128.873 90.6604 119.612 90.3312C120.03 99.5589 127.66 107.097 136.92 107.426ZM211.262 107.426C210.845 98.1985 203.215 90.6604 193.954 90.3312C194.372 99.5589 202.002 107.097 211.262 107.426ZM361.228 107.426C370.488 107.097 378.119 99.5589 378.536 90.3312C369.276 90.6604 361.645 98.1985 361.228 107.426ZM138.194 107.426C147.454 107.097 155.084 99.5589 155.502 90.3312C146.241 90.6604 138.611 98.1985 138.194 107.426ZM359.955 107.426C359.538 98.1985 351.907 90.6604 342.647 90.3312C343.064 99.5589 350.695 107.097 359.955 107.426ZM101.023 107.426C110.283 107.097 117.913 99.5589 118.331 90.3312C109.07 90.6604 101.44 98.1985 101.023 107.426ZM322.78 107.426C322.363 98.1985 314.732 90.6604 305.467 90.3312C305.885 99.5589 313.515 107.097 322.78 107.426ZM212.54 107.426C221.8 107.097 229.431 99.5589 229.848 90.3312C220.588 90.6604 212.957 98.1985 212.54 107.426ZM286.886 107.426C296.146 107.097 303.777 99.5589 304.194 90.3312C294.934 90.6604 287.303 98.1985 286.886 107.426ZM63.8517 107.426C73.1118 107.097 80.7424 99.5589 81.1596 90.3312C71.8994 90.6604 64.2689 98.1985 63.8517 107.426ZM249.711 107.426C258.971 107.097 266.602 99.5589 267.019 90.3312C257.759 90.6604 250.128 98.1985 249.711 107.426ZM99.7451 107.426C99.3279 98.1985 91.6973 90.6604 82.4372 90.3312C82.8544 99.5589 90.4849 107.097 99.7451 107.426ZM248.438 107.426C248.021 98.1985 240.39 90.6604 231.13 90.3312C231.547 99.5589 239.178 107.097 248.438 107.426ZM285.609 107.426C285.192 98.1985 277.561 90.6604 268.301 90.3312C268.718 99.5589 276.349 107.097 285.609 107.426ZM133.535 108.236C126.517 106.72 120.794 101.313 118.969 94.3168C117.149 101.313 111.421 106.72 104.403 108.236C111.421 109.757 117.144 115.159 118.969 122.156C120.79 115.159 126.517 109.753 133.535 108.236ZM245.053 108.236C238.035 106.72 232.312 101.313 230.487 94.3168C228.666 101.313 222.939 106.72 215.921 108.236C222.939 109.757 228.662 115.159 230.487 122.156C232.307 115.159 238.035 109.753 245.053 108.236ZM96.3643 108.236C89.3464 106.72 83.6235 101.313 81.7984 94.3168C79.9777 101.313 74.2504 106.72 67.2325 108.236C74.2504 109.757 79.9733 115.159 81.7984 122.156C83.6191 115.159 89.3464 109.753 96.3643 108.236ZM170.706 108.236C163.688 106.72 157.965 101.313 156.14 94.3168C154.32 101.313 148.592 106.72 141.574 108.236C148.592 109.757 154.315 115.159 156.14 122.156C157.961 115.159 163.688 109.753 170.706 108.236ZM207.882 108.236C200.864 106.72 195.141 101.313 193.316 94.3168C191.495 101.313 185.768 106.72 178.75 108.236C185.768 109.757 191.491 115.159 193.316 122.156C195.136 115.159 200.864 109.753 207.882 108.236ZM282.224 108.236C275.206 106.72 269.483 101.313 267.658 94.3168C265.837 101.313 260.11 106.72 253.092 108.236C260.11 109.757 265.833 115.159 267.658 122.156C269.478 115.159 275.206 109.753 282.224 108.236ZM319.399 108.236C312.381 106.72 306.658 101.313 304.833 94.3168C303.012 101.313 297.285 106.72 290.267 108.236C297.285 109.757 303.008 115.159 304.833 122.156C306.654 115.159 312.381 109.753 319.399 108.236ZM356.57 108.236C349.552 106.72 343.829 101.313 342.004 94.3168C340.183 101.313 334.456 106.72 327.438 108.236C334.456 109.757 340.179 115.159 342.004 122.156C343.825 115.159 349.552 109.753 356.57 108.236ZM393.741 108.236C386.723 106.72 381 101.313 379.175 94.3168C377.354 101.313 371.627 106.72 364.609 108.236C371.627 109.757 377.35 115.159 379.175 122.156C380.996 115.159 386.723 109.753 393.741 108.236ZM468.044 108.236C460.909 106.698 455.316 101.261 453.521 94.3168C451.696 101.313 445.973 106.716 438.96 108.236C445.978 109.757 451.701 115.159 453.521 122.156C455.316 115.224 460.917 109.774 468.044 108.236ZM452.887 126.137C452.47 116.91 444.839 109.371 435.579 109.042C435.996 118.27 443.627 125.808 452.887 126.137ZM305.472 126.137C314.732 125.808 322.363 118.27 322.784 109.042C313.524 109.371 305.893 116.91 305.472 126.137ZM341.37 126.137C340.952 116.91 333.322 109.371 324.062 109.042C324.479 118.27 332.109 125.808 341.37 126.137ZM229.852 126.137C229.435 116.91 221.804 109.371 212.544 109.042C212.961 118.27 220.592 125.808 229.852 126.137ZM378.54 126.137C378.123 116.91 370.493 109.371 361.233 109.042C361.65 118.27 369.28 125.808 378.54 126.137ZM304.194 126.137C303.777 116.91 296.146 109.371 286.886 109.042C287.303 118.27 294.934 125.808 304.194 126.137ZM379.818 126.137C389.078 125.808 396.709 118.27 397.126 109.042C387.866 109.371 380.235 116.91 379.818 126.137ZM82.4372 126.137C91.6973 125.808 99.3279 118.27 99.7451 109.042C90.4849 109.371 82.8544 116.91 82.4372 126.137ZM156.783 126.137C166.044 125.808 173.674 118.27 174.091 109.042C164.831 109.371 157.201 116.91 156.783 126.137ZM193.954 126.137C203.215 125.808 210.845 118.27 211.262 109.042C202.002 109.371 194.372 116.91 193.954 126.137ZM231.125 126.137C240.386 125.808 248.016 118.27 248.433 109.042C239.173 109.371 231.543 116.91 231.125 126.137ZM268.301 126.137C277.561 125.808 285.192 118.27 285.609 109.042C276.349 109.371 268.718 116.91 268.301 126.137ZM81.1596 126.137C80.7424 116.91 73.1118 109.371 63.8517 109.042C64.2689 118.27 71.8994 125.808 81.1596 126.137ZM155.506 126.137C155.089 116.91 147.458 109.371 138.198 109.042C138.615 118.27 146.246 125.808 155.506 126.137ZM192.677 126.137C192.26 116.91 184.629 109.371 175.369 109.042C175.786 118.27 183.417 125.808 192.677 126.137ZM267.023 126.137C266.606 116.91 258.975 109.371 249.715 109.042C250.132 118.27 257.763 125.808 267.023 126.137ZM342.643 126.137C351.903 125.808 359.534 118.27 359.951 109.042C350.691 109.371 343.06 116.91 342.643 126.137ZM152.121 126.943C145.103 125.422 139.376 120.02 137.555 113.019C135.738 119.964 130.037 125.418 123.011 126.943C130.037 128.468 135.738 133.931 137.555 140.867C139.376 133.866 145.103 128.464 152.121 126.943ZM263.638 126.943C256.62 125.427 250.897 120.02 249.072 113.024C247.251 120.02 241.524 125.427 234.506 126.943C241.524 128.464 247.247 133.866 249.072 140.863C250.893 133.866 256.62 128.459 263.638 126.943ZM226.467 126.943C219.449 125.427 213.726 120.02 211.901 113.024C210.08 120.02 204.353 125.427 197.335 126.943C204.353 128.464 210.076 133.866 211.901 140.863C213.722 133.866 219.449 128.459 226.467 126.943ZM300.813 126.943C293.796 125.427 288.073 120.02 286.247 113.024C284.427 120.02 278.699 125.427 271.682 126.943C278.699 128.464 284.422 133.866 286.247 140.863C288.068 133.866 293.796 128.459 300.813 126.943ZM189.292 126.943C182.274 125.427 176.551 120.02 174.726 113.024C172.905 120.02 167.178 125.427 160.16 126.943C167.178 128.464 172.901 133.866 174.726 140.863C176.547 133.866 182.274 128.459 189.292 126.943ZM337.984 126.943C330.966 125.427 325.244 120.02 323.418 113.024C321.598 120.02 315.87 125.427 308.853 126.943C315.87 128.464 321.593 133.866 323.418 140.863C325.239 133.866 330.966 128.459 337.984 126.943ZM324.057 144.844C333.317 144.515 340.948 136.977 341.365 127.749C332.105 128.078 324.474 135.616 324.057 144.844ZM175.369 144.844C184.629 144.515 192.26 136.977 192.677 127.749C183.417 128.078 175.786 135.616 175.369 144.844ZM211.262 144.844C210.845 135.616 203.215 128.078 193.954 127.749C194.372 136.977 202.002 144.515 211.262 144.844ZM322.78 144.844C322.363 135.616 314.732 128.078 305.467 127.749C305.885 136.977 313.515 144.515 322.78 144.844ZM212.54 144.844C221.8 144.515 229.431 136.977 229.848 127.749C220.588 128.078 212.957 135.616 212.54 144.844ZM286.886 144.844C296.146 144.515 303.777 136.977 304.194 127.749C294.934 128.078 287.303 135.616 286.886 144.844ZM249.711 144.844C258.971 144.515 266.602 136.977 267.019 127.749C257.759 128.078 250.128 135.616 249.711 144.844ZM248.438 144.844C248.021 135.616 240.39 128.078 231.13 127.749C231.547 136.977 239.178 144.515 248.438 144.844ZM285.609 144.844C285.192 135.616 277.561 128.078 268.301 127.749C268.718 136.977 276.349 144.515 285.609 144.844ZM245.053 145.654C238.035 144.133 232.312 138.731 230.487 131.735C228.666 138.731 222.939 144.138 215.921 145.654C222.939 147.17 228.662 152.577 230.487 159.574C232.307 152.577 238.035 147.17 245.053 145.654ZM282.224 145.654C275.206 144.133 269.483 138.731 267.658 131.735C265.837 138.731 260.11 144.138 253.092 145.654C260.11 147.17 265.833 152.577 267.658 159.574C269.478 152.577 275.206 147.17 282.224 145.654ZM229.852 163.555C229.435 154.327 221.804 146.789 212.544 146.46C212.961 155.688 220.592 163.226 229.852 163.555ZM231.125 163.555C240.386 163.226 248.016 155.688 248.433 146.46C239.173 146.789 231.543 154.327 231.125 163.555ZM268.301 163.555C277.561 163.226 285.192 155.688 285.609 146.46C276.349 146.789 268.718 154.327 268.301 163.555ZM267.023 163.555C266.606 154.327 258.975 146.789 249.715 146.46C250.132 155.688 257.763 163.226 267.023 163.555ZM190.778 153.872C191.786 155.402 192.568 157.057 193.098 158.789L192.308 159.136C191.399 157.585 190.626 155.943 190.009 154.258L190.782 153.872H190.778Z" fill="#730815"/>
</svg>
