<svg width="634" height="208" viewBox="0 0 634 208" fill="none" xmlns="http://www.w3.org/2000/svg">
<path d="M665.4 139.998C665.024 141.911 664.484 143.769 663.78 145.553L663.557 145.682L642.066 133.268L647.907 129.894L665.4 139.993V139.998ZM648.898 162.118C650.998 161.018 652.955 159.685 654.739 158.169V142.882L648.898 139.507V162.118ZM663.295 121.014L657.716 124.235L665.584 128.779C665.148 126.054 664.37 123.452 663.295 121.014ZM655.735 125.38L649.894 128.754L665.747 137.912C666.015 135.796 666.074 133.62 665.906 131.41C665.906 131.356 665.891 131.301 665.891 131.242L655.74 125.38H655.735ZM638.102 133.268L616.611 120.855L610.77 124.23L632.261 136.643L638.102 133.268ZM624.433 141.162L630.275 137.788L608.783 125.375L602.942 128.749L624.433 141.162ZM622.452 142.307L600.96 129.894L595.119 133.268L616.611 145.682L622.452 142.307ZM623.443 122.515V103.829C621.624 104.478 619.88 105.271 618.236 106.222C618.028 105.97 617.815 105.722 617.602 105.474V119.141L623.443 122.515ZM631.27 102.213L631.137 102.139C629.17 102.322 627.262 102.684 625.424 103.204V123.66L631.266 127.035V102.213H631.27ZM639.093 106.733L633.252 103.358V128.179L639.093 131.554V106.733ZM641.075 124.805V131.554L662.443 119.215C661.541 117.471 660.476 115.826 659.282 114.295L641.075 124.81V124.805ZM641.075 122.515L657.999 112.744C656.646 111.212 655.145 109.82 653.53 108.576L641.08 115.766V122.515H641.075ZM641.075 113.482L651.751 107.317C649.829 106.039 647.773 104.964 645.598 104.121L641.075 106.733V113.482ZM643.101 103.274C640.466 102.501 637.701 102.055 634.852 101.995L640.084 105.018L643.101 103.279V103.274ZM617.602 181.742C618.929 180.523 620.153 179.19 621.258 177.767L617.602 175.656V181.742ZM644.434 164.041L640.084 161.529L634.243 164.903L635.635 165.706C635.952 165.691 636.264 165.676 636.581 165.652C639.321 165.439 641.952 164.888 644.434 164.041ZM624.433 170.562L618.592 173.937L622.427 176.152C623.522 174.541 624.473 172.837 625.261 171.043L624.433 170.567V170.562ZM646.916 163.065V138.363L641.075 134.988V159.809L646.797 163.114C646.837 163.1 646.876 163.08 646.916 163.065ZM656.726 144.027V156.336C659.074 153.972 661.056 151.251 662.567 148.263V147.401L656.726 144.027ZM627.223 164.993C627.946 165.151 628.679 165.285 629.417 165.399L639.093 159.809V153.06L617.602 165.473V172.222L626.727 166.95C626.911 166.306 627.079 165.652 627.223 164.993ZM639.093 144.027L617.602 156.44V163.189L639.093 150.776V144.027ZM617.602 154.145L639.093 141.732V134.983L617.602 147.396V154.145ZM601.951 164.329L607.792 167.703V142.882L601.951 139.507V164.329ZM592.141 141.737V134.988L570.65 147.401V154.15L592.141 141.737ZM577.487 141.162L583.328 137.788L561.836 125.375L555.995 128.749L569.664 136.643L577.487 141.162ZM575.505 142.307L569.664 138.932L554.013 129.894L548.172 133.268L569.664 145.682L575.505 142.307ZM576.496 122.515V99.5673C574.356 100.935 572.399 102.54 570.655 104.359V119.141L576.496 122.515ZM584.319 102.213L578.478 98.8389V123.66L584.319 127.035V102.213ZM592.141 106.733L586.3 103.358V128.179L592.141 131.554V106.733ZM615.62 112.392L594.128 124.805V131.554L615.62 119.141V112.392ZM594.123 122.515L615.615 110.102V103.408C615.615 103.408 615.59 103.388 615.58 103.373L594.123 115.766V122.515ZM594.123 113.482L614.025 101.99C612.36 100.603 610.557 99.379 608.639 98.3532L594.123 106.733V113.482ZM591.156 94.6764C591.076 94.6813 590.997 94.6912 590.918 94.7011L600.96 100.499L606.494 97.3027C601.827 95.2314 596.6 94.2552 591.156 94.6764ZM598.978 101.639L587.707 95.1323C585.067 95.6278 582.545 96.4454 580.192 97.5406L593.132 105.013L598.973 101.639H598.978ZM570.65 186.003C572.111 184.744 573.464 183.362 574.678 181.865C575.262 182.396 575.872 182.896 576.491 183.377V179.026L570.65 175.651V185.998V186.003ZM578.478 184.819C580.306 186.033 582.263 187.059 584.319 187.876V183.55L578.478 180.176V184.819ZM586.3 184.695V188.585C588.183 189.194 590.135 189.635 592.141 189.883V188.069L586.3 184.695ZM598.528 190.032C600.395 189.888 602.214 189.581 603.967 189.135L615.62 182.406V175.656L594.128 188.069V190.062C595.575 190.151 597.041 190.146 598.528 190.032ZM614.629 173.937L593.137 161.524L587.296 164.898L608.788 177.311L614.629 173.937ZM606.801 178.456L585.31 166.043L579.468 169.418L600.96 181.831L606.801 178.456ZM598.978 182.975L577.487 170.562L571.646 173.937L593.137 186.35L598.978 182.975ZM599.969 138.363L594.128 134.988V159.809L599.969 163.184V138.363ZM615.62 147.401L609.779 144.027V168.848L615.62 172.222V147.401ZM592.141 153.06L570.65 165.473V172.222L592.141 159.809V153.06ZM592.141 144.027L570.65 156.44V163.189L592.141 150.776V144.027ZM554.999 164.329L560.84 167.703V142.882L554.999 139.507V164.329ZM563.818 124.235L585.31 136.648L591.151 133.273L569.659 120.86L563.818 124.235ZM545.195 141.737V134.988L523.703 147.401V154.15L545.195 141.737ZM530.535 141.162L536.376 137.788L514.884 125.375L509.043 128.749L530.535 141.162ZM507.061 129.899L501.22 133.273L522.712 145.687L528.553 142.312L507.061 129.899ZM529.544 122.515V105.291C527.924 102.719 525.952 100.405 523.703 98.4028V119.141L529.544 122.515ZM537.367 106.148C535.336 106.609 533.379 107.263 531.526 108.085V123.66L537.367 127.035V106.148ZM539.349 105.761V128.179L545.19 131.554V106.733L542.876 105.4C542.584 105.415 542.286 105.424 541.994 105.444C541.097 105.514 540.216 105.623 539.344 105.761H539.349ZM568.668 112.392L547.176 124.805V131.554L568.668 119.141V112.392ZM568.668 110.107V106.629C567.311 108.338 566.131 110.187 565.146 112.144L568.668 110.107ZM547.176 122.515L564.541 112.491C562.847 111.113 561.014 109.914 559.067 108.903L547.176 115.766V122.515ZM547.176 113.482L556.882 107.877C554.395 106.817 551.749 106.074 549 105.682L547.176 106.738V113.487V113.482ZM523.703 194.487C526.007 192.044 527.929 189.244 529.371 186.186C529.425 186.236 529.49 186.281 529.544 186.325V179.031L523.703 175.656V194.492V194.487ZM531.526 187.846C533.344 189.135 535.301 190.235 537.367 191.122V183.55L531.526 180.176V187.846ZM539.349 184.695V191.895C541.226 192.559 543.183 193.045 545.19 193.347V188.074L539.349 184.7V184.695ZM568.668 187.579V184.695L553.434 193.491C559.131 192.861 564.323 190.75 568.668 187.579ZM568.668 182.406V175.656L547.176 188.069V193.575C547.825 193.629 548.474 193.674 549.128 193.689L568.668 182.406ZM567.677 173.937L546.185 161.524L540.344 164.898L561.836 177.311L567.677 173.937ZM559.854 178.456L538.363 166.043L532.522 169.418L554.013 181.831L559.854 178.456ZM552.027 182.975L530.535 170.562L524.694 173.937L546.185 186.35L552.027 182.975ZM553.017 138.363L547.176 134.988V159.809L553.017 163.184V138.363ZM568.668 147.401L562.827 144.027V168.848L568.668 172.222V147.401ZM545.195 153.06L523.703 165.473V172.222L545.195 159.809V153.06ZM545.195 144.027L523.703 156.44V163.189L545.195 150.776V144.027ZM470.132 61.099L475.76 64.3497L478.564 62.7293C475.884 61.8176 473.055 61.2626 470.132 61.099ZM500.225 159.809L506.066 163.184V138.363L500.225 134.988V159.809ZM508.052 164.329L513.893 167.703V142.882L508.052 139.507V164.329ZM515.875 168.848L521.716 172.222V147.401L515.875 144.027V168.848ZM516.866 124.235L538.358 136.648L544.199 133.273L522.707 120.86L516.866 124.235ZM483.583 141.162L489.424 137.788L467.932 125.375L462.091 128.749L483.583 141.162ZM481.601 142.307L460.11 129.894L454.269 133.268L475.76 145.682L481.601 142.307ZM476.751 119.141L482.592 122.515V97.6942L476.751 94.3196V119.141ZM490.42 127.035V102.213L484.579 98.8389V123.66L490.42 127.035ZM498.243 106.733L492.402 103.358V128.179L498.243 131.554V106.733ZM521.721 112.392L500.229 124.805V131.554L521.721 119.141V112.392ZM500.225 122.515L521.716 110.102V103.353L500.225 115.766V122.515ZM500.225 106.733V113.482L521.716 101.069V96.7824C521.092 96.3116 520.448 95.8607 519.784 95.4345L500.22 106.733H500.225ZM499.68 87.1988C499.288 85.0333 498.679 82.9521 497.876 80.9749L493.388 83.5665L499.68 87.1988ZM517.837 94.27C514.067 92.2037 509.846 90.8806 505.392 90.4891L514.889 95.9747L517.842 94.27H517.837ZM485.565 88.0858L507.056 100.499L512.898 97.1243L501.25 90.3999C500.869 90.4148 500.482 90.4346 500.096 90.4643C500.076 90.2017 500.041 89.944 500.016 89.6864L491.406 84.7112L485.565 88.0858ZM505.08 101.639L483.588 89.2255L477.747 92.6001L499.239 105.013L505.08 101.639ZM476.751 90.8855L497.074 79.1513C496.226 77.3773 495.221 75.6975 494.076 74.1316L476.751 84.1364V90.8855ZM476.751 81.847L492.843 72.5558C491.55 70.9998 490.108 69.5677 488.547 68.2892L476.751 75.1028V81.852V81.847ZM476.751 66.0643V72.8135L486.848 66.981C485.01 65.6679 483.033 64.548 480.942 63.6461L476.756 66.0643H476.751ZM476.751 193.818C478.485 195.755 480.447 197.475 482.592 198.941V179.031L476.751 175.656V193.818ZM484.574 200.19C486.417 201.261 488.374 202.148 490.415 202.836V183.55L484.574 180.176V200.19ZM492.402 184.695V203.426C494.294 203.927 496.246 204.254 498.243 204.397V188.069L492.402 184.695ZM521.721 193.728L503.321 204.353C510.415 203.733 516.772 200.825 521.721 196.409V193.724V193.728ZM521.721 184.695L500.229 197.108V203.857L521.721 191.444V184.695ZM500.225 194.814L521.716 182.401V175.651L500.225 188.065V194.814ZM514.884 177.311L520.725 173.937L499.234 161.524L493.393 164.898L514.884 177.311ZM512.903 178.456L491.411 166.043L485.57 169.418L507.061 181.831L512.903 178.456ZM505.08 182.975L483.588 170.562L477.747 173.937L499.239 186.35L505.08 182.975ZM498.243 153.06L476.751 165.473V172.222L498.243 159.809V153.06ZM498.243 144.027L476.751 156.44V163.189L498.243 150.776V144.027ZM476.751 147.401V154.15L498.243 141.737V134.988L476.751 147.401ZM468.928 87.511L474.769 90.8855V66.0643L468.928 62.6897V87.511ZM461.101 164.329L466.942 167.703V142.882L461.101 139.507V164.329ZM469.919 124.235L491.411 136.648L497.252 133.273L475.76 120.86L469.919 124.235ZM451.296 141.737V134.988L429.804 147.401V154.15L451.296 141.737ZM436.636 141.162L442.477 137.788L420.986 125.375L415.145 128.749L436.636 141.162ZM434.655 142.307L413.163 129.894L407.322 133.268L428.813 145.682L434.655 142.307ZM429.799 94.3196V119.141L435.64 122.515V97.6942L429.799 94.3196ZM437.627 98.8389V123.66L443.468 127.035V102.213L437.627 98.8389ZM451.296 106.733L445.455 103.358V128.179L451.296 131.554V106.733ZM474.769 112.392L453.278 124.805V131.554L474.769 119.141V112.392ZM453.278 122.515L474.769 110.102V103.353L453.278 115.766V122.515ZM474.769 94.3196L453.278 106.733V113.482L474.769 101.069V94.3196ZM446.441 83.5665L467.932 95.9796L473.774 92.605L452.282 80.1919L446.441 83.5665ZM438.618 88.0858L460.11 100.499L465.951 97.1243L444.459 84.7112L438.618 88.0858ZM458.128 101.639L436.636 89.2255L430.795 92.6001L452.287 105.013L458.128 101.639ZM453.278 78.4724L459.119 81.847V62.4023C457.073 63.0168 455.116 63.8344 453.278 64.8205V78.4724ZM466.947 61.545L466.208 61.1189C466.094 61.1288 465.985 61.1288 465.872 61.1387C464.242 61.2626 462.651 61.5252 461.105 61.882V82.9967L466.947 86.3712V61.55V61.545ZM451.296 71.7233L429.804 84.1364V90.8855L451.296 78.4724V71.7233ZM442.19 74.6965L451.296 69.4389V65.985C447.699 68.2645 444.608 71.2327 442.19 74.6965ZM429.799 81.847L441.843 74.8897C439.589 73.973 437.191 73.1058 434.655 72.2931L429.794 75.0979V81.847H429.799ZM429.799 72.8135L432.078 71.4953C431.33 71.2723 430.567 71.0543 429.799 70.8412V72.8085V72.8135ZM429.799 199.308C430.171 199.293 430.547 199.269 430.919 199.244C432.534 199.12 434.11 198.867 435.64 198.515V179.031L429.799 175.656V199.308ZM437.627 197.995C439.673 197.381 441.625 196.568 443.468 195.582V183.55L437.627 180.176V197.995ZM445.45 184.695V194.437C447.278 193.283 448.977 191.954 450.523 190.473C450.781 190.503 451.038 190.522 451.296 190.552V188.074L445.455 184.7L445.45 184.695ZM474.769 191.355V184.69L471.807 186.4C472.649 188.149 473.64 189.804 474.769 191.355ZM456.974 190.617C458.648 190.488 460.278 190.23 461.863 189.858L474.769 182.406V175.656L453.278 188.069V190.686C454.496 190.73 455.73 190.716 456.974 190.621V190.617ZM473.779 173.937L452.287 161.524L446.446 164.898L467.937 177.311L473.779 173.937ZM465.956 178.456L444.464 166.043L438.623 169.418L460.115 181.831L465.956 178.456ZM458.128 182.975L436.636 170.562L430.795 173.937L452.287 186.35L458.128 182.975ZM459.119 138.363L453.278 134.988V159.809L459.119 163.184V138.363ZM474.769 147.401L468.928 144.027V168.848L474.769 172.222V147.401ZM451.296 153.06L429.804 165.473V172.222L451.296 159.809V153.06ZM451.296 144.027L429.804 156.44V163.189L451.296 150.776V144.027ZM425.42 62.3874C422.294 56.7582 417.528 52.2092 411.81 49.34L407.317 51.9366L425.42 62.3924V62.3874ZM397.512 55.3063L403.353 51.9317L393.484 46.2331C390.67 46.5948 387.98 47.3133 385.458 48.349L397.507 55.3063H397.512ZM379.315 51.7037C378.215 49.1567 376.788 46.798 375.104 44.6573L374.039 44.0428L368.198 47.4174L389.689 59.8305L395.531 56.4559L383.249 49.3648C381.876 50.0536 380.564 50.8366 379.315 51.7087V51.7037ZM366.211 48.5621L360.37 51.9366L381.862 64.3497L387.703 60.9752L366.211 48.5621ZM404.344 46.7038C402.447 46.2925 400.495 46.0447 398.503 45.9902V46.8426L404.344 50.2171V46.7038ZM409.586 48.3341C408.526 47.898 407.436 47.5165 406.326 47.1993V50.2171L409.586 48.3341ZM414.154 164.329L419.995 167.703V142.882L414.154 139.507V164.329ZM422.967 124.235L444.459 136.648L450.3 133.273L428.808 120.86L422.967 124.235ZM404.344 141.737V134.988L382.853 147.401V154.15L404.344 141.737ZM389.684 141.162L395.526 137.788L374.034 125.375L368.193 128.749L389.684 141.162ZM387.703 142.307L366.211 129.894L360.37 133.268L381.862 145.682L387.703 142.307ZM382.853 119.141L388.694 122.515V97.6942L382.853 94.3196V119.141ZM396.521 127.035V102.213L390.68 98.8389V123.66L396.521 127.035ZM404.344 131.554V106.733L398.503 103.358V128.179L404.344 131.554ZM427.818 112.392L406.326 124.805V131.554L427.818 119.141V112.392ZM406.326 122.515L427.818 110.102V103.353L406.326 115.766V122.515ZM406.326 113.482L427.818 101.069V94.3196L406.326 106.733V113.482ZM399.494 83.5665L420.986 95.9796L426.827 92.605L405.335 80.1919L399.494 83.5665ZM391.666 88.0858L413.158 100.499L418.999 97.1243L397.507 84.7112L391.666 88.0858ZM411.181 101.639L389.689 89.2255L383.848 92.6001L405.34 105.013L411.181 101.639ZM406.326 78.4724L412.167 81.847V57.0258L406.326 53.6512V78.4724ZM419.995 61.545L414.154 58.1704V82.9917L419.995 86.3663V61.545ZM427.818 67.8779C427.56 67.09 427.268 66.322 426.951 65.5638L421.972 62.6897V87.511L427.813 90.8855V67.873L427.818 67.8779ZM382.853 90.8855L404.344 78.4724V71.7233L382.853 84.1364V90.8855ZM382.853 75.0979V81.847L404.344 69.4339V62.6847L382.853 75.0979ZM382.853 66.0643V72.8135L404.344 60.4003V53.6512L382.853 66.0643ZM382.853 181.667C384.72 182.465 386.677 183.089 388.694 183.521V179.036L382.853 175.661V181.672V181.667ZM390.675 183.872C392.578 184.155 394.53 184.264 396.516 184.189V183.55L390.675 180.176V183.877V183.872ZM403.983 187.856C404.101 188 404.225 188.144 404.349 188.288V188.065L403.983 187.856ZM427.818 193.728L420.059 198.208C422.546 198.887 425.147 199.273 427.818 199.323V193.724V193.728ZM427.818 184.695L411.231 194.274C413.188 195.537 415.288 196.588 417.498 197.4L427.813 191.444V184.695H427.818ZM427.818 182.406V175.656L406.326 188.069V190.384C407.307 191.33 408.342 192.207 409.432 193.025L427.818 182.406ZM426.827 173.937L405.335 161.524L399.494 164.898L420.986 177.311L426.827 173.937ZM419.004 178.456L397.512 166.043L391.671 169.418L413.163 181.831L419.004 178.456ZM411.181 182.975L389.689 170.562L383.848 173.937L400.817 183.734C400.891 183.719 400.97 183.714 401.045 183.699C401.094 183.788 401.154 183.872 401.203 183.957L405.34 186.345L411.181 182.97V182.975ZM412.172 138.363L406.331 134.988V159.809L412.172 163.184V138.363ZM427.818 147.401L421.977 144.027V168.848L427.818 172.222V147.401ZM404.344 153.06L382.853 165.473V172.222L404.344 159.809V153.06ZM404.344 144.027L382.853 156.44V163.189L404.344 150.776V144.027ZM359.379 78.4724L365.22 81.847V57.0258L359.379 53.6512V78.4724ZM367.202 82.9917L373.043 86.3663V61.545L367.202 58.1704V82.9917ZM375.025 87.511L380.866 90.8855V66.0643L375.025 62.6897V87.511ZM341.747 33.6019C339.706 34.152 337.754 34.8953 335.906 35.8169V37.809L341.747 41.1836V33.6069V33.6019ZM349.57 32.5018C348.921 32.5117 348.267 32.5365 347.608 32.5861C346.285 32.6901 344.992 32.8784 343.724 33.1361V42.3233L349.565 45.6979V32.5018H349.57ZM357.397 33.3442C355.505 32.8983 353.553 32.6158 351.556 32.5266V46.8426L357.397 50.2171V33.3442ZM368.361 38.2797L359.374 43.468V50.2171L373.058 42.3134C371.626 40.8218 370.051 39.469 368.356 38.2797H368.361ZM359.379 34.4344V41.1836L366.503 37.0706C364.467 35.8417 362.287 34.8308 359.998 34.0776L359.379 34.4344ZM367.202 164.329L373.043 167.703V142.882L367.202 139.507V164.329ZM375.025 168.848L380.866 172.222V147.401L375.025 144.027V168.848ZM376.016 124.235L397.507 136.648L403.348 133.273L381.857 120.86L376.016 124.235ZM342.738 141.162L348.579 137.788L327.087 125.375L321.246 128.749L342.738 141.162ZM340.756 142.307L319.264 129.894L313.423 133.268L334.915 145.682L340.756 142.307ZM335.901 119.141L341.742 122.515V97.6942L335.901 94.3196V119.141ZM349.57 127.035V102.213L343.728 98.8389V123.66L349.57 127.035ZM357.397 106.733L351.556 103.358V128.179L357.397 131.554V106.733ZM380.871 112.392L359.379 124.805V131.554L380.871 119.141V112.392ZM380.871 103.358L359.379 115.771V122.52L380.871 110.107V103.358ZM380.871 94.3196L359.379 106.733V113.482L380.871 101.069V94.3196ZM352.542 83.5665L374.034 95.9796L379.875 92.605L358.383 80.1919L352.542 83.5665ZM344.719 88.0858L366.211 100.499L372.052 97.1243L350.56 84.7112L344.719 88.0858ZM364.229 101.639L342.738 89.2255L336.897 92.6001L358.388 105.013L364.229 101.639ZM335.901 90.8855L357.392 78.4724V71.7233L335.901 84.1364V90.8855ZM335.901 75.0979V81.847L357.392 69.4339V62.6847L335.901 75.0979ZM335.901 66.0643V72.8135L357.392 60.4003V53.6512L335.901 66.0643ZM335.901 198.094C337.744 199.145 339.701 200.012 341.742 200.676V179.026L335.901 175.651V198.089V198.094ZM343.728 201.256C345.621 201.741 347.573 202.053 349.57 202.177V183.55L343.728 180.176V201.256ZM351.551 184.695V202.247C352.384 202.247 353.226 202.217 354.073 202.153C355.198 202.063 356.307 201.915 357.397 201.716V188.069L351.556 184.695H351.551ZM379.746 185.344L359.379 197.103V201.28C368.277 199.055 375.59 193.134 379.746 185.339V185.344ZM380.871 175.656L359.379 188.069V194.819L380.871 182.406V175.656ZM379.88 173.937L358.388 161.524L352.547 164.898L374.039 177.311L379.88 173.937ZM372.052 178.456L350.56 166.043L344.719 169.418L366.211 181.831L372.052 178.456ZM364.229 182.975L342.738 170.562L336.897 173.937L358.388 186.35L364.229 182.975ZM365.22 138.363L359.379 134.988V159.809L365.22 163.184V138.363ZM357.397 153.06L335.906 165.473V172.222L357.397 159.809V153.06ZM357.397 144.027L335.906 156.44V163.189L357.397 150.776V144.027ZM335.901 147.401V154.15L357.392 141.737V134.988L335.901 147.401ZM312.427 78.4724L318.268 81.847V57.0258L312.427 53.6512V78.4724ZM328.078 87.511L333.919 90.8855V66.0643L328.078 62.6897V87.511ZM329.069 42.8981L350.56 55.3112L356.402 51.9366L334.91 39.5235L329.069 42.8981ZM321.246 47.4174L342.738 59.8305L348.579 56.4559L327.087 44.0428L321.246 47.4174ZM313.418 51.9366L334.91 64.3497L340.751 60.9752L319.259 48.5621L313.418 51.9366ZM288.954 75.0979V81.847L310.446 69.4339V62.6847L288.954 75.0979ZM272.312 48.5621L266.471 51.9366L287.963 64.3497L293.804 60.9752L272.312 48.5621ZM288.954 37.804L294.795 41.1786V16.3574L288.954 12.9828V37.804ZM302.623 45.6979V20.8766L296.782 17.502V42.3233L302.623 45.6979ZM304.604 46.8426L310.446 50.2171V26.2878C310.049 26.3225 309.658 26.3622 309.266 26.4117C308.979 25.6486 308.662 24.9003 308.315 24.167L304.604 22.0213V46.8426ZM312.427 43.468V50.2171L333.919 37.804V34.033C333.225 33.4285 332.507 32.8487 331.759 32.3036L312.422 43.468H312.427ZM323.574 27.9925L312.427 34.4295V41.1786L329.936 31.0697C327.949 29.821 325.819 28.7853 323.574 27.9925ZM312.427 32.145L320.988 27.1996C318.249 26.491 315.375 26.1342 312.427 26.1887V32.145ZM306.502 20.8271C303.376 15.8123 298.907 11.7588 293.636 9.13249L289.945 11.2633L306.502 20.8271ZM291.411 8.13151C290.609 7.80446 289.786 7.51209 288.954 7.24946V9.55369L291.411 8.13647V8.13151ZM320.255 164.329L326.096 167.703V142.882L320.255 139.507V164.329ZM329.069 124.235L350.56 136.648L356.402 133.273L334.91 120.86L329.069 124.235ZM310.446 141.737V134.988L288.954 147.401V154.15L310.446 141.737ZM295.786 141.162L301.627 137.788L280.135 125.375L274.294 128.749L295.786 141.162ZM293.804 142.307L272.312 129.894L266.471 133.268L287.963 145.682L293.804 142.307ZM288.954 94.3196V119.141L294.795 122.515V97.6942L288.954 94.3196ZM296.777 98.8389V123.66L302.618 127.035V102.213L296.777 98.8389ZM310.446 106.733L304.604 103.358V128.179L310.446 131.554V106.733ZM333.919 112.392L312.427 124.805V131.554L333.919 119.141V112.392ZM333.919 103.358L312.427 115.771V122.52L333.919 110.107V103.358ZM312.427 113.482L333.919 101.069V94.3196L312.427 106.733V113.482ZM305.595 83.5665L327.087 95.9796L332.928 92.605L311.436 80.1919L305.595 83.5665ZM297.768 88.0858L319.259 100.499L325.1 97.1243L303.609 84.7112L297.768 88.0858ZM317.283 101.639L295.791 89.2255L289.95 92.6001L311.441 105.013L317.283 101.639ZM326.096 61.545L320.255 58.1704V82.9917L326.096 86.3663V61.545ZM310.446 71.7233L288.954 84.1364V90.8855L310.446 78.4724V71.7233ZM288.954 66.0643V72.8135L310.446 60.4003V53.6512L288.954 66.0643ZM288.954 184.68C290.787 185.83 292.744 186.796 294.795 187.554V179.026L288.954 175.651V184.68ZM296.777 188.218C298.664 188.778 300.616 189.17 302.618 189.368V183.55L296.777 180.176V188.218ZM304.604 184.695V189.507C305.818 189.551 307.042 189.536 308.286 189.437C309.014 189.383 309.737 189.298 310.451 189.194V188.069L304.609 184.695H304.604ZM333.919 193.728L331.531 195.106C332.299 195.73 333.092 196.32 333.919 196.87V193.728ZM333.919 184.695L325.972 189.284C327.161 190.889 328.494 192.381 329.951 193.733L333.919 191.439V184.69V184.695ZM324.838 187.648L333.919 182.406V175.656L312.427 188.069V188.843C316.282 188.03 319.859 186.533 323.039 184.487C323.579 185.582 324.184 186.637 324.838 187.653V187.648ZM332.928 173.937L311.436 161.524L305.595 164.898L327.087 177.311L332.928 173.937ZM325.105 178.456L303.614 166.043L297.773 169.418L319.264 181.831L325.105 178.456ZM317.283 182.975L295.791 170.562L289.95 173.937L311.441 186.35L317.283 182.975ZM318.273 138.363L312.432 134.988V159.809L318.273 163.184V138.363ZM333.919 147.401L328.078 144.027V168.848L333.919 172.222V147.401ZM310.446 153.06L288.954 165.473V172.222L310.446 159.809V153.06ZM310.446 144.027L288.954 156.44V163.189L310.446 150.776V144.027ZM265.48 78.4724L271.322 81.847V57.0258L265.48 53.6512V78.4724ZM281.126 87.511L286.967 90.8855V66.0643L281.126 62.6897V87.511ZM282.117 42.8981L303.609 55.3112L309.45 51.9366L287.958 39.5235L282.117 42.8981ZM280.135 44.0428L274.294 47.4174L295.786 59.8305L301.627 56.4559L280.135 44.0428ZM225.361 48.5621L219.52 51.9366L241.011 64.3497L246.852 60.9752L225.361 48.5621ZM242.002 37.804L247.843 41.1786V16.3574L242.002 12.9828V37.804ZM255.671 45.6979V20.8766L249.83 17.502V42.3233L255.671 45.6979ZM263.499 25.3959L257.658 22.0213V46.8426L263.499 50.2171V25.3959ZM286.972 31.0598L265.48 43.4729V50.2221L286.972 37.809V31.0598ZM286.972 22.0213L265.48 34.4344V41.1836L286.972 28.7705V22.0213ZM265.48 32.145L286.972 19.7319V12.9828L265.48 25.3959V32.145ZM280.135 14.6428L285.976 11.2682L276.722 5.92143C273.774 6.17415 270.95 6.8233 268.304 7.80941L280.135 14.6428ZM272.312 19.1571L278.154 15.7825L266.006 8.77075C264.648 9.40503 263.34 10.1236 262.102 10.9313C259.927 8.4437 257.38 6.30299 254.551 4.58845L250.816 6.74402L272.307 19.1571H272.312ZM270.331 20.3018L248.839 7.8887L242.998 11.2633L264.49 23.6764L270.331 20.3018ZM281.126 6.17415L286.967 9.54873V6.69942C285.075 6.23857 283.123 5.94621 281.126 5.84215V6.17415ZM242.002 9.54873L252.535 3.46854C250.286 2.32386 247.893 1.43686 245.391 0.847173L242.007 2.80453V9.55369L242.002 9.54873ZM242.389 0.28722C242.26 0.267399 242.131 0.257488 242.002 0.237667V0.51021L242.389 0.28722ZM273.303 164.329L279.144 167.703V142.882L273.303 139.507V164.329ZM282.117 124.235L303.609 136.648L309.45 133.273L287.958 120.86L282.117 124.235ZM262.508 133.268L241.016 120.855L235.175 124.23L256.667 136.643L262.508 133.268ZM254.68 137.788L233.188 125.375L227.347 128.749L248.839 141.162L254.68 137.788ZM246.857 142.307L225.366 129.894L219.525 133.268L241.016 145.682L246.857 142.307ZM242.002 94.3196V119.141L247.843 122.515V97.6942L242.002 94.3196ZM249.83 98.8389V123.66L255.671 127.035V102.213L249.83 98.8389ZM263.499 106.733L257.658 103.358V128.179L263.499 131.554V106.733ZM286.972 112.392L265.48 124.805V131.554L286.972 119.141V112.392ZM265.48 122.515L286.972 110.102V103.353L265.48 115.766V122.515ZM265.48 113.482L286.972 101.069V94.3196L265.48 106.733V113.482ZM258.644 83.5665L280.135 95.9796L285.976 92.605L264.485 80.1919L258.644 83.5665ZM250.821 88.0858L272.312 100.499L278.154 97.1243L256.662 84.7112L250.821 88.0858ZM270.331 101.639L248.839 89.2255L242.998 92.6001L264.49 105.013L270.331 101.639ZM279.144 61.545L273.303 58.1704V82.9917L279.144 86.3663V61.545ZM242.002 90.8855L263.494 78.4724V71.7233L242.002 84.1364V90.8855ZM242.002 75.0979V81.847L263.494 69.4339V62.6847L242.002 75.0979ZM242.002 66.0643V72.8135L263.494 60.4003V53.6512L242.002 66.0643ZM242.002 200.478L247.293 203.535C247.477 203.426 247.66 203.312 247.843 203.198V179.031L242.002 175.656V200.478ZM249.83 201.86C252.01 200.265 253.972 198.401 255.671 196.325V183.55L249.83 180.176V201.86ZM257.653 184.695V193.634C257.687 193.58 257.722 193.53 257.757 193.476C259.62 193.907 261.537 194.174 263.494 194.264V188.069L257.653 184.695ZM286.972 185.478V184.695L271.53 193.615C277.485 192.371 282.781 189.487 286.972 185.483V185.478ZM286.972 182.406V175.656L265.48 188.069V194.288C265.802 194.283 266.125 194.274 266.447 194.259L286.977 182.406H286.972ZM285.981 173.937L264.49 161.524L258.649 164.898L280.14 177.311L285.981 173.937ZM278.154 178.456L256.662 166.043L250.821 169.418L272.312 181.831L278.154 178.456ZM270.331 182.975L248.839 170.562L242.998 173.937L264.49 186.35L270.331 182.975ZM271.322 138.363L265.48 134.988V159.809L271.322 163.184V138.363ZM286.972 147.401L281.131 144.027V168.848L286.972 172.222V147.401ZM263.499 153.06L242.007 165.473V172.222L263.499 159.809V153.06ZM263.499 144.027L242.007 156.44V163.189L263.499 150.776V144.027ZM242.002 154.145L263.494 141.732V134.983L242.002 147.396V154.145ZM218.529 78.4724L224.37 81.847V57.0258L218.529 53.6512V78.4724ZM234.179 87.511L240.02 90.8855V66.0643L234.179 62.6897V87.511ZM235.17 42.8981L256.662 55.3112L262.503 51.9366L241.011 39.5235L235.17 42.8981ZM233.188 44.0428L227.347 47.4174L248.839 59.8305L254.68 56.4559L233.188 44.0428ZM200.896 41.1786V20.3761C198.88 20.5892 196.928 20.9906 195.055 21.5555V37.804L200.896 41.1786ZM208.724 20.8766L207.902 20.4009C206.257 20.2126 204.582 20.1581 202.883 20.2324V42.3282L208.724 45.7028V20.8816V20.8766ZM216.547 25.3959L210.706 22.0213V46.8426L216.547 50.2171V25.3959ZM240.02 31.0598L218.529 43.4729V50.2221L240.02 37.809V31.0598ZM240.02 22.0213L218.529 34.4344V41.1836L240.02 28.7705V22.0213ZM218.529 32.145L240.02 19.7319V12.9828L218.529 25.3959V32.145ZM233.188 14.6428L239.03 11.2682L224.647 2.9631C222.606 3.90957 220.689 5.06911 218.915 6.4021L233.183 14.6428H233.188ZM225.361 19.1571L231.202 15.7825L217.265 7.73508C215.744 9.04825 214.347 10.5051 213.104 12.0809L225.361 19.1621V19.1571ZM223.379 20.3018L211.91 13.6765C210.8 15.2721 209.834 16.9768 209.026 18.7607L217.538 23.6764L223.379 20.3018ZM226.951 2.00176L232.198 5.02947V0.544897C230.384 0.88186 228.635 1.37244 226.951 2.00176ZM235.621 0.0939622C235.135 0.133605 234.655 0.183158 234.179 0.242622V6.17415L240.02 9.54873V0.0592749C238.574 -0.0299211 237.102 -0.0200104 235.616 0.0939622H235.621ZM218.529 159.809L224.37 163.184V138.363L218.529 134.988V159.809ZM226.352 164.329L232.193 167.703V142.882L226.352 139.507V164.329ZM234.179 168.848L240.02 172.222V147.401L234.179 144.027V168.848ZM201.887 141.162L207.728 137.788L186.237 125.375L180.396 128.749L201.887 141.162ZM199.906 142.307L178.414 129.894L172.573 133.268L194.064 145.682L199.906 142.307ZM195.055 119.141L200.896 122.515V97.6942L195.055 94.3196V119.141ZM208.724 127.035V102.213L202.883 98.8389V123.66L208.724 127.035ZM216.547 106.733L210.706 103.358V128.179L216.547 131.554V106.733ZM240.02 112.392L218.529 124.805V131.554L240.02 119.141V112.392ZM240.02 103.358L218.529 115.771V122.52L240.02 110.107V103.358ZM240.02 94.3196L218.529 106.733V113.482L240.02 101.069V94.3196ZM211.697 83.5665L233.188 95.9796L239.03 92.605L217.538 80.1919L211.697 83.5665ZM231.207 97.1194L209.715 84.7062L203.874 88.0808L225.366 100.494L231.207 97.1194ZM223.379 101.639L201.887 89.2255L196.046 92.6001L217.538 105.013L223.379 101.639ZM232.198 61.545L226.356 58.1704V82.9917L232.198 86.3663V61.545ZM195.055 90.8855L216.547 78.4724V71.7233L195.055 84.1364V90.8855ZM195.055 75.0979V81.847L216.547 69.4339V62.6847L195.055 75.0979ZM195.055 66.0643V72.8135L216.547 60.4003V53.6512L195.055 66.0643ZM235.17 205.572L238.029 207.222C240.575 206.652 242.998 205.78 245.262 204.65L241.016 202.197L235.175 205.572H235.17ZM233.188 206.716L230.964 208C231.796 208 232.639 207.97 233.486 207.906C233.986 207.866 234.482 207.812 234.977 207.752L233.183 206.716H233.188ZM195.055 193.981C197.146 192.96 199.103 191.717 200.896 190.289V179.031L195.055 175.656V193.981ZM202.878 191.072C204.424 193.981 206.401 196.608 208.719 198.882V183.55L202.878 180.176V191.077V191.072ZM210.706 184.695V200.676C212.504 202.162 214.461 203.451 216.547 204.521V188.069L210.706 184.695ZM240.02 193.728L219.232 205.735C221.803 206.761 224.533 207.465 227.362 207.787L240.02 200.478V193.728ZM240.02 184.695L218.529 197.108V203.857L240.02 191.444V184.695ZM218.529 194.814L240.02 182.401V175.651L218.529 188.065V194.814ZM233.188 177.311L239.03 173.937L217.538 161.524L211.697 164.898L233.188 177.311ZM231.207 178.456L209.715 166.043L203.874 169.418L225.366 181.831L231.207 178.456ZM223.379 182.975L201.887 170.562L196.046 173.937L217.538 186.35L223.379 182.975ZM216.547 153.06L195.055 165.473V172.222L216.547 159.809V153.06ZM216.547 144.027L195.055 156.44V163.189L216.547 150.776V144.027ZM195.055 154.145L216.547 141.732V134.983L195.055 147.396V154.145ZM171.577 78.4724L177.418 81.847V57.0258L171.577 53.6512V78.4724ZM187.228 87.511L193.069 90.8855V66.0643L187.228 62.6897V87.511ZM188.218 42.8981L209.71 55.3112L215.551 51.9366L194.059 39.5235L188.218 42.8981ZM186.237 44.0428L180.396 47.4174L201.887 59.8305L207.728 56.4559L186.237 44.0428ZM172.568 51.9366L194.059 64.3497L199.901 60.9752L178.409 48.5621L172.568 51.9366ZM148.104 75.0979V81.847L169.595 69.4339V62.6847L148.104 75.0979ZM153.95 41.1786V24.5634C151.908 25.1233 149.951 25.8716 148.108 26.7982V37.804L153.95 41.1786ZM161.772 23.4435C161.158 23.4534 160.539 23.4782 159.919 23.5277C158.562 23.6318 157.229 23.825 155.926 24.0926V42.3233L161.767 45.6979V23.4385L161.772 23.4435ZM163.754 46.8426L169.595 50.2171V25.3959L166.712 23.7309C165.736 23.5971 164.75 23.5079 163.749 23.4683V46.8475L163.754 46.8426ZM171.577 50.2171L193.069 37.804V31.0549L171.577 43.468V50.2171ZM185.067 26.6397C183.794 27.606 182.59 28.6565 181.476 29.7962C181.198 29.5881 180.921 29.3948 180.638 29.1966L171.577 34.4295V41.1786L193.069 28.7655V22.2195C192.697 22.3583 192.325 22.5069 191.959 22.6556L185.062 26.6347L185.067 26.6397ZM172.256 25.0044L171.582 25.3959V32.145L178.78 27.9875C176.739 26.7586 174.554 25.7527 172.261 25.0044H172.256ZM179.405 164.329L185.246 167.703V142.882L179.405 139.507V164.329ZM187.228 168.848L193.069 172.222V147.401L187.228 144.027V168.848ZM188.218 124.235L209.71 136.648L215.551 133.273L194.059 120.86L188.218 124.235ZM154.94 141.162L160.782 137.788L139.29 125.375L133.449 128.749L154.94 141.162ZM152.959 142.307L131.467 129.894L125.626 133.268L147.118 145.682L152.959 142.307ZM148.104 119.141L153.945 122.515V97.6942L148.104 94.3196V119.141ZM161.772 127.035V102.213L155.931 98.8389V123.66L161.772 127.035ZM169.595 131.554V106.733L163.754 103.358V128.179L169.595 131.554ZM171.577 131.554L193.069 119.141V112.392L171.577 124.805V131.554ZM193.074 103.358L171.582 115.771V122.52L193.074 110.107V103.358ZM171.577 113.482L193.069 101.069V94.3196L171.577 106.733V113.482ZM164.745 83.5665L186.237 95.9796L192.078 92.605L170.586 80.1919L164.745 83.5665ZM156.922 88.0858L178.414 100.499L184.255 97.1243L162.763 84.7112L156.922 88.0858ZM149.094 92.605L170.586 105.018L176.427 101.644L154.935 89.2305L149.094 92.605ZM185.246 61.545L179.405 58.1704V82.9917L185.246 86.3663V61.545ZM148.104 90.8855L169.595 78.4724V71.7233L148.104 84.1364V90.8855ZM148.104 66.0643V72.8135L169.595 60.4003V53.6512L148.104 66.0643ZM148.104 183.486C149.664 182.217 151.106 180.81 152.399 179.274C152.87 180.24 153.39 181.172 153.945 182.079V179.031L148.104 175.656V183.486ZM155.931 184.923C157.626 187.093 159.592 189.036 161.772 190.701V183.55L155.931 180.176V184.923ZM163.754 184.695V192.098C165.587 193.287 167.544 194.288 169.595 195.081V188.069L163.754 184.695ZM193.074 194.868V193.733L188.605 196.315C190.146 195.944 191.637 195.453 193.074 194.868ZM183.21 197.138L193.074 191.444V184.695L173.128 196.211C176.338 197.039 179.727 197.371 183.21 197.138ZM193.074 175.656L171.582 188.069V194.819L193.074 182.406V175.656ZM192.083 173.937L170.591 161.524L164.75 164.898L186.242 177.311L192.083 173.937ZM184.255 178.456L162.763 166.043L156.922 169.418L178.414 181.831L184.255 178.456ZM176.432 182.975L154.94 170.562L149.099 173.937L170.591 186.35L176.432 182.975ZM177.423 138.363L171.582 134.988V159.809L177.423 163.184V138.363ZM169.595 153.06L148.104 165.473V172.222L169.595 159.809V153.06ZM169.595 144.027L148.104 156.44V163.189L169.595 150.776V144.027ZM148.104 147.401V154.15L169.595 141.737V134.988L148.104 147.401ZM124.63 78.4724L130.471 81.847V57.0258L124.63 53.6512V78.4724ZM140.281 87.511L146.122 90.8855V66.0643L140.281 62.6897V87.511ZM141.272 42.8981L162.763 55.3112L168.604 51.9366L147.113 39.5235L141.272 42.8981ZM139.29 44.0428L133.449 47.4174L154.94 59.8305L160.782 56.4559L139.29 44.0428ZM125.621 51.9366L147.113 64.3497L152.954 60.9752L131.462 48.5621L125.621 51.9366ZM106.998 41.1786V33.0618C105.105 32.5811 103.153 32.264 101.157 32.1401V37.804L106.998 41.1786ZM114.821 36.2183C112.978 35.1678 111.021 34.3056 108.979 33.6366V42.3233L114.821 45.6979V36.2183ZM122.648 42.467C120.909 40.5641 118.948 38.8793 116.807 37.4472V46.8475L122.648 50.2221V42.467ZM132.924 43.131C131.784 43.0963 130.635 43.1211 129.47 43.2103C127.811 43.3391 126.196 43.6067 124.625 43.9734V50.2171L146.117 37.804V31.0549L136.615 36.5404C135.133 38.5721 133.89 40.7822 132.919 43.1261L132.924 43.131ZM146.122 28.7705V27.8835C144.219 29.0133 142.451 30.3363 140.836 31.818L146.122 28.7655V28.7705ZM132.453 164.329L138.294 167.703V142.882L132.453 139.507V164.329ZM141.272 124.235L162.763 136.648L168.604 133.273L147.113 120.86L141.272 124.235ZM122.648 141.737V134.988L101.157 147.401V154.15L122.648 141.737ZM107.989 141.162L113.83 137.788L92.338 125.375L86.4969 128.749L107.989 141.162ZM106.007 142.307L84.5152 129.894L78.6741 133.268L100.166 145.682L106.007 142.307ZM101.157 119.141L106.998 122.515V97.6942L101.157 94.3196V119.141ZM114.821 127.035V102.213L108.979 98.8389V123.66L114.821 127.035ZM122.648 131.554V106.733L116.807 103.358V128.179L122.648 131.554ZM146.122 112.392L124.63 124.805V131.554L146.122 119.141V112.392ZM124.63 122.515L146.122 110.102V103.353L124.63 115.766V122.515ZM124.63 113.482L146.122 101.069V94.3196L124.63 106.733V113.482ZM117.793 83.5665L139.285 95.9796L145.126 92.605L123.634 80.1919L117.793 83.5665ZM109.97 88.0858L131.462 100.499L137.303 97.1243L115.811 84.7112L109.97 88.0858ZM129.48 101.639L107.989 89.2255L102.148 92.6001L123.639 105.013L129.48 101.639ZM138.299 61.545L132.458 58.1704V82.9917L138.299 86.3663V61.545ZM101.157 90.8855L122.648 78.4724V71.7233L101.157 84.1364V90.8855ZM101.157 75.0979V81.847L122.648 69.4339V62.6847L101.157 75.0979ZM101.157 66.0643V72.8135L122.648 60.4003V53.6512L101.157 66.0643ZM101.157 175.815C102.782 178.367 104.753 180.661 106.998 182.638V179.026L101.157 175.651V175.815ZM108.979 184.254C110.793 185.612 112.75 186.776 114.821 187.723V183.55L108.979 180.176V184.254ZM116.802 184.695V188.55C118.675 189.259 120.632 189.794 122.643 190.141V188.069L116.802 184.695ZM146.122 184.963V184.695L139.756 188.372C142.025 187.475 144.155 186.325 146.122 184.967V184.963ZM130.501 190.503C131.17 190.453 131.829 190.374 132.488 190.28L146.122 182.406V175.656L124.63 188.069V190.413C126.547 190.617 128.509 190.661 130.501 190.508V190.503ZM145.131 173.937L123.639 161.524L117.798 164.898L139.29 177.311L145.131 173.937ZM137.308 178.456L115.816 166.043L109.975 169.418L131.467 181.831L137.308 178.456ZM129.48 182.975L107.989 170.562L102.148 173.937L123.639 186.35L129.48 182.975ZM130.471 138.363L124.63 134.988V159.809L130.471 163.184V138.363ZM146.122 147.401L140.281 144.027V168.848L146.122 172.222V147.401ZM122.648 153.06L101.157 165.473V172.222L122.648 159.809V153.06ZM122.648 144.027L101.157 156.44V163.189L122.648 150.776V144.027ZM77.6783 78.4724L83.5194 81.847V57.0258L77.6783 53.6512V78.4724ZM93.3289 87.511L99.17 90.8855V66.0643L93.3289 62.6897V87.511ZM94.3198 42.8981L115.811 55.3112L121.653 51.9366L100.161 39.5235L94.3198 42.8981ZM86.4969 47.4174L107.989 59.8305L113.83 56.4559L92.338 44.0428L86.4969 47.4174ZM78.6692 51.9366L100.161 64.3497L106.002 60.9752L84.5103 48.5621L78.6692 51.9366ZM67.2693 65.2665L75.6966 60.4003V53.6512L67.745 58.2448C67.3338 60.5193 67.1703 62.8681 67.2693 65.2665ZM68.4881 55.0932L68.8646 55.3112L74.7057 51.9366L70.6482 49.5928C69.7614 51.342 69.038 53.1854 68.4881 55.0932ZM75.6966 42.3282C74.1409 44.0131 72.7686 45.8664 71.6043 47.8534L75.6966 50.2171V42.3282ZM97.3171 32.1302L77.6783 43.468V50.2171L99.17 37.804V32.0757C98.5557 32.0757 97.9364 32.0905 97.3121 32.1252L97.3171 32.1302ZM77.6783 40.3659V41.1836L92.0903 32.8636C86.5861 34.0974 81.6665 36.7436 77.6783 40.3709V40.3659ZM85.5061 161.187C87.2995 160.627 89.0236 159.923 90.6585 159.076C90.8864 159.205 91.1193 159.329 91.3472 159.452V142.882L85.5061 139.507V161.192V161.187ZM94.3198 124.235L115.811 136.648L121.653 133.273L100.161 120.86L94.3198 124.235ZM74.7057 133.268L53.214 120.855L47.3729 124.23L53.214 127.605L68.8646 136.643L74.7057 133.268ZM66.8829 137.788L53.214 129.894L45.3912 125.375L39.5501 128.749L61.0418 141.162L66.8829 137.788ZM37.5634 129.899L31.7223 133.273L53.214 145.687L59.0551 142.312L37.5634 129.899ZM54.2049 119.141L60.046 122.515V97.6942L54.2049 94.3196V119.141ZM67.8738 127.035V102.213L62.0327 98.8389V123.66L67.8738 127.035ZM75.6966 106.733L69.8555 103.358V128.179L75.6966 131.554V106.733ZM99.175 112.392L77.6833 124.805V131.554L99.175 119.141V112.392ZM99.175 103.358L77.6833 115.771V122.52L99.175 110.107V103.358ZM77.6783 113.482L99.17 101.069V94.3196L77.6783 106.733V113.482ZM70.8463 83.5665L92.338 95.9796L98.1791 92.605L76.6874 80.1919L70.8463 83.5665ZM63.0186 88.0858L84.5103 100.499L90.3514 97.1243L68.8597 84.7112L63.0186 88.0858ZM61.0368 89.2305L55.1958 92.605L76.6874 105.018L82.5285 101.644L61.0368 89.2305ZM91.3472 61.545L85.5061 58.1704V82.9917L91.3472 86.3663V61.545ZM75.6966 71.7233L54.2049 84.1364V90.8855L75.6966 78.4724V71.7233ZM67.4328 67.4617C67.5815 68.7996 67.8094 70.1078 68.1116 71.3863C66.7591 70.6628 65.352 70.0335 63.8955 69.5082L54.2049 75.1028V81.852L75.6966 69.4389V62.6897L67.4279 67.4617H67.4328ZM54.2049 72.8135L61.3292 68.7005C59.0403 68.0861 56.6523 67.7144 54.2049 67.6302V72.8135ZM78.4462 162.55C78.4462 162.55 78.4561 162.55 78.4611 162.55L76.6874 161.529L74.785 162.629C75.9938 162.673 77.2126 162.649 78.4462 162.555V162.55ZM83.5244 161.742V138.363L77.6833 134.988V159.809L81.7061 162.133C82.3205 162.024 82.9249 161.89 83.5293 161.742H83.5244ZM99.175 147.401L93.3339 144.027V160.453C94.3049 160.899 95.3007 161.296 96.3163 161.643C96.6631 165.414 97.654 168.977 99.175 172.227V147.406V147.401ZM75.6966 153.06L63.5041 160.102C65.9862 161.162 68.6219 161.91 71.3616 162.312L75.6966 159.809V153.06ZM75.6966 144.027L55.8596 155.483C57.549 156.861 59.3772 158.07 61.3192 159.076L75.6966 150.776V144.027ZM75.6966 141.737V134.988L54.2049 147.401V154.031C54.2297 154.056 54.2544 154.081 54.2842 154.106L75.7015 141.737H75.6966ZM38.5543 148.908C40.5856 148.471 42.5375 147.857 44.3954 147.059V142.882L38.5543 139.507V148.908ZM28.7498 144.027L21.8484 148.016C24.0581 148.749 26.3717 149.24 28.7498 149.472V144.031V144.027ZM19.9311 137.788L1.4021 127.089C2.46231 130.558 4.08732 133.754 6.16812 136.589L14.09 141.162L19.9311 137.788ZM10.4982 141.38C10.9193 141.762 11.3503 142.134 11.7962 142.49L12.1083 142.307L10.4982 141.375V141.38ZM13.0992 122.515V97.6942L9.14565 95.4098C8.48177 96.0837 7.85258 96.7873 7.25311 97.5158V119.141L13.0942 122.515H13.0992ZM20.922 102.213L15.0809 98.8389V123.66L20.922 127.035V102.213ZM22.9037 128.179L28.7448 131.554V106.733L22.9037 103.358V128.179ZM30.7315 131.554L52.2232 119.141V112.392L30.7315 124.805V131.554ZM52.2232 103.358L30.7315 115.771V122.52L52.2232 110.107V103.358ZM30.7315 113.482L52.2232 101.069V94.3196L30.7315 106.733V113.482ZM45.3912 95.9747L51.2323 92.6001L29.7406 80.187L26.342 82.1493C25.901 82.8331 25.4849 83.5318 25.0935 84.2504L45.3912 95.9747ZM23.7955 86.9114C21.7246 87.4515 19.7429 88.1998 17.8652 89.1214L37.5684 100.499L43.4095 97.1243L24.1968 86.0293C24.0581 86.3217 23.9243 86.614 23.8004 86.9114H23.7955ZM35.5817 101.639L15.8042 90.2166C13.9513 91.3018 12.2173 92.5604 10.6369 93.9777L29.7406 105.008L35.5817 101.634V101.639ZM36.5726 72.2188C34.4422 73.5122 32.4853 75.0433 30.7315 76.7728V78.4724L36.5726 81.847V72.2188ZM44.4004 68.8145C42.3592 69.3893 40.4022 70.1623 38.5593 71.1088V82.9917L44.4004 86.3663V68.8145ZM52.2232 67.6252C51.6931 67.6401 51.158 67.6649 50.6229 67.7045C49.1763 67.8185 47.7594 68.0266 46.3821 68.3239V87.511L52.2232 90.8855V67.6252ZM34.3332 149.527C35.0913 149.467 35.8344 149.373 36.5726 149.264V138.358L30.7315 134.983V149.596C31.9205 149.636 33.1194 149.621 34.3332 149.527ZM46.3821 144.027V146.133C46.823 145.91 47.254 145.677 47.685 145.434C48.9236 147.822 50.4545 150.032 52.2281 152.01V147.401L46.387 144.027H46.3821ZM19.4555 147.104L28.7498 141.737V134.988L13.5005 143.794C15.3534 145.102 17.3499 146.212 19.4555 147.104ZM0.649045 124.101C0.668862 124.2 0.68868 124.299 0.708497 124.398L21.9128 136.643L27.754 133.268L6.26225 120.855L0.644091 124.096L0.649045 124.101ZM0.0941651 120.201C0.143708 120.811 0.208114 121.42 0.292337 122.02L5.2714 119.146V112.397L0.0941651 115.385C-0.0197835 116.965 -0.0247378 118.571 0.0941651 120.201ZM0.361697 112.942L5.27635 110.102V103.353L2.73975 104.815C1.60027 107.372 0.79272 110.097 0.361697 112.937V112.942ZM5.2714 101.069V100.192C4.97414 100.643 4.69174 101.098 4.4143 101.564L5.2714 101.069Z" fill="#A61F29"/>
</svg>
