<svg width="500" height="196" viewBox="0 0 500 196" fill="none" xmlns="http://www.w3.org/2000/svg">
<path d="M96.0032 195.965C96.2944 195.939 96.5855 195.913 96.881 195.883L96.968 195.038C89.8197 192.733 84.8745 186.239 84.5399 178.797C93.27 179.104 100.614 185.75 101.722 194.423L101.787 194.93L102.278 194.783C102.517 194.713 102.752 194.635 102.982 194.562L103.238 194.479L103.278 194.211C104.477 185.659 111.812 179.109 120.433 178.801C120.412 179.303 120.368 179.806 120.303 180.3L120.247 180.733L120.681 180.785C120.885 180.811 121.09 180.833 121.298 180.854L121.924 180.919L121.85 180.378C121.78 179.858 121.733 179.329 121.711 178.805C124.249 178.892 126.682 179.498 128.955 180.612L129.076 180.672L129.211 180.651C129.372 180.625 129.533 180.599 129.694 180.568L131.062 180.326L129.933 179.737C128.39 178.935 126.782 178.35 125.113 177.995C132.118 176.47 137.837 171.068 139.653 164.076C140.509 167.364 142.252 170.414 144.677 172.827L144.972 173.121L145.281 172.835C145.333 172.788 145.385 172.736 145.437 172.684L145.863 172.272L145.55 171.96C142.352 168.776 140.492 164.578 140.292 160.094C148.014 160.372 154.823 165.666 156.94 173.113L157.013 173.373L157.678 173.485L158.347 173.594V173.585L158.995 173.667L159.369 173.711L159.464 173.351C161.507 165.765 168.342 160.367 176.181 160.09C175.986 164.5 174.174 168.65 171.058 171.822L171.497 172.541C171.74 172.467 171.983 172.389 172.222 172.307L172.331 172.272L172.405 172.19C174.539 169.863 176.042 167.091 176.82 164.084C177.237 165.7 177.872 167.251 178.706 168.715L178.936 169.118L179.323 168.863L179.957 168.434L179.762 168.087C178.38 165.653 177.585 162.897 177.459 160.094C186.719 160.423 194.349 167.962 194.771 177.189C192.516 177.111 190.33 176.617 188.27 175.725L187.831 176.466C188.214 176.76 188.596 177.042 188.965 177.298L189.013 177.332L189.07 177.35C189.817 177.61 190.578 177.826 191.351 177.991L190.313 178.212L191.303 178.775C191.468 178.866 191.629 178.961 191.794 179.052L191.929 179.126L192.081 179.096C192.968 178.931 193.867 178.831 194.767 178.797C194.749 179.234 194.715 179.667 194.662 180.092L194.623 180.417L194.927 180.543C195.145 180.633 195.362 180.716 195.584 180.798L196.266 181.058L196.179 180.343C196.114 179.836 196.066 179.321 196.044 178.801C199.907 178.935 203.544 180.274 206.582 182.691L206.704 182.787H207.012C207.151 182.782 207.29 182.778 207.429 182.774L208.568 182.735L207.694 182.007C205.3 180.014 202.454 178.641 199.434 177.991C206.447 176.47 212.166 171.072 213.991 164.076C215.408 169.565 219.197 174.157 224.437 176.613L224.676 176.726L224.885 176.565C224.994 176.483 225.102 176.397 225.211 176.314L225.771 175.877L225.124 175.582C219.01 172.792 214.93 166.749 214.63 160.09C221.265 160.328 227.353 164.301 230.225 170.314L230.538 170.968L230.969 170.383C231.029 170.301 231.36 169.838 231.36 169.838L231.247 169.604C228.605 164.227 223.733 160.488 218.041 159.275C225.046 157.751 230.76 152.348 232.581 145.36C234.401 152.353 240.12 157.755 247.134 159.28C244.952 159.748 242.862 160.597 240.954 161.792L239.998 162.39L241.193 162.598C241.346 162.624 241.498 162.65 241.65 162.676L241.806 162.698L241.941 162.616C244.535 161.065 247.494 160.19 250.523 160.086C250.493 160.8 250.419 161.507 250.306 162.2L250.21 162.785L250.797 162.698C250.871 162.685 250.949 162.672 251.023 162.659L251.179 162.633L251.492 162.581L252.061 162.477L251.996 162.057C251.896 161.424 251.831 160.761 251.801 160.086C259.544 160.363 266.358 165.679 268.461 173.147L268.522 173.368L268.796 173.459C268.917 173.503 269.039 173.542 269.161 173.581L269.613 173.724L269.691 173.75L269.921 173.823V173.815L270.799 174.057L270.908 173.628C272.859 165.878 279.725 160.367 287.698 160.09C287.442 165.774 284.474 171.02 279.698 174.196L278.386 175.067L280.046 174.984C280.25 174.976 280.45 174.963 280.654 174.95L280.776 174.941L280.876 174.872C284.57 172.246 287.212 168.391 288.337 164.071C289.033 166.757 290.314 169.27 292.096 171.432L292.322 171.705C292.322 171.705 292.9 171.406 292.965 171.371L293.43 171.12L293.091 170.713C290.601 167.723 289.15 163.967 288.972 160.09C293.395 160.246 297.576 162.013 300.787 165.094L300.904 165.206L301.069 165.215C301.252 165.224 301.43 165.228 301.613 165.232L302.695 165.258L301.93 164.496C299.275 161.836 295.972 160.051 292.378 159.284C299.383 157.759 305.102 152.357 306.918 145.369C308.739 152.361 314.458 157.764 321.467 159.288C321.15 159.358 320.833 159.431 320.52 159.518L319.968 159.665L320.255 160.155L320.62 160.757L320.932 160.675C322.206 160.341 323.527 160.146 324.865 160.103C324.791 161.732 324.5 163.339 323.992 164.877L323.913 165.12C323.913 165.12 324.305 165.544 324.37 165.614L324.865 166.133L325.095 165.453C325.247 165.003 325.387 164.548 325.504 164.089C325.86 165.458 326.369 166.788 327.025 168.053L327.064 168.131L327.133 168.187C327.377 168.386 327.624 168.585 327.876 168.78L328.52 168.222C327.09 165.752 326.273 162.954 326.143 160.103C334.473 160.398 341.586 166.45 343.155 174.646L343.216 174.963C343.216 174.963 343.672 175.006 343.711 175.01C343.711 175.01 343.863 175.023 343.92 175.028L344.485 175.075C344.511 175.075 344.945 175.097 344.945 175.097L345.015 174.72C346.553 166.476 353.671 160.393 362.04 160.099C361.819 164.964 359.594 169.565 355.892 172.788L356.317 173.524C356.613 173.425 356.908 173.321 357.2 173.212L357.282 173.182L357.347 173.121C359.937 170.652 361.784 167.502 362.675 164.08C363.088 165.674 363.705 167.203 364.522 168.65L364.769 169.088C364.769 169.088 365.36 168.629 365.456 168.551L365.743 168.321L365.565 168.001C364.213 165.588 363.44 162.867 363.314 160.094C366.03 160.19 368.624 160.874 371.031 162.139L371.374 162.317C371.374 162.317 371.731 161.797 371.8 161.697L372.07 161.299L371.644 161.073C370.093 160.255 368.428 159.652 366.707 159.284C373.721 157.763 379.444 152.361 381.265 145.365C383.085 152.357 388.8 157.755 395.809 159.28C394.188 159.626 392.624 160.185 391.125 160.952L391.311 161.771L391.563 161.779C391.737 161.784 391.915 161.792 392.089 161.792H392.185L392.272 161.754C394.462 160.735 396.795 160.177 399.211 160.09C399.211 160.194 399.203 160.298 399.194 160.402L399.159 160.995L399.737 160.848C399.833 160.826 399.924 160.8 400.015 160.774L400.511 160.64C400.511 160.64 400.485 160.159 400.48 160.09C400.932 160.107 401.384 160.138 401.832 160.185L401.927 160.194L402.231 160.09C402.423 160.025 402.614 159.964 402.801 159.895L402.757 159.488C403.44 159.384 404.117 159.245 404.782 159.068L404.817 159.059L404.852 159.046C405.699 158.66 406.464 158.275 407.185 157.867L406.803 157.092C404.795 157.937 402.675 158.4 400.485 158.474C400.902 149.246 408.532 141.708 417.793 141.379C417.649 144.576 416.65 147.669 414.894 150.351L415.589 150.867C416.176 150.165 416.689 149.502 417.149 148.848L417.171 148.817L417.189 148.783C417.714 147.682 418.131 146.543 418.436 145.365C419.074 147.812 420.2 150.13 421.747 152.153L421.808 152.236L421.899 152.279C422.142 152.4 422.39 152.517 422.638 152.63L423.155 151.963C420.647 148.939 419.244 145.287 419.07 141.379C427.114 141.66 433.997 147.232 435.896 155.069L435.978 155.411C435.978 155.411 436.621 155.394 436.704 155.389L437.23 155.368V155.355L437.769 155.32L438.081 155.294L438.155 154.991C440.085 147.201 446.959 141.665 454.964 141.383C454.846 144 454.177 146.504 452.96 148.822L453.608 149.368C453.829 149.203 454.051 149.034 454.268 148.861L454.346 148.796L454.39 148.705C454.898 147.63 455.302 146.513 455.598 145.365C455.702 145.767 455.82 146.17 455.95 146.565L456.167 147.223C456.167 147.223 456.893 146.517 456.954 146.456L457.141 146.27L457.058 146.019C456.58 144.524 456.302 142.965 456.232 141.379C457.601 141.427 458.961 141.63 460.274 141.985L460.578 142.068L460.956 141.487L461.277 140.993L460.708 140.837C460.356 140.742 460 140.651 459.644 140.577C460.348 140.426 461.047 140.235 461.734 140.001L461.89 139.949L461.973 139.802C462.051 139.663 462.125 139.52 462.203 139.382L462.764 138.338L461.699 138.723C459.948 139.356 458.11 139.707 456.232 139.772C456.65 130.544 464.28 123.006 473.54 122.677C473.436 124.999 472.893 127.238 471.919 129.344L471.602 130.028L472.497 129.946C472.589 129.937 472.68 129.929 472.767 129.92L473.015 129.894L473.114 129.669C473.549 128.698 473.905 127.693 474.17 126.667C474.396 127.546 474.688 128.408 475.039 129.24L475.179 129.569L475.526 129.5C475.596 129.487 475.67 129.47 475.739 129.452L475.887 129.418L476.4 129.309L476.195 128.828C475.37 126.883 474.905 124.817 474.809 122.685C478.277 122.807 481.605 123.916 484.456 125.908L484.686 126.069L485.073 125.843C485.138 125.804 485.208 125.77 485.273 125.731L485.838 125.389L485.299 125.007C483.152 123.478 480.749 122.421 478.212 121.879C485.221 120.354 490.939 114.952 492.76 107.96C493.334 110.161 494.303 112.266 495.615 114.133L496.019 114.71L496.354 114.09C496.393 114.016 496.428 113.947 496.467 113.873L496.662 113.492L496.515 113.276C494.62 110.52 493.547 107.314 493.399 103.979C495.32 104.044 497.193 104.412 498.979 105.07L499.474 105.252C499.474 105.252 499.613 104.442 499.622 104.368L499.674 104.018L499.339 103.896C498.514 103.597 497.675 103.355 496.819 103.168C497.766 102.965 498.696 102.688 499.609 102.341L499.865 102.241L499.9 101.808C499.908 101.726 499.913 101.643 499.917 101.565L499.956 100.885L499.322 101.137C497.427 101.882 495.433 102.293 493.395 102.367C493.59 98.0347 495.35 93.9363 498.375 90.7868L498.553 90.6005L498.344 89.9637L498.118 89.2922L497.623 89.799C495.246 92.2251 493.586 95.158 492.756 98.3769C490.935 91.389 485.221 85.991 478.22 84.466C482.657 83.5216 486.629 81.0262 489.453 77.3221L489.701 76.9972L489.114 76.4947L488.767 76.2044L488.493 76.5683C485.19 80.9006 480.228 83.4696 474.814 83.6559C475.013 79.2153 476.843 75.0434 479.993 71.8678L480.471 71.3869L479.828 71.1573C479.754 71.1313 479.45 71.0317 479.45 71.0317L479.189 70.9407L478.998 71.14C476.643 73.5531 475 76.473 474.175 79.6702C473.149 75.7019 470.864 72.1667 467.6 69.5501L467.465 69.4418L467.096 69.4678C466.983 69.4764 466.87 69.4807 466.753 69.4937L465.649 69.5934L466.527 70.2692C470.764 73.5184 473.297 78.3792 473.532 83.6646C466.383 83.4176 460.104 79.0074 457.453 72.3314L457.284 71.9068L456.867 72.0931C456.802 72.1234 456.736 72.1538 456.676 72.1841L456.541 72.2491L456.172 72.4224L456.324 72.8036C458.735 78.8514 463.937 83.1534 470.125 84.4704C463.12 85.9953 457.406 91.3976 455.585 98.3856C453.764 91.3933 448.046 85.991 441.036 84.466C446.594 83.279 451.396 79.6702 454.073 74.4888L454.79 73.0982L453.456 73.9213C453.247 74.0513 453.038 74.1812 452.83 74.3155L452.739 74.3719L452.686 74.4628C449.614 79.9388 443.878 83.4306 437.63 83.6516C437.886 77.9806 440.845 72.7386 445.608 69.5587L446.203 69.1645C446.203 69.1645 445.299 68.6663 445.217 68.623L444.986 68.5017L444.769 68.649C440.906 71.283 438.151 75.2167 436.991 79.6702C435.296 73.1242 430.229 67.8908 423.581 66.0323L423.468 66.0019L423.355 66.0323C423.12 66.0929 422.885 66.1579 422.651 66.2229L421.056 66.6691L422.664 67.0633C430.42 68.9522 435.991 75.7409 436.348 83.6602C427.618 83.3526 420.274 76.707 419.166 68.0338L419.092 67.4576L418.557 67.6915C418.314 67.7998 418.075 67.9125 417.836 68.0251L417.627 68.1248L417.593 68.3544C416.489 75.8882 410.709 81.9143 403.205 83.3483L402.979 83.3916C402.979 83.3916 402.827 83.7469 402.801 83.8162C402.688 83.7382 402.323 83.4913 402.323 83.4913L402.158 83.5129C401.588 83.5866 401.015 83.6342 400.45 83.6559C400.463 83.3136 400.485 82.9887 400.515 82.6768L400.541 82.3952L400.128 82.1656C399.985 82.0876 399.846 82.0053 399.702 81.9317L398.972 81.5461L399.068 82.3649C399.116 82.7894 399.151 83.2227 399.172 83.6559C394.688 83.4999 390.464 81.6934 387.24 78.5438L387.122 78.4269L386.957 78.4182C386.849 78.4139 386.74 78.4095 386.627 78.4095H386.427L385.345 78.3705L386.101 79.1417C388.778 81.8623 392.12 83.6906 395.761 84.466C388.756 85.991 383.042 91.3933 381.221 98.3812C379.4 91.389 373.678 85.9823 366.668 84.4617C368.472 84.0761 370.214 83.4349 371.826 82.5512L371.418 81.7887C371.418 81.7887 371.222 81.8883 371.218 81.8883L371.035 81.5851L370.675 81.767C368.354 82.9281 365.864 83.5649 363.27 83.6516C363.401 80.8009 364.213 78.0023 365.643 75.5372L365.817 75.234L365.282 74.7531L364.887 74.4022L364.617 74.8614C363.731 76.3777 363.066 77.9893 362.631 79.6702C361.493 75.3076 358.812 71.4216 355.057 68.7919L355.005 68.7573L354.949 68.7356C354.523 68.5883 354.088 68.4497 353.654 68.324L353.306 69.1125C358.503 72.2404 361.728 77.6514 361.997 83.6559C352.998 83.344 345.623 76.473 344.75 67.4966L344.711 67.0937L344.307 67.1023C344.155 67.1023 344.002 67.1153 343.85 67.1197L343.381 67.1413L343.346 67.5139C342.464 76.4773 335.09 83.3396 326.099 83.6516C326.469 75.5026 332.465 68.493 340.517 66.8901L340.943 66.8077L340.861 66.3832L340.765 65.9153L340.735 65.7897L340.696 65.6034H340.691L340.574 65.0878C340.557 65.0099 340.539 64.9319 340.522 64.8539L340.457 64.594L340.191 64.5376C332.196 62.7874 326.46 55.9598 326.099 47.8455C326.712 47.8671 327.325 47.9191 327.933 48.0057L328.207 47.3039L328.389 47.2866L327.12 46.4851C327.012 46.4158 326.899 46.3422 326.786 46.2772L326.668 46.2079L326.534 46.2165C326.386 46.2252 326.243 46.2339 326.095 46.2382C326.095 46.2122 326.112 45.8873 326.112 45.8873L325.708 45.6577C325.621 45.6057 325.534 45.558 325.447 45.5104L324.756 45.1378L324.804 45.9176C324.813 46.0216 324.817 46.1299 324.822 46.2339C320.854 46.0909 317.013 44.6309 313.958 42.0836L313.854 41.9969L313.719 41.9839C313.515 41.9666 313.311 41.9493 313.106 41.9363L311.824 41.8496L312.789 42.6944C315.266 44.8692 318.247 46.3595 321.432 47.044C314.419 48.5646 308.7 53.9669 306.875 60.9635C305.206 54.5215 300.239 49.3184 293.734 47.3992L293.53 47.3386L293.356 47.4599C293.261 47.5292 293.165 47.5985 293.074 47.6678L292.266 48.2614L293.126 48.4996C300.557 50.5704 305.889 57.2941 306.236 64.9449C298.375 64.6676 291.531 59.2523 289.506 51.6362L289.306 50.8824L288.772 51.4499C288.694 51.5322 288.32 51.9438 288.32 51.9438L288.385 52.1734C290.314 59.0833 296.003 64.269 302.855 65.7507C295.837 67.2713 290.115 72.6736 288.294 79.6702C286.473 72.678 280.754 67.2756 273.745 65.7507C279.851 64.4467 285.017 60.227 287.464 54.3049L286.716 53.876C286.26 54.4738 285.834 55.0803 285.439 55.6825C282.358 61.2105 276.609 64.7153 270.343 64.9405C270.512 61.0935 271.885 57.4847 274.327 54.4825L274.775 53.9323L273.419 53.655L273.254 53.863C271.577 55.9641 270.369 58.3858 269.7 60.9635C267.879 53.9756 262.165 48.5733 255.16 47.0483C258.806 46.2685 262.147 44.4403 264.824 41.7196L265.128 41.4121L264.82 41.1088C264.767 41.0568 264.246 40.5586 264.246 40.5586L263.946 40.8662C260.687 44.1804 256.376 46.0779 251.757 46.2382C251.931 42.3652 253.382 38.6134 255.868 35.6242L256.237 35.1823L255.364 34.801L255.064 34.6754L254.856 34.9267C253.083 37.0798 251.814 39.5795 251.118 42.2525C250.141 38.4878 248.02 35.087 245.013 32.5136L244.9 32.414H244.748C244.6 32.401 244.453 32.3966 244.3 32.3966L242.901 32.3663L243.879 33.1634C247.859 36.404 250.249 41.1478 250.48 46.2382C243.14 45.9783 236.622 41.2214 234.167 34.2812L234.023 33.8783C234.023 33.8783 233.385 34.0949 233.272 34.1339L232.863 34.2768L233.007 34.6841C235.249 41.0265 240.668 45.6577 247.09 47.044C240.077 48.5646 234.354 53.9669 232.529 60.9635C230.708 53.9713 224.994 48.5733 217.984 47.0483C224.116 45.74 229.296 41.4944 231.733 35.5288L232.138 34.5368L231.155 34.97C231.029 35.0263 230.908 35.0826 230.786 35.1389L230.517 35.2646L230.451 35.4162C227.692 41.7846 221.495 45.9956 214.582 46.2382C214.799 41.4207 216.989 36.8502 220.631 33.6357L220.957 33.3454L220.422 32.7475L220.135 32.4313L219.814 32.7129C216.933 35.2602 214.895 38.5874 213.943 42.2525C212.122 35.2646 206.408 29.8623 199.403 28.3373C202.102 27.7611 204.639 26.6087 206.886 24.9191L207.568 24.4079L206.751 24.161C206.643 24.1263 206.308 24.031 206.308 24.031L206.104 23.9704L205.93 24.096C203.014 26.2188 199.59 27.3972 195.992 27.5228C196.053 26.1452 196.275 24.7848 196.648 23.4678L196.813 22.883L195.818 22.9393L195.51 22.961C195.51 22.961 195.379 23.4418 195.353 23.5328C195.336 23.4678 195.206 22.987 195.206 22.987L194.836 23.026L193.967 23.1256L194.102 23.6151C194.449 24.8845 194.654 26.1972 194.715 27.5272C191.86 27.4232 189.052 26.6391 186.567 25.2484L186.38 25.1444L186.184 25.2267C186.097 25.2614 186.015 25.3004 185.928 25.3394L184.981 25.7509L185.724 26.1798C187.466 27.1893 189.357 27.9171 191.316 28.3373C184.303 29.8579 178.584 35.2602 176.759 42.2568C174.938 35.2646 169.22 29.8623 162.211 28.3373C166.4 27.4405 170.202 25.1574 172.987 21.7913L173.383 21.3147C173.383 21.3147 172.514 21.0071 172.427 20.9768L172.144 20.8815L171.953 21.1068C168.664 25.0231 163.897 27.3452 158.808 27.5272C158.921 24.9191 159.59 22.4238 160.798 20.106L161.159 19.4172C161.159 19.4172 160.055 19.4995 159.955 19.5082L159.716 19.5298L159.608 19.7464C158.991 20.9638 158.513 22.2375 158.169 23.5458C156.349 16.5536 150.634 11.1556 143.625 9.63061C144.764 9.388 145.88 9.03709 146.967 8.58653L147.701 8.27894C147.701 8.27894 146.762 7.63344 146.68 7.58145L146.489 7.45582L146.276 7.54246C144.342 8.31793 142.308 8.75116 140.218 8.82481C140.275 7.51214 140.479 6.21679 140.818 4.9691L140.922 4.59219L140.431 4.40591C140.357 4.37558 140.283 4.34959 140.21 4.32359L139.766 4.1633C139.766 4.1633 139.601 4.76982 139.584 4.84346C139.532 4.64418 139.475 4.4449 139.419 4.24561L139.353 4.02467L139.136 3.95535C138.997 3.91203 138.858 3.86871 138.719 3.82538L137.937 3.58711L138.176 4.36692C138.619 5.80523 138.88 7.30419 138.945 8.82914C134.104 8.65585 129.494 6.51572 126.23 2.90694L126.078 2.73799L125.687 2.78997C125.596 2.80297 125.509 2.81164 125.418 2.82463L124.627 2.93727L125.153 3.53512C127.899 6.65435 131.562 8.77715 135.556 9.63494C128.542 11.1556 122.819 16.5579 120.998 23.5545C119.178 16.5666 113.463 11.1642 106.458 9.63927C107.923 9.32735 109.344 8.84214 110.708 8.18363L111.295 7.90204L110.808 7.46881L110.291 7.02259L110.035 7.14389C107.832 8.1793 105.485 8.7425 103.047 8.82914C103.13 6.96194 103.499 5.13806 104.147 3.40949L104.286 3.04124L103.603 2.70766L103.178 2.50405L103.012 2.94594C102.782 3.56545 102.582 4.19796 102.413 4.84346C102.152 3.83405 101.804 2.85063 101.383 1.89753L101.309 1.7329L101.135 1.66792C101.009 1.62026 100.879 1.57694 100.748 1.52929L99.6838 1.15671L100.118 2.08815C101.113 4.21095 101.67 6.47673 101.774 8.82914C95.7165 8.61686 90.2455 5.43265 87.0646 0.238274L86.9169 0L86.5867 0.0433226C86.4737 0.0563194 86.3564 0.0736484 86.2434 0.0909774L85.5959 0.181955L85.9305 0.740816C88.7246 5.385 93.2091 8.55188 98.3585 9.64794C91.3536 11.1772 85.6393 16.5752 83.823 23.5675C82.0153 16.6662 76.3445 11.1729 69.2961 9.64361C73.8675 8.66018 77.9175 6.03483 80.7159 2.24844L81.559 1.10473L80.1076 1.6246C79.9294 1.68958 79.7556 1.75023 79.5818 1.81522L79.4688 1.85854L79.395 1.95385C76.892 5.14239 73.3547 7.41683 69.4352 8.35259L69.3178 8.37859L69.2309 8.4609C69.0658 8.62119 68.905 8.78149 68.7442 8.94611L67.7578 9.95986L67.81 9.9512L67.3189 10.5014L68.075 10.6574C76.5226 11.996 82.8105 19.0619 83.1885 27.5445C74.9322 27.2499 67.8273 21.2671 66.2065 13.1571L66.0023 12.1477L65.42 13.0011C65.3244 13.1397 65.0376 13.573 65.0376 13.573L65.0767 13.7506C66.6975 21.1068 72.6117 26.7863 79.8121 28.3546C72.7942 29.8709 67.0626 35.2776 65.2418 42.2785C63.4211 35.2862 57.7025 29.8839 50.6932 28.3633C54.9474 27.4535 58.7975 25.1141 61.6003 21.6526L62.1435 20.9811L61.2744 20.9508C61.1223 20.9465 60.9702 20.9378 60.8181 20.9378H60.6096L60.4748 21.0938C57.1853 25.0361 52.401 27.3755 47.2907 27.5575C47.3385 26.4614 47.4906 25.3697 47.7383 24.3083L47.9425 23.4375C47.9425 23.4375 46.891 23.9314 46.7737 23.9877V23.979L46.2609 24.239C46.1913 24.2736 45.922 24.4209 45.922 24.4209L45.6351 24.5726L45.696 24.8888C45.8698 25.7553 45.9741 26.6521 46.0132 27.5575C44.6878 27.5098 43.3755 27.3235 42.111 26.99L41.9068 26.938L41.7373 27.0636C41.6678 27.1156 41.5982 27.1719 41.5287 27.2282L41.3853 27.3409L40.7031 27.8694L41.5374 28.099C41.8893 28.1943 42.2414 28.281 42.5977 28.359C41.3114 28.6362 40.0556 29.0478 38.8432 29.5893L38.7693 29.6196L38.7128 29.676C38.4651 29.9229 38.2218 30.1742 37.9828 30.4298L38.4955 31.1143C40.8464 29.9142 43.3755 29.2601 46.0132 29.1691C45.596 38.3968 37.9654 45.9349 28.7053 46.2642C28.966 40.4633 32.0295 35.1519 36.9659 31.9894L37.5439 31.6168C37.5439 31.6168 36.7139 31.1013 36.614 31.045L36.3793 30.9063L36.149 31.0536C32.1165 33.6876 29.2484 37.6993 28.0621 42.2742C26.1241 34.801 19.7754 29.0998 11.9579 28.0904L11.8623 28.0774L11.771 28.1077C11.4886 28.1943 11.2105 28.2853 10.9324 28.3806L11.0367 29.2211C20.0535 30.0009 27.0236 37.2877 27.4233 46.2598C18.1545 45.9349 10.5934 38.5658 10.1154 29.2904L10.085 28.6839L9.41583 28.9525C9.30719 28.9958 9.19855 29.0391 9.0899 29.0868L8.84219 29.1908L8.82486 29.4594C8.29037 38.2408 1.53314 45.2721 -7.24033 46.1819L-7.50974 46.2079L-7.60532 46.4591C-7.63574 46.5371 -7.97034 47.4772 -7.97034 47.4772H-7.96597L-8.10507 47.8844L-7.55319 47.9321C1.46799 48.7076 8.43372 55.9944 8.8335 64.9709C-0.604828 64.6459 -8.17023 57.1251 -8.48312 47.6635L-8.49615 47.2086L-9.34784 47.2823L-9.72589 47.3213L-9.73895 47.7025C-10.0692 57.1468 -17.6346 64.6503 -27.0555 64.9752C-26.7427 58.0263 -22.4146 51.8701 -15.9225 49.2058L-15.3359 48.9675C-15.3359 48.9675 -15.9747 48.2917 -16.0399 48.2224L-16.2484 48.0101L-16.5222 48.1227C-22.0714 50.4491 -26.2039 55.2666 -27.6943 60.9895C-29.5151 53.9973 -35.2337 48.5949 -42.2429 47.07C-37.967 46.1559 -34.1039 43.7991 -31.3011 40.3117L-30.8622 39.7658C-30.8622 39.7658 -31.8616 39.5492 -31.9485 39.5319L-32.2049 39.4799L-32.3701 39.6835C-35.6639 43.6995 -40.483 46.0822 -45.6454 46.2598C-45.5541 44.2064 -45.1152 42.2135 -44.3418 40.3203L-44.0245 39.5448L-45.0023 39.7701C-45.0935 39.7918 -45.1848 39.8091 -45.276 39.8308L-45.4933 39.8828L-45.5759 40.0907C-45.854 40.8012 -46.093 41.529 -46.2842 42.2698C-46.4232 41.7283 -46.5884 41.1954 -46.7709 40.6756L-46.9099 40.2813L-47.3097 40.407C-47.3835 40.4286 -48.0789 40.6626 -48.0789 40.6626L-47.9311 41.0785C-47.3401 42.7377 -47.0012 44.4793 -46.9186 46.2555C-49.6519 46.1602 -52.2592 45.467 -54.6752 44.189L-54.9055 44.0677L-55.1228 44.215C-55.1923 44.2627 -55.2575 44.3103 -55.3227 44.358L-55.4574 44.4533L-56.031 44.8562L-55.414 45.1898C-53.8148 46.0562 -52.0941 46.6887 -50.3124 47.0656C-57.3217 48.5863 -63.0446 53.9886 -64.8654 60.9809C-65.0739 60.1707 -65.3389 59.3736 -65.6562 58.5981L-66.0734 57.5757L-66.4644 58.6111C-66.5296 58.7801 -66.5948 58.9534 -66.6556 59.1223L-66.7078 59.2739L-66.6513 59.4212C-65.9734 61.1931 -65.5867 63.0603 -65.5041 64.9665C-66.2298 64.9405 -66.9424 64.8756 -67.6334 64.7673L-68.0679 64.6979L-68.1288 65.1355C-68.1461 65.2568 -68.194 65.625 -68.194 65.625H-68.1982L-68.2374 65.9543L-68.333 66.8944L-67.7724 66.8034C-67.025 66.6821 -66.2645 66.6085 -65.5041 66.5825C-65.6301 69.4114 -66.4384 72.1884 -67.842 74.6361L-67.9202 74.7748L-67.8898 74.9307C-67.868 75.0477 -67.8419 75.1647 -67.8159 75.2816L-67.5508 76.551L-66.9772 75.5979C-66.0256 74.0166 -65.3173 72.3314 -64.861 70.5638C-63.0359 77.5604 -57.3129 82.9627 -50.2994 84.479C-57.3173 85.9953 -63.0402 91.402 -64.8654 98.3986C-66.6861 91.4063 -72.4047 86.004 -79.4139 84.4834C-75.1249 83.5649 -71.2531 81.1995 -68.446 77.6947L-68.0679 77.2225L-68.6415 77.0189L-69.2933 76.7936L-69.4846 77.0319C-72.7827 81.0912 -77.6192 83.4956 -82.8163 83.6819C-82.6947 80.9829 -81.956 78.3229 -80.6741 75.9661L-80.296 75.2686L-81.0869 75.325C-81.1781 75.3293 -81.2694 75.3423 -81.3607 75.3466L-81.7561 75.3813L-81.8647 75.5892C-82.5557 76.8932 -83.0858 78.2666 -83.4552 79.6832C-83.7724 78.4615 -84.2069 77.2788 -84.7588 76.1481L-84.9066 75.8405L-85.6061 75.9921L-86.145 76.1134L-85.9017 76.6073C-84.811 78.8211 -84.2026 81.1995 -84.0939 83.6776C-87.9049 83.5433 -91.5029 82.2349 -94.5187 79.8782L-94.7576 79.6919C-94.7576 79.6919 -95.2357 79.9908 -95.3443 80.0601L-95.8527 80.385L-95.3791 80.7619C-93.0369 82.6205 -90.36 83.8812 -87.5007 84.492C-94.5056 86.017 -100.22 91.4193 -102.041 98.4072C-102.666 95.9985 -103.761 93.7241 -105.265 91.7269L-105.682 91.1724L-105.999 91.7875C-106.043 91.8699 -106.299 92.3941 -106.299 92.3941L-106.143 92.6063C-104.031 95.47 -102.836 98.8448 -102.679 102.389C-106.586 102.254 -110.254 100.89 -113.313 98.4289L-113.556 98.2339C-113.556 98.2339 -114.038 98.5372 -114.147 98.6065L-114.647 98.9314L-114.186 99.3083C-111.827 101.236 -109.032 102.566 -106.073 103.199C-113.087 104.719 -118.81 110.122 -120.635 117.118C-121.282 114.632 -122.43 112.283 -124.02 110.234L-124.437 109.693L-124.75 110.304C-124.793 110.386 -125.05 110.906 -125.05 110.906L-124.889 111.118C-122.682 114.025 -121.439 117.469 -121.278 121.104C-123.333 121.03 -125.341 120.614 -127.249 119.856L-127.766 119.653L-127.84 120.203C-127.857 120.328 -127.927 120.909 -127.927 120.909L-127.614 121.03C-126.662 121.403 -125.689 121.693 -124.693 121.91C-125.754 122.139 -126.792 122.456 -127.805 122.867L-128.07 122.975L-128.079 123.261C-128.079 123.339 -128.092 124.314 -128.092 124.314L-127.479 124.063C-125.506 123.248 -123.42 122.802 -121.274 122.724C-121.465 126.987 -123.177 131.038 -126.123 134.166L-126.306 134.361L-126.214 134.612C-126.188 134.686 -126.158 134.759 -126.128 134.833L-126.067 134.984L-125.823 135.626L-125.35 135.127C-123.055 132.736 -121.452 129.855 -120.635 126.71C-118.814 133.702 -113.095 139.1 -106.086 140.621C-110.258 141.513 -114.043 143.779 -116.828 147.123L-117.111 147.461L-116.767 147.739C-116.711 147.786 -116.65 147.83 -116.594 147.877L-116.15 148.224L-115.881 147.899C-112.591 143.952 -107.807 141.613 -102.697 141.431C-102.879 145.447 -104.426 149.311 -107.081 152.361L-107.516 152.859L-106.89 153.059C-106.764 153.098 -106.238 153.262 -106.238 153.262L-106.052 153.046C-104.144 150.819 -102.784 148.215 -102.058 145.417C-101.18 148.787 -99.3726 151.898 -96.8435 154.35L-96.7088 154.48C-96.7088 154.48 -96.1873 154.458 -96.0178 154.449L-95.001 154.393L-95.7441 153.7C-99.2074 150.468 -101.211 146.127 -101.419 141.435C-94.7794 141.673 -88.6914 145.65 -85.8191 151.664L-85.6365 152.045C-85.6365 152.045 -84.9891 151.759 -84.9152 151.724L-84.5154 151.542L-84.7023 151.148C-87.2792 145.741 -92.2894 141.877 -98.0341 140.634C-91.0162 139.117 -85.2889 133.711 -83.4638 126.71C-81.6431 133.702 -75.9245 139.1 -68.9196 140.625C-73.9039 141.691 -78.3015 144.706 -81.1042 149.125L-81.252 149.355C-81.252 149.355 -80.9609 149.814 -80.8914 149.926L-80.5176 150.498L-80.1569 149.918C-76.9674 144.793 -71.5182 141.648 -65.5172 141.435C-65.7952 147.522 -69.2325 153.145 -74.5774 156.191L-75.1249 156.503L-74.0994 157.33L-73.843 157.179C-69.402 154.601 -66.1602 150.303 -64.8827 145.408C-63.062 152.4 -57.3477 157.802 -50.3428 159.327C-53.1326 159.925 -55.7529 161.138 -58.056 162.928L-58.9381 163.608L-57.8257 163.699C-57.6953 163.712 -57.565 163.716 -57.4346 163.725L-57.1174 163.746L-56.9914 163.651C-54.0538 161.476 -50.5862 160.268 -46.936 160.138C-46.9621 160.792 -47.0229 161.429 -47.1185 162.035L-47.2228 162.711L-46.6492 162.538V162.546L-45.9192 162.317L-45.4586 162.161L-45.5107 161.801C-45.5845 161.255 -45.6367 160.696 -45.6628 160.133C-44.433 160.177 -43.2076 160.346 -42.0212 160.636L-41.8648 160.675L-41.7214 160.605C-41.5563 160.523 -41.3956 160.441 -41.2304 160.354L-40.244 159.839L-41.3217 159.548C-41.6345 159.466 -41.9474 159.388 -42.2603 159.323C-35.2511 157.798 -29.5325 152.4 -27.7117 145.408C-25.8867 152.409 -20.1593 157.811 -13.1414 159.332C-20.142 160.852 -25.8823 166.259 -27.7117 173.238C-28.6113 169.799 -30.4841 166.627 -33.1001 164.154L-34.2559 163.062L-33.8171 164.587C-33.7475 164.834 -33.678 165.068 -33.6085 165.297L-33.5781 165.397L-33.5042 165.471C-30.9882 168.018 -29.3109 171.206 -28.646 174.694L-28.6243 174.798L-28.5591 174.88C-28.4244 175.054 -28.2853 175.227 -28.1419 175.396C-28.1419 175.396 -27.8725 175.725 -27.8334 175.768L-27.0773 176.682V176.643L-27.0643 176.665L-26.9382 175.699C-25.8041 167.056 -18.4646 160.437 -9.76065 160.129C-10.1561 168.85 -16.9046 176.111 -25.6389 177.116L-26.5428 177.22L-26.143 177.61L-26.1865 177.601L-25.0827 178.606C-24.9263 178.749 -24.7742 178.888 -24.6178 179.026L-24.5265 179.104L-24.4092 179.126C-20.4896 179.854 -16.8655 181.912 -14.2147 184.922L-14.1365 185.009L-13.8628 185.1C-13.6933 185.156 -13.5238 185.213 -13.3544 185.265L-11.9812 185.681L-12.8937 184.576C-15.6618 181.227 -19.451 178.931 -23.6531 178.025C-16.57 176.501 -10.9296 171.072 -9.12622 164.11C-7.30548 171.107 -1.58252 176.509 5.43103 178.025C0.716217 179.039 -3.50757 181.812 -6.31909 185.845L-6.76663 186.486L-5.98447 186.525C-5.89322 186.525 -5.80197 186.53 -5.71072 186.534L-5.31525 186.547L-5.18057 186.356C-1.93454 181.821 3.27136 179.035 8.81616 178.836C8.75098 180.257 8.52063 181.656 8.12955 183.012L7.85577 183.948L8.73355 183.523C8.82483 183.48 8.91171 183.432 9.00296 183.384L9.35065 183.207C9.35065 183.207 9.43753 182.895 9.45056 182.83L9.52448 183.133L10.0198 182.865C10.085 182.83 10.3501 182.678 10.3501 182.678L10.6369 182.518L10.5587 182.202C10.2979 181.11 10.1371 179.984 10.0893 178.844C11.6146 178.896 13.1225 179.143 14.5782 179.576L14.8041 179.641L14.9823 179.49C15.0475 179.433 15.1127 179.377 15.1779 179.321L15.3082 179.204L15.8992 178.693L15.1518 178.459C14.613 178.29 14.0654 178.147 13.5179 178.03C15.1127 177.688 16.6597 177.133 18.1415 176.379L18.2154 176.34L18.2719 176.28C18.4935 176.028 18.7108 175.773 18.9237 175.513L18.3718 174.863C15.8514 176.306 12.9964 177.116 10.0893 177.22C10.5065 167.992 18.1371 160.454 27.3973 160.125C27.1453 165.644 24.3033 170.808 19.7319 174.001L19.3973 174.235C19.3973 174.235 19.7537 174.824 19.7971 174.893L20.0404 175.283L20.4141 175.023C24.1947 172.394 26.8932 168.495 28.0317 164.11C29.8524 171.103 35.5667 176.501 42.5716 178.025C38.1479 178.97 34.1892 181.448 31.3604 185.135L31.0474 185.542L31.4994 185.78C31.608 185.837 31.721 185.893 31.8297 185.953L32.1512 186.118L32.3728 185.832C35.6754 181.556 40.6118 179.026 45.9785 178.84C45.822 182.323 44.6661 185.646 42.615 188.484L42.1718 189.099L42.9279 189.168C43.067 189.181 43.5971 189.22 43.5971 189.22L43.7405 189.021C45.0659 187.145 46.0393 185.035 46.6172 182.821C47.1734 184.961 48.1033 187.006 49.3548 188.83L49.507 189.051L49.9241 188.995C50.0023 188.986 50.0805 188.977 50.1544 188.964L50.8497 188.86L50.4716 188.28C48.5118 185.49 47.4037 182.236 47.2516 178.84C52.288 179.018 57.0289 181.309 60.3141 185.165L60.5487 185.438L60.8616 185.256L61.622 184.805L61.2918 184.416C58.5194 181.136 54.765 178.909 50.6454 178.025C57.659 176.505 63.3776 171.103 65.1983 164.106C67.0191 171.103 72.742 176.505 79.7599 178.025C75.8186 178.875 72.1945 180.954 69.4656 184L69.2222 184.273L69.6785 184.844L70.0001 185.243L70.3434 184.857C73.6111 181.184 78.2564 179 83.1494 178.827C82.9408 183.488 80.9593 187.812 77.5307 191.04L77.1179 191.429L77.6046 191.724C77.6698 191.763 77.735 191.802 77.8045 191.841L78.2173 192.084L78.4563 191.858C81.0462 189.389 82.8974 186.235 83.7925 182.813C85.3482 188.834 89.7588 193.765 95.7078 195.97L95.799 196.004L95.8946 195.996L96.0032 195.965ZM117.053 177.991C110.035 179.511 104.312 184.914 102.487 191.91C100.666 184.914 94.9386 179.507 87.9207 177.991C94.9386 176.475 100.662 171.068 102.487 164.071C104.307 171.068 110.035 176.475 117.053 177.991ZM213.37 160.086C212.952 169.313 205.322 176.851 196.062 177.181C196.479 167.953 204.109 160.415 213.37 160.086ZM101.852 160.086C101.435 169.313 93.8044 176.851 84.5443 177.181C84.9615 167.953 92.5921 160.415 101.852 160.086ZM-8.39182 160.086C0.868347 160.415 8.49893 167.953 8.91608 177.181C-0.344055 176.851 -7.97467 169.313 -8.39182 160.086ZM28.7835 160.086C38.0436 160.415 45.6742 167.953 46.0914 177.181C36.8312 176.851 29.2006 169.313 28.7835 160.086ZM65.9545 160.086C75.2146 160.415 82.8452 167.953 83.2624 177.181C74.0022 176.851 66.3716 169.313 65.9545 160.086ZM103.125 160.086C112.386 160.415 120.016 167.953 120.433 177.181C111.173 176.851 103.543 169.313 103.125 160.086ZM64.6769 160.086C64.2597 169.313 56.6291 176.851 47.369 177.181C47.7861 167.953 55.4167 160.415 64.6769 160.086ZM139.023 160.086C138.606 169.313 130.975 176.851 121.715 177.181C122.132 167.953 129.763 160.415 139.023 160.086ZM135.638 159.28C128.62 160.8 122.897 166.203 121.072 173.199C119.251 166.203 113.524 160.796 106.506 159.28C113.524 157.764 119.247 152.357 121.072 145.36C122.893 152.357 128.62 157.764 135.638 159.28ZM98.4671 159.28C91.4492 160.8 85.7263 166.203 83.9012 173.199C82.0804 166.203 76.3531 160.796 69.3352 159.28C76.3531 157.764 82.0761 152.357 83.9012 145.36C85.7219 152.357 91.4492 157.764 98.4671 159.28ZM24.1208 159.28C17.1029 160.8 11.3799 166.203 9.55487 173.199C7.7341 166.203 2.00681 160.796 -5.01111 159.28C2.00681 157.764 7.72977 152.357 9.55487 145.36C11.3756 152.357 17.1029 157.764 24.1208 159.28ZM61.2918 159.28C54.2739 160.8 48.5509 166.203 46.7259 173.199C44.9051 166.203 39.1778 160.796 32.1599 159.28C39.1778 157.764 44.9008 152.357 46.7259 145.36C48.5466 152.357 54.2739 157.764 61.2918 159.28ZM209.984 159.28C202.966 160.8 197.244 166.203 195.418 173.199C193.598 166.203 187.87 160.796 180.853 159.28C187.87 157.764 193.593 152.357 195.418 145.36C197.239 152.357 202.966 157.764 209.984 159.28ZM358.66 159.275C351.642 160.783 345.936 166.142 344.107 173.195C342.282 166.138 336.572 160.783 329.554 159.275C336.567 157.755 342.286 152.353 344.107 145.356C345.927 152.348 351.646 157.751 358.66 159.275ZM172.805 159.28C165.865 160.774 160.151 166.047 158.278 173.078L158.247 173.186L158.178 172.939C156.266 165.986 150.569 160.766 143.686 159.28C150.699 157.759 156.427 152.357 158.247 145.36C160.068 152.357 165.791 157.759 172.805 159.28ZM284.313 159.275C277.322 160.774 271.607 166.086 269.765 173.186L269.73 173.056C267.853 166.034 262.138 160.77 255.207 159.275C262.221 157.755 267.944 152.353 269.765 145.356C271.585 152.348 277.304 157.751 284.313 159.275ZM270.404 141.379C279.664 141.708 287.294 149.246 287.711 158.474C278.451 158.145 270.821 150.607 270.404 141.379ZM343.472 141.379C343.055 150.607 335.425 158.145 326.164 158.474C326.582 149.246 334.212 141.708 343.472 141.379ZM380.643 141.379C380.226 150.607 372.596 158.145 363.335 158.474C363.753 149.246 371.383 141.708 380.643 141.379ZM306.297 141.379C305.88 150.607 298.249 158.145 288.989 158.474C289.406 149.246 297.037 141.708 306.297 141.379ZM381.921 141.379C391.181 141.708 398.812 149.246 399.229 158.474C389.969 158.145 382.338 150.607 381.921 141.379ZM307.575 141.379C316.835 141.708 324.465 149.246 324.882 158.474C315.622 158.145 307.992 150.607 307.575 141.379ZM344.746 141.379C354.006 141.708 361.636 149.246 362.053 158.474C352.793 158.145 345.163 150.607 344.746 141.379ZM196.057 141.379C205.317 141.708 212.948 149.246 213.365 158.474C204.105 158.145 196.474 150.607 196.057 141.379ZM47.369 141.379C56.6291 141.708 64.2597 149.246 64.6769 158.474C55.4167 158.145 47.7861 150.607 47.369 141.379ZM269.126 141.379C268.709 150.607 261.078 158.145 251.818 158.474C252.235 149.246 259.866 141.708 269.126 141.379ZM46.0914 141.379C45.6742 150.607 38.0436 158.145 28.7835 158.474C29.2006 149.246 36.8312 141.708 46.0914 141.379ZM8.92044 141.379C8.50327 150.607 0.87262 158.145 -8.38751 158.474C-7.97037 149.246 -0.339722 141.708 8.92044 141.379ZM83.2624 141.379C82.8452 150.607 75.2146 158.145 65.9545 158.474C66.3716 149.246 74.0022 141.708 83.2624 141.379ZM233.228 141.379C242.488 141.708 250.119 149.246 250.536 158.474C241.276 158.145 233.645 150.607 233.228 141.379ZM10.1936 141.379C19.4538 141.708 27.0844 149.246 27.5016 158.474C18.2414 158.145 10.6108 150.607 10.1936 141.379ZM231.955 141.379C231.538 150.607 223.907 158.145 214.647 158.474C215.064 149.246 222.695 141.708 231.955 141.379ZM-26.9773 141.379C-17.7172 141.708 -10.0866 149.246 -9.6694 158.474C-18.9296 158.145 -26.5602 150.607 -26.9773 141.379ZM194.78 141.379C194.363 150.607 186.732 158.145 177.467 158.474C177.885 149.246 185.515 141.708 194.78 141.379ZM84.5399 141.379C93.8001 141.708 101.431 149.246 101.848 158.474C92.5877 158.145 84.9571 150.607 84.5399 141.379ZM158.886 141.379C168.146 141.708 175.777 149.246 176.194 158.474C166.934 158.145 159.303 150.607 158.886 141.379ZM-64.1483 141.379C-54.8882 141.708 -47.2576 149.246 -46.8404 158.474C-56.1006 158.145 -63.7311 150.607 -64.1483 141.379ZM121.711 141.379C130.971 141.708 138.602 149.246 139.019 158.474C129.759 158.145 122.128 150.607 121.711 141.379ZM-28.2549 141.379C-28.6721 150.607 -36.3027 158.145 -45.5628 158.474C-45.1456 149.246 -37.5151 141.708 -28.2549 141.379ZM120.438 141.379C120.021 150.607 112.39 158.145 103.13 158.474C103.547 149.246 111.178 141.708 120.438 141.379ZM157.609 141.379C157.192 150.607 149.561 158.145 140.301 158.474C140.718 149.246 148.349 141.708 157.609 141.379ZM302.916 140.569C295.898 142.089 290.175 147.492 288.35 154.493C286.53 147.492 280.802 142.089 273.784 140.569C280.802 139.048 286.525 133.646 288.35 126.645C290.171 133.646 295.898 139.048 302.916 140.569ZM340.087 140.569C333.069 142.089 327.346 147.492 325.521 154.493C323.701 147.492 317.973 142.089 310.955 140.569C317.973 139.048 323.696 133.646 325.521 126.645C327.342 133.646 333.069 139.048 340.087 140.569ZM414.433 140.569C407.416 142.089 401.693 147.492 399.868 154.493C398.047 147.496 392.32 142.089 385.306 140.569C392.324 139.048 398.047 133.646 399.868 126.645C401.688 133.646 407.416 139.048 414.433 140.569ZM377.258 140.573C370.24 142.094 364.517 147.496 362.692 154.497C360.871 147.496 355.144 142.094 348.126 140.573C355.144 139.052 360.867 133.65 362.692 126.654C364.513 133.65 370.24 139.057 377.258 140.577V140.573ZM5.53531 140.569C-1.48257 142.089 -7.20557 147.492 -9.03064 154.488C-10.8514 147.492 -16.5787 142.085 -23.5966 140.569C-16.5787 139.052 -10.8557 133.646 -9.03064 126.649C-7.2099 133.646 -1.48257 139.052 5.53531 140.569ZM117.053 140.569C110.035 142.089 104.312 147.492 102.487 154.488C100.666 147.492 94.9386 142.085 87.9207 140.569C94.9386 139.052 100.662 133.646 102.487 126.649C104.307 133.646 110.035 139.052 117.053 140.569ZM-31.6357 140.569C-38.6536 142.089 -44.3765 147.492 -46.2016 154.488C-48.0223 147.492 -53.7496 142.085 -60.7675 140.569C-53.7496 139.052 -48.0267 133.646 -46.2016 126.649C-44.3809 133.646 -38.6536 139.052 -31.6357 140.569ZM42.7063 140.569C35.6884 142.089 29.9655 147.492 28.1404 154.488C26.3196 147.492 20.5923 142.085 13.5744 140.569C20.5923 139.052 26.3153 133.646 28.1404 126.649C29.9611 133.646 35.6884 139.052 42.7063 140.569ZM79.8816 140.569C72.8637 142.089 67.1408 147.492 65.3157 154.488C63.4949 147.492 57.7676 142.085 50.7498 140.569C57.7676 139.052 63.4906 133.646 65.3157 126.649C67.1364 133.646 72.8637 139.052 79.8816 140.569ZM154.224 140.569C147.206 142.089 141.483 147.492 139.658 154.488C137.837 147.492 132.11 142.085 125.092 140.569C132.11 139.052 137.833 133.646 139.658 126.649C141.478 133.646 147.206 139.052 154.224 140.569ZM191.399 140.569C184.381 142.089 178.658 147.492 176.833 154.488C175.012 147.492 169.285 142.085 162.267 140.569C169.285 139.052 175.008 133.646 176.833 126.649C178.654 133.646 184.381 139.052 191.399 140.569ZM228.57 140.569C221.552 142.089 215.829 147.492 214.004 154.488C212.183 147.492 206.456 142.085 199.438 140.569C206.456 139.052 212.179 133.646 214.004 126.649C215.825 133.646 221.552 139.052 228.57 140.569ZM265.741 140.569C258.723 142.089 253 147.492 251.175 154.488C249.354 147.492 243.627 142.085 236.609 140.569C243.627 139.052 249.35 133.646 251.175 126.649C252.996 133.646 258.723 139.052 265.741 140.569ZM451.583 140.569C444.578 142.063 438.881 147.379 437.039 154.493C435.196 147.375 429.504 142.063 422.494 140.569C429.504 139.044 435.218 133.641 437.039 126.654C438.859 133.646 444.574 139.044 451.583 140.569ZM399.229 122.668C398.812 131.896 391.181 139.434 381.921 139.763C382.338 130.535 389.969 122.997 399.229 122.668ZM436.404 122.668C435.987 131.896 428.356 139.434 419.096 139.763C419.513 130.535 427.144 122.997 436.404 122.668ZM326.16 122.668C335.42 122.997 343.051 130.535 343.468 139.763C334.208 139.434 326.577 131.896 326.16 122.668ZM363.335 122.668C372.596 122.997 380.226 130.535 380.643 139.763C371.383 139.434 363.753 131.896 363.335 122.668ZM288.989 122.668C298.249 122.997 305.88 130.535 306.297 139.763C297.037 139.434 289.406 131.896 288.989 122.668ZM400.506 122.668C409.766 122.997 417.397 130.535 417.814 139.763C408.554 139.434 400.923 131.896 400.506 122.668ZM437.677 122.668C446.937 122.997 454.568 130.535 454.985 139.763C445.725 139.434 438.094 131.896 437.677 122.668ZM324.887 122.668C324.47 131.896 316.839 139.434 307.579 139.763C307.996 130.535 315.627 122.997 324.887 122.668ZM362.058 122.668C361.641 131.896 354.01 139.434 344.75 139.763C345.167 130.535 352.798 122.997 362.058 122.668ZM177.472 122.668C186.732 122.997 194.363 130.535 194.784 139.763C185.524 139.434 177.893 131.896 177.472 122.668ZM-119.909 122.668C-110.649 122.997 -103.018 130.535 -102.601 139.763C-111.861 139.434 -119.492 131.896 -119.909 122.668ZM213.37 122.668C212.952 131.896 205.322 139.434 196.062 139.763C196.479 130.535 204.109 122.997 213.37 122.668ZM-9.66507 122.668C-10.0822 131.896 -17.7128 139.434 -26.973 139.763C-26.5558 130.535 -18.9252 122.997 -9.66507 122.668ZM287.711 122.668C287.294 131.896 279.664 139.434 270.404 139.763C270.821 130.535 278.451 122.997 287.711 122.668ZM-8.39182 122.668C0.868347 122.997 8.49893 130.535 8.91608 139.763C-0.344055 139.434 -7.97467 131.896 -8.39182 122.668ZM28.7835 122.668C38.0436 122.997 45.6742 130.535 46.0914 139.763C36.8312 139.434 29.2006 131.896 28.7835 122.668ZM250.54 122.668C250.123 131.896 242.493 139.434 233.233 139.763C233.65 130.535 241.28 122.997 250.54 122.668ZM64.6769 122.668C64.2597 131.896 56.6291 139.434 47.369 139.763C47.7861 130.535 55.4167 122.997 64.6769 122.668ZM251.818 122.668C261.078 122.997 268.709 130.535 269.126 139.763C259.866 139.434 252.235 131.896 251.818 122.668ZM65.9545 122.668C75.2146 122.997 82.8452 130.535 83.2624 139.763C74.0022 139.434 66.3716 131.896 65.9545 122.668ZM27.506 122.668C27.0888 131.896 19.4581 139.434 10.198 139.763C10.6151 130.535 18.2458 122.997 27.506 122.668ZM214.643 122.668C223.903 122.997 231.534 130.535 231.951 139.763C222.691 139.434 215.06 131.896 214.643 122.668ZM101.852 122.668C101.435 131.896 93.8044 139.434 84.5443 139.763C84.9615 130.535 92.5921 122.997 101.852 122.668ZM-82.7338 122.668C-73.4736 122.997 -65.843 130.535 -65.4258 139.763C-74.686 139.434 -82.3167 131.896 -82.7338 122.668ZM176.194 122.668C175.777 131.896 168.146 139.434 158.886 139.763C159.303 130.535 166.934 122.997 176.194 122.668ZM-45.5628 122.668C-36.3027 122.997 -28.6721 130.535 -28.2549 139.763C-37.5151 139.434 -45.1456 131.896 -45.5628 122.668ZM103.125 122.668C112.386 122.997 120.016 130.535 120.433 139.763C111.173 139.434 103.543 131.896 103.125 122.668ZM140.301 122.668C149.561 122.997 157.192 130.535 157.609 139.763C148.349 139.434 140.718 131.896 140.301 122.668ZM-84.0114 122.668C-84.4285 131.896 -92.0591 139.434 -101.319 139.763C-100.902 130.535 -93.2715 122.997 -84.0114 122.668ZM-46.8404 122.668C-47.2576 131.896 -54.8882 139.434 -64.1483 139.763C-63.7311 130.535 -56.1006 122.997 -46.8404 122.668ZM139.023 122.668C138.606 131.896 130.975 139.434 121.715 139.763C122.132 130.535 129.763 122.997 139.023 122.668ZM321.502 121.862C314.484 123.383 308.761 128.785 306.936 135.786C305.115 128.785 299.388 123.383 292.37 121.862C299.388 120.341 305.111 114.939 306.936 107.938C308.757 114.939 314.484 120.341 321.502 121.862ZM433.019 121.862C426.001 123.383 420.278 128.785 418.453 135.786C416.632 128.785 410.905 123.383 403.887 121.862C410.905 120.341 416.628 114.939 418.453 107.938C420.274 114.939 426.001 120.341 433.019 121.862ZM470.19 121.862C463.172 123.383 457.449 128.785 455.624 135.786C453.803 128.785 448.076 123.383 441.058 121.862C448.076 120.341 453.799 114.939 455.624 107.943C457.445 114.939 463.172 120.346 470.19 121.862ZM358.673 121.862C351.655 123.383 345.932 128.785 344.107 135.786C342.286 128.785 336.559 123.383 329.541 121.862C336.559 120.341 342.282 114.939 344.107 107.943C345.927 114.939 351.655 120.346 358.673 121.862ZM395.848 121.862C388.83 123.383 383.107 128.785 381.282 135.782C379.461 128.785 373.734 123.378 366.716 121.862C373.734 120.341 379.457 114.939 381.282 107.943C383.103 114.939 388.83 120.346 395.848 121.862ZM135.638 121.862C128.62 123.378 122.897 128.785 121.072 135.782C119.251 128.785 113.524 123.378 106.506 121.862C113.524 120.346 119.247 114.939 121.072 107.943C122.893 114.939 128.62 120.346 135.638 121.862ZM-87.3965 121.862C-94.4144 123.378 -100.137 128.785 -101.962 135.782C-103.783 128.785 -109.51 123.378 -116.528 121.862C-109.51 120.346 -103.788 114.939 -101.962 107.943C-100.142 114.939 -94.4144 120.346 -87.3965 121.862ZM98.4671 121.862C91.4492 123.383 85.7263 128.785 83.9012 135.782C82.0804 128.785 76.3531 123.378 69.3352 121.862C76.3531 120.341 82.0761 114.939 83.9012 107.943C85.7219 114.939 91.4492 120.346 98.4671 121.862ZM284.331 121.862C277.313 123.383 271.59 128.785 269.765 135.782C267.944 128.785 262.217 123.378 255.199 121.862C262.217 120.341 267.94 114.939 269.765 107.943C271.585 114.939 277.313 120.346 284.331 121.862ZM-13.0502 121.862C-20.0681 123.383 -25.7911 128.785 -27.6161 135.782C-29.4369 128.785 -35.1641 123.378 -42.1821 121.862C-35.1641 120.346 -29.4412 114.939 -27.6161 107.943C-25.7954 114.939 -20.0681 120.346 -13.0502 121.862ZM-50.2255 121.862C-57.2434 123.378 -62.9664 128.785 -64.7914 135.782C-66.6122 128.785 -72.3395 123.378 -79.3574 121.862C-72.3395 120.341 -66.6165 114.939 -64.7914 107.943C-62.9707 114.939 -57.2434 120.346 -50.2255 121.862ZM24.1208 121.862C17.1029 123.378 11.3799 128.785 9.55487 135.782C7.7341 128.785 2.00681 123.378 -5.01111 121.862C2.00681 120.341 7.72977 114.939 9.55487 107.943C11.3756 114.939 17.1029 120.346 24.1208 121.862ZM172.813 121.862C165.796 123.378 160.073 128.785 158.247 135.782C156.427 128.785 150.699 123.378 143.682 121.862C150.699 120.341 156.422 114.939 158.247 107.943C160.068 114.939 165.796 120.346 172.813 121.862ZM247.155 121.862C240.137 123.378 234.415 128.785 232.589 135.782C230.769 128.785 225.041 123.378 218.023 121.862C225.041 120.341 230.764 114.939 232.589 107.943C234.41 114.939 240.137 120.346 247.155 121.862ZM61.2918 121.862C54.2739 123.378 48.5509 128.785 46.7259 135.782C44.9051 128.785 39.1778 123.378 32.1599 121.862C39.1778 120.346 44.9008 114.939 46.7259 107.943C48.5466 114.939 54.2739 120.346 61.2918 121.862ZM209.984 121.862C202.966 123.383 197.244 128.785 195.418 135.782C193.598 128.785 187.87 123.378 180.853 121.862C187.87 120.346 193.593 114.939 195.418 107.943C197.239 114.939 202.966 120.346 209.984 121.862ZM343.472 103.961C343.055 113.189 335.425 120.727 326.164 121.056C326.582 111.829 334.212 104.29 343.472 103.961ZM380.643 103.961C380.226 113.189 372.596 120.727 363.335 121.056C363.753 111.829 371.383 104.29 380.643 103.961ZM492.161 103.961C491.743 113.189 484.113 120.727 474.853 121.056C475.27 111.829 482.9 104.29 492.161 103.961ZM381.921 103.961C391.181 104.29 398.812 111.829 399.229 121.056C389.969 120.727 382.338 113.189 381.921 103.961ZM419.092 103.961C428.352 104.29 435.983 111.829 436.4 121.056C427.14 120.727 419.509 113.189 419.092 103.961ZM306.297 103.961C305.88 113.189 298.249 120.727 288.989 121.056C289.406 111.829 297.037 104.29 306.297 103.961ZM417.814 103.961C417.397 113.189 409.766 120.727 400.506 121.056C400.923 111.829 408.554 104.29 417.814 103.961ZM454.99 103.961C454.572 113.189 446.942 120.727 437.682 121.056C438.099 111.829 445.729 104.29 454.99 103.961ZM307.575 103.961C316.835 104.29 324.465 111.829 324.882 121.056C315.622 120.727 307.992 113.189 307.575 103.961ZM344.746 103.961C354.006 104.29 361.636 111.829 362.053 121.056C352.793 120.727 345.163 113.189 344.746 103.961ZM456.263 103.961C465.523 104.29 473.154 111.829 473.571 121.056C464.311 120.727 456.68 113.189 456.263 103.961ZM270.404 103.961C279.664 104.29 287.294 111.829 287.711 121.056C278.451 120.727 270.821 113.189 270.404 103.961ZM-26.9773 103.961C-17.7172 104.29 -10.0866 111.829 -9.6694 121.056C-18.9296 120.727 -26.5602 113.189 -26.9773 103.961ZM194.78 103.961C194.363 113.189 186.732 120.727 177.467 121.056C177.885 111.829 185.515 104.29 194.78 103.961ZM84.5399 103.961C93.8001 104.29 101.431 111.829 101.848 121.056C92.5877 120.727 84.9571 113.189 84.5399 103.961ZM-102.597 103.961C-103.014 113.189 -110.645 120.727 -119.905 121.056C-119.488 111.829 -111.857 104.29 -102.597 103.961ZM196.057 103.961C205.317 104.29 212.948 111.829 213.365 121.056C204.105 120.727 196.474 113.189 196.057 103.961ZM-65.4258 103.961C-65.843 113.189 -73.4736 120.727 -82.7338 121.056C-82.3167 111.829 -74.686 104.29 -65.4258 103.961ZM8.92044 103.961C8.50327 113.189 0.87262 120.727 -8.38751 121.056C-7.97037 111.829 -0.339722 104.29 8.92044 103.961ZM233.228 103.961C242.488 104.29 250.119 111.829 250.536 121.056C241.276 120.727 233.645 113.189 233.228 103.961ZM158.886 103.961C168.146 104.29 175.777 111.829 176.194 121.056C166.934 120.727 159.303 113.189 158.886 103.961ZM269.126 103.961C268.709 113.189 261.078 120.727 251.818 121.056C252.235 111.829 259.866 104.29 269.126 103.961ZM-101.319 103.961C-92.0591 104.29 -84.4285 111.829 -84.0114 121.056C-93.2715 120.727 -100.902 113.189 -101.319 103.961ZM-64.1483 103.961C-54.8882 104.29 -47.2576 111.829 -46.8404 121.056C-56.1006 120.727 -63.7311 113.189 -64.1483 103.961ZM10.198 103.961C19.4581 104.29 27.0888 111.829 27.506 121.056C18.2458 120.727 10.6151 113.189 10.198 103.961ZM47.369 103.961C56.6291 104.29 64.2597 111.829 64.6769 121.056C55.4167 120.727 47.7861 113.189 47.369 103.961ZM121.711 103.961C130.971 104.29 138.602 111.829 139.019 121.056C129.759 120.727 122.128 113.189 121.711 103.961ZM231.955 103.961C231.538 113.189 223.907 120.727 214.647 121.056C215.064 111.829 222.695 104.29 231.955 103.961ZM-28.2549 103.961C-28.6721 113.189 -36.3027 120.727 -45.5628 121.056C-45.1456 111.829 -37.5151 104.29 -28.2549 103.961ZM46.0914 103.961C45.6742 113.189 38.0436 120.727 28.7835 121.056C29.2006 111.829 36.8312 104.29 46.0914 103.961ZM83.2624 103.961C82.8452 113.189 75.2146 120.727 65.9545 121.056C66.3716 111.829 74.0022 104.29 83.2624 103.961ZM120.438 103.961C120.021 113.189 112.39 120.727 103.13 121.056C103.547 111.829 111.178 104.29 120.438 103.961ZM157.609 103.961C157.192 113.189 149.561 120.727 140.301 121.056C140.718 111.829 148.349 104.29 157.609 103.961ZM377.258 103.151C370.24 104.672 364.517 110.074 362.697 117.075C360.876 110.078 355.149 104.672 348.131 103.151C355.149 101.63 360.871 96.2281 362.697 89.2272C364.517 96.2238 370.245 101.63 377.258 103.151ZM302.916 103.151C295.898 104.672 290.175 110.074 288.35 117.075C286.53 110.078 280.802 104.672 273.784 103.151C280.802 101.63 286.525 96.2281 288.35 89.2272C290.171 96.2281 295.898 101.63 302.916 103.151ZM340.087 103.151C333.069 104.672 327.346 110.074 325.521 117.075C323.701 110.078 317.973 104.672 310.955 103.151C317.973 101.63 323.696 96.2281 325.521 89.2272C327.342 96.2281 333.069 101.63 340.087 103.151ZM414.433 103.151C407.416 104.672 401.693 110.074 399.868 117.075C398.047 110.078 392.319 104.672 385.302 103.151C392.319 101.63 398.042 96.2281 399.868 89.2272C401.688 96.2281 407.416 101.63 414.433 103.151ZM451.604 103.151C444.587 104.672 438.864 110.074 437.039 117.075C435.218 110.078 429.49 104.672 422.473 103.151C429.49 101.63 435.213 96.2281 437.039 89.2272C438.859 96.2281 444.587 101.63 451.604 103.151ZM488.775 103.151C481.758 104.672 476.035 110.074 474.21 117.075C472.389 110.078 466.661 104.672 459.644 103.151C466.661 101.63 472.384 96.2281 474.21 89.2272C476.03 96.2281 481.758 101.63 488.775 103.151ZM5.53531 103.151C-1.48257 104.672 -7.20557 110.074 -9.03064 117.071C-10.8514 110.074 -16.5787 104.667 -23.5966 103.151C-16.5787 101.635 -10.8557 96.2281 -9.03064 89.2315C-7.2099 96.2281 -1.48257 101.635 5.53531 103.151ZM117.053 103.151C110.035 104.672 104.312 110.074 102.487 117.071C100.666 110.074 94.9386 104.667 87.9207 103.151C94.9386 101.635 100.662 96.2281 102.487 89.2315C104.307 96.2281 110.035 101.635 117.053 103.151ZM-68.811 103.151C-75.8289 104.672 -81.5518 110.074 -83.377 117.071C-85.1977 110.074 -90.925 104.667 -97.9429 103.151C-90.925 101.635 -85.202 96.2281 -83.377 89.2315C-81.5562 96.2281 -75.8289 101.635 -68.811 103.151ZM-31.6357 103.151C-38.6536 104.672 -44.3765 110.074 -46.2016 117.071C-48.0223 110.074 -53.7496 104.667 -60.7675 103.151C-53.7496 101.635 -48.0267 96.2281 -46.2016 89.2315C-44.3809 96.2281 -38.6536 101.635 -31.6357 103.151ZM42.7063 103.151C35.6884 104.672 29.9655 110.074 28.1404 117.071C26.3196 110.074 20.5923 104.667 13.5744 103.151C20.5923 101.635 26.3153 96.2281 28.1404 89.2315C29.9611 96.2281 35.6884 101.635 42.7063 103.151ZM79.8816 103.151C72.8637 104.672 67.1408 110.074 65.3157 117.071C63.4949 110.074 57.7676 104.667 50.7498 103.151C57.7676 101.635 63.4906 96.2281 65.3157 89.2315C67.1364 96.2281 72.8637 101.635 79.8816 103.151ZM154.224 103.151C147.206 104.672 141.483 110.074 139.658 117.071C137.837 110.074 132.11 104.667 125.092 103.151C132.11 101.635 137.833 96.2281 139.658 89.2315C141.478 96.2281 147.206 101.635 154.224 103.151ZM191.399 103.151C184.381 104.672 178.658 110.074 176.833 117.071C175.012 110.074 169.285 104.667 162.267 103.151C169.285 101.635 175.008 96.2281 176.833 89.2315C178.654 96.2281 184.381 101.635 191.399 103.151ZM228.57 103.151C221.552 104.672 215.829 110.074 214.004 117.071C212.183 110.074 206.456 104.667 199.438 103.151C206.456 101.635 212.179 96.2281 214.004 89.2315C215.825 96.2281 221.552 101.635 228.57 103.151ZM265.741 103.151C258.723 104.672 253 110.074 251.175 117.071C249.354 110.074 243.627 104.667 236.609 103.151C243.627 101.635 249.35 96.2281 251.175 89.2315C252.996 96.2281 258.723 101.635 265.741 103.151ZM177.472 85.2502C186.732 85.5794 194.363 93.1175 194.784 102.345C185.524 102.016 177.893 94.4779 177.472 85.2502ZM399.229 85.2502C398.812 94.4779 391.181 102.016 381.921 102.345C382.338 93.1175 389.969 85.5794 399.229 85.2502ZM436.404 85.2502C435.987 94.4779 428.356 102.016 419.096 102.345C419.513 93.1175 427.144 85.5794 436.404 85.2502ZM326.16 85.2502C335.42 85.5794 343.051 93.1175 343.468 102.345C334.208 102.016 326.577 94.4779 326.16 85.2502ZM363.335 85.2502C372.596 85.5794 380.226 93.1175 380.643 102.345C371.383 102.016 363.753 94.4779 363.335 85.2502ZM288.989 85.2502C298.249 85.5794 305.88 93.1175 306.297 102.345C297.037 102.016 289.406 94.4779 288.989 85.2502ZM474.853 85.2502C484.113 85.5794 491.743 93.1175 492.161 102.345C482.9 102.016 475.27 94.4779 474.853 85.2502ZM324.887 85.2502C324.47 94.4779 316.839 102.016 307.579 102.345C307.996 93.1175 315.627 85.5794 324.887 85.2502ZM362.058 85.2502C361.641 94.4779 354.01 102.016 344.75 102.345C345.167 93.1175 352.798 85.5794 362.058 85.2502ZM400.506 85.2502C409.766 85.5794 417.397 93.1175 417.814 102.345C408.554 102.016 400.923 94.4779 400.506 85.2502ZM437.677 85.2502C446.937 85.5794 454.568 93.1175 454.985 102.345C445.725 102.016 438.094 94.4779 437.677 85.2502ZM473.575 85.2502C473.158 94.4779 465.527 102.016 456.267 102.345C456.684 93.1175 464.315 85.5794 473.575 85.2502ZM287.711 85.2502C287.294 94.4779 279.664 102.016 270.404 102.345C270.821 93.1175 278.451 85.5794 287.711 85.2502ZM213.37 85.2502C212.952 94.4779 205.322 102.016 196.062 102.345C196.479 93.1175 204.109 85.5794 213.37 85.2502ZM101.852 85.2502C101.435 94.4779 93.8044 102.016 84.5443 102.345C84.9615 93.1175 92.5921 85.5794 101.852 85.2502ZM27.506 85.2502C27.0888 94.4779 19.4581 102.016 10.198 102.345C10.6151 93.1175 18.2458 85.5794 27.506 85.2502ZM214.643 85.2502C223.903 85.5794 231.534 93.1175 231.951 102.345C222.691 102.016 215.06 94.4779 214.643 85.2502ZM65.9545 85.2502C75.2146 85.5794 82.8452 93.1175 83.2624 102.345C74.0022 102.016 66.3716 94.4779 65.9545 85.2502ZM251.818 85.2502C261.078 85.5794 268.709 93.1175 269.126 102.345C259.866 102.016 252.235 94.4779 251.818 85.2502ZM-8.39182 85.2502C0.868347 85.5794 8.49893 93.1175 8.91608 102.345C-0.344055 102.016 -7.97467 94.4779 -8.39182 85.2502ZM250.54 85.2502C250.123 94.4779 242.493 102.016 233.233 102.345C233.65 93.1175 241.28 85.5794 250.54 85.2502ZM64.6769 85.2502C64.2597 94.4779 56.6291 102.016 47.369 102.345C47.7861 93.1175 55.4167 85.5794 64.6769 85.2502ZM28.7835 85.2502C38.0436 85.5794 45.6742 93.1175 46.0914 102.345C36.8312 102.016 29.2006 94.4779 28.7835 85.2502ZM-9.6694 85.2502C-10.0866 94.4779 -17.7172 102.016 -26.9773 102.345C-26.5602 93.1175 -18.9296 85.5794 -9.6694 85.2502ZM-82.7338 85.2502C-73.4736 85.5794 -65.843 93.1175 -65.4258 102.345C-74.686 102.016 -82.3167 94.4779 -82.7338 85.2502ZM176.194 85.2502C175.777 94.4779 168.146 102.016 158.886 102.345C159.303 93.1175 166.934 85.5794 176.194 85.2502ZM-45.5628 85.2502C-36.3027 85.5794 -28.6721 93.1175 -28.2549 102.345C-37.5151 102.016 -45.1456 94.4779 -45.5628 85.2502ZM103.125 85.2502C112.386 85.5794 120.016 93.1175 120.433 102.345C111.173 102.016 103.543 94.4779 103.125 85.2502ZM140.301 85.2502C149.561 85.5794 157.192 93.1175 157.609 102.345C148.349 102.016 140.718 94.4779 140.301 85.2502ZM-84.0114 85.2502C-84.4285 94.4779 -92.0591 102.016 -101.319 102.345C-100.902 93.1175 -93.2715 85.5794 -84.0114 85.2502ZM-46.8404 85.2502C-47.2576 94.4779 -54.8882 102.016 -64.1483 102.345C-63.7311 93.1175 -56.1006 85.5794 -46.8404 85.2502ZM139.023 85.2502C138.606 94.4779 130.975 102.016 121.715 102.345C122.132 93.1175 129.763 85.5794 139.023 85.2502ZM321.502 84.4444C314.484 85.965 308.761 91.3673 306.936 98.3682C305.115 91.3673 299.388 85.965 292.37 84.4444C299.388 82.9237 305.111 77.5214 306.936 70.5205C308.757 77.5214 314.484 82.9237 321.502 84.4444ZM433.019 84.4444C426.001 85.965 420.278 91.3673 418.453 98.3682C416.632 91.3717 410.914 85.9693 403.9 84.4487C411.066 82.9194 416.658 77.5171 418.453 70.5335C420.278 77.5301 426.001 82.9324 433.015 84.4487L433.019 84.4444ZM358.673 84.4444C351.655 85.965 345.932 91.3673 344.107 98.3639C342.286 91.3673 336.559 85.9607 329.541 84.4444C336.559 82.9237 342.282 77.5214 344.107 70.5205C345.927 77.5171 351.655 82.9237 358.673 84.4444ZM135.638 84.4444C128.62 85.9607 122.897 91.3673 121.072 98.3639C119.251 91.3673 113.524 85.9607 106.506 84.4444C113.524 82.9237 119.247 77.5214 121.072 70.5248C122.893 77.5214 128.62 82.9281 135.638 84.4444ZM-13.0502 84.4444C-20.0681 85.9607 -25.7911 91.3673 -27.6161 98.3639C-29.4369 91.3673 -35.1641 85.9607 -42.1821 84.4444C-35.1641 82.9237 -29.4412 77.5214 -27.6161 70.5248C-25.7954 77.5214 -20.0681 82.9281 -13.0502 84.4444ZM98.4671 84.4444C91.4492 85.9607 85.7263 91.3673 83.9012 98.3639C82.0804 91.3673 76.3531 85.9607 69.3352 84.4444C76.3531 82.9237 82.0761 77.5214 83.9012 70.5248C85.7219 77.5214 91.4492 82.9281 98.4671 84.4444ZM284.331 84.4444C277.313 85.9607 271.59 91.3673 269.765 98.3639C267.944 91.3673 262.217 85.9607 255.199 84.4444C262.217 82.9237 267.94 77.5214 269.765 70.5248C271.585 77.5214 277.313 82.9281 284.331 84.4444ZM24.1208 84.4444C17.1029 85.9607 11.3799 91.3673 9.55487 98.3639C7.7341 91.3673 2.00681 85.9607 -5.01111 84.4444C2.00681 82.9237 7.72977 77.5214 9.55487 70.5248C11.3756 77.5214 17.1029 82.9281 24.1208 84.4444ZM172.809 84.4444C165.791 85.9607 160.068 91.3673 158.243 98.3639C156.422 91.3673 150.695 85.9607 143.677 84.4444C150.695 82.9237 156.418 77.5214 158.243 70.5248C160.064 77.5214 165.791 82.9281 172.809 84.4444ZM247.155 84.4444C240.137 85.9607 234.415 91.3673 232.589 98.3639C230.769 91.3673 225.041 85.9607 218.023 84.4444C225.041 82.9237 230.764 77.5214 232.589 70.5248C234.41 77.5214 240.137 82.9281 247.155 84.4444ZM61.2918 84.4444C54.2739 85.9607 48.5509 91.3673 46.7259 98.3639C44.9051 91.3673 39.1778 85.9607 32.1599 84.4444C39.1778 82.9237 44.9008 77.5214 46.7259 70.5248C48.5466 77.5214 54.2739 82.9281 61.2918 84.4444ZM209.984 84.4444C202.966 85.965 197.244 91.3673 195.418 98.3639C193.598 91.3673 187.87 85.965 180.853 84.4444C187.87 82.9237 193.593 77.5214 195.418 70.5248C197.239 77.5214 202.966 82.9237 209.984 84.4444ZM270.404 66.5435C279.664 66.8727 287.294 74.4109 287.711 83.6386C278.451 83.3093 270.821 75.7712 270.404 66.5435ZM306.297 66.5435C305.88 75.7712 298.249 83.3093 288.989 83.6386C289.406 74.4109 297.037 66.8727 306.297 66.5435ZM307.575 66.5435C316.835 66.8727 324.465 74.4109 324.882 83.6386C315.622 83.3093 307.992 75.7712 307.575 66.5435ZM196.057 66.5435C205.317 66.8727 212.948 74.4109 213.365 83.6386C204.105 83.3093 196.474 75.7712 196.057 66.5435ZM47.369 66.5435C56.6291 66.8727 64.2597 74.4109 64.6769 83.6386C55.4167 83.3093 47.7861 75.7712 47.369 66.5435ZM269.126 66.5435C268.709 75.7712 261.078 83.3093 251.818 83.6386C252.235 74.4109 259.866 66.8727 269.126 66.5435ZM46.0914 66.5435C45.6742 75.7712 38.0436 83.3093 28.7835 83.6386C29.2006 74.4109 36.8312 66.8727 46.0914 66.5435ZM8.92044 66.5435C8.50327 75.7712 0.87262 83.3093 -8.38751 83.6386C-7.97037 74.4109 -0.339722 66.8727 8.92044 66.5435ZM83.2624 66.5435C82.8452 75.7712 75.2146 83.3093 65.9545 83.6386C66.3716 74.4109 74.0022 66.8727 83.2624 66.5435ZM233.228 66.5435C242.488 66.8727 250.119 74.4109 250.536 83.6386C241.276 83.3093 233.645 75.7712 233.228 66.5435ZM10.1936 66.5435C19.4538 66.8727 27.0844 74.4109 27.5016 83.6386C18.2414 83.3093 10.6108 75.7712 10.1936 66.5435ZM231.955 66.5435C231.538 75.7712 223.907 83.3093 214.647 83.6386C215.064 74.4109 222.695 66.8727 231.955 66.5435ZM-26.9773 66.5435C-17.7172 66.8727 -10.0866 74.4109 -9.6694 83.6386C-18.9296 83.3093 -26.5602 75.7712 -26.9773 66.5435ZM194.78 66.5435C194.363 75.7712 186.732 83.3093 177.467 83.6386C177.885 74.4109 185.515 66.8727 194.78 66.5435ZM84.5399 66.5435C93.8001 66.8727 101.431 74.4109 101.848 83.6386C92.5877 83.3093 84.9571 75.7712 84.5399 66.5435ZM158.886 66.5435C168.146 66.8727 175.777 74.4109 176.194 83.6386C166.934 83.3093 159.303 75.7712 158.886 66.5435ZM-64.1483 66.5435C-54.8882 66.8727 -47.2576 74.4109 -46.8404 83.6386C-56.1006 83.3093 -63.7311 75.7712 -64.1483 66.5435ZM121.711 66.5435C130.971 66.8727 138.602 74.4109 139.019 83.6386C129.759 83.3093 122.128 75.7712 121.711 66.5435ZM-28.2549 66.5435C-28.6721 75.7712 -36.3027 83.3093 -45.5628 83.6386C-45.1456 74.4109 -37.5151 66.8727 -28.2549 66.5435ZM120.438 66.5435C120.021 75.7712 112.39 83.3093 103.13 83.6386C103.547 74.4109 111.178 66.8727 120.438 66.5435ZM157.609 66.5435C157.192 75.7712 149.561 83.3093 140.301 83.6386C140.718 74.4109 148.349 66.8727 157.609 66.5435ZM5.53531 65.7333C-1.48257 67.2496 -7.20557 72.6563 -9.03064 79.6529C-10.8514 72.6563 -16.5787 67.2496 -23.5966 65.7333C-16.5787 64.2127 -10.8557 58.8104 -9.03064 51.8138C-7.2099 58.8104 -1.48257 64.2171 5.53531 65.7333ZM117.053 65.7333C110.035 67.2496 104.312 72.6563 102.487 79.6529C100.666 72.6563 94.9386 67.2496 87.9207 65.7333C94.9386 64.2127 100.662 58.8104 102.487 51.8138C104.307 58.8104 110.035 64.2171 117.053 65.7333ZM-31.6357 65.7333C-38.6536 67.2496 -44.3765 72.6563 -46.2016 79.6529C-48.0223 72.6563 -53.7496 67.2496 -60.7675 65.7333C-53.7496 64.2127 -48.0267 58.8104 -46.2016 51.8138C-44.3809 58.8104 -38.6536 64.2171 -31.6357 65.7333ZM42.7063 65.7333C35.6884 67.2496 29.9655 72.6563 28.1404 79.6529C26.3196 72.6563 20.5923 67.2496 13.5744 65.7333C20.5923 64.2127 26.3153 58.8104 28.1404 51.8138C29.9611 58.8104 35.6884 64.2171 42.7063 65.7333ZM79.8816 65.7333C72.8637 67.2496 67.1408 72.6563 65.3157 79.6529C63.4949 72.6563 57.7676 67.2496 50.7498 65.7333C57.7676 64.2127 63.4906 58.8104 65.3157 51.8138C67.1364 58.8104 72.8637 64.2171 79.8816 65.7333ZM154.224 65.7333C147.206 67.2496 141.483 72.6563 139.658 79.6529C137.837 72.6563 132.11 67.2496 125.092 65.7333C132.11 64.2127 137.833 58.8104 139.658 51.8138C141.478 58.8104 147.206 64.2171 154.224 65.7333ZM191.399 65.7333C184.381 67.2496 178.658 72.6563 176.833 79.6529C175.012 72.6563 169.285 67.2496 162.267 65.7333C169.285 64.2127 175.008 58.8104 176.833 51.8138C178.654 58.8104 184.381 64.2171 191.399 65.7333ZM228.57 65.7333C221.552 67.2496 215.829 72.6563 214.004 79.6529C212.183 72.6563 206.456 67.2496 199.438 65.7333C206.456 64.2127 212.179 58.8104 214.004 51.8138C215.825 58.8104 221.552 64.2171 228.57 65.7333ZM265.741 65.7333C258.723 67.2496 253 72.6563 251.175 79.6529C249.354 72.6563 243.627 67.2496 236.609 65.7333C243.627 64.2127 249.35 58.8104 251.175 51.8138C252.996 58.8104 258.723 64.2171 265.741 65.7333ZM340.044 65.7333C332.909 67.2713 327.316 72.7083 325.521 79.6529C323.696 72.6563 317.973 67.254 310.96 65.7333C317.978 64.2127 323.701 58.8104 325.521 51.8138C327.316 58.7454 332.917 64.1954 340.044 65.7333ZM324.887 47.8325C324.47 57.0602 316.839 64.5983 307.579 64.9275C307.996 55.6998 315.627 48.1617 324.887 47.8325ZM177.472 47.8325C186.732 48.1617 194.363 55.6998 194.784 64.9275C185.524 64.5983 177.893 57.0602 177.472 47.8325ZM213.37 47.8325C212.952 57.0602 205.322 64.5983 196.062 64.9275C196.479 55.6998 204.109 48.1617 213.37 47.8325ZM101.852 47.8325C101.435 57.0602 93.8044 64.5983 84.5443 64.9275C84.9615 55.6998 92.5921 48.1617 101.852 47.8325ZM250.54 47.8325C250.123 57.0602 242.493 64.5983 233.233 64.9275C233.65 55.6998 241.28 48.1617 250.54 47.8325ZM176.194 47.8325C175.777 57.0602 168.146 64.5983 158.886 64.9275C159.303 55.6998 166.934 48.1617 176.194 47.8325ZM251.818 47.8325C261.078 48.1617 268.709 55.6998 269.126 64.9275C259.866 64.5983 252.235 57.0602 251.818 47.8325ZM-45.5628 47.8325C-36.3027 48.1617 -28.6721 55.6998 -28.2549 64.9275C-37.5151 64.5983 -45.1456 57.0602 -45.5628 47.8325ZM28.7835 47.8325C38.0436 48.1617 45.6742 55.6998 46.0914 64.9275C36.8312 64.5983 29.2006 57.0602 28.7835 47.8325ZM65.9545 47.8325C75.2146 48.1617 82.8452 55.6998 83.2624 64.9275C74.0022 64.5983 66.3716 57.0602 65.9545 47.8325ZM103.125 47.8325C112.386 48.1617 120.016 55.6998 120.433 64.9275C111.173 64.5983 103.543 57.0602 103.125 47.8325ZM140.301 47.8325C149.561 48.1617 157.192 55.6998 157.609 64.9275C148.349 64.5983 140.718 57.0602 140.301 47.8325ZM-46.8404 47.8325C-47.2576 57.0602 -54.8882 64.5983 -64.1483 64.9275C-63.7311 55.6998 -56.1006 48.1617 -46.8404 47.8325ZM27.506 47.8325C27.0888 57.0602 19.4581 64.5983 10.198 64.9275C10.6151 55.6998 18.2458 48.1617 27.506 47.8325ZM64.6769 47.8325C64.2597 57.0602 56.6291 64.5983 47.369 64.9275C47.7861 55.6998 55.4167 48.1617 64.6769 47.8325ZM139.023 47.8325C138.606 57.0602 130.975 64.5983 121.715 64.9275C122.132 55.6998 129.763 48.1617 139.023 47.8325ZM214.643 47.8325C223.903 48.1617 231.534 55.6998 231.951 64.9275C222.691 64.5983 215.06 57.0602 214.643 47.8325ZM24.1208 47.0267C17.1029 48.5473 11.3756 53.9496 9.55487 60.9505C7.73846 54.0059 2.03723 48.5516 -4.98935 47.0267C2.03723 45.5017 7.73846 40.0387 9.55487 33.1028C11.3756 40.1037 17.1029 45.506 24.1208 47.0267ZM135.638 47.0267C128.62 48.5429 122.897 53.9496 121.072 60.9462C119.251 53.9496 113.524 48.5429 106.506 47.0267C113.524 45.506 119.247 40.1037 121.072 33.1071C122.893 40.1037 128.62 45.5104 135.638 47.0267ZM98.4671 47.0267C91.4492 48.5429 85.7263 53.9496 83.9012 60.9462C82.0804 53.9496 76.3531 48.5429 69.3352 47.0267C76.3531 45.506 82.0761 40.1037 83.9012 33.1071C85.7219 40.1037 91.4492 45.5104 98.4671 47.0267ZM172.813 47.0267C165.796 48.5429 160.073 53.9496 158.247 60.9462C156.427 53.9496 150.699 48.5429 143.682 47.0267C150.699 45.506 156.422 40.1037 158.247 33.1071C160.068 40.1037 165.796 45.5104 172.813 47.0267ZM61.2918 47.0267C54.2739 48.5429 48.5509 53.9496 46.7259 60.9462C44.9051 53.9496 39.1778 48.5429 32.1599 47.0267C39.1778 45.506 44.9008 40.1037 46.7259 33.1071C48.5466 40.1037 54.2739 45.5104 61.2918 47.0267ZM209.984 47.0267C202.966 48.5429 197.244 53.9496 195.418 60.9462C193.598 53.9496 187.87 48.5429 180.853 47.0267C187.87 45.506 193.593 40.1037 195.418 33.1071C197.239 40.1037 202.966 45.5104 209.984 47.0267ZM196.057 29.1258C205.317 29.455 212.948 36.9932 213.365 46.2209C204.105 45.8916 196.474 38.3535 196.057 29.1258ZM47.369 29.1258C56.6291 29.455 64.2597 36.9932 64.6769 46.2209C55.4167 45.8916 47.7861 38.3535 47.369 29.1258ZM83.2624 29.1258C82.8452 38.3535 75.2146 45.8916 65.9545 46.2209C66.3716 36.9932 74.0022 29.455 83.2624 29.1258ZM194.78 29.1258C194.363 38.3535 186.732 45.8916 177.467 46.2209C177.885 36.9932 185.515 29.455 194.78 29.1258ZM84.5399 29.1258C93.8001 29.455 101.431 36.9932 101.848 46.2209C92.5877 45.8916 84.9571 38.3535 84.5399 29.1258ZM158.886 29.1258C168.146 29.455 175.777 36.9932 176.194 46.2209C166.934 45.8916 159.303 38.3535 158.886 29.1258ZM121.711 29.1258C130.971 29.455 138.602 36.9932 139.019 46.2209C129.759 45.8916 122.128 38.3535 121.711 29.1258ZM120.438 29.1258C120.021 38.3535 112.39 45.8916 103.13 46.2209C103.547 36.9932 111.178 29.455 120.438 29.1258ZM157.609 29.1258C157.192 38.3535 149.561 45.8916 140.301 46.2209C140.718 36.9932 148.349 29.455 157.609 29.1258ZM117.053 28.3156C110.035 29.8363 104.312 35.2386 102.487 42.2352C100.666 35.2386 94.9386 29.8319 87.9207 28.3156C94.9386 26.7993 100.662 21.3927 102.487 14.3961C104.307 21.3927 110.035 26.7993 117.053 28.3156ZM154.224 28.3156C147.206 29.8363 141.483 35.2386 139.658 42.2352C137.837 35.2386 132.11 29.8319 125.092 28.3156C132.11 26.7993 137.833 21.3927 139.658 14.3961C141.478 21.3927 147.206 26.7993 154.224 28.3156ZM101.852 10.4147C101.435 19.6425 93.8044 27.1806 84.5443 27.5098C84.9615 18.2821 92.5921 10.744 101.852 10.4147ZM103.125 10.4147C112.386 10.744 120.016 18.2821 120.433 27.5098C111.173 27.1806 103.543 19.6425 103.125 10.4147ZM140.301 10.4147C149.561 10.744 157.192 18.2821 157.609 27.5098C148.349 27.1806 140.718 19.6425 140.301 10.4147ZM139.023 10.4147C138.606 19.6425 130.975 27.1806 121.715 27.5098C122.132 18.2821 129.763 10.744 139.023 10.4147ZM62.778 20.0973C63.7861 18.5681 64.5683 16.9131 65.0984 15.1802L64.3075 14.8337C63.3993 16.3846 62.6259 18.0265 62.0088 19.7118L62.7823 20.0973H62.778Z" fill="#A61F29"/>
</svg>
