<svg width="346" height="319" viewBox="0 0 346 319" fill="none" xmlns="http://www.w3.org/2000/svg">
<g filter="url(#filter0_d_0_232)">
<path d="M175.537 55.6042C174.898 54.5833 174.165 53.6336 173.313 52.7789L172.248 51.7343C169.361 48.8377 165.339 47.1758 161.269 47.152C159.778 47.152 158.287 47.3419 156.868 47.7693C156.702 47.6743 156.536 47.5794 156.347 47.4844C158.027 44.9915 159.044 42.0237 159.068 38.8422C159.115 30.2713 151.993 22.8875 143.404 22.8875C141.889 22.8875 140.422 23.1012 139.026 23.5048C136.707 17.6642 131.028 13.3906 124.474 13.3906C117.47 13.3906 111.389 18.0678 109.33 24.4782C105.023 18.234 98.8949 13.7468 90.9681 13.628C81.3612 13.4856 74.8777 20.537 69.6957 27.6359C67.4714 30.6749 66.9982 34.4025 67.708 37.9875C67.3531 38.2012 67.0218 38.4386 66.6906 38.6761C65.6494 38.0588 64.5136 37.5602 63.3305 37.1803C60.6804 36.3256 57.7936 35.827 55.0251 35.827C49.6537 35.827 45.1106 37.8451 41.1117 41.3114C35.1724 46.4635 34.2969 55.7942 36.5685 62.8693C37.6806 66.3357 39.5263 69.3035 42.3658 71.4403C42.91 79.845 49.7957 85.5906 57.9829 86.2079C65.0815 86.7302 72.2039 87.1813 79.3026 87.5612C82.1657 90.6002 86.1646 92.5471 90.5895 92.5471C94.6121 92.5471 98.3507 90.9801 101.19 88.4397C107.579 88.6059 113.991 88.7008 120.404 88.7246C121.445 89.2469 122.486 89.6505 123.598 89.9354C125.917 90.9326 127.408 91.3362 130.579 91.5024C132.046 91.5736 133.537 91.3837 134.956 90.9563C136.258 91.3125 137.606 91.5024 138.979 91.5024C139.192 91.5024 139.405 91.5024 139.641 91.5024C141.463 92.2622 143.404 92.6658 145.297 92.5708C148.018 92.4284 149.272 92.2147 150.715 91.6686C152.324 92.2384 154.028 92.5708 155.803 92.5708C161.008 92.5708 165.717 89.9829 168.651 85.9942C170.521 86.8252 172.579 87.3 174.733 87.3C183.322 87.3 190.563 80.2486 190.634 71.5827C190.681 63.2017 183.89 55.9841 175.561 55.6517L175.537 55.6042Z" fill="#C02335"/>
</g>
<path d="M-69.7461 69.3745C-30.7744 77.4943 -7.77469 43.2824 27.3164 56.4829C27.3156 56.4937 27.3152 56.5044 27.3145 56.5151C34.5631 59.7313 49.5142 58.0086 51.7363 64.4839C46.1079 63.2442 40.457 62.0048 34.8271 60.7866C40.4572 62.0263 46.1077 63.2671 51.7363 64.4839C51.5494 65.3044 51.3856 66.1249 51.1992 66.9683C51.2046 66.9712 51.2104 66.9741 51.2158 66.9771C67.6609 76.4975 87.4897 83.8574 99.8887 96.0132C106.206 94.5174 120.049 87.4424 124.024 93.4253C124.021 93.4406 124.017 93.4559 124.014 93.4712C127.818 95.5785 123.988 113.178 119.666 113.505C119.312 115.161 118.936 116.818 118.582 118.498C125.228 119.921 132.653 122.554 136.606 119.83C136.601 119.828 136.595 119.828 136.589 119.827C140.73 116.242 143.901 111.113 151.26 112.538C155.401 126.261 165.836 124.646 178.211 121.061C178.208 121.07 178.203 121.078 178.2 121.086C179.024 121.275 179.848 121.442 180.695 121.631C182.627 125.277 181.858 127.695 179.585 129.06C181.896 127.703 182.688 125.279 180.743 121.607C181.666 119.684 183.795 119.66 184.315 117.144C191.911 120.112 195.271 113.82 199.317 120.42C199.316 120.431 199.314 120.442 199.312 120.453C204.291 121.542 209.269 122.631 214.271 123.72H214.272C215.101 123.91 215.928 124.077 216.78 124.267C220.117 125.003 223.453 125.715 226.766 126.451C226.769 126.451 226.773 126.452 226.776 126.453L226.777 126.451H226.766C223.429 125.715 220.093 124.978 216.78 124.266C220.022 120.373 225.796 120.443 232.871 122.533C232.869 122.542 232.865 122.551 232.863 122.56C235.364 123.105 237.842 123.648 240.343 124.193C240.344 124.186 240.346 124.178 240.348 124.171C242.856 124.717 245.364 125.264 247.849 125.81C247.747 126.149 247.692 126.457 247.681 126.738C247.694 126.463 247.749 126.163 247.849 125.833C253.48 128.682 266.659 126.664 267.299 132.718C272.741 132.789 273.546 135.876 276.74 137.419C276.386 139.078 276.009 140.76 275.654 142.418C276.301 147.022 282.261 148.195 283.986 152.078C284.008 152.082 284.03 152.088 284.052 152.092C286.276 152.092 286.205 153.588 286.016 155.155C283.957 155.297 281.071 154.135 280.479 156.556C279.651 156.366 278.799 156.2 277.971 156.01L277.924 156.057L277.859 156.637C277.466 159.583 276.115 163.15 278.799 164.129H278.8H278.799C275.96 163.084 277.687 159.096 277.924 156.057C278.752 156.247 279.58 156.414 280.432 156.604C284.569 156.137 287.877 160.972 286.466 162.554C287.952 161.008 284.631 156.109 280.479 156.58C281.071 154.158 283.958 155.298 286.017 155.179C295.481 155.559 298.959 159.785 302.414 164.035C302.414 164.037 302.413 164.039 302.412 164.042C306.917 165.459 302.089 172.868 305.205 175.145L305.207 175.146C304.669 177.612 304.13 180.1 303.592 182.589C303.593 182.617 303.597 182.645 303.598 182.672L301.962 190.208C303.604 190.562 305.269 190.938 306.91 191.291C305.424 197.916 305.09 206.309 298.693 205.261C291.913 218.239 302.531 220.046 298.25 231.415C298.097 231.408 297.949 231.405 297.806 231.407C297.934 231.406 298.066 231.409 298.202 231.416C296.357 235.475 299.125 236.591 302.106 237.541C301.343 239.44 300.282 240.199 299.186 240.231C300.298 240.222 301.379 239.469 302.154 237.541C304.639 238.087 307.147 238.632 309.655 239.178C309.655 239.187 309.654 239.197 309.654 239.206C314.456 241.853 309.22 255.988 303.883 253.705C305.191 262.457 295.388 253.834 296.712 262.612C294.204 262.066 291.719 261.52 289.211 260.974C289.4 260.143 289.566 259.288 289.755 258.458C289.566 255.622 288.597 255.084 287.176 255.334C288.559 255.112 289.499 255.673 289.685 258.458H289.683C289.493 259.288 289.329 260.12 289.14 260.974C283.153 261.71 278.255 264.108 270.541 262.162C270.545 262.153 270.549 262.143 270.554 262.134C269.729 261.945 268.905 261.78 268.08 261.591C268.457 257.818 266.515 256.352 264.133 256.384C266.504 256.362 268.433 257.831 268.057 261.591C264.72 260.855 261.384 260.119 258.071 259.407C258.072 259.405 258.073 259.403 258.074 259.402C253.917 258.501 249.759 257.577 245.602 256.676C254.056 255.373 261.874 253.052 270.232 251.58C270.233 251.577 270.233 251.574 270.233 251.572C261.857 253.044 254.048 255.37 245.554 256.676C243.898 256.32 242.218 255.941 240.562 255.584C240.563 255.583 240.564 255.581 240.565 255.58C238.915 255.225 237.242 254.847 235.592 254.493C235.596 254.491 235.6 254.488 235.604 254.486C230.672 253.459 230.962 260.633 224.542 257.318C224.828 254.697 224.019 253.641 222.544 253.518C223.994 253.658 224.783 254.719 224.494 257.318C214.461 253.947 214.438 266.221 202.867 260.452C202.983 260.465 203.102 260.472 203.224 260.476C203.118 260.471 203.015 260.464 202.914 260.452C200.098 259.407 198.347 260.025 197.377 261.876C197.351 261.884 197.326 261.892 197.3 261.9C192.069 266.001 188.073 272.041 179.644 271.115C157.267 278.67 148.014 306.798 125.704 314.465C125.664 314.493 125.622 314.518 125.582 314.544C114.607 326.453 109.522 310.432 89.5723 311.83L88.8721 311.934C73.8898 314.01 41.5801 308.599 48.7305 294.997C47.6134 297.517 47.6356 298.959 48.2705 299.721C47.6609 298.95 47.6544 297.51 48.7549 295.02L48.7314 294.997C59.6159 284.004 69.885 272.086 83.8691 265.913C88.1044 261.354 93.1917 258.078 99.083 256.107H99.084C114.63 254.659 125.161 245.328 137.039 238.158C138.31 237.107 140.012 236.736 141.977 236.776C140.001 236.732 138.291 237.103 137.015 238.158C141.368 229.278 157.79 239.273 168.106 239.701C166.91 240.773 165.301 241.197 163.434 241.216C165.311 241.201 166.929 240.777 168.131 239.701C179.764 243.33 182.419 232.926 192.787 234.592C193.142 232.932 193.521 231.248 193.876 229.587C205.47 232.555 200.785 237.849 213.326 236.472C209.787 239.43 207.341 240.631 205.104 240.668C207.347 240.639 209.798 239.44 213.35 236.472C214.172 236.661 214.994 236.826 215.816 237.014C218.39 235.467 218.795 230.489 222.459 230.583C221.891 233.099 223.829 234.002 223.854 236.16C223.863 236.161 223.871 236.162 223.879 236.164C224.139 236.288 224.395 236.403 224.645 236.512C224.394 236.403 224.139 236.288 223.879 236.164C223.855 234.027 221.915 233.124 222.482 230.583C225.961 230.417 227.381 227.022 231.072 227.212C231.069 227.22 231.064 227.227 231.061 227.234C234.53 227.06 235.927 223.699 239.638 223.865C243.027 224.715 245.362 223.873 247.646 223.023C246.141 227.368 243.498 229.938 240.034 231.223C243.514 229.948 246.164 227.38 247.663 223.016C247.657 223.018 247.651 223.021 247.646 223.023C247.65 223.011 247.655 222.999 247.659 222.987L247.67 222.998C247.674 222.986 247.679 222.974 247.683 222.962C248.227 220.446 250.356 220.422 251.279 218.5C252.101 218.688 252.923 218.852 253.768 219.041C258.806 211.216 269.676 212.583 273.113 202.278C264.903 196.084 253.315 192.023 254.45 179.799C255.553 179.799 256.091 180.167 256.328 180.729C256.099 180.154 255.568 179.776 254.45 179.776C251.872 178.566 253.833 174.437 250.551 173.674C250.549 173.682 250.548 173.69 250.546 173.698C245.719 164.581 224.85 165.815 220.235 156.556C219.407 156.366 218.555 156.2 217.727 156.01C185.309 150.146 154.336 146.49 125.586 146.347C125.775 145.516 125.941 144.685 126.13 143.831C128.425 142.952 130.768 142.097 134.176 142.975C138.932 142.572 144.824 143.948 147.758 140.696C148.586 140.886 149.414 141.053 150.242 141.243L150.847 141.001C163.739 136.061 188.542 138.14 199.909 141.623C200.737 141.812 201.566 141.979 202.418 142.168C209.344 147.766 222.761 149.17 225.219 157.646C225.222 157.647 225.225 157.647 225.228 157.648L225.106 157.255C222.395 149.104 209.242 147.66 202.417 142.144C201.589 141.954 200.761 141.788 199.909 141.598C199.886 139.461 197.946 138.559 198.514 136.042C207.044 137.726 216.093 139.078 217.413 145.419C213.965 145.215 209.456 139.689 205.704 139.88C209.45 139.7 213.968 145.216 217.413 145.42V145.419C217.415 145.42 217.417 145.42 217.419 145.42V145.421L218.698 146.082C224.966 149.34 230.843 152.825 232.641 158.971L232.729 159.287C233.549 159.475 234.392 159.639 235.213 159.827C235.213 159.821 235.213 159.814 235.213 159.808C236.888 159.692 239.111 160.441 240.2 159.418C239.103 160.413 236.9 159.689 235.237 159.785C234.409 159.595 233.557 159.429 232.729 159.239C230.93 152.496 224.257 148.887 217.419 145.374C216.118 139.011 207.056 137.657 198.514 135.971C183.796 134.642 166.735 135.141 151.898 133.645C144.894 133.882 138.316 134.808 132.779 137.348C121.777 134.713 113.944 137.04 108.1 142.453C107.272 142.263 106.42 142.097 105.592 141.907C103.198 142.829 96.5745 145.204 97.915 139.775C96.5318 145.235 103.172 142.855 105.591 141.931C105.593 141.939 105.595 141.947 105.597 141.956C106.423 142.145 107.273 142.311 108.1 142.5C113.941 137.09 121.769 134.763 132.764 137.392C138.299 134.854 144.874 133.929 151.875 133.692C149.698 135.876 145.558 135.022 145.25 140.126H145.249C146.077 140.316 146.906 140.482 147.758 140.672C144.828 143.92 138.95 142.529 134.198 142.95V142.952C134.196 142.951 134.194 142.95 134.192 142.95C134.187 142.95 134.181 142.951 134.176 142.952C134.176 142.95 134.176 142.948 134.177 142.946C130.781 142.1 128.444 142.953 126.153 143.806L126.13 143.831L125.858 145.088C125.77 145.51 125.681 145.932 125.586 146.347C124.758 146.157 123.93 145.991 123.078 145.801V145.777H123.077C114.702 145.777 89.8638 157.858 95.5791 139.755C94.3487 133.351 92.527 127.35 88.8623 122.534C87.468 116.378 83.4261 111.918 76.4238 109.354C83.4028 111.918 87.4449 116.378 88.8623 122.533C85.5497 117.476 78.8057 114.627 76.0371 109.214L75.4033 108.746C68.9026 103.873 63.846 98.0671 52.6826 96.2271C52.6829 96.2258 52.6823 96.2244 52.6826 96.2231C40.9328 94.4421 31.0755 91.4508 26.2988 85.187C26.4881 84.356 26.6535 83.5248 26.8428 82.6938C26.0148 82.504 25.1866 82.3378 24.335 82.1479C24.6029 81.7712 24.7194 81.4265 24.7148 81.1099C24.7131 81.4199 24.5958 81.7566 24.335 82.1235C7.96068 78.8234 1.97369 73.2914 -13.1465 73.9087C-5.88225 69.5877 3.18045 68.0681 14.0176 69.3501C14.0375 71.7481 17.2925 72.0779 17.8994 74.104C17.3017 72.0569 14.0385 71.7339 14.0186 69.3267C3.15778 68.0446 -5.88126 69.5644 -13.1455 73.8853C-37.2574 76.4969 -55.0758 88.9619 -83.5889 84.7358C-93.1246 82.1243 -101.974 80.6047 -109.12 81.7681C-109.334 77.6982 -112.878 76.044 -112.009 73.7583C-112.921 76.0472 -109.377 77.6993 -109.146 81.7856C-112.086 81.2125 -113.831 79.8852 -114.751 78.022C-113.838 79.9004 -112.086 81.2428 -109.146 81.8052C-109.146 81.7987 -109.146 81.7921 -109.146 81.7856C-109.138 81.7874 -109.129 81.7898 -109.12 81.7915L-109.136 81.8071C-109.123 81.8096 -109.11 81.8125 -109.097 81.8149C-101.955 80.6523 -93.1113 82.1691 -83.582 84.7778C-86.7994 88.6216 -93.6878 89.3066 -96.582 84.5796C-96.6181 86.7275 -98.0894 86.6324 -99.6318 86.4448C-107.606 88.1068 -118.065 85.8039 -124.619 80.9604C-126.275 80.6043 -127.956 80.2248 -129.612 79.8687L-129.636 79.9155C-132.617 72.4846 -144.969 71.1071 -152.99 66.9048C-160.254 65.8364 -166.691 64.246 -163.852 56.6489C-163.025 56.8386 -162.197 57.0043 -161.347 57.1938C-155.935 50.4794 -150.852 61.7045 -143.88 61.0405C-144.231 62.6868 -144.607 64.3567 -144.959 66.0034C-144.958 66.0067 -144.957 66.0099 -144.956 66.0132C-144.605 64.3711 -144.23 62.7065 -143.88 61.0649C-142.2 61.421 -140.544 61.8006 -138.888 62.1567H-138.864C-138.865 62.1629 -138.865 62.1691 -138.865 62.1753C-129.328 70.1488 -124.639 68.3122 -109.488 71.2202C-109.468 71.2068 -109.448 71.1926 -109.428 71.1792C-107.133 70.3008 -104.79 69.4463 -101.383 70.3247C-101.37 70.3283 -101.357 70.3318 -101.344 70.3354C-92.5795 67.3145 -77.2169 74.5765 -69.8008 69.4331C-69.7831 69.4131 -69.7637 69.3946 -69.7461 69.3745ZM108.583 310.643C116.041 310.76 118.362 316.306 122.621 315.741C118.407 316.228 116.071 310.758 108.653 310.643H108.583ZM95.582 310.628C96.276 310.778 96.9544 310.907 97.5938 310.975C100.726 311.496 104.641 313.224 106.806 312.204C104.641 313.187 100.755 311.475 97.6172 310.975V310.972C96.9688 310.906 96.2826 310.778 95.582 310.628ZM101.782 303.995C101.781 303.996 101.778 303.998 101.776 304C105.574 305.089 102.426 310.648 107.93 310.645C102.484 310.616 105.644 305.068 101.806 303.995C101.321 303.991 100.845 303.989 100.377 303.989C100.837 303.989 101.306 303.991 101.782 303.995ZM95.1465 304.053C85.5246 304.321 79.5119 305.386 72.4922 306.855C79.5061 305.398 85.5094 304.323 95.1465 304.053ZM64.8164 293.275C62.7626 298.919 63.1426 302.976 64.585 306.345C64.5898 306.346 64.5948 306.347 64.5996 306.348C63.1402 302.981 62.7905 298.903 64.8447 293.288C64.8353 293.283 64.8258 293.279 64.8164 293.275ZM56.3584 303.835C56.4886 303.931 56.6268 304.022 56.7715 304.108C56.6268 304.022 56.4886 303.931 56.3584 303.835ZM98.6719 303.994C97.7776 304 96.9134 304.012 96.0762 304.031C96.9133 304.012 97.7776 304 98.6719 303.994ZM72.1709 285.08C68.7522 286.299 67.5566 291.009 64.8047 293.256C64.8101 293.259 64.8158 293.261 64.8213 293.263C64.8204 293.265 64.8192 293.268 64.8184 293.27C65.8824 293.674 66.813 293.871 67.6377 293.901C66.8136 293.867 65.8836 293.668 64.8213 293.263C67.5751 291.004 68.7567 286.302 72.1709 285.08ZM124.035 261.582C121.088 264.778 118.583 268.672 112.465 266.918C112.461 266.923 112.457 266.929 112.453 266.933C118.605 268.737 121.114 264.796 124.071 261.591C124.059 261.588 124.047 261.585 124.035 261.582ZM286.247 259.334C286.069 259.355 285.891 259.372 285.712 259.385C285.891 259.372 286.069 259.355 286.247 259.334ZM274.37 244.621C274.189 246.128 274.109 247.561 276.135 247.65L276.339 247.655L276.798 247.896C281.124 250.333 272.606 251.058 277.19 255.727C278.493 256.815 279.849 257.105 281.166 257.017C279.869 257.094 278.538 256.799 277.261 255.727C272.529 250.908 281.733 250.29 276.409 247.655C274.185 247.655 274.256 246.159 274.445 244.592C274.42 244.602 274.395 244.611 274.37 244.621ZM252.835 251.167C252.39 251.173 251.945 251.179 251.5 251.19C251.945 251.179 252.39 251.173 252.835 251.167ZM262.852 245.315C263.985 245.314 265.151 245.364 266.353 245.47C266.351 245.472 266.35 245.473 266.349 245.474C267.203 245.687 267.99 245.792 268.727 245.817C268.007 245.785 267.237 245.679 266.4 245.47C265.182 245.363 264 245.313 262.852 245.315ZM276.695 241.588C272.803 236.881 265.508 238.821 259.94 238.798C265.508 238.843 272.803 236.884 276.695 241.588ZM277.565 241.588C277.762 234.984 264.725 228.982 260.942 235.153L261.051 234.983C264.967 229.1 277.757 235.063 277.565 241.588ZM229.968 237.812C232.566 237.849 234.498 236.845 236.332 235.687C235.136 236.442 233.898 237.132 232.461 237.51C232.269 237.561 232.074 237.606 231.875 237.645C231.278 237.761 230.645 237.822 229.968 237.812ZM229.626 237.802C229.738 237.808 229.848 237.81 229.957 237.812C229.735 237.809 229.508 237.798 229.275 237.779L229.626 237.802ZM223.021 236.091C221.025 236.108 219.912 237.526 217.882 237.493C219.919 237.537 221.032 236.119 223.021 236.091ZM251.585 229.083C250.52 228.822 249.556 228.721 248.682 228.762C249.549 228.725 250.507 228.829 251.564 229.088C251.021 231.58 250.476 234.095 249.932 236.61C249.939 236.611 249.947 236.613 249.955 236.615C250.499 234.098 251.044 231.605 251.588 229.088C251.587 229.086 251.586 229.084 251.585 229.083ZM240.209 233.348H240.21H240.209ZM241.544 232.81C241.359 232.871 241.177 232.937 240.998 233.006L241.27 232.905C241.451 232.84 241.636 232.779 241.824 232.724L241.544 232.81ZM242.978 232.462C242.781 232.494 242.589 232.531 242.4 232.574C242.589 232.531 242.781 232.494 242.978 232.462ZM230.421 228.145C229.828 228.769 229.097 229.172 228.494 229.78C229.1 229.177 229.832 228.775 230.421 228.145ZM239.632 223.822C242.605 220.62 245.093 216.722 251.257 218.5C250.334 220.422 248.205 220.446 247.66 222.962C245.369 223.839 243.03 224.693 239.632 223.822ZM239.632 223.822C239.626 223.828 239.621 223.835 239.615 223.841V223.818C239.621 223.819 239.626 223.82 239.632 223.822ZM256.492 184.548C257.81 192.459 270.78 192.889 273.664 199.766C273.481 200.568 273.32 201.37 273.139 202.193C273.32 201.392 273.482 200.591 273.664 199.767C270.876 193.097 258.664 192.491 256.663 185.314C256.594 185.067 256.537 184.812 256.493 184.548H256.492ZM277.708 193.677C277.711 195.545 279.169 196.488 279.223 198.341L279.226 198.342C279.186 196.539 277.814 195.598 277.714 193.851L277.708 193.677ZM271.447 187.048C271.597 190.599 273.929 192.735 274.146 196.232C273.939 192.728 271.606 190.593 271.447 187.048ZM267.512 180.037H267.488C267.485 180.037 267.481 180.038 267.478 180.039C268.302 180.227 269.149 180.394 269.973 180.583C269.783 181.413 269.618 182.245 269.429 183.076C266.968 183.717 264.483 184.311 263.348 186.994C259.16 186.804 259.561 183.694 256.393 182.838C256.392 182.846 256.392 182.854 256.391 182.862C256.385 183.011 256.383 183.158 256.385 183.303L256.386 183.304C256.384 183.159 256.386 183.012 256.392 182.862C259.562 183.693 259.16 186.827 263.348 187.017C264.483 184.311 266.968 183.716 269.429 183.099C270.254 183.288 271.081 183.455 271.93 183.644C271.932 183.637 271.934 183.63 271.937 183.623C272.122 183.638 272.298 183.659 272.464 183.688C272.298 183.659 272.123 183.637 271.938 183.622C271.109 183.432 270.281 183.266 269.43 183.076C269.619 182.245 269.784 181.413 269.974 180.583C276.265 182.291 278.868 186.349 277.783 192.802C276.778 192.509 276.213 191.934 275.885 191.207V191.208C276.213 191.935 276.777 192.51 277.782 192.803L277.783 192.802C277.789 192.804 277.795 192.806 277.801 192.808C277.802 192.801 277.804 192.794 277.806 192.787C278.894 186.329 276.291 182.269 269.997 180.559C269.177 180.371 268.357 180.207 267.515 180.019C267.513 180.025 267.513 180.031 267.512 180.037ZM275.351 187.905C275.368 188.163 275.383 188.424 275.4 188.682C275.418 188.941 275.438 189.198 275.466 189.451C275.521 189.955 275.606 190.441 275.758 190.883C275.453 189.998 275.422 188.938 275.351 187.904V187.905ZM274.862 185.384C275.1 185.906 275.216 186.506 275.285 187.136C275.216 186.506 275.1 185.905 274.862 185.383V185.384ZM273.143 183.859C273.623 184.022 273.995 184.255 274.284 184.542C274.326 184.582 274.365 184.624 274.403 184.667C274.555 184.84 274.682 185.028 274.787 185.23L274.704 185.081C274.356 184.495 273.809 184.037 272.931 183.792L273.143 183.859ZM253.575 171.704C251.209 167.335 247.139 153.043 240.774 158.384C240.772 158.393 240.769 158.402 240.767 158.411C249.62 159.891 247.143 168.666 253.551 171.727C253.456 174.647 255.468 176.238 257.455 177.852H257.479C257.054 180.62 258.597 181.453 260.606 181.485C258.602 181.45 257.068 180.614 257.503 177.852C262.108 179.44 263.625 176.251 268.029 177.512C268.03 177.507 268.032 177.502 268.033 177.497C263.632 176.191 262.094 179.419 257.479 177.829C255.492 176.238 253.481 174.647 253.575 171.704ZM281.072 177.75C281.072 177.753 281.071 177.756 281.07 177.758C280.806 178.594 280.519 179.4 279.962 179.787C280.532 179.412 280.823 178.603 281.09 177.746C281.084 177.747 281.078 177.749 281.072 177.75ZM281.828 162.16C282.959 165.029 288.343 174.519 282.412 177.291C288.359 174.578 283.075 165.128 281.897 162.189C281.875 162.179 281.851 162.17 281.828 162.16ZM8.6709 118.092C10.0687 113.249 22.4194 108.645 24.7617 116.361L24.7598 116.36C24.5705 117.191 24.3824 118.022 24.2168 118.876L24.1445 119.499C23.3445 125.832 20.7739 129.397 14.5391 127.258L15.1348 126.725C14.9386 126.906 14.7401 127.084 14.5391 127.257C12.4095 127.305 11.4863 129.228 9.00195 128.682C8.98326 128.691 8.964 128.7 8.94531 128.708C-0.353409 136.495 -10.4751 143.007 -21.4209 148.267C-21.4312 148.276 -21.4418 148.285 -21.4521 148.293C-29.0475 150.953 -34.8214 156.508 -42.2275 159.5C-44.7356 158.953 -47.2204 158.408 -49.7285 157.862C-49.7283 157.854 -49.7296 157.846 -49.7295 157.838C-52.5245 161.564 -71.213 157.458 -72.207 152.923C-70.5507 153.279 -68.8702 153.659 -67.2139 154.015C-61.4819 155.278 -55.7268 156.539 -49.9941 157.779C-55.7269 156.516 -61.4818 155.254 -67.2139 154.015C-67.2134 154.013 -67.2133 154.011 -67.2129 154.009C-68.862 153.655 -70.5347 153.278 -72.1836 152.923C-73.0116 152.733 -73.8634 152.567 -74.6914 152.377C-79.3529 145.302 -96.9342 146.56 -106.636 142.738C-106.636 140.506 -105.145 140.601 -103.583 140.791C-103.229 139.133 -102.852 137.452 -102.498 135.794C-102.505 135.79 -102.512 135.786 -102.519 135.782C-102.52 135.781 -102.523 135.78 -102.524 135.78C-102.878 137.434 -103.253 139.113 -103.606 140.767C-105.168 140.577 -106.636 140.483 -106.659 142.714V142.738C-107.486 142.548 -108.313 142.382 -109.14 142.193C-109.14 142.194 -109.14 142.196 -109.141 142.198C-108.321 142.385 -107.478 142.55 -106.683 142.738C-96.9869 146.558 -79.4223 145.304 -74.748 152.365C-85.2715 148.395 -103.642 149.446 -109.148 142.215C-112.624 142.384 -114.044 145.777 -117.733 145.587C-117.635 142.972 -119.398 143.218 -121.47 143.992C-119.403 143.232 -117.639 142.981 -117.757 145.587C-117.331 148.911 -115.675 151.451 -111.345 152.235C-120.689 173.48 -148.294 166.15 -165.923 174.428C-165.918 174.43 -165.914 174.432 -165.909 174.433C-169.766 177.353 -175.54 177.306 -182 176.167C-181.266 170.611 -178.214 168.64 -172.866 170.302L-172.581 169.935C-160.38 154.542 -135.31 159.288 -122.75 144.495C-122.738 144.49 -122.727 144.485 -122.715 144.48C-121.183 142.553 -119.648 140.609 -116.914 140.575L-116.645 140.578L-116.561 140.207C-112.756 124.723 -79.2254 138.616 -71.9707 139.841C-75.3421 140.385 -78.1383 140.845 -80.5684 141.158C-78.132 140.846 -75.3283 140.387 -71.9473 139.841C-68.6109 140.577 -65.2737 141.29 -61.9609 142.026H-61.9766C-31.0318 145.583 -13.3338 128.468 8.66992 118.093L8.6709 118.092ZM-170.567 173.109C-169.519 173.504 -168.253 173.76 -167.083 174.075C-168.251 173.754 -169.516 173.499 -170.567 173.109ZM282.482 169.873C282.504 170.409 282.474 170.98 282.386 171.588C282.368 171.712 282.348 171.838 282.325 171.965C282.28 172.22 282.224 172.48 282.159 172.748C282.416 171.692 282.518 170.737 282.482 169.873ZM280.767 172.558V172.557V172.558ZM279.212 171.997C279.468 172.13 279.745 172.249 280.044 172.352C279.745 172.249 279.468 172.13 279.212 171.997ZM240.774 158.408C247.139 153.067 251.209 167.358 253.575 171.727C247.139 168.688 249.647 159.88 240.774 158.408ZM244.428 164.953C244.574 168.359 249.657 168.596 251.086 171.173C251.087 171.168 251.089 171.162 251.09 171.157C249.667 168.572 244.574 168.338 244.428 164.928V164.953ZM273.599 166.147C272.812 166.092 271.76 166.463 270.229 167.488V167.489C271.759 166.468 272.812 166.096 273.599 166.147ZM265.891 151.092C259.745 151.081 274.045 159.113 267.725 166.894C267.732 166.905 267.739 166.916 267.746 166.927C274.096 159.156 259.854 151.123 265.891 151.092ZM280.701 162.073C279.717 162.076 278.939 162.393 278.816 163.738L278.838 163.561C279.013 162.369 279.769 162.078 280.701 162.073ZM235.218 160.189C235.397 167.404 241.137 158.665 245.213 162.009C245.216 162.004 245.219 161.998 245.222 161.993C241.146 158.628 235.418 167.386 235.218 160.165V160.189ZM-74.7148 152.377H-74.7393C-74.7421 152.373 -74.7452 152.369 -74.748 152.365C-74.7371 152.369 -74.7258 152.373 -74.7148 152.377ZM259.085 146.677C262.729 147.887 268.425 147.817 268.457 151.348C268.465 151.349 268.473 151.351 268.481 151.352C268.453 147.808 262.726 147.888 259.081 146.668C259.082 146.671 259.084 146.674 259.085 146.677ZM162.607 142.781H162.608H162.607ZM265.306 139.011C264.472 140.208 262.305 140.71 260.754 142.36C262.318 140.718 264.494 140.227 265.306 139.011ZM157.792 142.227H157.793H157.792ZM151.875 133.692C166.711 135.188 183.771 134.69 198.489 136.019C197.945 138.536 199.862 139.462 199.886 141.575C188.362 138.061 162.925 135.948 150.219 141.195L150.242 141.218C149.414 141.028 148.586 140.862 147.758 140.672C146.93 140.482 146.102 140.316 145.25 140.126C145.581 135.046 149.698 135.9 151.875 133.692ZM273.225 140.142C271.525 141.816 267.452 139.776 265.771 141.487C267.474 139.81 271.547 141.851 273.225 140.142ZM-115.88 140.204H-115.879H-115.88ZM-113.696 138.362C-113.892 138.541 -114.089 138.721 -114.282 138.904C-114.089 138.721 -113.892 138.541 -113.696 138.362ZM-113.052 137.805H-113.051H-113.052ZM53.249 93.7104C65.1306 93.9798 66.4826 100.977 74.6172 103.659H74.6416C90.5066 109.946 95.8341 123.06 98.6279 137.766C98.63 137.761 98.6327 137.757 98.6348 137.752C95.8427 123.009 90.5187 109.903 74.6416 103.611C73.654 102.327 72.671 100.895 71.6621 99.4106C72.6789 100.911 73.6692 102.359 74.665 103.658H74.6416C66.5018 100.999 65.1285 93.9716 53.25 93.7104H53.249ZM239.804 126.711C244.37 128.278 254.971 136.802 259.798 131.081C259.793 131.078 259.789 131.075 259.784 131.072C254.952 136.761 244.372 128.258 239.808 126.689C239.806 126.696 239.805 126.704 239.804 126.711ZM228.245 128.911C228.333 128.887 228.421 128.861 228.51 128.836C228.421 128.861 228.333 128.887 228.245 128.911ZM228.824 128.747C228.968 128.703 229.112 128.655 229.257 128.607C229.112 128.655 228.968 128.703 228.824 128.747ZM231.037 127.894C230.487 128.15 229.941 128.373 229.396 128.561C229.941 128.373 230.487 128.15 231.037 127.894ZM231.166 127.836C231.297 127.774 231.428 127.707 231.56 127.641C231.428 127.707 231.297 127.774 231.166 127.836ZM176.704 123.433C172.862 127.051 164.758 124.011 161.035 127.8H161.036C164.77 124.048 172.846 127.067 176.681 123.457L176.704 123.433ZM16.29 125.601H16.291H16.29ZM232.434 123.551C231.256 125.211 228.512 124.412 227.191 125.844C228.53 124.439 231.282 125.234 232.434 123.551ZM154.074 123.643C153.314 114.723 145.984 113.134 141.584 120.914C141.588 120.914 141.592 120.916 141.597 120.917C145.995 113.168 153.301 114.752 154.071 123.643H154.074ZM21.8174 120.287C21.2835 120.679 20.7733 121.108 20.2773 121.558C20.7732 121.108 21.2835 120.679 21.8174 120.287ZM23.1465 119.417C22.9163 119.549 22.6911 119.688 22.4697 119.833L22.8057 119.621C22.9183 119.551 23.0316 119.483 23.1465 119.417ZM23.8545 115.958C24.0271 116.03 24.2023 116.105 24.3799 116.185C24.2023 116.105 24.0271 116.03 23.8545 115.958ZM22.584 115.479C22.7686 115.541 22.9559 115.607 23.1465 115.678C22.8385 115.564 22.5387 115.461 22.2461 115.371L22.584 115.479ZM20.0508 114.881C19.9532 114.869 19.8566 114.857 19.7607 114.847C19.8566 114.857 19.9532 114.869 20.0508 114.881ZM52.4238 93.7026C44.2117 93.4195 43.5567 86.9513 38.4023 90.3325C43.556 86.9743 44.2117 93.4205 52.4229 93.7026C52.5566 93.7073 52.6923 93.7102 52.8301 93.7114C52.6926 93.7102 52.5572 93.7072 52.4238 93.7026ZM44.8975 83.9995C46.5537 84.3556 48.2334 84.7362 49.8896 85.0923C49.4168 87.5373 52.5406 87.7036 54.3389 88.7007C53.5619 91.0201 51.5603 91.2982 49.374 90.6929C51.5695 91.3038 53.5825 91.0284 54.3623 88.7007C52.5403 87.7036 49.4408 87.5367 49.9141 85.0913C55.4869 83.8487 59.7498 85.714 63.29 88.8696C59.7415 85.6946 55.4706 83.8084 49.8906 85.0444C48.2343 84.6883 46.5538 84.3088 44.8975 83.9526C44.8974 83.9682 44.8975 83.9839 44.8975 83.9995ZM48.8682 90.5386C48.9249 90.5575 48.9824 90.5734 49.0391 90.5913C48.9824 90.5735 48.925 90.5575 48.8682 90.5386ZM45.1104 70.8706C42.5076 66.882 37.894 67.6653 34.5576 71.2026C30.1801 73.3157 23.6487 72.0814 20.4307 75.9751C19.6035 75.7854 18.7529 75.6188 17.9258 75.4292C17.9242 75.4368 17.9235 75.445 17.9219 75.4526C15.7275 75.9209 14.8871 76.278 14.8936 76.5942C14.9453 76.2847 15.8051 75.9328 17.9229 75.4761C18.751 75.666 19.5789 75.833 20.4307 76.0229C22.087 76.3791 23.7675 76.7586 25.4238 77.1147C29.1624 82.86 31.6467 78.7769 37.917 79.8452C41.1559 85.918 34.9938 84.3586 38.2168 90.4185C38.2273 90.4234 38.2375 90.4292 38.248 90.4341V90.4331C35.0072 84.3797 41.183 85.922 37.9414 79.8442C31.671 78.7521 29.1858 82.86 25.4473 77.1147C25.7549 70.8944 36.5209 81.0078 34.5811 71.2505C37.9173 67.7367 42.5072 66.9292 45.1338 70.9175C45.1273 70.9195 45.1208 70.9214 45.1143 70.9233C45.823 71.8197 46.0713 72.6252 46.0771 73.5552C46.0804 72.6036 45.8356 71.7858 45.1104 70.8706ZM-124.643 81.0083C-118.088 85.8516 -107.606 88.1309 -99.6553 86.4927C-104.151 92.8793 -123.199 88.7008 -124.643 81.0083ZM34.2344 85.9468C34.4545 86.2758 34.6621 86.6128 34.8701 86.9497C34.6621 86.6128 34.4545 86.2758 34.2344 85.9468ZM-83.5645 84.7827C-83.5702 84.7811 -83.5763 84.7794 -83.582 84.7778C-83.5767 84.7714 -83.5698 84.7657 -83.5645 84.7593V84.7827ZM31.3379 83.3374H31.3369H31.3379ZM28.6465 82.7124H28.6475H28.6465ZM-153.014 66.9292C-144.992 71.1077 -132.641 72.5087 -129.659 79.9399C-138.532 76.3074 -148.187 73.1733 -153.014 66.9292ZM34.5566 71.2261C36.4969 80.9839 25.7556 70.8708 25.4238 77.0903C23.7675 76.7342 22.087 76.3547 20.4307 75.9985C23.6487 72.0812 30.1791 73.339 34.5566 71.2261ZM-115.532 75.144C-121.281 72.8132 -121.957 78.4423 -128.405 74.9946C-128.397 75.0027 -128.388 75.0109 -128.38 75.019C-121.942 78.4373 -121.259 72.8516 -115.531 75.1587C-115.532 75.1538 -115.532 75.1489 -115.532 75.144ZM-142.41 66.6362C-142.041 66.722 -141.704 66.7951 -141.396 66.853L-141.373 66.8569C-141.689 66.7966 -142.035 66.7213 -142.414 66.6313C-142.413 66.6331 -142.411 66.6345 -142.41 66.6362Z" fill="url(#paint0_linear_0_232)"/>
<g filter="url(#filter1_d_0_232)">
<path d="M346 216.624C346.071 202.26 336.819 189.961 325.674 189.961C321.32 189.961 317.227 191.766 313.867 194.829C312.163 195.565 310.53 196.562 309.039 197.796C308.164 196.918 307.288 196.134 306.413 195.588C301.681 192.573 300.829 192.549 295.599 191.79C295.15 191.718 294.724 191.718 294.274 191.718C293.635 191.718 292.996 191.766 292.358 191.837C291.553 186.709 289.613 181.913 286.702 178.185C285.874 177.141 284.999 176.215 284.052 175.384C283.035 172.511 281.615 169.876 279.864 167.596L278.491 165.839C277.616 164.723 276.669 163.726 275.676 162.848C274.706 160.094 273.38 157.506 271.653 155.25C271.653 155.25 271.653 155.25 271.653 155.203C270.872 153.541 270.162 151.831 269.476 150.075C267.181 144.139 262.046 139.652 257.219 137.942C255.089 137.183 252.889 136.898 250.712 137.064C249.978 136.352 249.221 135.734 248.417 135.259C245.554 133.55 242.643 131.698 239.496 131.105C236.254 130.511 233.344 129.941 230.149 129.941C220.992 129.941 213.018 137.895 210.415 148.769C208.285 149.623 206.251 150.882 204.429 152.567C204.121 152.71 203.79 152.829 203.458 152.995C201.092 151.76 198.56 151.095 196.028 151.095H194.656C189.166 151.095 183.819 153.873 179.962 158.954C179.276 159.88 178.637 160.877 178.045 161.898C177.217 161.756 176.389 161.684 175.561 161.684H172.816C167.326 161.684 161.978 164.462 158.121 169.543C156.016 172.297 154.454 175.621 153.436 179.23C152.537 179.657 151.662 180.18 150.81 180.749C150.621 180.488 150.431 180.18 150.242 179.918C148.728 177.995 146.929 176.405 145.155 174.885C143.617 173.556 140.091 172.012 139.547 171.727C137.583 170.73 135.335 170.588 133.252 170.493C132.519 170.469 131.762 170.493 131.028 170.588C128.757 169.401 126.272 168.736 123.693 168.736H118.227C112.808 168.736 107.792 171.537 104.077 176.072C100.953 173.651 97.3331 172.273 93.6655 172.273H89.5719C84.0822 172.273 78.7345 175.051 74.8776 180.132C72.748 182.91 71.1626 186.281 70.1688 189.938C69.3643 189.938 68.5598 189.938 67.7553 189.938C56.6103 189.938 47.2164 201.738 47.1454 216.22C47.1217 222.132 48.6598 227.711 51.2863 232.199C51.9725 245.732 60.8932 257.009 71.5649 257.009C78.2377 257.009 84.2952 252.759 88.0812 246.254C88.0575 253.329 90.2581 260.262 94.1624 265.224C97.9247 270.02 103.13 272.893 108.407 272.893H109.779C112.856 272.893 115.861 271.991 118.605 270.329C120.167 270.851 121.776 271.112 123.433 271.112C128.378 271.112 132.968 268.785 136.565 264.939C139.286 266.625 142.244 267.575 145.273 267.598C148.728 267.622 152.088 266.482 155.093 264.417C158.003 268.453 161.813 271.326 166.096 272.418C168.391 274.294 170.946 275.576 173.691 276.122C177.335 280.633 182.233 283.482 187.581 283.482C187.865 283.482 188.125 283.482 188.386 283.482C191.367 285.785 194.822 287.114 198.489 287.043C201.329 286.972 204.192 286.378 206.984 285.785C209.776 285.168 212.426 283.268 214.982 281.867C219.17 279.588 222.436 275.077 225.228 270.424C226.624 270.875 228.044 271.112 229.511 271.16C231.758 272.299 234.172 272.94 236.704 272.94C241.294 272.94 245.577 270.946 249.056 267.575C249.198 267.67 249.316 267.765 249.458 267.86C252.889 271.041 256.935 272.893 261.265 272.94C263.182 272.94 265.099 272.608 266.921 271.943C269.169 274.65 271.937 276.573 275.108 277.285C286.915 279.944 297.35 278.282 308.117 272.157C309.726 272.703 311.382 272.964 313.109 272.94C319.238 272.822 324.207 271.136 329.649 267.598C336.298 263.301 340.084 254.991 342.569 246.397C343.87 241.862 343.563 236.306 342.332 231.439C344.604 227.213 345.976 222.132 346.024 216.671L346 216.624Z" fill="#C02335"/>
</g>
<g filter="url(#filter2_d_0_232)">
<path d="M94.8959 119.162C93.5708 114.461 91.0626 110.14 87.5843 106.674C82.4023 101.545 75.1852 98.459 67.8736 98.459H66.7378C61.8871 98.459 57.1073 99.6936 52.8954 101.997C50.3399 100.572 47.5477 99.5274 44.5899 98.9575C36.3555 95.1825 26.37 95.325 18.2301 100.097C17.3783 100.596 16.5738 101.142 15.7929 101.712C12.2909 98.3877 7.91339 95.966 3.22826 94.7789C-0.439392 90.4816 -5.64509 87.3001 -10.9218 85.8519C-17.003 84.1899 -23.5101 84.641 -29.3074 87.0627C-33.6376 84.2374 -38.7723 82.5754 -44.2383 82.5754C-55.7145 82.5754 -65.8419 89.5794 -70.3141 99.5986C-74.9519 100.928 -79.2584 103.445 -82.6895 106.911L-82.8551 107.149C-83.1864 107.434 -83.494 107.742 -83.8016 108.051C-85.7656 110.021 -87.3983 112.301 -88.676 114.722C-90.0721 114.509 -91.4918 114.366 -92.9116 114.366H-96.3189C-103.915 114.366 -111.297 117.358 -116.645 122.795C-121.803 128.018 -124.785 135.212 -124.832 142.572C-124.879 150.169 -121.827 157.624 -116.432 162.966C-111.25 168.119 -104.033 171.181 -96.7212 171.181H-93.3375C-85.7419 171.181 -78.3593 168.19 -73.0116 162.753C-71.0949 160.806 -69.4623 158.574 -68.1845 156.176C-63.3811 165.008 -54.0818 171.205 -43.5284 171.205C-41.4225 171.205 -39.3875 170.968 -37.3999 170.516C-35.3649 170.991 -33.259 171.252 -31.082 171.205C-25.971 171.11 -20.8836 170.374 -15.8672 169.306C-13.8322 169.804 -11.7263 170.065 -9.57302 170.065C-3.11322 170.065 2.92065 167.834 7.77141 164.106C8.83621 165.744 10.0903 167.288 11.4864 168.665C16.5738 173.698 23.9564 177.046 31.1971 176.879C36.8997 176.761 41.4665 175.692 46.3409 173.437C46.9562 173.461 47.5714 173.484 48.1629 173.461C51.4756 173.366 54.883 173.057 58.0774 172.06C58.385 171.965 58.6926 171.87 59.0003 171.775C64.5136 170.754 69.5773 168.356 73.7419 164.296C88.3651 163.37 100.362 151.095 100.48 136.162C100.528 129.894 98.4216 123.958 94.8723 119.162H94.8959Z" fill="#C02335"/>
</g>
<defs>
<filter id="filter0_d_0_232" x="31.4166" y="13.3906" width="163.217" height="87.1938" filterUnits="userSpaceOnUse" color-interpolation-filters="sRGB">
<feFlood flood-opacity="0" result="BackgroundImageFix"/>
<feColorMatrix in="SourceAlpha" type="matrix" values="0 0 0 0 0 0 0 0 0 0 0 0 0 0 0 0 0 0 127 0" result="hardAlpha"/>
<feOffset dy="4"/>
<feGaussianBlur stdDeviation="2"/>
<feComposite in2="hardAlpha" operator="out"/>
<feColorMatrix type="matrix" values="0 0 0 0 0 0 0 0 0 0 0 0 0 0 0 0 0 0 0.25 0"/>
<feBlend mode="normal" in2="BackgroundImageFix" result="effect1_dropShadow_0_232"/>
<feBlend mode="normal" in="SourceGraphic" in2="effect1_dropShadow_0_232" result="shape"/>
</filter>
<filter id="filter1_d_0_232" x="43.1451" y="129.941" width="306.878" height="165.105" filterUnits="userSpaceOnUse" color-interpolation-filters="sRGB">
<feFlood flood-opacity="0" result="BackgroundImageFix"/>
<feColorMatrix in="SourceAlpha" type="matrix" values="0 0 0 0 0 0 0 0 0 0 0 0 0 0 0 0 0 0 127 0" result="hardAlpha"/>
<feOffset dy="4"/>
<feGaussianBlur stdDeviation="2"/>
<feComposite in2="hardAlpha" operator="out"/>
<feColorMatrix type="matrix" values="0 0 0 0 0 0 0 0 0 0 0 0 0 0 0 0 0 0 0.25 0"/>
<feBlend mode="normal" in2="BackgroundImageFix" result="effect1_dropShadow_0_232"/>
<feBlend mode="normal" in="SourceGraphic" in2="effect1_dropShadow_0_232" result="shape"/>
</filter>
<filter id="filter2_d_0_232" x="-128.833" y="82.5754" width="233.313" height="102.31" filterUnits="userSpaceOnUse" color-interpolation-filters="sRGB">
<feFlood flood-opacity="0" result="BackgroundImageFix"/>
<feColorMatrix in="SourceAlpha" type="matrix" values="0 0 0 0 0 0 0 0 0 0 0 0 0 0 0 0 0 0 127 0" result="hardAlpha"/>
<feOffset dy="4"/>
<feGaussianBlur stdDeviation="2"/>
<feComposite in2="hardAlpha" operator="out"/>
<feColorMatrix type="matrix" values="0 0 0 0 0 0 0 0 0 0 0 0 0 0 0 0 0 0 0.25 0"/>
<feBlend mode="normal" in2="BackgroundImageFix" result="effect1_dropShadow_0_232"/>
<feBlend mode="normal" in="SourceGraphic" in2="effect1_dropShadow_0_232" result="shape"/>
</filter>
<linearGradient id="paint0_linear_0_232" x1="-63.4694" y1="68.5905" x2="153.017" y2="379.272" gradientUnits="userSpaceOnUse">
<stop stop-color="#812222"/>
<stop offset="1" stop-color="#2C0708"/>
</linearGradient>
</defs>
</svg>
