<svg width="75" height="68" viewBox="0 0 75 68" fill="none" xmlns="http://www.w3.org/2000/svg">
<g clip-path="url(#clip0_0_1455)">
<g filter="url(#filter0_d_0_1455)">
<path d="M45.4081 16.7261C44.7448 18.9554 44.2275 23.994 44.3509 26.4053C44.3944 27.2525 45.4815 28.8358 43.9738 29.1271C42.5795 29.3986 40.1466 26.0497 38.6697 25.187C35.1363 23.1256 30.203 22.1956 26.8013 20.1487C22.6485 17.6536 20.1307 13.3455 16.9511 10.1087C15.8501 8.98581 15.7093 9.47482 15.9716 10.924C16.2841 12.6297 16.4272 13.9829 16.7389 15.6815C17.4748 19.6996 19.358 23.4374 21.8726 26.7408C22.4144 27.4525 23.4887 28.0104 23.7708 28.4669C24.107 29.0194 23.7503 29.649 24.0214 30.1359C24.4371 30.8835 25.9333 31.1395 26.079 31.6695C26.2008 32.1148 25.4392 32.549 25.6713 32.9455C25.9661 33.4517 27.9795 35.2378 28.5174 35.9136C28.828 36.3014 28.8174 36.9871 29.2313 37.4582C30.1735 38.5186 33.915 38.8747 33.9164 40.5131C33.9182 40.7896 31.863 45.1981 31.5942 45.512C30.7363 46.5104 29.3635 46.7139 28.1366 46.7993L28.612 47.8243C24.7584 49.2575 20.6227 49.2584 16.6544 50.2456C17.6872 51.5363 19.9402 50.3392 21.3475 50.445L18.3132 52.2241C19.2505 52.2656 20.0636 51.7747 20.9452 51.5748C21.3189 51.4895 22.2457 51.1753 22.22 51.7899C19.5668 52.7693 16.2443 53.3862 13.7278 54.5544C12.1117 55.302 13.767 55.8827 14.7782 56.0689C20.3878 57.0985 21.4771 55.6447 26.3143 54.6046C28.8282 54.0631 31.8472 53.9678 34.3903 53.2992C35.563 52.9868 40.5278 50.6217 40.8105 50.8233C40.9908 50.9489 39.8376 51.9583 40.2617 52.3262C40.3816 52.4294 41.0308 51.4397 41.8866 51.6577C42.7423 51.8757 42.6498 53.2551 43.6134 53.4029C43.4122 52.8936 43.7955 51.9189 43.5905 51.5703C43.1462 50.8259 40.2066 50.9196 44.2402 49.3498L45.0142 51.4339C46.3251 50.2832 44.9184 48.8811 44.9016 48.7301C44.8721 48.4639 48.6386 46.3776 49.3564 45.8099C51.4186 44.1971 52.2479 43.2019 53.1904 40.7522C53.8921 38.9337 53.4794 37.9528 55.063 36.3931C58.9076 32.6014 62.1888 32.914 67.2476 33.0217L61.8206 31.0979C58.4498 27.9624 57.0588 25.3352 51.8935 26.0258C51.2165 26.1156 48.7998 26.945 48.5782 26.773C48.0715 26.3778 49.3967 24.1841 49.5747 23.5089C51.006 18.041 49.5011 13.9335 48.0119 8.73196C46.6609 8.54712 47.0625 11.4446 46.8397 11.7169C46.693 11.8934 46.0056 11.7587 45.8907 11.8952C45.7757 12.0318 46.1428 14.4889 46.1132 15.1985C46.0611 16.486 45.4619 16.5599 45.4152 16.7253L45.4081 16.7261Z" fill="white"/>
<path d="M45.4081 16.7261C45.4548 16.5607 46.0611 16.486 46.1061 15.1993C46.1357 14.4897 45.775 12.0246 45.8836 11.896C45.9922 11.7674 46.686 11.8942 46.8326 11.7177C47.0562 11.4525 46.6539 8.54791 48.0048 8.73275C49.4932 13.9271 50.9989 18.0418 49.5677 23.5097C49.3896 24.1849 48.0644 26.3786 48.5711 26.7737C48.7927 26.9457 51.2095 26.1164 51.8864 26.0266C57.0517 25.336 58.4427 27.9632 61.8135 31.0987L67.2405 33.0225C62.1817 32.9148 58.9005 32.6022 55.056 36.3939C53.4723 37.9536 53.885 38.9345 53.1833 40.753C52.2401 43.1955 51.4107 44.1907 49.3493 45.8107C48.6315 46.3784 44.8721 48.4639 44.8946 48.7309C44.9114 48.8819 46.3181 50.284 45.0071 51.4347L44.2332 49.3506C40.1995 50.9204 43.1391 50.8267 43.5834 51.5711C43.7884 51.9197 43.4051 52.8944 43.6063 53.4037C42.6506 53.2623 42.7424 51.8757 41.8795 51.6585C41.0166 51.4413 40.3746 52.4302 40.2546 52.327C39.8297 51.9519 40.9837 50.9497 40.8034 50.8241C40.5215 50.6297 35.5568 52.9948 34.3832 53.3C31.8329 53.9694 28.8219 54.071 26.3073 54.6054C21.47 55.6455 20.3807 57.0993 14.7711 56.0697C13.7599 55.8835 12.1054 55.31 13.7207 54.5552C16.2372 53.387 19.5597 52.7701 22.2129 51.7907C22.2386 51.1761 21.3127 51.4975 20.9381 51.5756C20.0557 51.7683 19.2506 52.2656 18.3061 52.2249L21.3404 50.4458C19.926 50.3408 17.6722 51.5307 16.6474 50.2464C20.6156 49.2592 24.7513 49.2583 28.6049 47.8251L28.1295 46.8001C29.3635 46.7139 30.7292 46.5112 31.5872 45.5128C31.856 45.1989 33.9111 40.7904 33.9093 40.5139C33.9079 38.8755 30.1592 38.5202 29.2242 37.459C28.8032 36.9887 28.8209 36.3022 28.5103 35.9144C27.9653 35.2394 25.9519 33.4533 25.6642 32.9463C25.4321 32.5498 26.2008 32.1148 26.0719 31.6703C25.9262 31.1403 24.43 30.8842 24.0143 30.1367C23.7433 29.6497 24.0999 29.0202 23.7637 28.4677C23.4888 28.0104 22.4145 27.4525 21.8655 26.7416C19.3429 23.4318 17.4677 19.7004 16.7319 15.6823C16.4202 13.9837 16.277 12.6305 15.9645 10.9248C15.7022 9.47562 15.8359 8.9874 16.944 10.1095C20.1228 13.3391 22.6414 17.6544 26.7863 20.143C30.1808 22.1908 35.1213 23.12 38.6547 25.1814C40.1396 26.0505 42.5645 29.393 43.9587 29.1215C45.4664 28.8302 44.3794 27.2469 44.3359 26.3997C44.2125 23.9884 44.7377 18.9562 45.3931 16.7205L45.4081 16.7261Z" fill="#730815"/>
</g>
</g>
<defs>
<filter id="filter0_d_0_1455" x="-22.4558" y="-22.7765" width="125.203" height="118.698" filterUnits="userSpaceOnUse" color-interpolation-filters="sRGB">
<feFlood flood-opacity="0" result="BackgroundImageFix"/>
<feColorMatrix in="SourceAlpha" type="matrix" values="0 0 0 0 0 0 0 0 0 0 0 0 0 0 0 0 0 0 127 0" result="hardAlpha"/>
<feOffset dy="4"/>
<feGaussianBlur stdDeviation="17.75"/>
<feComposite in2="hardAlpha" operator="out"/>
<feColorMatrix type="matrix" values="0 0 0 0 0 0 0 0 0 0 0 0 0 0 0 0 0 0 0.2 0"/>
<feBlend mode="normal" in2="BackgroundImageFix" result="effect1_dropShadow_0_1455"/>
<feBlend mode="normal" in="SourceGraphic" in2="effect1_dropShadow_0_1455" result="shape"/>
</filter>
<clipPath id="clip0_0_1455">
<rect width="64.4081" height="61.0349" fill="white" transform="translate(4 7.11481) rotate(-6.34209)"/>
</clipPath>
</defs>
</svg>
