<svg width="274" height="108" viewBox="0 0 274 108" fill="none" xmlns="http://www.w3.org/2000/svg">
<g clip-path="url(#clip0_0_2075)">
<path d="M273.687 72.6914C273.49 73.6846 273.208 74.6495 272.84 75.5757L272.724 75.6426L261.494 69.1973L264.546 67.4452L273.687 72.6889V72.6914ZM265.064 84.1771C266.161 83.6059 267.184 82.9138 268.116 82.1265V74.1889L265.064 72.4367V84.1771ZM272.587 62.8344L269.672 64.5068L273.783 66.8662C273.555 65.4511 273.148 64.1003 272.587 62.8344ZM268.636 65.1012L265.584 66.8534L273.868 71.6082C274.008 70.5096 274.039 69.38 273.951 68.2325C273.951 68.2042 273.943 68.1759 273.943 68.145L268.639 65.1012H268.636ZM259.423 69.1973L248.193 62.7521L245.141 64.5043L256.371 70.9495L259.423 69.1973ZM252.281 73.2961L255.333 71.5439L244.103 65.0986L241.051 66.8508L252.281 73.2961ZM251.245 73.8904L240.015 67.4452L236.963 69.1973L248.193 75.6426L251.245 73.8904ZM251.763 63.614V53.9114C250.813 54.2485 249.902 54.6601 249.042 55.1541C248.933 55.0229 248.822 54.8943 248.711 54.7656V61.8618L251.763 63.614ZM255.853 53.0726L255.783 53.034C254.755 53.1292 253.759 53.317 252.798 53.5872V64.2084L255.851 65.9606V53.0726H255.853ZM259.941 55.4191L256.889 53.667V66.5549L259.941 68.3071V55.4191ZM260.976 64.8027V68.3071L272.141 61.9004C271.67 60.9948 271.114 60.1405 270.49 59.3455L260.976 64.8053V64.8027ZM260.976 63.614L269.819 58.5401C269.113 57.7451 268.328 57.0221 267.484 56.3763L260.979 60.1097V63.614H260.976ZM260.976 58.9235L266.555 55.7228C265.551 55.0589 264.476 54.5006 263.34 54.0632L260.976 55.4191V58.9235ZM262.035 53.6232C260.658 53.2218 259.213 52.9903 257.725 52.9594L260.458 54.5289L262.035 53.6258V53.6232ZM248.711 94.3661C249.405 93.7331 250.044 93.041 250.621 92.3025L248.711 91.2065V94.3661ZM262.731 85.1754L260.458 83.8709L257.406 85.6231L258.134 86.0399C258.299 86.0322 258.463 86.0245 258.628 86.0117C260.06 85.901 261.434 85.6154 262.731 85.1754ZM252.281 88.5615L249.229 90.3136L251.232 91.4638C251.804 90.6275 252.301 89.7424 252.713 88.811L252.281 88.564V88.5615ZM264.028 84.6686V71.8424L260.976 70.0902V82.9781L263.966 84.6943C263.987 84.6866 264.008 84.6763 264.028 84.6686ZM269.154 74.7832V81.1745C270.381 79.9472 271.417 78.5346 272.206 76.9831V76.5354L269.154 74.7832ZM253.738 85.6694C254.116 85.7518 254.499 85.8212 254.885 85.8804L259.941 82.9781V79.4738L248.711 85.919V89.4234L253.479 86.6858C253.575 86.3513 253.663 86.0116 253.738 85.6694ZM259.941 74.7832L248.711 81.2285V84.7329L259.941 78.2876V74.7832ZM248.711 80.0372L259.941 73.592V70.0876L248.711 76.5329V80.0372ZM240.533 85.3247L243.585 87.0769V74.1889L240.533 72.4367V85.3247ZM235.407 73.5945V70.0902L224.177 76.5354V80.0398L235.407 73.5945ZM227.75 73.2961L230.802 71.5439L219.572 65.0986L216.52 66.8508L223.662 70.9495L227.75 73.2961ZM226.714 73.8904L223.662 72.1382L215.484 67.4452L212.432 69.1973L223.662 75.6426L226.714 73.8904ZM227.232 63.614V51.6986C226.114 52.4088 225.091 53.2424 224.18 54.1867V61.8618L227.232 63.614ZM231.32 53.0726L228.268 51.3204V64.2084L231.32 65.9606V53.0726ZM235.407 55.4191L232.355 53.667V66.5549L235.407 68.3071V55.4191ZM247.675 58.3575L236.445 64.8027V68.3071L247.675 61.8618V58.3575ZM236.443 63.614L247.673 57.1688V53.6927C247.673 53.6927 247.66 53.6824 247.655 53.6747L236.443 60.1097V63.614ZM236.443 58.9235L246.842 52.9568C245.972 52.2364 245.03 51.6009 244.028 51.0683L236.443 55.4191V58.9235ZM234.892 49.1591C234.851 49.1617 234.809 49.1669 234.768 49.172L240.015 52.1824L242.907 50.5228C240.468 49.4473 237.737 48.9404 234.892 49.1591ZM238.98 52.7741L233.09 49.3958C231.711 49.6531 230.393 50.0777 229.163 50.6463L235.925 54.5263L238.977 52.7741H238.98ZM224.177 96.5788C224.941 95.9253 225.648 95.2074 226.282 94.4304C226.588 94.7057 226.906 94.9655 227.23 95.2151V92.9561L224.177 91.2039V96.5762V96.5788ZM228.268 95.9639C229.223 96.5942 230.245 97.1268 231.32 97.5514V95.3052L228.268 93.553V95.9639ZM232.355 95.8995V97.9193C233.339 98.2358 234.359 98.4648 235.407 98.5934V97.6517L232.355 95.8995ZM238.744 98.6706C239.72 98.596 240.67 98.4365 241.587 98.2049L247.675 94.7108V91.2065L236.445 97.6517V98.686C237.201 98.7324 237.968 98.7298 238.744 98.6706ZM247.158 90.3136L235.928 83.8684L232.876 85.6206L244.105 92.0658L247.158 90.3136ZM243.067 92.6602L231.837 86.2149L228.785 87.9671L240.015 94.4124L243.067 92.6602ZM238.98 95.0067L227.75 88.5615L224.698 90.3136L235.928 96.7589L238.98 95.0067ZM239.498 71.8424L236.445 70.0902V82.9781L239.498 84.7303V71.8424ZM247.675 76.5354L244.623 74.7832V87.6712L247.675 89.4234V76.5354ZM235.407 79.4738L224.177 85.919V89.4234L235.407 82.9781V79.4738ZM235.407 74.7832L224.177 81.2285V84.7329L235.407 78.2876V74.7832ZM216 85.3247L219.052 87.0769V74.1889L216 72.4367V85.3247ZM220.608 64.5068L231.837 70.9521L234.89 69.1999L223.66 62.7547L220.608 64.5068ZM210.877 73.5945V70.0902L199.647 76.5354V80.0398L210.877 73.5945ZM203.217 73.2961L206.269 71.5439L195.039 65.0986L191.987 66.8508L203.217 73.2961ZM190.951 67.4477L187.899 69.1999L199.129 75.6452L202.181 73.893L190.951 67.4477ZM202.699 63.614V54.6704C201.852 53.335 200.822 52.1335 199.647 51.094V61.8618L202.699 63.614ZM206.786 55.1155C205.725 55.3548 204.702 55.6945 203.734 56.1216V64.2084L206.786 65.9606V55.1155ZM207.822 54.9148V66.5549L210.874 68.3071V55.4191L209.665 54.727C209.512 54.7347 209.357 54.7399 209.204 54.7502C208.736 54.7862 208.275 54.8428 207.819 54.9148H207.822ZM223.142 58.3575L211.912 64.8027V68.3071L223.142 61.8618V58.3575ZM223.142 57.1713V55.3651C222.433 56.2528 221.817 57.2125 221.301 58.2288L223.142 57.1713ZM211.912 63.614L220.986 58.4089C220.1 57.6936 219.142 57.071 218.125 56.5461L211.912 60.1097V63.614ZM211.912 58.9235L216.983 56.0135C215.684 55.4629 214.301 55.0769 212.865 54.8737L211.912 55.4217V58.9261V58.9235ZM199.647 100.984C200.85 99.7152 201.855 98.2615 202.608 96.674C202.637 96.6997 202.67 96.7229 202.699 96.746V92.9586L199.647 91.2065V100.986V100.984ZM203.734 97.5359C204.684 98.2049 205.707 98.7761 206.786 99.2367V95.3052L203.734 93.553V97.5359ZM207.822 95.8995V99.638C208.803 99.9828 209.826 100.235 210.874 100.392V97.6543L207.822 95.9021V95.8995ZM223.142 97.397V95.8995L215.182 100.467C218.159 100.14 220.872 99.0437 223.142 97.397ZM223.142 94.7108V91.2065L211.912 97.6517V100.51C212.251 100.539 212.59 100.562 212.932 100.569L223.142 94.7108ZM222.624 90.3136L211.394 83.8684L208.342 85.6206L219.572 92.0658L222.624 90.3136ZM218.537 92.6602L207.307 86.2149L204.255 87.9671L215.484 94.4124L218.537 92.6602ZM214.446 95.0067L203.217 88.5615L200.164 90.3136L211.394 96.7589L214.446 95.0067ZM214.964 71.8424L211.912 70.0902V82.9781L214.964 84.7303V71.8424ZM223.142 76.5354L220.09 74.7832V87.6712L223.142 89.4234V76.5354ZM210.877 79.4738L199.647 85.919V89.4234L210.877 82.9781V79.4738ZM210.877 74.7832L199.647 81.2285V84.7329L210.877 78.2876V74.7832ZM171.655 31.7248L174.596 33.4126L176.061 32.5713C174.66 32.0978 173.182 31.8097 171.655 31.7248ZM187.379 82.9781L190.431 84.7303V71.8424L187.379 70.0902V82.9781ZM191.469 85.3247L194.521 87.0769V74.1889L191.469 72.4367V85.3247ZM195.556 87.6712L198.609 89.4234V76.5354L195.556 74.7832V87.6712ZM196.074 64.5068L207.304 70.9521L210.356 69.1999L199.126 62.7547L196.074 64.5068ZM178.683 73.2961L181.735 71.5439L170.505 65.0986L167.453 66.8508L178.683 73.2961ZM177.648 73.8904L166.418 67.4452L163.366 69.1973L174.596 75.6426L177.648 73.8904ZM175.113 61.8618L178.165 63.614V50.7261L175.113 48.9739V61.8618ZM182.256 65.9606V53.0726L179.203 51.3204V64.2084L182.256 65.9606ZM186.343 55.4191L183.291 53.667V66.5549L186.343 68.3071V55.4191ZM198.611 58.3575L187.381 64.8027V68.3071L198.611 61.8618V58.3575ZM187.379 63.614L198.609 57.1688V53.6644L187.379 60.1097V63.614ZM187.379 55.4191V58.9235L198.609 52.4783V50.2526C198.282 50.0082 197.946 49.7741 197.599 49.5528L187.376 55.4191H187.379ZM187.094 45.2765C186.889 44.1522 186.571 43.0715 186.152 42.0449L183.806 43.3906L187.094 45.2765ZM196.582 48.9482C194.612 47.8752 192.406 47.1882 190.079 46.985L195.041 49.8332L196.584 48.9482H196.582ZM179.719 45.7371L190.949 52.1824L194.001 50.4302L187.915 46.9387C187.715 46.9464 187.513 46.9567 187.311 46.9721C187.301 46.8358 187.283 46.702 187.27 46.5682L182.771 43.9849L179.719 45.7371ZM189.916 52.7741L178.686 46.3289L175.634 48.0811L186.864 54.5263L189.916 52.7741ZM175.113 47.1908L185.732 41.098C185.29 40.1769 184.764 39.3047 184.166 38.4916L175.113 43.6864V47.1908ZM175.113 42.4977L183.521 37.6734C182.846 36.8655 182.092 36.1219 181.277 35.4581L175.113 38.9959V42.5003V42.4977ZM175.113 34.3029V37.8072L180.389 34.7789C179.429 34.097 178.396 33.5155 177.303 33.0473L175.116 34.3029H175.113ZM175.113 100.636C176.019 101.642 177.044 102.535 178.165 103.297V92.9586L175.113 91.2065V100.636ZM179.201 103.945C180.164 104.501 181.186 104.961 182.253 105.319V95.3052L179.201 93.553V103.945ZM183.291 95.8995V105.625C184.28 105.885 185.3 106.055 186.343 106.13V97.6517L183.291 95.8995ZM198.611 100.59L188.997 106.106C192.704 105.785 196.025 104.275 198.611 101.982V100.587V100.59ZM198.611 95.8995L187.381 102.345V105.849L198.611 99.4039V95.8995ZM187.379 101.154L198.609 94.7083V91.2039L187.379 97.6491V101.154ZM195.039 92.0658L198.091 90.3136L186.861 83.8684L183.809 85.6206L195.039 92.0658ZM194.003 92.6602L182.773 86.2149L179.721 87.9671L190.951 94.4124L194.003 92.6602ZM189.916 95.0067L178.686 88.5615L175.634 90.3136L186.864 96.7589L189.916 95.0067ZM186.343 79.4738L175.113 85.919V89.4234L186.343 82.9781V79.4738ZM186.343 74.7832L175.113 81.2285V84.7329L186.343 78.2876V74.7832ZM175.113 76.5354V80.0398L186.343 73.5945V70.0902L175.113 76.5354ZM171.026 45.4386L174.078 47.1908V34.3029L171.026 32.5507V45.4386ZM166.936 85.3247L169.988 87.0769V74.1889L166.936 72.4367V85.3247ZM171.543 64.5068L182.773 70.9521L185.825 69.1999L174.596 62.7547L171.543 64.5068ZM161.812 73.5945V70.0902L150.583 76.5354V80.0398L161.812 73.5945ZM154.152 73.2961L157.204 71.5439L145.975 65.0986L142.922 66.8508L154.152 73.2961ZM153.117 73.8904L141.887 67.4452L138.835 69.1973L150.065 75.6426L153.117 73.8904ZM150.58 48.9739V61.8618L153.632 63.614V50.7261L150.58 48.9739ZM154.67 51.3204V64.2084L157.722 65.9606V53.0726L154.67 51.3204ZM161.812 55.4191L158.76 53.667V66.5549L161.812 68.3071V55.4191ZM174.078 58.3575L162.848 64.8027V68.3071L174.078 61.8618V58.3575ZM162.848 63.614L174.078 57.1688V53.6644L162.848 60.1097V63.614ZM174.078 48.9739L162.848 55.4191V58.9235L174.078 52.4783V48.9739ZM159.275 43.3906L170.505 49.8358L173.557 48.0836L162.328 41.6384L159.275 43.3906ZM155.188 45.7371L166.418 52.1824L169.47 50.4302L158.24 43.9849L155.188 45.7371ZM165.382 52.7741L154.152 46.3289L151.1 48.0811L162.33 54.5263L165.382 52.7741ZM162.848 40.7456L165.9 42.4977V32.4014C164.831 32.7205 163.808 33.145 162.848 33.6571V40.7456ZM169.99 31.9563L169.604 31.735C169.545 31.7402 169.488 31.7402 169.428 31.7453C168.577 31.8097 167.746 31.946 166.938 32.1313V43.0947L169.99 44.8469V31.9589V31.9563ZM161.812 37.2412L150.583 43.6864V47.1908L161.812 40.7456V37.2412ZM157.054 38.785L161.812 36.055V34.2617C159.933 35.4453 158.318 36.9865 157.054 38.785ZM150.58 42.4977L156.873 38.8853C155.695 38.4093 154.442 37.959 153.117 37.5371L150.577 38.9934V42.4977H150.58ZM150.58 37.8072L151.771 37.1228C151.38 37.007 150.981 36.8938 150.58 36.7832V37.8047V37.8072ZM150.58 103.487C150.774 103.479 150.971 103.467 151.165 103.454C152.009 103.389 152.832 103.258 153.632 103.076V92.9586L150.58 91.2065V103.487ZM154.67 102.805C155.739 102.486 156.759 102.064 157.722 101.552V95.3052L154.67 93.553V102.805ZM158.758 95.8995V100.958C159.713 100.358 160.601 99.6689 161.409 98.8996C161.543 98.915 161.678 98.9253 161.812 98.9408V97.6543L158.76 95.9021L158.758 95.8995ZM174.078 99.3576V95.897L172.53 96.7846C172.97 97.6929 173.488 98.5523 174.078 99.3576ZM164.779 98.9742C165.654 98.9073 166.506 98.7735 167.334 98.5806L174.078 94.7108V91.2065L162.848 97.6517V99.0102C163.485 99.0334 164.129 99.0257 164.779 98.9768V98.9742ZM173.56 90.3136L162.33 83.8684L159.278 85.6206L170.508 92.0658L173.56 90.3136ZM169.472 92.6602L158.243 86.2149L155.19 87.9671L166.42 94.4124L169.472 92.6602ZM165.382 95.0067L154.152 88.5615L151.1 90.3136L162.33 96.7589L165.382 95.0067ZM165.9 71.8424L162.848 70.0902V82.9781L165.9 84.7303V71.8424ZM174.078 76.5354L171.026 74.7832V87.6712L174.078 89.4234V76.5354ZM161.812 79.4738L150.583 85.919V89.4234L161.812 82.9781V79.4738ZM161.812 74.7832L150.583 81.2285V84.7329L161.812 78.2876V74.7832ZM148.291 32.3937C146.658 29.4708 144.168 27.1089 141.18 25.6191L138.832 26.9674L148.291 32.3963V32.3937ZM133.709 28.717L136.761 26.9648L131.605 24.0059C130.134 24.1937 128.729 24.5668 127.411 25.1045L133.707 28.717H133.709ZM124.201 26.8464C123.626 25.5239 122.881 24.2992 122 23.1877L121.444 22.8686L118.392 24.6208L129.622 31.0661L132.674 29.3139L126.256 25.632C125.539 25.9896 124.853 26.3962 124.201 26.849V26.8464ZM117.354 25.2152L114.302 26.9674L125.531 33.4126L128.584 31.6604L117.354 25.2152ZM137.279 24.2503C136.288 24.0367 135.268 23.9081 134.227 23.8798V24.3223L137.279 26.0745V24.2503ZM140.018 25.0968C139.464 24.8704 138.894 24.6723 138.315 24.5076V26.0745L140.018 25.0968ZM142.405 85.3247L145.457 87.0769V74.1889L142.405 72.4367V85.3247ZM147.01 64.5068L158.24 70.9521L161.292 69.1999L150.062 62.7547L147.01 64.5068ZM137.279 73.5945V70.0902L126.049 76.5354V80.0398L137.279 73.5945ZM129.619 73.2961L132.671 71.5439L121.441 65.0986L118.389 66.8508L129.619 73.2961ZM128.584 73.8904L117.354 67.4452L114.302 69.1973L125.531 75.6426L128.584 73.8904ZM126.049 61.8618L129.101 63.614V50.7261L126.049 48.9739V61.8618ZM133.191 65.9606V53.0726L130.139 51.3204V64.2084L133.191 65.9606ZM137.279 68.3071V55.4191L134.227 53.667V66.5549L137.279 68.3071ZM149.544 58.3575L138.315 64.8027V68.3071L149.544 61.8618V58.3575ZM138.315 63.614L149.544 57.1688V53.6644L138.315 60.1097V63.614ZM138.315 58.9235L149.544 52.4783V48.9739L138.315 55.4191V58.9235ZM134.745 43.3906L145.975 49.8358L149.027 48.0836L137.797 41.6384L134.745 43.3906ZM130.654 45.7371L141.884 52.1824L144.936 50.4302L133.707 43.9849L130.654 45.7371ZM140.852 52.7741L129.622 46.3289L126.569 48.0811L137.799 54.5263L140.852 52.7741ZM138.315 40.7456L141.367 42.4977V29.6098L138.315 27.8576V40.7456ZM145.457 31.9563L142.405 30.2041V43.0921L145.457 44.8443V31.9563ZM149.544 35.2446C149.41 34.8355 149.257 34.4367 149.091 34.043L146.49 32.5507V45.4386L149.542 47.1908V35.242L149.544 35.2446ZM126.049 47.1908L137.279 40.7456V37.2412L126.049 43.6864V47.1908ZM126.049 38.9934V42.4977L137.279 36.0525V32.5481L126.049 38.9934ZM126.049 34.3029V37.8072L137.279 31.362V27.8576L126.049 34.3029ZM126.049 94.3274C127.025 94.7417 128.048 95.0659 129.101 95.2897V92.9612L126.049 91.209V94.33V94.3274ZM130.137 95.4724C131.131 95.6191 132.151 95.6757 133.189 95.6371V95.3052L130.137 93.553V95.475V95.4724ZM137.09 97.5411C137.152 97.6157 137.217 97.6903 137.282 97.7649V97.6491L137.09 97.5411ZM149.544 100.59L145.49 102.916C146.79 103.268 148.149 103.469 149.544 103.495V100.587V100.59ZM149.544 95.8995L140.877 100.873C141.9 101.529 142.998 102.075 144.152 102.497L149.542 99.4039V95.8995H149.544ZM149.544 94.7108V91.2065L138.315 97.6517V98.8533C138.827 99.3447 139.368 99.8001 139.938 100.225L149.544 94.7108ZM149.027 90.3136L137.797 83.8684L134.745 85.6206L145.975 92.0658L149.027 90.3136ZM144.939 92.6602L133.709 86.2149L130.657 87.9671L141.887 94.4124L144.939 92.6602ZM140.852 95.0067L129.622 88.5615L126.569 90.3136L135.436 95.4004C135.475 95.3927 135.516 95.3901 135.555 95.3824C135.581 95.4287 135.612 95.4724 135.638 95.5162L137.799 96.7563L140.852 95.0041V95.0067ZM141.369 71.8424L138.317 70.0902V82.9781L141.369 84.7303V71.8424ZM149.544 76.5354L146.492 74.7832V87.6712L149.544 89.4234V76.5354ZM137.279 79.4738L126.049 85.919V89.4234L137.279 82.9781V79.4738ZM137.279 74.7832L126.049 81.2285V84.7329L137.279 78.2876V74.7832ZM113.784 40.7456L116.836 42.4977V29.6098L113.784 27.8576V40.7456ZM117.871 43.0921L120.923 44.8443V31.9563L117.871 30.2041V43.0921ZM121.959 45.4386L125.011 47.1908V34.3029L121.959 32.5507V45.4386ZM104.57 17.4474C103.504 17.733 102.484 18.1189 101.518 18.5975V19.6318L104.57 21.384V17.45V17.4474ZM108.658 16.8762C108.319 16.8813 107.977 16.8942 107.633 16.9199C106.942 16.974 106.266 17.0717 105.603 17.2055V21.9758L108.656 23.728V16.8762H108.658ZM112.748 17.3136C111.759 17.082 110.739 16.9354 109.696 16.8891V24.3223L112.748 26.0745V17.3136ZM118.477 19.8763L113.781 22.5702V26.0745L120.931 21.9707C120.183 21.1962 119.36 20.4938 118.475 19.8763H118.477ZM113.784 17.8797V21.384L117.506 19.2485C116.442 18.6104 115.303 18.0855 114.107 17.6944L113.784 17.8797ZM117.871 85.3247L120.923 87.0769V74.1889L117.871 72.4367V85.3247ZM121.959 87.6712L125.011 89.4234V76.5354L121.959 74.7832V87.6712ZM122.477 64.5068L133.707 70.9521L136.759 69.1999L125.529 62.7547L122.477 64.5068ZM105.088 73.2961L108.14 71.5439L96.9104 65.0986L93.8583 66.8508L105.088 73.2961ZM104.053 73.8904L92.8228 67.4452L89.7707 69.1973L101.001 75.6426L104.053 73.8904ZM101.516 61.8618L104.568 63.614V50.7261L101.516 48.9739V61.8618ZM108.658 65.9606V53.0726L105.606 51.3204V64.2084L108.658 65.9606ZM112.748 55.4191L109.696 53.667V66.5549L112.748 68.3071V55.4191ZM125.014 58.3575L113.784 64.8027V68.3071L125.014 61.8618V58.3575ZM125.014 53.667L113.784 60.1122V63.6166L125.014 57.1713V53.667ZM125.014 48.9739L113.784 55.4191V58.9235L125.014 52.4783V48.9739ZM110.211 43.3906L121.441 49.8358L124.493 48.0836L113.263 41.6384L110.211 43.3906ZM106.124 45.7371L117.354 52.1824L120.406 50.4302L109.176 43.9849L106.124 45.7371ZM116.318 52.7741L105.088 46.3289L102.036 48.0811L113.266 54.5263L116.318 52.7741ZM101.516 47.1908L112.746 40.7456V37.2412L101.516 43.6864V47.1908ZM101.516 38.9934V42.4977L112.746 36.0525V32.5481L101.516 38.9934ZM101.516 34.3029V37.8072L112.746 31.362V27.8576L101.516 34.3029ZM101.516 102.857C102.479 103.402 103.501 103.853 104.568 104.197V92.9561L101.516 91.2039V102.854V102.857ZM105.606 104.498C106.595 104.751 107.615 104.913 108.658 104.977V95.3052L105.606 93.553V104.498ZM109.694 95.8995V105.013C110.128 105.013 110.569 104.998 111.011 104.964C111.599 104.918 112.179 104.841 112.748 104.738V97.6517L109.696 95.8995H109.694ZM124.426 96.2366L113.784 102.342V104.511C118.433 103.356 122.254 100.281 124.426 96.234V96.2366ZM125.014 91.2065L113.784 97.6517V101.156L125.014 94.7108V91.2065ZM124.496 90.3136L113.266 83.8684L110.214 85.6206L121.444 92.0658L124.496 90.3136ZM120.406 92.6602L109.176 86.2149L106.124 87.9671L117.354 94.4124L120.406 92.6602ZM116.318 95.0067L105.088 88.5615L102.036 90.3136L113.266 96.7589L116.318 95.0067ZM116.836 71.8424L113.784 70.0902V82.9781L116.836 84.7303V71.8424ZM112.748 79.4738L101.518 85.919V89.4234L112.748 82.9781V79.4738ZM112.748 74.7832L101.518 81.2285V84.7329L112.748 78.2876V74.7832ZM101.516 76.5354V80.0398L112.746 73.5945V70.0902L101.516 76.5354ZM89.2504 40.7456L92.3025 42.4977V29.6098L89.2504 27.8576V40.7456ZM97.4282 45.4386L100.48 47.1908V34.3029L97.4282 32.5507V45.4386ZM97.9459 22.2743L109.176 28.7195L112.228 26.9674L100.998 20.5221L97.9459 22.2743ZM93.8583 24.6208L105.088 31.0661L108.14 29.3139L96.9104 22.8686L93.8583 24.6208ZM89.7681 26.9674L100.998 33.4126L104.05 31.6604L92.8203 25.2152L89.7681 26.9674ZM76.985 38.9934V42.4977L88.2149 36.0525V32.5481L76.985 38.9934ZM68.2895 25.2152L65.2374 26.9674L76.4673 33.4126L79.5194 31.6604L68.2895 25.2152ZM76.985 19.6293L80.0371 21.3815V8.4935L76.985 6.74131V19.6293ZM84.1273 23.728V10.84L81.0752 9.08785V21.9758L84.1273 23.728ZM85.1628 24.3223L88.2149 26.0745V13.6497C88.0078 13.6677 87.8033 13.6883 87.5988 13.714C87.4486 13.3178 87.283 12.9293 87.1018 12.5485L85.1628 11.4344V24.3223ZM89.2504 22.5702V26.0745L100.48 19.6293V17.6712C100.118 17.3573 99.7425 17.0563 99.3516 16.7733L89.2478 22.5702H89.2504ZM95.075 14.5348L89.2504 17.8771V21.3815L98.399 16.1326C97.3609 15.4842 96.2477 14.9465 95.075 14.5348ZM89.2504 16.6909L93.7237 14.1231C92.2922 13.7552 90.7907 13.5699 89.2504 13.5982V16.6909ZM86.1543 10.8143C84.5208 8.21047 82.1858 6.10579 79.4314 4.74212L77.5028 5.84849L86.1543 10.8143ZM78.269 4.22238C77.8497 4.05257 77.4199 3.90076 76.985 3.7644V4.96082L78.269 4.22496V4.22238ZM93.3406 85.3247L96.3927 87.0769V74.1889L93.3406 72.4367V85.3247ZM97.9459 64.5068L109.176 70.9521L112.228 69.1999L100.998 62.7547L97.9459 64.5068ZM88.2149 73.5945V70.0902L76.985 76.5354V80.0398L88.2149 73.5945ZM80.5549 73.2961L83.607 71.5439L72.3771 65.0986L69.325 66.8508L80.5549 73.2961ZM79.5194 73.8904L68.2895 67.4452L65.2374 69.1973L76.4673 75.6426L79.5194 73.8904ZM76.985 48.9739V61.8618L80.0371 63.614V50.7261L76.985 48.9739ZM81.0726 51.3204V64.2084L84.1247 65.9606V53.0726L81.0726 51.3204ZM88.2149 55.4191L85.1628 53.667V66.5549L88.2149 68.3071V55.4191ZM100.48 58.3575L89.2504 64.8027V68.3071L100.48 61.8618V58.3575ZM100.48 53.667L89.2504 60.1122V63.6166L100.48 57.1713V53.667ZM89.2504 58.9235L100.48 52.4783V48.9739L89.2504 55.4191V58.9235ZM85.6806 43.3906L96.9104 49.8358L99.9626 48.0836L88.7327 41.6384L85.6806 43.3906ZM81.5904 45.7371L92.8203 52.1824L95.8724 50.4302L84.6425 43.9849L81.5904 45.7371ZM91.7874 52.7741L80.5574 46.3289L77.5053 48.0811L88.7352 54.5263L91.7874 52.7741ZM96.3927 31.9563L93.3406 30.2041V43.0921L96.3927 44.8443V31.9563ZM88.2149 37.2412L76.985 43.6864V47.1908L88.2149 40.7456V37.2412ZM76.985 34.3029V37.8072L88.2149 31.362V27.8576L76.985 34.3029ZM76.985 95.8918C77.9428 96.4887 78.9654 96.9905 80.0371 97.3841V92.9561L76.985 91.2039V95.8918ZM81.0726 97.7289C82.0589 98.0196 83.0789 98.2229 84.1247 98.3258V95.3052L81.0726 93.553V97.7289ZM85.1628 95.8995V98.3979C85.797 98.421 86.4365 98.4133 87.0862 98.3619C87.4668 98.3336 87.8447 98.2898 88.2175 98.2358V97.6517L85.1654 95.8995H85.1628ZM100.48 100.59L99.2325 101.305C99.6338 101.63 100.048 101.936 100.48 102.221V100.59ZM100.48 95.8995L96.328 98.2821C96.9493 99.1157 97.6456 99.8902 98.4067 100.593L100.48 99.4013V95.897V95.8995ZM95.7352 97.433L100.48 94.7108V91.2065L89.2504 97.6517V98.0531C91.2644 97.6311 93.1335 96.8541 94.7955 95.7915C95.0776 96.3601 95.3934 96.9081 95.7352 97.4356V97.433ZM99.9626 90.3136L88.7327 83.8684L85.6806 85.6206L96.9104 92.0658L99.9626 90.3136ZM95.875 92.6602L84.6451 86.2149L81.5929 87.9671L92.8228 94.4124L95.875 92.6602ZM91.7874 95.0067L80.5574 88.5615L77.5053 90.3136L88.7352 96.7589L91.7874 95.0067ZM92.3051 71.8424L89.253 70.0902V82.9781L92.3051 84.7303V71.8424ZM100.48 76.5354L97.4282 74.7832V87.6712L100.48 89.4234V76.5354ZM88.2149 79.4738L76.985 85.919V89.4234L88.2149 82.9781V79.4738ZM88.2149 74.7832L76.985 81.2285V84.7329L88.2149 78.2876V74.7832ZM64.7196 40.7456L67.7717 42.4977V29.6098L64.7196 27.8576V40.7456ZM72.8948 45.4386L75.9469 47.1908V34.3029L72.8948 32.5507V45.4386ZM73.4126 22.2743L84.6425 28.7195L87.6946 26.9674L76.4647 20.5221L73.4126 22.2743ZM72.3771 22.8686L69.325 24.6208L80.5549 31.0661L83.607 29.3139L72.3771 22.8686ZM43.7561 25.2152L40.704 26.9674L51.9339 33.4126L54.986 31.6604L43.7561 25.2152ZM52.4517 19.6293L55.5038 21.3815V8.4935L52.4517 6.74131V19.6293ZM59.5939 23.728V10.84L56.5418 9.08785V21.9758L59.5939 23.728ZM63.6841 13.1866L60.632 11.4344V24.3223L63.6841 26.0745V13.1866ZM75.9495 16.1275L64.7196 22.5727V26.0771L75.9495 19.6318V16.1275ZM75.9495 11.4344L64.7196 17.8797V21.384L75.9495 14.9388V11.4344ZM64.7196 16.6909L75.9495 10.2457V6.74131L64.7196 13.1866V16.6909ZM72.3771 7.60325L75.4292 5.85107L70.5934 3.07484C69.0531 3.20606 67.5776 3.54312 66.1952 4.05514L72.3771 7.60325ZM68.2895 9.94722L71.3416 8.19503L64.994 4.5543C64.2847 4.88363 63.6013 5.25671 62.9541 5.67611C61.8177 4.38448 60.4871 3.27296 59.0089 2.38272L57.057 3.50195L68.2869 9.94722H68.2895ZM67.254 10.5416L56.0241 4.09631L52.972 5.84849L64.2019 12.2938L67.254 10.5416ZM72.8948 3.20606L75.9469 4.95825V3.4788C74.958 3.23951 73.9381 3.08771 72.8948 3.03368V3.20606ZM52.4517 4.95825L57.9553 1.80123C56.78 1.20687 55.5296 0.746314 54.2223 0.440132L52.4542 1.45645V4.96082L52.4517 4.95825ZM52.6536 0.149387C52.5863 0.139095 52.519 0.133949 52.4517 0.123657V0.26517L52.6536 0.149387ZM68.8072 85.3247L71.8593 87.0769V74.1889L68.8072 72.4367V85.3247ZM73.4126 64.5068L84.6425 70.9521L87.6946 69.1999L76.4647 62.7547L73.4126 64.5068ZM63.1664 69.1973L51.9365 62.7521L48.8844 64.5043L60.1143 70.9495L63.1664 69.1973ZM59.0762 71.5439L47.8463 65.0986L44.7942 66.8508L56.0241 73.2961L59.0762 71.5439ZM54.9886 73.8904L43.7587 67.4452L40.7066 69.1973L51.9365 75.6426L54.9886 73.8904ZM52.4517 48.9739V61.8618L55.5038 63.614V50.7261L52.4517 48.9739ZM56.5418 51.3204V64.2084L59.5939 65.9606V53.0726L56.5418 51.3204ZM63.6841 55.4191L60.632 53.667V66.5549L63.6841 68.3071V55.4191ZM75.9495 58.3575L64.7196 64.8027V68.3071L75.9495 61.8618V58.3575ZM64.7196 63.614L75.9495 57.1688V53.6644L64.7196 60.1097V63.614ZM64.7196 58.9235L75.9495 52.4783V48.9739L64.7196 55.4191V58.9235ZM61.1472 43.3906L72.3771 49.8358L75.4292 48.0836L64.1993 41.6384L61.1472 43.3906ZM57.0596 45.7371L68.2895 52.1824L71.3416 50.4302L60.1117 43.9849L57.0596 45.7371ZM67.254 52.7741L56.0241 46.3289L52.972 48.0811L64.2019 54.5263L67.254 52.7741ZM71.8593 31.9563L68.8072 30.2041V43.0921L71.8593 44.8443V31.9563ZM52.4517 47.1908L63.6815 40.7456V37.2412L52.4517 43.6864V47.1908ZM52.4517 38.9934V42.4977L63.6815 36.0525V32.5481L52.4517 38.9934ZM52.4517 34.3029V37.8072L63.6815 31.362V27.8576L52.4517 34.3029ZM52.4517 104.094L55.2164 105.682C55.3122 105.625 55.408 105.566 55.5038 105.507V92.9586L52.4517 91.2065V104.094ZM56.5418 104.812C57.6809 103.984 58.706 103.016 59.5939 101.938V95.3052L56.5418 93.553V104.812ZM60.6294 95.8995V100.541C60.6476 100.513 60.6657 100.487 60.6838 100.459C61.6572 100.683 62.659 100.822 63.6815 100.868V97.6517L60.6294 95.8995ZM75.9495 96.3061V95.8995L67.8805 100.531C70.9921 99.885 73.7595 98.3876 75.9495 96.3086V96.3061ZM75.9495 94.7108V91.2065L64.7196 97.6517V100.881C64.8879 100.878 65.0562 100.873 65.2244 100.865L75.9521 94.7108H75.9495ZM75.4318 90.3136L64.2019 83.8684L61.1498 85.6206L72.3797 92.0658L75.4318 90.3136ZM71.3416 92.6602L60.1117 86.2149L57.0596 87.9671L68.2895 94.4124L71.3416 92.6602ZM67.254 95.0067L56.0241 88.5615L52.972 90.3136L64.2019 96.7589L67.254 95.0067ZM67.7717 71.8424L64.7196 70.0902V82.9781L67.7717 84.7303V71.8424ZM75.9495 76.5354L72.8974 74.7832V87.6712L75.9495 89.4234V76.5354ZM63.6841 79.4738L52.4542 85.919V89.4234L63.6841 82.9781V79.4738ZM63.6841 74.7832L52.4542 81.2285V84.7329L63.6841 78.2876V74.7832ZM52.4517 80.0372L63.6815 73.592V70.0876L52.4517 76.5329V80.0372ZM40.1863 40.7456L43.2384 42.4977V29.6098L40.1863 27.8576V40.7456ZM48.364 45.4386L51.4162 47.1908V34.3029L48.364 32.5507V45.4386ZM48.8818 22.2743L60.1117 28.7195L63.1638 26.9674L51.9339 20.5221L48.8818 22.2743ZM47.8463 22.8686L44.7942 24.6208L56.0241 31.0661L59.0762 29.3139L47.8463 22.8686ZM30.973 21.3815V10.5802C29.9194 10.6908 28.8994 10.8992 27.9209 11.1925V19.6293L30.973 21.3815ZM35.0632 10.84L34.6334 10.593C33.774 10.4953 32.899 10.467 32.0111 10.5056V21.9784L35.0632 23.7306V10.8426V10.84ZM39.1508 13.1866L36.0987 11.4344V24.3223L39.1508 26.0745V13.1866ZM51.4162 16.1275L40.1863 22.5727V26.0771L51.4162 19.6318V16.1275ZM51.4162 11.4344L40.1863 17.8797V21.384L51.4162 14.9388V11.4344ZM40.1863 16.6909L51.4162 10.2457V6.74131L40.1863 13.1866V16.6909ZM47.8463 7.60325L50.8984 5.85107L43.3833 1.53879C42.3168 2.03022 41.3149 2.63229 40.3882 3.32442L47.8437 7.60325H47.8463ZM43.7561 9.94722L46.8082 8.19503L39.5261 4.01655C38.7314 4.69838 38.0014 5.45483 37.3516 6.27303L43.7561 9.94979V9.94722ZM42.7206 10.5416L36.7277 7.10153C36.1479 7.93002 35.643 8.81512 35.2211 9.74138L39.6685 12.2938L42.7206 10.5416ZM44.5871 1.03963L47.3286 2.61171V0.283181C46.3811 0.458142 45.4673 0.712865 44.5871 1.03963ZM49.1174 0.0490416C48.8637 0.0696253 48.6126 0.0953549 48.364 0.12623V3.20606L51.4162 4.95825V0.0310309C50.6602 -0.0152824 49.8914 -0.0101365 49.1148 0.0490416H49.1174ZM40.1863 82.9781L43.2384 84.7303V71.8424L40.1863 70.0902V82.9781ZM44.2739 85.3247L47.326 87.0769V74.1889L44.2739 72.4367V85.3247ZM48.364 87.6712L51.4162 89.4234V76.5354L48.364 74.7832V87.6712ZM31.4907 73.2961L34.5428 71.5439L23.3129 65.0986L20.2608 66.8508L31.4907 73.2961ZM30.4552 73.8904L19.2253 67.4452L16.1732 69.1973L27.4031 75.6426L30.4552 73.8904ZM27.9209 61.8618L30.973 63.614V50.7261L27.9209 48.9739V61.8618ZM35.0632 65.9606V53.0726L32.0111 51.3204V64.2084L35.0632 65.9606ZM39.1508 55.4191L36.0987 53.667V66.5549L39.1508 68.3071V55.4191ZM51.4162 58.3575L40.1863 64.8027V68.3071L51.4162 61.8618V58.3575ZM51.4162 53.667L40.1863 60.1122V63.6166L51.4162 57.1713V53.667ZM51.4162 48.9739L40.1863 55.4191V58.9235L51.4162 52.4783V48.9739ZM36.6164 43.3906L47.8463 49.8358L50.8984 48.0836L39.6685 41.6384L36.6164 43.3906ZM46.8108 50.4276L35.5809 43.9823L32.5288 45.7345L43.7587 52.1798L46.8108 50.4276ZM42.7206 52.7741L31.4907 46.3289L28.4386 48.0811L39.6685 54.5263L42.7206 52.7741ZM47.3286 31.9563L44.2765 30.2041V43.0921L47.3286 44.8443V31.9563ZM27.9209 47.1908L39.1508 40.7456V37.2412L27.9209 43.6864V47.1908ZM27.9209 38.9934V42.4977L39.1508 36.0525V32.5481L27.9209 38.9934ZM27.9209 34.3029V37.8072L39.1508 31.362V27.8576L27.9209 34.3029ZM48.8818 106.739L50.3755 107.596C51.7061 107.3 52.972 106.847 54.155 106.261L51.9365 104.987L48.8844 106.739H48.8818ZM47.8463 107.334L46.684 108C47.1189 108 47.559 107.985 48.0016 107.951C48.2631 107.931 48.522 107.902 48.7808 107.872L47.8437 107.334H47.8463ZM27.9209 100.721C29.0133 100.191 30.0359 99.5454 30.973 98.8044V92.9586L27.9209 91.2065V100.721ZM32.0085 99.2109C32.8162 100.721 33.8491 102.085 35.0606 103.266V95.3052L32.0085 93.553V99.2135V99.2109ZM36.0987 95.8995V104.197C37.0384 104.969 38.0609 105.638 39.1508 106.194V97.6517L36.0987 95.8995ZM51.4162 100.59L40.5539 106.824C41.8974 107.357 43.3238 107.722 44.802 107.89L51.4162 104.094V100.59ZM51.4162 95.8995L40.1863 102.345V105.849L51.4162 99.4039V95.8995ZM40.1863 101.154L51.4162 94.7083V91.2039L40.1863 97.6491V101.154ZM47.8463 92.0658L50.8984 90.3136L39.6685 83.8684L36.6164 85.6206L47.8463 92.0658ZM46.8108 92.6602L35.5809 86.2149L32.5288 87.9671L43.7587 94.4124L46.8108 92.6602ZM42.7206 95.0067L31.4907 88.5615L28.4386 90.3136L39.6685 96.7589L42.7206 95.0067ZM39.1508 79.4738L27.9209 85.919V89.4234L39.1508 82.9781V79.4738ZM39.1508 74.7832L27.9209 81.2285V84.7329L39.1508 78.2876V74.7832ZM27.9209 80.0372L39.1508 73.592V70.0876L27.9209 76.5329V80.0372ZM15.6529 40.7456L18.705 42.4977V29.6098L15.6529 27.8576V40.7456ZM23.8307 45.4386L26.8828 47.1908V34.3029L23.8307 32.5507V45.4386ZM24.3484 22.2743L35.5783 28.7195L38.6304 26.9674L27.4005 20.5221L24.3484 22.2743ZM23.3129 22.8686L20.2608 24.6208L31.4907 31.0661L34.5428 29.3139L23.3129 22.8686ZM16.1706 26.9674L27.4005 33.4126L30.4526 31.6604L19.2227 25.2152L16.1706 26.9674ZM3.38751 38.9934V42.4977L14.6174 36.0525V32.5481L3.38751 38.9934ZM6.4422 21.3815V12.7543C5.37565 13.0451 4.3531 13.4336 3.3901 13.9147V19.6293L6.4422 21.3815ZM10.5298 12.1728C10.2088 12.178 9.88522 12.1908 9.56162 12.2166C8.85231 12.2706 8.15594 12.3709 7.47511 12.5099V21.9758L10.5272 23.728V12.1703L10.5298 12.1728ZM11.5653 24.3223L14.6174 26.0745V13.1866L13.1108 12.3221C12.6008 12.2526 12.0856 12.2063 11.5627 12.1857V24.3249L11.5653 24.3223ZM15.6529 26.0745L26.8828 19.6293V16.1249L15.6529 22.5702V26.0745ZM22.702 13.8324C22.0367 14.3341 21.4076 14.8796 20.8252 15.4714C20.6802 15.3633 20.5352 15.263 20.3877 15.16L15.6529 17.8771V21.3815L26.8828 14.9362V11.5373C26.6886 11.6094 26.4945 11.6865 26.3029 11.7637L22.6994 13.8298L22.702 13.8324ZM16.0076 12.9833L15.6555 13.1866V16.6909L19.4169 14.5322C18.3503 13.8941 17.2087 13.3718 16.0101 12.9833H16.0076ZM19.7431 85.3247L22.7952 87.0769V74.1889L19.7431 72.4367V85.3247ZM23.8307 87.6712L26.8828 89.4234V76.5354L23.8307 74.7832V87.6712ZM24.3484 64.5068L35.5783 70.9521L38.6304 69.1999L27.4005 62.7547L24.3484 64.5068ZM6.95995 73.2961L10.0121 71.5439L-1.21784 65.0986L-4.26995 66.8508L6.95995 73.2961ZM5.92446 73.8904L-5.30544 67.4452L-8.35754 69.1973L2.87235 75.6426L5.92446 73.8904ZM3.38751 61.8618L6.43962 63.614V50.7261L3.38751 48.9739V61.8618ZM10.5298 65.9606V53.0726L7.47769 51.3204V64.2084L10.5298 65.9606ZM14.6174 68.3071V55.4191L11.5653 53.667V66.5549L14.6174 68.3071ZM15.6529 68.3071L26.8828 61.8618V58.3575L15.6529 64.8027V68.3071ZM26.8854 53.667L15.6555 60.1122V63.6166L26.8854 57.1713V53.667ZM15.6529 58.9235L26.8828 52.4783V48.9739L15.6529 55.4191V58.9235ZM12.083 43.3906L23.3129 49.8358L26.3651 48.0836L15.1352 41.6384L12.083 43.3906ZM7.99544 45.7371L19.2253 52.1824L22.2775 50.4302L11.0476 43.9849L7.99544 45.7371ZM3.90525 48.0836L15.1352 54.5289L18.1873 52.7767L6.95737 46.3315L3.90525 48.0836ZM22.7952 31.9563L19.7431 30.2041V43.0921L22.7952 44.8443V31.9563ZM3.38751 47.1908L14.6174 40.7456V37.2412L3.38751 43.6864V47.1908ZM3.38751 34.3029V37.8072L14.6174 31.362V27.8576L3.38751 34.3029ZM3.38751 95.2717C4.20296 94.6131 4.95628 93.8823 5.63193 93.0847C5.87786 93.5864 6.14968 94.0702 6.43962 94.541V92.9586L3.38751 91.2065V95.2717ZM7.47769 96.0179C8.36304 97.1448 9.39076 98.1534 10.5298 99.018V95.3052L7.47769 93.553V96.0179ZM11.5653 95.8995V99.7435C12.5231 100.361 13.5457 100.881 14.6174 101.292V97.6517L11.5653 95.8995ZM26.8854 101.182V100.593L24.5504 101.933C25.3554 101.74 26.1347 101.485 26.8854 101.182ZM21.7312 102.36L26.8854 99.4039V95.8995L16.4632 101.879C18.1407 102.309 19.9113 102.481 21.7312 102.36ZM26.8854 91.2065L15.6555 97.6517V101.156L26.8854 94.7108V91.2065ZM26.3676 90.3136L15.1377 83.8684L12.0856 85.6206L23.3155 92.0658L26.3676 90.3136ZM22.2775 92.6602L11.0476 86.2149L7.99544 87.9671L19.2253 94.4124L22.2775 92.6602ZM18.1898 95.0067L6.95995 88.5615L3.90784 90.3136L15.1377 96.7589L18.1898 95.0067ZM18.7076 71.8424L15.6555 70.0902V82.9781L18.7076 84.7303V71.8424ZM14.6174 79.4738L3.38751 85.919V89.4234L14.6174 82.9781V79.4738ZM14.6174 74.7832L3.38751 81.2285V84.7329L14.6174 78.2876V74.7832ZM3.38751 76.5354V80.0398L14.6174 73.5945V70.0902L3.38751 76.5354ZM-8.87788 40.7456L-5.82577 42.4977V29.6098L-8.87788 27.8576V40.7456ZM-0.700096 45.4386L2.35202 47.1908V34.3029L-0.700096 32.5507V45.4386ZM-0.18235 22.2743L11.0476 28.7195L14.0997 26.9674L2.86977 20.5221L-0.18235 22.2743ZM-1.21784 22.8686L-4.26995 24.6208L6.95995 31.0661L10.0121 29.3139L-1.21784 22.8686ZM-8.36014 26.9674L2.86977 33.4126L5.92188 31.6604L-5.30802 25.2152L-8.36014 26.9674ZM-18.0912 21.3815V17.1669C-19.0801 16.9174 -20.1 16.7527 -21.1433 16.6884V19.6293L-18.0912 21.3815ZM-14.0036 18.8059C-14.9666 18.2605 -15.9891 17.8128 -17.0557 17.4654V21.9758L-14.0036 23.728V18.8059ZM-9.91337 22.0504C-10.822 21.0624 -11.8471 20.1876 -12.9655 19.444V24.3249L-9.91337 26.0771V22.0504ZM-4.54436 22.3952C-5.13976 22.3772 -5.74035 22.3901 -6.34869 22.4364C-7.21592 22.5033 -8.05984 22.6422 -8.88047 22.8326V26.0745L2.34943 19.6293V16.1249L-2.61575 18.9732C-3.38978 20.0281 -4.03954 21.1756 -4.54694 22.3926L-4.54436 22.3952ZM2.35202 14.9388V14.4782C1.35795 15.0648 0.433769 15.7518 -0.410156 16.5211L2.35202 14.9362V14.9388ZM-4.79028 85.3247L-1.73817 87.0769V74.1889L-4.79028 72.4367V85.3247ZM-0.18235 64.5068L11.0476 70.9521L14.0997 69.1999L2.86977 62.7547L-0.18235 64.5068ZM-9.91337 73.5945V70.0902L-21.1433 76.5354V80.0398L-9.91337 73.5945ZM-17.5734 73.2961L-14.5213 71.5439L-25.7512 65.0986L-28.8033 66.8508L-17.5734 73.2961ZM-18.6089 73.8904L-29.8388 67.4452L-32.8909 69.1973L-21.661 75.6426L-18.6089 73.8904ZM-21.1433 61.8618L-18.0912 63.614V50.7261L-21.1433 48.9739V61.8618ZM-14.0036 65.9606V53.0726L-17.0557 51.3204V64.2084L-14.0036 65.9606ZM-9.91337 68.3071V55.4191L-12.9655 53.667V66.5549L-9.91337 68.3071ZM2.35202 58.3575L-8.87788 64.8027V68.3071L2.35202 61.8618V58.3575ZM-8.87788 63.614L2.35202 57.1688V53.6644L-8.87788 60.1097V63.614ZM-8.87788 58.9235L2.35202 52.4783V48.9739L-8.87788 55.4191V58.9235ZM-12.4503 43.3906L-1.22042 49.8358L1.83168 48.0836L-9.39822 41.6384L-12.4503 43.3906ZM-16.5379 45.7371L-5.30802 52.1824L-2.25591 50.4302L-13.4858 43.9849L-16.5379 45.7371ZM-6.34351 52.7741L-17.5734 46.3289L-20.6255 48.0811L-9.39562 54.5263L-6.34351 52.7741ZM-1.73558 31.9563L-4.7877 30.2041V43.0921L-1.73558 44.8443V31.9563ZM-21.1433 47.1908L-9.91337 40.7456V37.2412L-21.1433 43.6864V47.1908ZM-21.1433 38.9934V42.4977L-9.91337 36.0525V32.5481L-21.1433 38.9934ZM-21.1433 34.3029V37.8072L-9.91337 31.362V27.8576L-21.1433 34.3029ZM-21.1433 91.2888C-20.2942 92.6139 -19.2639 93.8051 -18.0912 94.8318V92.9561L-21.1433 91.2039V91.2888ZM-17.0557 95.6705C-16.1082 96.3755 -15.0856 96.9802 -14.0036 97.4716V95.3052L-17.0557 93.553V95.6705ZM-12.9681 95.8995V97.9013C-11.9895 98.2692 -10.967 98.5471 -9.91595 98.7272V97.6517L-12.9681 95.8995ZM2.35202 96.0385V95.8995L-0.974495 97.8087C0.211136 97.343 1.3243 96.746 2.35202 96.041V96.0385ZM-5.81023 98.915C-5.46076 98.8893 -5.11646 98.8481 -4.77216 98.7993L2.35202 94.7108V91.2065L-8.87788 97.6517V98.8687C-7.87605 98.9742 -6.85091 98.9974 -5.81023 98.9176V98.915ZM1.83427 90.3136L-9.39562 83.8684L-12.4477 85.6206L-1.21784 92.0658L1.83427 90.3136ZM-2.25333 92.6602L-13.4832 86.2149L-16.5353 87.9671L-5.30544 94.4124L-2.25333 92.6602ZM-6.34351 95.0067L-17.5734 88.5615L-20.6255 90.3136L-9.39562 96.7589L-6.34351 95.0067ZM-5.82577 71.8424L-8.87788 70.0902V82.9781L-5.82577 84.7303V71.8424ZM2.35202 76.5354L-0.700096 74.7832V87.6712L2.35202 89.4234V76.5354ZM-9.91337 79.4738L-21.1433 85.919V89.4234L-9.91337 82.9781V79.4738ZM-9.91337 74.7832L-21.1433 81.2285V84.7329L-9.91337 78.2876V74.7832ZM-33.4112 40.7456L-30.3591 42.4977V29.6098L-33.4112 27.8576V40.7456ZM-25.2335 45.4386L-22.1813 47.1908V34.3029L-25.2335 32.5507V45.4386ZM-24.7157 22.2743L-13.4858 28.7195L-10.4337 26.9674L-21.6636 20.5221L-24.7157 22.2743ZM-28.8033 24.6208L-17.5734 31.0661L-14.5213 29.3139L-25.7512 22.8686L-28.8033 24.6208ZM-32.8935 26.9674L-21.6636 33.4126L-18.6115 31.6604L-29.8414 25.2152L-32.8935 26.9674ZM-38.8502 33.8886L-34.4467 31.362V27.8576L-38.6016 30.2427C-38.8165 31.4237 -38.9019 32.6433 -38.8502 33.8886ZM-38.2133 28.6063L-38.0166 28.7195L-34.9645 26.9674L-37.0846 25.7503C-37.548 26.6586 -37.926 27.6157 -38.2133 28.6063ZM-34.4467 21.9784C-35.2596 22.8532 -35.9767 23.8155 -36.585 24.8472L-34.4467 26.0745V21.9784ZM-23.1495 16.6832L-33.4112 22.5702V26.0745L-22.1813 19.6293V16.6549C-22.5023 16.6549 -22.8259 16.6626 -23.1521 16.6807L-23.1495 16.6832ZM-33.4112 20.9595V21.384L-25.8806 17.064C-28.7567 17.7047 -31.3273 19.0787 -33.4112 20.9621V20.9595ZM-29.3211 83.6934C-28.3839 83.4027 -27.4831 83.0373 -26.6288 82.5973C-26.5097 82.6642 -26.388 82.7285 -26.2689 82.7929V74.1889L-29.3211 72.4367V83.696V83.6934ZM-24.7157 64.5068L-13.4858 70.9521L-10.4337 69.1999L-21.6636 62.7547L-24.7157 64.5068ZM-34.9645 69.1973L-46.1944 62.7521L-49.2465 64.5043L-46.1944 66.2565L-38.0166 70.9495L-34.9645 69.1973ZM-39.0521 71.5439L-46.1944 67.4452L-50.282 65.0986L-53.3341 66.8508L-42.1042 73.2961L-39.0521 71.5439ZM-54.3722 67.4477L-57.4243 69.1999L-46.1944 75.6452L-43.1423 73.893L-54.3722 67.4477ZM-45.6766 61.8618L-42.6245 63.614V50.7261L-45.6766 48.9739V61.8618ZM-38.5343 65.9606V53.0726L-41.5864 51.3204V64.2084L-38.5343 65.9606ZM-34.4467 55.4191L-37.4988 53.667V66.5549L-34.4467 68.3071V55.4191ZM-22.1788 58.3575L-33.4087 64.8027V68.3071L-22.1788 61.8618V58.3575ZM-22.1788 53.667L-33.4087 60.1122V63.6166L-22.1788 57.1713V53.667ZM-33.4112 58.9235L-22.1813 52.4783V48.9739L-33.4112 55.4191V58.9235ZM-36.9811 43.3906L-25.7512 49.8358L-22.6991 48.0836L-33.929 41.6384L-36.9811 43.3906ZM-41.0713 45.7371L-29.8414 52.1824L-26.7893 50.4302L-38.0192 43.9849L-41.0713 45.7371ZM-42.1068 46.3315L-45.1589 48.0836L-33.929 54.5289L-30.8769 52.7767L-42.1068 46.3315ZM-26.2689 31.9563L-29.3211 30.2041V43.0921L-26.2689 44.8443V31.9563ZM-34.4467 37.2412L-45.6766 43.6864V47.1908L-34.4467 40.7456V37.2412ZM-38.7647 35.0284C-38.6871 35.7231 -38.568 36.4024 -38.4101 37.0662C-39.1168 36.6906 -39.852 36.3638 -40.6131 36.0911L-45.6766 38.9959V42.5003L-34.4467 36.055V32.5507L-38.7673 35.0284H-38.7647ZM-45.6766 37.8072L-41.954 35.6717C-43.15 35.3526 -44.3978 35.1597 -45.6766 35.1159V37.8072ZM-33.01 84.401C-33.01 84.401 -33.0048 84.401 -33.0022 84.401L-33.929 83.8709L-34.9231 84.4421C-34.2914 84.4653 -33.6546 84.4524 -33.01 84.4035V84.401ZM-30.3565 83.9816V71.8424L-33.4087 70.0902V82.9781L-31.3066 84.1848C-30.9856 84.1282 -30.6698 84.0588 -30.354 83.9816H-30.3565ZM-22.1788 76.5354L-25.2309 74.7832V83.3126C-24.7235 83.5442 -24.2031 83.75 -23.6725 83.9301C-23.4912 85.8881 -22.9735 87.7381 -22.1788 89.426V76.538V76.5354ZM-34.4467 79.4738L-40.8176 83.1299C-39.5206 83.6805 -38.1434 84.0691 -36.7119 84.2775L-34.4467 82.9781V79.4738ZM-34.4467 74.7832L-44.812 80.7319C-43.9292 81.4472 -42.974 82.075 -41.9592 82.5973L-34.4467 78.2876V74.7832ZM-34.4467 73.5945V70.0902L-45.6766 76.5354V79.9781C-45.6637 79.9909 -45.6507 80.0038 -45.6352 80.0166L-34.4441 73.5945H-34.4467ZM-53.8544 77.3176C-52.793 77.0912 -51.7731 76.7721 -50.8023 76.3579V74.1889L-53.8544 72.4367V77.3176ZM-58.9775 74.7832L-62.5836 76.8545C-61.429 77.2353 -60.2201 77.49 -58.9775 77.6109V74.7858V74.7832ZM-63.5854 71.5439L-73.2673 65.9889C-72.7133 67.7899 -71.8642 69.4495 -70.7769 70.9212L-66.6376 73.2961L-63.5854 71.5439ZM-68.5144 73.4093C-68.2943 73.6074 -68.0691 73.8004 -67.8361 73.9856L-67.673 73.8904L-68.5144 73.4067V73.4093ZM-67.1553 63.614V50.7261L-69.2211 49.5399C-69.568 49.8899 -69.8968 50.2552 -70.21 50.6334V61.8618L-67.1579 63.614H-67.1553ZM-63.0677 53.0726L-66.1198 51.3204V64.2084L-63.0677 65.9606V53.0726ZM-62.0322 66.5549L-58.9801 68.3071V55.4191L-62.0322 53.667V66.5549ZM-57.942 68.3071L-46.7121 61.8618V58.3575L-57.942 64.8027V68.3071ZM-46.7121 53.667L-57.942 60.1122V63.6166L-46.7121 57.1713V53.667ZM-57.942 58.9235L-46.7121 52.4783V48.9739L-57.942 55.4191V58.9235ZM-50.282 49.8332L-47.2299 48.0811L-58.4598 41.6358L-60.2356 42.6547C-60.466 43.0098 -60.6835 43.3726 -60.888 43.7456L-50.282 49.8332ZM-61.5662 45.1273C-62.6483 45.4078 -63.6838 45.7963 -64.6649 46.2748L-54.3696 52.1824L-51.3175 50.4302L-61.3566 44.6693C-61.429 44.8211 -61.4989 44.9729 -61.5636 45.1273H-61.5662ZM-55.4077 52.7741L-65.7419 46.8435C-66.71 47.4069 -67.6161 48.0605 -68.4419 48.7963L-58.4598 54.5238L-55.4077 52.7716V52.7741ZM-54.8899 37.4985C-56.0031 38.17 -57.0256 38.9651 -57.942 39.863V40.7456L-54.8899 42.4977V37.4985ZM-50.7997 35.7309C-51.8663 36.0293 -52.8888 36.4307 -53.8518 36.9221V43.0921L-50.7997 44.8443V35.7309ZM-46.7121 35.1133C-46.9891 35.1211 -47.2687 35.1339 -47.5483 35.1545C-48.3042 35.2137 -49.0446 35.3218 -49.7642 35.4761V45.4386L-46.7121 47.1908V35.1133ZM-56.06 77.6392C-55.6639 77.6084 -55.2756 77.5595 -54.8899 77.5029V71.8398L-57.942 70.0876V77.6753C-57.3207 77.6958 -56.6943 77.6881 -56.06 77.6392ZM-49.7642 74.7832V75.8768C-49.5338 75.761 -49.3086 75.64 -49.0834 75.514C-48.4362 76.7541 -47.6363 77.9017 -46.7095 78.9283V76.5354L-49.7616 74.7832H-49.7642ZM-63.834 76.3811L-58.9775 73.5945V70.0902L-66.9456 74.6623C-65.9774 75.3416 -64.9342 75.9179 -63.834 76.3811ZM-73.6608 64.4374C-73.6504 64.4888 -73.6401 64.5403 -73.6297 64.5918L-62.55 70.9495L-59.4978 69.1973L-70.7277 62.7521L-73.6634 64.4348L-73.6608 64.4374ZM-73.9507 62.4125C-73.9248 62.7289 -73.8912 63.0454 -73.8472 63.3567L-71.2455 61.8644V58.36L-73.9507 59.9115C-74.0102 60.7323 -74.0128 61.566 -73.9507 62.4125ZM-73.8109 58.6431L-71.2429 57.1688V53.6644L-72.5683 54.4234C-73.1637 55.7511 -73.5857 57.1662 -73.8109 58.6405V58.6431ZM-71.2455 52.4783V52.0228C-71.4008 52.257 -71.5484 52.4937 -71.6933 52.7356L-71.2455 52.4783Z" fill="#730815"/>
</g>
<defs>
<clipPath id="clip0_0_2075">
<rect width="348" height="108" fill="white" transform="translate(-74)"/>
</clipPath>
</defs>
</svg>
