<svg width="182" height="174" viewBox="0 0 182 174" fill="none" xmlns="http://www.w3.org/2000/svg">
<path d="M106.6 14.7997H161.4C163.4 11.7997 167 8.19971 170.8 8.19971C176 8.19971 182 13.7997 182 18.9997C182 23.5997 176.2 23.5997 170.4 23.5997C155.4 23.5997 139 23.1997 123.6 23.1997H102.8C92.4 23.1997 90 23.1997 86 24.7997C84.4 25.3997 82.4 25.9997 81.4 25.9997C78.8 25.9997 77.4 23.3997 77.4 21.1997C77.4 17.7997 80 13.5997 83.8 13.5997C84.6 13.5997 88.8 13.9997 90.4 14.1997C95.2 14.7997 98.8 14.7997 106.6 14.7997ZM149.2 39.3997C151.2 37.3997 153.6 35.3997 156.6 35.3997C160.4 35.3997 164 38.3997 164 42.3997C164 43.1997 163.8 44.3997 163.6 45.1997C163.4 46.1997 163.2 47.5997 163.2 48.3997C163.2 55.9997 163.8 64.3997 163.8 71.5997C163.8 76.7997 158.6 78.7997 154 78.7997C150.2 78.7997 150 75.5997 150 72.5997H106.6C106.2 76.5997 101 79.1997 97.4 79.1997C94.8 79.1997 93.8 76.9997 93.8 74.7997C93.8 67.9997 94.4 59.9997 94.4 52.9997C94.4 50.7997 94.4 49.9997 94 48.5997C93 47.5997 92.4 46.1997 92.4 44.7997C92.4 40.3997 97.8 35.3997 102 35.3997C104.6 35.3997 106.6 36.9997 107.4 39.3997H149.2ZM160 91.7997C162 89.7997 164.4 87.7997 167.4 87.7997C171.2 87.7997 175 90.5997 175 94.5997C175 95.1997 174.8 98.3997 174.6 99.5997C174.2 102.2 174.2 103.4 174.2 104.2C174.2 111.4 174.4 121.8 174.8 133.4C175.2 142.6 175.4 151.6 175.4 160.6C175.4 165.8 169.6 167.4 165.2 167.4C161.6 167.4 161.2 164.2 161.2 161V157.4H96V163.4C96 167.4 90.6 169.8 87.2 169.8C84.4 169.8 83.4 168.2 83.4 165.8C83.4 164.2 83.4 163.4 83.6 159.6C83.8 152.6 84.2 122.6 84.2 115.6V108.6C84.2 106 84.2 103.4 83.8 100.8C82.8 99.7997 82.2 98.3997 82.2 96.9997C82.2 92.5997 87.8 87.7997 92.2 87.7997C94.6 87.7997 96.2 89.5997 97 91.7997H160ZM60.2 32.1997C62.2 29.7997 65.2 28.1997 68.4 28.1997C73 28.1997 76.6 31.3997 76.6 36.3997C76.6 39.5997 73.8 41.9997 71.2 43.5997C65 54.5997 57.6 64.3997 49.2 73.7997V83.5997C55.6 90.1997 63.2 95.9997 71 100.8C74.6 103 75.6 103.6 75.6 105.2C75.6 109 68.8 112 65.6 112C63 112 59.2 108.8 49.4 97.3997V105.8C49.4 120.2 51 145.6 51 160C51 163.8 50.8 166.8 48 169.4C45.8 171.6 42.8 173.2 39.8 173.2C36.4 173.2 34.8 171.2 34.8 167.4C34.8 164.6 35 161.6 35.4 157.2C37 136.6 37.8 115.6 37.8 91.7997V84.3997C29.4 91.5997 14.2 103.6 2.8 103.6C1.8 103.6 0 103.6 0 102.2C0 101.6 0.4 101.2 1.4 100.6C8 96.5997 15.4 90.7997 21.8 85.1997C30.8 77.1997 39.2 68.5997 46.4 58.7997C50.6 52.9997 54.2 46.9997 57.2 40.3997L26.4 40.5997C21.8 40.5997 17.6 41.5997 13.4 43.3997C12.6 43.7997 11.8 43.9997 11 43.9997C8.6 43.9997 7 41.3997 7 39.1997C7 35.9997 9 31.3997 12.6 31.3997C13.8 31.3997 15.4 31.5997 16.6 31.7997C19.8 32.1997 27 32.3997 29.6 32.3997H38.8C43.4 32.3997 50.6 32.1997 50.6 32.1997L60.2 32.1997ZM150.4 65.5997V50.1997C150.4 46.7997 150.4 46.1997 148 46.1997H108C106.4 46.1997 106.2 47.3997 106.2 48.5997C106.2 54.3997 106.2 59.9997 106.4 65.5997H150.4ZM161.4 120V101.8C161.4 100.2 161 98.5997 159 98.5997H134.6C134.4 106.8 134.2 113.8 134 120H161.4ZM161.4 150.6V126.4H134C134.2 134.4 134.2 142.6 134.2 150.6H161.4ZM122.4 120C122.2 110.8 122 103.8 121.8 98.5997H97.4C95.6 98.5997 95.6 100.6 95.6 101.8V120H122.4ZM122.4 126.4H95.8V150.6H122C122.2 142.6 122.4 134.4 122.4 126.4Z" fill="white"/>
<circle cx="44.7998" cy="10" r="10" fill="white"/>
</svg>
