<svg width="191" height="181" viewBox="0 0 191 181" fill="none" xmlns="http://www.w3.org/2000/svg">
<path d="M118.6 47.6C125.6 58.6 142.8 76.2 156.8 76.2C162.2 76.2 168.2 71.8 170.8 68.4C171.4 67.6 172 67.2 172.2 67.2C173.2 67.2 173.8 72.4 173.8 74.6C173.8 83 169.8 93 160 93C154 93 144 88 139 84.8C125.2 76 115.4 63 108.4 48.6C100.2 49.6 93.2 50.6 87 51.6C80.8 52.6 78 53.2 75.6 54.4C74.4 55 73.2 55.4 72.2 55.4C70 55.4 68.6 53.6 68.6 51.6C68.6 45.2 72.2 43.8 78.4 43.8C80.8 43.8 87.2 43.2 104.8 41C101.8 34.4 98.8 27.6 96.8 20.6C94.8 19.6 92.8 17.8 92.8 15.4C92.8 10.8 98 5 102.8 5C107 5 107.2 7.80001 107.2 11C107.4 17.4 112.6 33.6 115 40C126.8 38.4 139.2 36.6 150.6 34.8C152.4 31.6 155.2 27.4 159.4 27.4C163.8 27.4 170.6 30.6 170.6 35.8C170.6 39.2 168 40.6 164.4 41.2C154 43 138 45.2 118.6 47.6ZM120 137.6C138.6 154.4 163.8 163.4 188.2 167.4C189.4 167.6 190.4 168 190.4 168.6C190.4 170.4 172.2 180.8 166 180.8C163.4 180.8 157.8 179.2 152.8 177.2C140.4 172.2 128.4 164 119.2 153.4C113.2 146.6 107.8 138.6 103.6 130.4C102.2 127.6 100.8 124.6 99.8 122.2C99.4 121.2 99.2 120.8 98.4 120C97.4 119.2 96.8 118.4 96.8 118C96.8 116 99.8 114.8 101.4 114.8C103.4 114.8 104.4 116.4 104.6 118.2C108 123.4 111.8 128.4 115.8 133.2C120.8 128.6 136.2 116.2 142 116.2C146.2 116.2 151.4 120.2 151.4 124.6C151.4 130.2 144.6 132.6 140.2 133.8C133.6 135.6 127.8 136.6 120 137.6ZM50.2 47C42 53 22 65.8 12.8 65.8C12 65.8 10 65.8 10 64.6C10 64.2 11.8 62.4 15.6 60C29.8 51 52.4 29.2 60.4 14.6C62.4 11 64.8 7.80001 69 7.80001C73 7.80001 77 10 77 14.2C77 20.6 68.4 30 62 36.8V81C62 85.4 61.8 88.4 60 90.8C58.4 92.8 55.6 94.4 52.8 94.4C49.8 94.4 48 91.6 48 89C48 86.6 48 84.4 48.4 81.6C48.8 78.4 49 75 49 72.2C49 66.2 49.6 55.2 50.2 47ZM152.8 103.6C154.8 101 158.2 97.2 161.4 97.2C165.6 97.2 173.4 102.2 173.4 107C173.4 111.8 166.4 111.8 163 111.8C140.8 111.8 118.6 111.8 96.2 111.6C96.4 112.2 96.4 112.6 96.4 113.2C96.4 117.4 89.8 122 77.8 129.6L77.4 160.2C84.8 159.4 93.2 158 99.8 156.4C102.2 155.8 105.4 155.2 106 155.2C107 155.2 109 155.4 109 156.8C109 159 103.2 162 100.4 163.2C85.6 169.6 61.6 176.4 45.6 176.4C41.2 176.4 37 173.2 37 168.4C37 161.8 44.2 161.6 49 161.6H59.6C61 161.6 62 161.6 64 161.2V137.4C46.6 146.8 27.4 154.8 7.2 154.8C6 154.8 0 154.8 0 153C0 152.6 2 151.6 4.2 151C14.6 148.2 25 144.4 34.8 140C51.6 132.4 67 123 81 111.2C66.2 111.4 57 111.6 43.2 112C36.6 112.2 34.6 112.4 30.6 113.6C28.6 114.2 27 114.6 26.2 114.6C24 114.6 22.4 112.8 22.4 110.6C22.4 107.6 24.6 102.6 28.2 102.6C29.6 102.6 30.8 102.6 33.2 103C39.4 103.8 53.2 103.8 67.8 103.8H91C91 100.8 91 97.6 90.6 94.6C88.8 93.8 87.2 92.6 87.2 90.6C87.2 85.8 92.8 81 97.4 81C101.4 81 103 83.8 103 87.2C103 89.4 102.8 91.8 102.4 94.4C102 96.6 101.4 101.2 101.2 103.8C118.4 103.8 135.6 103.8 152.8 103.6Z" fill="white"/>
<g clip-path="url(#clip0_0_872)">
<path d="M151.921 1.13182C151.605 0.967571 149.075 2.9141 143.235 4.27648C140.398 4.93849 132.53 7.19656 132.66 18.4132L129.6 20.2133L130.553 21.882C133.51 19.9745 141.617 16.255 149.761 6.71224C149.761 6.71224 148.501 13.0131 134.1 21.293C138.961 23.8129 145.801 23.8129 151.021 17.6927C156.241 11.5729 151.921 1.13182 151.921 1.13182Z" fill="white"/>
</g>
<defs>
<clipPath id="clip0_0_872">
<rect width="24" height="24" fill="white" transform="translate(129.6)"/>
</clipPath>
</defs>
</svg>
