<svg width="18" height="18" viewBox="0 0 18 18" fill="none" xmlns="http://www.w3.org/2000/svg">
<g clip-path="url(#clip0_0_1749)">
<path d="M13.1858 3.39709L13.0397 3.39547L12.9939 3.25895C12.4212 1.49551 10.7834 0.31092 8.92968 0.312608C7.07026 0.316205 5.44272 1.50141 4.87123 3.26897L4.82407 3.41137L4.67797 3.40975C2.82424 3.41144 1.19101 4.59856 0.619523 6.36611C0.0480383 8.13367 0.672186 10.0507 2.17701 11.1407L2.29482 11.2277L2.24766 11.3701C1.67617 13.1377 2.30032 15.0547 3.80515 16.1447C5.30997 17.2347 7.32686 17.2289 8.82747 16.1369L8.94495 16.0532L9.06275 16.1402C10.5676 17.2302 12.5845 17.2244 14.0851 16.1324C15.5857 15.0404 16.2062 13.1172 15.6336 11.3537L15.5878 11.2172L15.7109 11.1316C17.2115 10.0396 17.8321 8.11635 17.2537 6.35481C16.6811 4.59136 15.0433 3.40678 13.1896 3.40847L13.1858 3.39709Z" fill="#D4B682"/>
<path d="M13.2995 2.99063C12.6262 1.1386 10.8694 -0.0859224 8.89421 -0.0724967C6.91145 -0.0628145 5.1705 1.18024 4.51819 3.04C2.54902 3.10831 0.842417 4.39662 0.237611 6.28451C-0.367195 8.17241 0.280652 10.2102 1.84412 11.4055C1.30373 13.2968 2.00261 15.3173 3.61133 16.4783C5.21814 17.6336 7.36202 17.6514 8.98058 16.5321C10.2942 17.4203 11.937 17.5641 13.3635 16.9781C13.7073 16.836 14.0434 16.6522 14.3508 16.4212C15.9444 15.2472 16.6223 13.2207 16.0624 11.3301C17.6103 10.1147 18.237 8.06758 17.6184 6.19061C16.998 4.30798 15.2769 3.03969 13.3052 2.9887L13.2995 2.99063ZM17.2252 6.3179C17.8033 8.07579 17.1968 9.99589 15.7031 11.0917L15.5862 11.1757L15.6324 11.3118C16.2105 13.0697 15.5983 14.9917 14.1046 16.0875C12.6109 17.1833 10.5979 17.1969 9.09184 16.1148L8.97394 16.0284L8.857 16.1124C7.3633 17.2082 5.35027 17.2219 3.84425 16.1398C2.33824 15.0577 1.70815 13.1468 2.27198 11.3803L2.31852 11.238L2.20062 11.1516C0.6946 10.0695 0.064514 8.15853 0.628343 6.39207C1.19217 4.62562 2.81789 3.43438 4.66809 3.42547L4.81392 3.42651L4.86046 3.2842C5.4168 1.53294 7.04059 0.336031 8.89079 0.327122C10.7467 0.316287 12.3801 1.49418 12.9639 3.25015L13.0101 3.38624L13.1559 3.38728C15.0061 3.37837 16.6452 4.55434 17.2233 6.31223L17.2252 6.3179Z" fill="#D4B682"/>
<path d="M12.4971 7.05683C12.614 6.97282 12.6358 6.81362 12.5519 6.6967C12.4679 6.57978 12.3087 6.55798 12.1917 6.64199C12.0955 6.71262 12.0641 6.84347 12.1063 6.94928L9.6036 8.79892C9.6036 8.79892 9.56925 8.75368 9.54453 8.73678L11.1317 6.74286C11.2381 6.79527 11.3667 6.76422 11.4419 6.66909C11.5303 6.55684 11.5142 6.39786 11.402 6.30951C11.2897 6.22116 11.1307 6.23724 11.0424 6.34949C10.9671 6.44461 10.9679 6.57717 11.0423 6.66574L9.45509 8.65965C9.45509 8.65965 9.41325 8.6296 9.39046 8.61837L10.6357 5.76669C10.7494 5.78496 10.8703 5.73123 10.9151 5.62113C10.9731 5.49391 10.9135 5.33708 10.7826 5.28671C10.6516 5.23635 10.4985 5.28837 10.4481 5.41933C10.3976 5.53136 10.4343 5.65803 10.5275 5.72755L9.28229 8.57923C9.28229 8.57923 9.22729 8.5663 9.19883 8.55699L9.57469 6.03233C9.69207 6.02407 9.78815 5.9345 9.80452 5.8151C9.82645 5.67483 9.73101 5.54283 9.59074 5.52092C9.45047 5.49901 9.31843 5.59447 9.2965 5.73474C9.28013 5.85414 9.35086 5.96924 9.45336 6.01031L9.07375 8.54257C9.07375 8.54257 9.02261 8.54098 8.998 8.54302L8.64522 5.43743C8.75296 5.40082 8.82807 5.28676 8.81223 5.16565C8.79629 5.02561 8.66693 4.9241 8.52687 4.94007C8.38682 4.95603 8.28528 5.0854 8.30122 5.22545C8.31706 5.34655 8.41036 5.43501 8.5241 5.45329L8.87688 8.55887C8.87688 8.55887 8.82584 8.57621 8.80316 8.58392L7.85784 6.19195C7.95595 6.12699 7.995 5.99988 7.95081 5.88841C7.89892 5.75426 7.75084 5.69073 7.61667 5.74265C7.48249 5.79456 7.41894 5.94264 7.47083 6.0768C7.50935 6.1902 7.6309 6.25009 7.74635 6.23616L8.6936 8.6338C8.6936 8.6338 8.65583 8.65296 8.63507 8.66633L6.76477 6.13962C6.84191 6.05017 6.84876 5.92135 6.77621 5.81951C6.69222 5.70259 6.53301 5.6808 6.41606 5.7648C6.29912 5.84881 6.27729 6.00801 6.36128 6.12494C6.4319 6.2211 6.56276 6.25253 6.66858 6.21025L8.54081 8.74263C8.54081 8.74263 8.50122 8.77506 8.48998 8.79785L6.46197 7.18485C6.5144 7.07849 6.48337 6.9499 6.38825 6.8747C6.27601 6.78635 6.11702 6.80243 6.02864 6.91468C5.94026 7.02692 5.95631 7.18591 6.06855 7.27426C6.16367 7.34945 6.29624 7.34868 6.38483 7.2743L8.42044 8.89105C8.42044 8.89105 8.40171 8.92903 8.39615 8.9499L5.49324 7.68477C5.51153 7.57104 5.45782 7.45015 5.34772 7.40534C5.2205 7.34738 5.06365 7.407 5.01325 7.53797C4.96286 7.66893 5.01486 7.82202 5.14582 7.87239C5.25785 7.92286 5.38453 7.88614 5.45408 7.79294L8.36459 9.06181C8.36459 9.06181 8.35346 9.10354 8.34982 9.13007L5.7587 8.74562C5.75046 8.62825 5.6609 8.53219 5.5415 8.51584C5.40122 8.49394 5.26919 8.5894 5.24726 8.72966C5.22533 8.86993 5.32077 9.00193 5.46104 9.02384C5.58045 9.04019 5.69557 8.96945 5.73666 8.86694L8.32971 9.25707C8.32971 9.25707 8.32425 9.29687 8.33003 9.31388L5.16359 9.67513C5.127 9.5674 5.01294 9.49232 4.89182 9.50817C4.75177 9.52414 4.65023 9.65351 4.66617 9.79355C4.68211 9.9336 4.81147 10.0351 4.95153 10.0191C5.07265 10.0033 5.16113 9.90997 5.17943 9.79624L8.34779 9.44066C8.34779 9.44066 8.36127 9.48035 8.36898 9.50303L5.91995 10.468C5.85501 10.3699 5.72789 10.3309 5.6164 10.3751C5.48223 10.427 5.41868 10.5751 5.47057 10.7092C5.52246 10.8434 5.67055 10.9069 5.80472 10.855C5.91814 10.8164 5.97805 10.6949 5.96414 10.5795L8.41317 9.6145C8.41317 9.6145 8.43039 9.6466 8.44184 9.66168L5.86742 11.561C5.77798 11.4839 5.64915 11.477 5.54729 11.5496C5.43035 11.6336 5.40852 11.7928 5.49251 11.9097C5.5765 12.0267 5.73571 12.0484 5.85266 11.9644C5.94885 11.8938 5.98031 11.763 5.93804 11.6572L8.51246 9.75785C8.51246 9.75785 8.53728 9.79369 8.5544 9.80684L6.91459 11.8692C6.80824 11.8168 6.67963 11.8479 6.60441 11.943C6.51604 12.0553 6.53209 12.2142 6.64433 12.3026C6.75656 12.3909 6.91556 12.3749 7.00394 12.2626C7.07916 12.1675 7.07841 12.0349 7.00404 11.9464L8.64385 9.88396C8.64385 9.88396 8.67616 9.90461 8.69136 9.91209L7.41063 12.8454C7.2969 12.8271 7.17599 12.8809 7.13116 12.991C7.07317 13.1182 7.13277 13.275 7.26373 13.3254C7.39469 13.3758 7.5478 13.3237 7.5982 13.1928C7.6487 13.0807 7.612 12.9541 7.51881 12.8845L8.79386 9.95316C8.79386 9.95316 8.83184 9.97187 8.85271 9.97743L8.46593 12.5817C8.34856 12.59 8.25248 12.6795 8.23611 12.7989C8.21417 12.9392 8.30961 13.0712 8.44989 13.0931C8.59016 13.115 8.72219 13.0196 8.74412 12.8793C8.76049 12.7599 8.68977 12.6448 8.58727 12.6037L8.97597 10.0051C8.97597 10.0051 9.01384 10.0049 9.03278 10.0048L9.38781 13.1729C9.28007 13.2095 9.20496 13.3235 9.22079 13.4446C9.23674 13.5847 9.36609 13.6862 9.50615 13.6702C9.64621 13.6543 9.74775 13.5249 9.73181 13.3848C9.71597 13.2637 9.62267 13.1753 9.50893 13.157L9.15015 9.99653C9.15015 9.99653 9.1937 9.99438 9.21639 9.98667L10.1752 12.4183C10.0771 12.4833 10.038 12.6104 10.0822 12.7219C10.1341 12.856 10.2822 12.9196 10.4164 12.8676C10.5505 12.8157 10.6141 12.6676 10.5622 12.5335C10.5237 12.4201 10.4021 12.3602 10.2867 12.3741L9.3298 9.94814C9.34681 9.94236 9.36383 9.93657 9.38458 9.9232L11.2683 12.4707C11.1911 12.5601 11.1843 12.6889 11.2568 12.7908C11.3408 12.9077 11.5 12.9295 11.617 12.8455C11.7339 12.7615 11.7557 12.6023 11.6717 12.4853C11.6011 12.3892 11.4703 12.3577 11.3644 12.4L9.49029 9.86198C9.49029 9.86198 9.52988 9.82956 9.54304 9.81243L11.573 11.4311C11.5206 11.5375 11.5516 11.6661 11.6467 11.7413C11.7589 11.8296 11.9179 11.8135 12.0063 11.7013C12.0947 11.589 12.0786 11.43 11.9664 11.3417C11.8713 11.2665 11.7387 11.2673 11.6501 11.3417L9.62404 9.73432C9.62404 9.73432 9.65036 9.70008 9.66352 9.68296L12.5436 10.9369C12.5253 11.0506 12.5791 11.1715 12.6892 11.2163C12.8164 11.2742 12.9732 11.2146 13.0236 11.0837C13.0816 10.9564 13.022 10.7996 12.8911 10.7492C12.779 10.6988 12.6523 10.7355 12.5828 10.8287L9.70835 9.57286C9.70835 9.57286 9.72889 9.52161 9.73446 9.50074L12.2801 9.88168C12.2883 9.99904 12.3779 10.0951 12.4973 10.1115C12.6376 10.1334 12.7696 10.0379 12.7915 9.89763C12.8135 9.75737 12.718 9.62536 12.5778 9.60346C12.4584 9.58711 12.3432 9.65785 12.3021 9.76035L9.76409 9.38316C9.76409 9.38316 9.7657 9.33202 9.77126 9.31115L12.8771 8.95783C12.9137 9.06556 13.0278 9.14065 13.1489 9.12479C13.289 9.10882 13.3905 8.97946 13.3746 8.83941C13.3586 8.69937 13.2293 8.59786 13.0892 8.61383C12.9681 8.62968 12.8796 8.72299 12.8613 8.83672L9.7611 9.18812C9.7611 9.18812 9.75511 9.13324 9.74548 9.10488L12.1227 8.17065C12.1877 8.26874 12.3148 8.30777 12.4263 8.26356C12.5604 8.21165 12.624 8.06357 12.5721 7.92941C12.5202 7.79526 12.3721 7.73174 12.2379 7.78365C12.1245 7.82219 12.0646 7.94374 12.0785 8.05917L9.70696 8.99148C9.70696 8.99148 9.68588 8.94805 9.67058 8.92163L12.1733 7.07198C12.2628 7.1491 12.3916 7.15592 12.4934 7.08337L12.4971 7.05683Z" fill="white"/>
</g>
<defs>
<clipPath id="clip0_0_1749">
<rect width="18" height="18" fill="white"/>
</clipPath>
</defs>
</svg>
