<svg width="52" height="52" viewBox="0 0 52 52" fill="none" xmlns="http://www.w3.org/2000/svg">
<g clip-path="url(#clip0_0_877)">
<path d="M45.2566 17.3642C46.6714 18.3083 47.9025 19.5301 48.8396 21.0111C50.6587 23.8249 51.2835 27.194 50.6036 30.4892C49.9054 33.7843 47.9944 36.5981 45.1831 38.4493C43.0333 39.8562 40.5527 40.5597 38.0354 40.4856C38.5683 40.5226 39.1195 40.5597 39.7075 40.5597C39.8729 40.5597 40.0382 40.6337 40.1485 40.7633C40.2587 40.8929 40.2955 41.078 40.2587 41.2446C40.2403 41.3372 40.2036 41.4112 40.1852 41.5038C42.1513 41.2261 44.0623 40.5226 45.7895 39.3934C46.4142 38.9861 46.9838 38.5418 47.535 38.042C49.6481 36.1168 51.0997 33.5807 51.7061 30.7113C52.9188 24.88 50.2729 19.1414 45.5138 16.1794C45.4403 16.5682 45.3485 16.9755 45.2566 17.3642Z" fill="white" fill-opacity="0.5"/>
<path d="M38.899 1.83275C35.7569 6.63376e-05 32.0636 -0.481244 28.5541 0.481376C26.5696 1.01822 24.7689 1.98084 23.2622 3.27668C23.6113 3.4618 23.9604 3.66543 24.2912 3.88757C25.6142 2.81388 27.1576 2.03638 28.8481 1.57358C32.082 0.70352 35.4445 1.14781 38.3477 2.81388C44.3195 6.27561 46.3958 13.9951 42.9414 20.03C39.6339 25.8242 32.3944 27.9716 26.5329 25.0282C26.441 25.1208 26.3491 25.2133 26.2573 25.3059C26.3859 25.6391 26.5145 25.9723 26.6248 26.324C31.6043 28.5269 37.3555 27.5088 41.2693 23.936C42.2982 22.9919 43.1986 21.8812 43.9336 20.6224C44.5216 19.5857 44.9809 18.4935 45.2749 17.3828C45.3852 16.994 45.4587 16.6053 45.5322 16.198C46.5244 10.6444 44.0438 4.81317 38.9173 1.85126L38.899 1.83275Z" fill="white" fill-opacity="0.5"/>
<path d="M5.1082 19.8078C3.36262 15.1058 4.52021 9.60775 8.41562 6.03495C13.5421 1.36995 21.4616 1.77721 26.0736 6.92352C30.5202 11.8847 30.3181 19.4746 25.7245 24.1952C25.8531 24.4358 25.9633 24.6765 26.0736 24.9171C26.1287 25.0467 26.1838 25.1763 26.2206 25.2874C26.3124 25.1948 26.4043 25.1022 26.4962 25.0097C31.5308 19.8819 31.7697 11.5885 26.9004 6.16453C26.0919 5.27596 25.21 4.51697 24.2545 3.88757C23.9237 3.66542 23.5746 3.46179 23.2255 3.27667C18.3379 0.610957 12.0538 1.20334 7.68064 5.1834C3.30749 9.18198 2.11315 15.402 4.22622 20.6038C4.52021 20.3262 4.81421 20.0485 5.12657 19.8078H5.1082Z" fill="white" fill-opacity="0.5"/>
<path d="M14.2036 43.1144C12.5131 43.1885 10.8043 42.9293 9.16893 42.2999C6.04525 41.0966 3.58306 38.7456 2.22334 35.6726C-0.0367278 30.5818 1.35974 24.7506 5.25515 21.1963C6.21062 20.3262 7.3131 19.5857 8.54419 19.0304C14.6078 16.3091 21.7004 18.8453 24.7322 24.7136C24.9894 24.6765 25.265 24.6395 25.5223 24.6025C25.706 24.584 25.8898 24.658 26 24.7876C26.1286 24.9172 26.1654 25.1023 26.1286 25.2874C26.0919 25.4911 26.0551 25.6947 26.0184 25.8798C26.1103 25.9353 26.2389 26.0094 26.3859 26.0834L26.6431 26.4167C26.6431 26.4167 26.6248 26.3611 26.6064 26.3241C26.4961 25.9909 26.3675 25.6391 26.2389 25.3059C26.1838 25.1764 26.147 25.0468 26.0919 24.9357C25.9816 24.695 25.8714 24.4544 25.7428 24.2137C22.4537 17.8086 14.6997 15.0133 8.06645 17.9937C6.98235 18.475 5.99013 19.1044 5.10815 19.8079C4.79578 20.0671 4.48341 20.3262 4.2078 20.6039C0.165392 24.5099 -1.23107 30.6929 1.17599 36.1354C2.66433 39.4861 5.34702 42.0592 8.76469 43.3736C10.6756 44.1141 12.6968 44.4102 14.6813 44.2436C14.4975 43.8734 14.3506 43.5032 14.2036 43.1329V43.1144Z" fill="white" fill-opacity="0.5"/>
<path d="M40.1667 40.7633C40.0564 40.6338 39.8911 40.5412 39.7257 40.5597C39.1377 40.5597 38.5865 40.5412 38.0536 40.4857C37.8515 40.4857 37.6677 40.4486 37.4656 40.4301C32.9087 39.8933 30.1893 37.7089 28.6642 35.8207C26.4409 33.0624 25.467 29.397 26.0367 25.8797C26.0734 25.6761 26.1102 25.4725 26.1469 25.2874C26.1836 25.1022 26.1469 24.9171 26.0183 24.7875C25.8897 24.658 25.7243 24.5839 25.5405 24.6024C25.2833 24.6394 25.0077 24.6765 24.7504 24.7135C21.443 25.2689 18.4847 26.9905 16.3716 29.6377C14.0748 32.4885 13.0275 36.0798 13.4133 39.7267C13.542 40.9299 13.8176 42.0592 14.2218 43.1329C14.3688 43.5216 14.5342 43.8918 14.6995 44.2436C17.1434 49.3158 22.5455 52.5554 28.4253 51.926C31.3836 51.6113 34.048 50.3525 36.1427 48.4458C38.1271 46.6316 39.5603 44.2436 40.2218 41.5038C40.2402 41.4113 40.2769 41.3372 40.2953 41.2446C40.3321 41.078 40.2953 40.8929 40.1851 40.7633H40.1667ZM14.5158 39.5971C14.1667 36.2464 15.1222 32.9698 17.2169 30.3411C17.6395 29.8228 18.0805 29.3415 18.5582 28.8972C20.3222 27.2867 22.4904 26.2315 24.8607 25.8242C24.2911 29.6006 25.3568 33.5622 27.7639 36.5241C29.6013 38.8011 33.0374 41.5038 38.9723 41.6704C37.5942 46.6131 33.3681 50.2229 28.26 50.7783C21.4063 51.5188 15.2324 46.4835 14.4974 39.5786L14.5158 39.5971Z" fill="white" fill-opacity="0.5"/>
</g>
<defs>
<clipPath id="clip0_0_877">
<rect width="52" height="52" fill="white"/>
</clipPath>
</defs>
</svg>
