<svg width="375" height="113" viewBox="0 0 375 113" fill="none" xmlns="http://www.w3.org/2000/svg">
<path d="M-3.40195 92.629V92.6428C-29.1948 92.6428 -50.1735 85.821 -50.1735 77.4387C-50.1735 69.0565 -29.2706 58.2438 -3.36063 58.2438C38.6794 58.0781 63.7353 50.1516 63.7353 38.6277C63.7353 27.1039 39.1133 15 -4.59345 15V16.45C35.4768 16.45 57.2062 28.5814 57.2062 38.6208C57.2062 48.6602 35.7316 57.1045 -3.36752 57.2772V57.2565C-30.6481 57.2565 -51.854 68.5041 -51.854 77.4387C-51.854 86.3734 -30.5723 93.9685 -3.40884 93.9685V93.9478H148.752V92.629H-3.40884H-3.40195Z" fill="#D4B682"/>
<path d="M218.451 98.6013H-3.19562C-28.4857 98.5461 -60.2981 89.2248 -60.2981 77.7838C-60.2981 66.3428 -34.9523 52.6509 -2.91324 52.6716V52.6509C23.9197 52.6509 47.1849 45.8981 47.1849 36.9014C47.1849 27.9046 24.1951 18.5005 -3.56065 18.5005V19.6329C21.8879 19.6329 40.4078 29.0853 40.4078 36.9083C40.4078 44.7313 22.4373 50.4467 -2.96146 51.4426C-35.1641 51.4426 -67.0752 65.0931 -67.0752 77.7907C-67.0752 90.4884 -30.1318 100.348 -2.96146 100.348V100.334H218.451V98.6082V98.6013Z" fill="#D4B682"/>
<g filter="url(#filter0_d_0_2228)">
<path d="M375.572 105.831H-2.35509C-39.6109 105.831 -77.0959 93.6923 -77.0959 78.8749C-77.0959 64.8516 -46.3875 46.5276 -5.88138 45.6567C27.7319 45.6567 31.9574 40.8717 31.9574 35.0925C31.9574 29.3134 23.0452 22.0151 -8.16796 22.0151V22.8644C21.4749 22.8644 30.0427 29.8726 30.0427 35.0925C30.0427 40.3125 22.2878 43.2635 -2.12767 43.9885C-53.3759 43.9885 -92 62.435 -92 78.8749C-92 95.3149 -53.1642 112.583 -1.92809 112.597V112.583H375.572V105.831Z" fill="url(#paint0_linear_0_2228)"/>
</g>
<defs>
<filter id="filter0_d_0_2228" x="-127.5" y="-9.48486" width="538.572" height="161.582" filterUnits="userSpaceOnUse" color-interpolation-filters="sRGB">
<feFlood flood-opacity="0" result="BackgroundImageFix"/>
<feColorMatrix in="SourceAlpha" type="matrix" values="0 0 0 0 0 0 0 0 0 0 0 0 0 0 0 0 0 0 127 0" result="hardAlpha"/>
<feOffset dy="4"/>
<feGaussianBlur stdDeviation="17.75"/>
<feComposite in2="hardAlpha" operator="out"/>
<feColorMatrix type="matrix" values="0 0 0 0 0 0 0 0 0 0 0 0 0 0 0 0 0 0 0.4 0"/>
<feBlend mode="normal" in2="BackgroundImageFix" result="effect1_dropShadow_0_2228"/>
<feBlend mode="normal" in="SourceGraphic" in2="effect1_dropShadow_0_2228" result="shape"/>
</filter>
<linearGradient id="paint0_linear_0_2228" x1="375.572" y1="78.2696" x2="54.2814" y2="-134.413" gradientUnits="userSpaceOnUse">
<stop stop-color="#BB8535"/>
<stop offset="1" stop-color="#FFF1DA"/>
</linearGradient>
</defs>
</svg>
