<svg width="1440" height="231" viewBox="0 0 1440 231" fill="none" xmlns="http://www.w3.org/2000/svg">
<path d="M1391.51 183.438V183.471C1452.41 183.471 1501.94 167.351 1501.94 147.544C1501.94 127.736 1452.59 102.186 1391.41 102.186C1292.15 101.794 1232.99 83.0637 1232.99 55.8326C1232.99 28.6016 1291.13 0 1394.32 0V3.42632C1299.71 3.42632 1248.41 32.0932 1248.41 55.8163C1248.41 79.5395 1299.11 99.4937 1391.43 99.9016V99.8526C1455.84 99.8526 1505.91 126.431 1505.91 147.544C1505.91 168.656 1455.66 186.604 1391.53 186.604V186.555H1032.27V183.438H1391.53H1391.51Z" fill="#C4934A"/>
<path d="M867.701 197.551H1391.02C1450.73 197.421 1525.84 175.395 1525.84 148.359C1525.84 121.324 1466 88.9699 1390.35 89.0188V88.9699C1327 88.9699 1272.07 73.013 1272.07 51.7536C1272.07 30.4941 1326.35 8.27197 1391.88 8.27197V10.9478C1331.8 10.9478 1288.07 33.2841 1288.07 51.7699C1288.07 70.2557 1330.5 83.7613 1390.47 86.1146C1466.5 86.1146 1541.84 118.371 1541.84 148.376C1541.84 178.38 1454.62 201.679 1390.47 201.679V201.647H867.701V197.568V197.551Z" fill="#D4B682"/>
<g filter="url(#filter0_d_0_1145)">
<path d="M-21.5934 214.634H1389.04C1477 214.634 1565.5 185.951 1565.5 150.937C1565.5 117.8 1493 74.5 1397.36 72.4419C1318 72.4419 1308.02 61.1351 1308.02 47.4788C1308.02 33.8225 1329.07 16.5767 1402.76 16.5767V18.5835C1332.77 18.5835 1312.54 35.144 1312.54 47.4788C1312.54 59.8135 1330.85 66.7868 1388.5 68.5C1509.5 68.5 1600.69 112.089 1600.69 150.937C1600.69 189.785 1509 230.591 1388.03 230.624V230.591H-21.5934V214.634Z" fill="url(#paint0_linear_0_1145)"/>
</g>
<defs>
<filter id="filter0_d_0_1145" x="-57.0934" y="-14.9233" width="1693.29" height="285.047" filterUnits="userSpaceOnUse" color-interpolation-filters="sRGB">
<feFlood flood-opacity="0" result="BackgroundImageFix"/>
<feColorMatrix in="SourceAlpha" type="matrix" values="0 0 0 0 0 0 0 0 0 0 0 0 0 0 0 0 0 0 127 0" result="hardAlpha"/>
<feOffset dy="4"/>
<feGaussianBlur stdDeviation="17.75"/>
<feComposite in2="hardAlpha" operator="out"/>
<feColorMatrix type="matrix" values="0 0 0 0 0 0 0 0 0 0 0 0 0 0 0 0 0 0 0.4 0"/>
<feBlend mode="normal" in2="BackgroundImageFix" result="effect1_dropShadow_0_1145"/>
<feBlend mode="normal" in="SourceGraphic" in2="effect1_dropShadow_0_1145" result="shape"/>
</filter>
<linearGradient id="paint0_linear_0_1145" x1="-21.5934" y1="149.507" x2="802.816" y2="-651.782" gradientUnits="userSpaceOnUse">
<stop stop-color="#BB8535"/>
<stop offset="1" stop-color="#FFF1DA"/>
</linearGradient>
</defs>
</svg>
