<svg width="375" height="113" viewBox="0 0 375 113" fill="none" xmlns="http://www.w3.org/2000/svg">
<path d="M351.259 89.7339V89.7499C381.074 89.7499 405.324 81.8644 405.324 72.175C405.324 62.4857 381.162 49.987 351.212 49.987C302.616 49.7954 273.653 40.6329 273.653 27.3121C273.653 13.9912 302.115 0 352.637 0V1.67608C306.318 1.67608 281.201 15.6992 281.201 27.3041C281.201 38.9089 306.024 48.6701 351.22 48.8696V48.8457C382.754 48.8457 407.267 61.8472 407.267 72.175C407.267 82.5029 382.667 91.2823 351.267 91.2823V91.2584H175.38V89.7339H351.267H351.259Z" fill="#C4934A"/>
<path d="M94.8118 96.6377H351.021C380.254 96.5738 417.027 85.799 417.027 72.574C417.027 59.3489 387.729 43.522 350.694 43.5459V43.522C319.677 43.522 292.784 35.7163 292.784 25.3166C292.784 14.9169 319.359 4.04639 351.442 4.04639V5.35532C322.026 5.35532 300.618 16.2817 300.618 25.3246C300.618 34.3674 321.391 40.9741 350.75 42.1253C387.974 42.1253 424.861 57.9043 424.861 72.582C424.861 87.2596 382.157 98.6569 350.75 98.6569V98.641H94.8118V96.6456V96.6377Z" fill="#D4B682"/>
<g filter="url(#filter0_d_0_2041)">
<path d="M-0.57196 104.994H350.049C393.115 104.994 436.445 90.963 436.445 73.835C436.445 57.625 400.948 36.4437 354.125 35.4369C315.271 35.4369 310.386 29.9059 310.386 23.2255C310.386 16.5451 320.688 8.10889 356.769 8.10889V9.09059C322.503 9.09059 312.6 17.1916 312.6 23.2255C312.6 29.2594 321.564 32.6706 349.786 33.5086C409.026 33.5086 453.673 54.8315 453.673 73.835C453.673 92.8386 408.781 112.8 349.556 112.816V112.8H-0.57196V104.994Z" fill="url(#paint0_linear_0_2041)"/>
</g>
<defs>
<filter id="filter0_d_0_2041" x="-36.072" y="-23.3911" width="525.245" height="175.707" filterUnits="userSpaceOnUse" color-interpolation-filters="sRGB">
<feFlood flood-opacity="0" result="BackgroundImageFix"/>
<feColorMatrix in="SourceAlpha" type="matrix" values="0 0 0 0 0 0 0 0 0 0 0 0 0 0 0 0 0 0 127 0" result="hardAlpha"/>
<feOffset dy="4"/>
<feGaussianBlur stdDeviation="17.75"/>
<feComposite in2="hardAlpha" operator="out"/>
<feColorMatrix type="matrix" values="0 0 0 0 0 0 0 0 0 0 0 0 0 0 0 0 0 0 0.4 0"/>
<feBlend mode="normal" in2="BackgroundImageFix" result="effect1_dropShadow_0_2041"/>
<feBlend mode="normal" in="SourceGraphic" in2="effect1_dropShadow_0_2041" result="shape"/>
</filter>
<linearGradient id="paint0_linear_0_2041" x1="-0.571977" y1="73.1353" x2="342.232" y2="-117.581" gradientUnits="userSpaceOnUse">
<stop stop-color="#BB8535"/>
<stop offset="1" stop-color="#FFF1DA"/>
</linearGradient>
</defs>
</svg>
