<svg width="1440" height="222" viewBox="0 0 1440 222" fill="none" xmlns="http://www.w3.org/2000/svg">
<path d="M72.5295 176.338V176.369C13.9291 176.369 -33.7336 160.873 -33.7336 141.832C-33.7336 122.792 13.7569 98.2302 72.6233 98.2302C168.136 97.8538 225.063 79.8483 225.063 53.6714C225.063 27.4944 169.122 0 69.8224 0V3.29368C160.86 3.29368 210.229 30.8508 210.229 53.6557C210.229 76.4605 161.439 95.6423 72.6077 96.0344V95.9874C10.6274 95.9874 -37.5516 121.537 -37.5516 141.832C-37.5516 162.128 10.7996 179.38 72.5138 179.38V179.333H418.217V176.338H72.5138H72.5295Z" fill="#D4B682"/>
<path d="M576.571 189.904H72.9989C15.5407 189.779 -56.7357 168.605 -56.7357 142.616C-56.7357 116.628 0.849022 85.5258 73.6404 85.5728V85.5258C134.604 85.5258 187.461 70.1866 187.461 49.7501C187.461 29.3136 135.229 7.95166 72.1695 7.95166V10.5239C129.988 10.5239 172.064 31.9956 172.064 49.7658C172.064 67.536 131.236 80.5188 73.5309 82.781C0.367889 82.781 -72.1329 113.789 -72.1329 142.632C-72.1329 171.475 11.801 193.872 73.5309 193.872V193.841H576.571V189.92V189.904Z" fill="#D4B682"/>
<g filter="url(#filter0_d_0_731)">
<path d="M1440.57 206.326H74.9079C-9.73579 206.326 -94.9002 178.753 -94.9002 145.095C-94.9002 113.24 -25.132 71.6162 66.8963 69.6378C143.264 69.6378 152.864 58.7686 152.864 45.641C152.864 32.5133 132.616 15.9351 61.7013 15.9351V17.8642C129.049 17.8642 148.514 33.7837 148.514 45.641C148.514 57.4982 130.895 64.2016 75.4246 65.8485C-41.0094 65.8485 -128.762 107.75 -128.762 145.095C-128.762 182.439 -40.5283 221.665 75.878 221.696V221.665H1440.57V206.326Z" fill="url(#paint0_linear_0_731)"/>
</g>
<defs>
<filter id="filter0_d_0_731" x="-164.262" y="-15.5649" width="1640.33" height="276.761" filterUnits="userSpaceOnUse" color-interpolation-filters="sRGB">
<feFlood flood-opacity="0" result="BackgroundImageFix"/>
<feColorMatrix in="SourceAlpha" type="matrix" values="0 0 0 0 0 0 0 0 0 0 0 0 0 0 0 0 0 0 127 0" result="hardAlpha"/>
<feOffset dy="4"/>
<feGaussianBlur stdDeviation="17.75"/>
<feComposite in2="hardAlpha" operator="out"/>
<feColorMatrix type="matrix" values="0 0 0 0 0 0 0 0 0 0 0 0 0 0 0 0 0 0 0.4 0"/>
<feBlend mode="normal" in2="BackgroundImageFix" result="effect1_dropShadow_0_731"/>
<feBlend mode="normal" in="SourceGraphic" in2="effect1_dropShadow_0_731" result="shape"/>
</filter>
<linearGradient id="paint0_linear_0_731" x1="1440.57" y1="143.719" x2="647.948" y2="-631.537" gradientUnits="userSpaceOnUse">
<stop stop-color="#BB8535"/>
<stop offset="1" stop-color="#FFF1DA"/>
</linearGradient>
</defs>
</svg>
